<svg width="16" height="16" viewBox="0 0 16 16" fill="none" xmlns="http://www.w3.org/2000/svg">
<g id="wrapper">
<g id="Union">
<path d="M5.50195 9.51198C5.57795 10.466 6.33195 11.209 7.68395 11.297V12.001H8.28395V11.292C9.68395 11.194 10.502 10.446 10.502 9.35998C10.502 8.37298 9.87595 7.86398 8.75695 7.59998L8.28395 7.48798V5.57098C8.88395 5.63898 9.26595 5.96698 9.35795 6.42098H10.41C10.334 5.50198 9.54595 4.78298 8.28395 4.70498V4.00098H7.68395V4.71998C6.48895 4.83698 5.67395 5.55598 5.67395 6.57298C5.67395 7.47298 6.27995 8.04498 7.28695 8.27998L7.68395 8.37798V10.412C7.06895 10.319 6.66195 9.98198 6.56995 9.51198H5.50195ZM7.67895 7.34598C7.08895 7.20898 6.76895 6.92998 6.76895 6.50998C6.76895 6.03998 7.11395 5.68798 7.68395 5.58498V7.34498L7.67895 7.34598ZM8.37095 8.53898C9.08795 8.70498 9.41895 8.97398 9.41895 9.44898C9.41895 9.99098 9.00695 10.363 8.28395 10.431V8.51898L8.37095 8.53898Z" fill="#495057"/>
<path d="M8.00195 15.001C6.14544 15.001 4.36496 14.2635 3.05221 12.9507C1.73945 11.638 1.00195 9.85749 1.00195 8.00098C1.00195 6.14446 1.73945 4.36398 3.05221 3.05123C4.36496 1.73847 6.14544 1.00098 8.00195 1.00098C9.85847 1.00098 11.6389 1.73847 12.9517 3.05123C14.2645 4.36398 15.002 6.14446 15.002 8.00098C15.002 9.85749 14.2645 11.638 12.9517 12.9507C11.6389 14.2635 9.85847 15.001 8.00195 15.001ZM8.00195 16.001C10.1237 16.001 12.1585 15.1581 13.6588 13.6578C15.1591 12.1575 16.002 10.1227 16.002 8.00098C16.002 5.87924 15.1591 3.84441 13.6588 2.34412C12.1585 0.843831 10.1237 0.000976563 8.00195 0.000976562C5.88022 0.000976563 3.84539 0.843831 2.3451 2.34412C0.844808 3.84441 0.00195313 5.87924 0.00195312 8.00098C0.00195313 10.1227 0.844808 12.1575 2.3451 13.6578C3.84539 15.1581 5.88022 16.001 8.00195 16.001Z" fill="#495057"/>
<path d="M8.00195 13.501C6.54326 13.501 5.14432 12.9215 4.11287 11.8901C3.08142 10.8586 2.50195 9.45967 2.50195 8.00098C2.50195 6.54229 3.08142 5.14334 4.11287 4.11189C5.14432 3.08044 6.54326 2.50098 8.00195 2.50098C9.46064 2.50098 10.8596 3.08044 11.891 4.11189C12.9225 5.14334 13.502 6.54229 13.502 8.00098C13.502 9.45967 12.9225 10.8586 11.891 11.8901C10.8596 12.9215 9.46064 13.501 8.00195 13.501ZM8.00195 14.001C8.78988 14.001 9.5701 13.8458 10.2981 13.5443C11.026 13.2427 11.6874 12.8008 12.2446 12.2436C12.8017 11.6865 13.2437 11.025 13.5452 10.2971C13.8468 9.56912 14.002 8.78891 14.002 8.00098C14.002 7.21305 13.8468 6.43283 13.5452 5.70488C13.2437 4.97692 12.8017 4.31549 12.2446 3.75834C11.6874 3.20118 11.026 2.75923 10.2981 2.4577C9.5701 2.15617 8.78988 2.00098 8.00195 2.00098C6.41065 2.00098 4.88453 2.63312 3.75931 3.75834C2.63409 4.88355 2.00195 6.40968 2.00195 8.00098C2.00195 9.59228 2.63409 11.1184 3.75931 12.2436C4.88453 13.3688 6.41065 14.001 8.00195 14.001Z" fill="#495057"/>
</g>
</g>
</svg>
