<svg width="16" height="16" viewBox="0 0 16 16" fill="none" xmlns="http://www.w3.org/2000/svg">
<g id="wrapper">
<g id="Union">
<path d="M8.00196 4.00063C8.13457 4.00063 8.26174 4.05331 8.35551 4.14708C8.44928 4.24084 8.50196 4.36802 8.50196 4.50063V6.00063C8.50196 6.13324 8.44928 6.26041 8.35551 6.35418C8.26174 6.44795 8.13457 6.50063 8.00196 6.50063C7.86935 6.50063 7.74217 6.44795 7.64841 6.35418C7.55464 6.26041 7.50196 6.13324 7.50196 6.00063V4.50063C7.50196 4.36802 7.55464 4.24084 7.64841 4.14708C7.74217 4.05331 7.86935 4.00063 8.00196 4.00063ZM3.73396 5.73263C3.82772 5.63889 3.95488 5.58624 4.08746 5.58624C4.22004 5.58624 4.34719 5.63889 4.44096 5.73263L5.35596 6.64663C5.40245 6.69312 5.43932 6.74831 5.46448 6.80905C5.48964 6.86978 5.50259 6.93489 5.50259 7.00063C5.50259 7.06637 5.48964 7.13147 5.46448 7.19221C5.43932 7.25295 5.40245 7.30814 5.35596 7.35463C5.30947 7.40112 5.25428 7.43799 5.19354 7.46315C5.1328 7.48831 5.0677 7.50126 5.00196 7.50126C4.93621 7.50126 4.87111 7.48831 4.81037 7.46315C4.74964 7.43799 4.69445 7.40112 4.64796 7.35463L3.73396 6.43963C3.64022 6.34587 3.58757 6.21871 3.58757 6.08613C3.58757 5.95355 3.64022 5.82639 3.73396 5.73263ZM2.00196 10.0006C2.00196 9.86802 2.05464 9.74084 2.14841 9.64708C2.24217 9.55331 2.36935 9.50063 2.50196 9.50063H4.08796C4.22057 9.50063 4.34774 9.55331 4.44151 9.64708C4.53528 9.74084 4.58796 9.86802 4.58796 10.0006C4.58796 10.1332 4.53528 10.2604 4.44151 10.3542C4.34774 10.448 4.22057 10.5006 4.08796 10.5006H2.50196C2.36935 10.5006 2.24217 10.448 2.14841 10.3542C2.05464 10.2604 2.00196 10.1332 2.00196 10.0006ZM11.502 10.0006C11.502 9.86802 11.5546 9.74084 11.6484 9.64708C11.7422 9.55331 11.8694 9.50063 12.002 9.50063H13.502C13.6346 9.50063 13.7617 9.55331 13.8555 9.64708C13.9493 9.74084 14.002 9.86802 14.002 10.0006C14.002 10.1332 13.9493 10.2604 13.8555 10.3542C13.7617 10.448 13.6346 10.5006 13.502 10.5006H12.002C11.8694 10.5006 11.7422 10.448 11.6484 10.3542C11.5546 10.2604 11.502 10.1332 11.502 10.0006ZM12.256 5.75463C12.1867 5.68572 12.094 5.6454 11.9964 5.64169C11.8987 5.63798 11.8033 5.67116 11.729 5.73463L7.54896 9.31063C7.45157 9.39269 7.37248 9.49427 7.31682 9.60881C7.26116 9.72336 7.23016 9.84831 7.22583 9.97558C7.2215 10.1029 7.24393 10.2296 7.29167 10.3477C7.33941 10.4658 7.4114 10.5725 7.50299 10.661C7.59457 10.7495 7.70371 10.8177 7.82335 10.8614C7.94298 10.9051 8.07045 10.9231 8.1975 10.9144C8.32455 10.9057 8.44836 10.8704 8.56093 10.8109C8.67349 10.7513 8.7723 10.6688 8.85096 10.5686L12.285 6.27163C12.3447 6.19684 12.3748 6.10266 12.3694 6.00709C12.3641 5.91152 12.3237 5.82128 12.256 5.75363V5.75463Z" fill="#495057"/>
<path fill-rule="evenodd" clip-rule="evenodd" d="M0.00195843 10.0006C0.0030038 8.83643 0.258131 7.68649 0.74953 6.63108C1.24093 5.57567 1.95676 4.64023 2.84704 3.89006C3.73733 3.13989 4.78062 2.59307 5.90407 2.28778C7.02753 1.98249 8.20408 1.92607 9.3516 2.12248C10.4991 2.31889 11.5899 2.76338 12.5479 3.42493C13.5059 4.08648 14.3079 4.94914 14.898 5.95269C15.4882 6.95624 15.8521 8.0765 15.9646 9.23526C16.077 10.394 15.9352 11.5634 15.549 12.6616C15.107 13.9146 13.704 14.2636 12.617 13.9116C11.311 13.4886 9.47696 13.0006 8.00196 13.0006C6.52796 13.0006 4.69196 13.4886 3.38696 13.9116C2.29996 14.2636 0.896958 13.9146 0.454958 12.6616C0.1541 11.8067 0.000913703 10.9069 0.00195843 10.0006ZM8.00196 3.00063C6.88233 3.00034 5.77897 3.26862 4.78447 3.78296C3.78997 4.2973 2.93336 5.04269 2.28652 5.95656C1.63969 6.87044 1.2215 7.92614 1.06707 9.03507C0.912627 10.144 1.02644 11.2738 1.39896 12.3296C1.60196 12.9046 2.32196 13.2056 3.07896 12.9596C4.39896 12.5336 6.35996 12.0006 8.00196 12.0006C9.64396 12.0006 11.606 12.5326 12.925 12.9606C13.682 13.2056 14.402 12.9046 14.605 12.3296C14.9775 11.2738 15.0913 10.144 14.9369 9.03507C14.7824 7.92614 14.3642 6.87044 13.7174 5.95656C13.0706 5.04269 12.2139 4.2973 11.2194 3.78296C10.225 3.26862 9.12159 3.00034 8.00196 3.00063Z" fill="#495057"/>
</g>
</g>
</svg>
