<svg width="16" height="16" viewBox="0 0 16 16" fill="none" xmlns="http://www.w3.org/2000/svg">
<g id="wrapper">
<g id="Union">
<path d="M3.00195 14.501C2.60413 14.501 2.2226 14.3429 1.94129 14.0616C1.65999 13.7803 1.50195 13.3988 1.50195 13.001V3.00098C1.50195 2.60315 1.65999 2.22162 1.94129 1.94032C2.2226 1.65901 2.60413 1.50098 3.00195 1.50098H11.002C11.1346 1.50098 11.2617 1.55365 11.3555 1.64742C11.4493 1.74119 11.502 1.86837 11.502 2.00098C11.502 2.13358 11.4493 2.26076 11.3555 2.35453C11.2617 2.4483 11.1346 2.50098 11.002 2.50098H3.00195C2.86934 2.50098 2.74217 2.55366 2.6484 2.64742C2.55463 2.74119 2.50195 2.86837 2.50195 3.00098V13.001C2.50195 13.1336 2.55463 13.2608 2.6484 13.3545C2.74217 13.4483 2.86934 13.501 3.00195 13.501H13.002C13.1346 13.501 13.2617 13.4483 13.3555 13.3545C13.4493 13.2608 13.502 13.1336 13.502 13.001V8.00098C13.502 7.86837 13.5546 7.74119 13.6484 7.64742C13.7422 7.55366 13.8693 7.50098 14.002 7.50098C14.1346 7.50098 14.2617 7.55366 14.3555 7.64742C14.4493 7.74119 14.502 7.86837 14.502 8.00098V13.001C14.502 13.3988 14.3439 13.7803 14.0626 14.0616C13.7813 14.3429 13.3998 14.501 13.002 14.501H3.00195Z" fill="#495057"/>
<path d="M8.35595 10.355L15.356 3.35498C15.4024 3.30849 15.4393 3.2533 15.4645 3.19256C15.4896 3.13182 15.5026 3.06672 15.5026 3.00098C15.5026 2.93523 15.4896 2.87013 15.4645 2.80939C15.4393 2.74865 15.4024 2.69346 15.356 2.64698C15.3095 2.60049 15.2543 2.56361 15.1935 2.53845C15.1328 2.51329 15.0677 2.50034 15.002 2.50034C14.9362 2.50034 14.8711 2.51329 14.8104 2.53845C14.7496 2.56361 14.6944 2.60049 14.648 2.64698L8.00195 9.29398L5.35595 6.64698C5.30947 6.60049 5.25428 6.56361 5.19354 6.53845C5.1328 6.51329 5.0677 6.50034 5.00195 6.50034C4.93621 6.50034 4.87111 6.51329 4.81037 6.53845C4.74963 6.56361 4.69444 6.60049 4.64795 6.64698C4.60146 6.69346 4.56459 6.74865 4.53943 6.80939C4.51427 6.87013 4.50132 6.93523 4.50132 7.00098C4.50132 7.06672 4.51427 7.13182 4.53943 7.19256C4.56459 7.2533 4.60146 7.30849 4.64795 7.35498L7.64795 10.355C7.6944 10.4015 7.74957 10.4385 7.81032 10.4637C7.87106 10.4889 7.93619 10.5019 8.00195 10.5019C8.06772 10.5019 8.13284 10.4889 8.19359 10.4637C8.25433 10.4385 8.30951 10.4015 8.35595 10.355Z" fill="#495057"/>
</g>
</g>
</svg>
