<svg width="92" height="41" viewBox="0 0 92 41" fill="none" xmlns="http://www.w3.org/2000/svg">
<g clip-path="url(#clip0_407_18054)">
<rect width="14" height="14" transform="translate(16 13)" fill="white" fill-opacity="0.01"/>
<g clip-path="url(#clip1_407_18054)">
<path d="M16.875 12.9988L16 13.8738L17.925 16.5697C18.006 16.6832 18.113 16.7757 18.2371 16.8395C18.3611 16.9033 18.4986 16.9365 18.6381 16.9363H18.6994C18.8144 16.9362 18.9284 16.9588 19.0347 17.0028C19.141 17.0468 19.2375 17.1113 19.3189 17.1927L21.6595 19.5333L19.3696 21.8556C18.978 21.7403 18.5648 21.7178 18.163 21.79C17.7612 21.8622 17.3817 22.0271 17.0546 22.2715C16.7276 22.5159 16.462 22.8331 16.279 23.1981C16.0959 23.563 16.0004 23.9656 16 24.3738C16.0005 24.75 16.0819 25.1217 16.2386 25.4637C16.3953 25.8057 16.6237 26.11 16.9083 26.356C17.1929 26.6021 17.5271 26.784 17.8882 26.8896C18.2492 26.9952 18.6288 27.022 19.0011 26.9681C19.3734 26.9142 19.7298 26.7809 20.0461 26.5772C20.3624 26.3736 20.6312 26.1043 20.8344 25.7876C21.0375 25.471 21.1702 25.1144 21.2235 24.742C21.2768 24.3696 21.2494 23.9901 21.1432 23.6292L23.4655 21.3393L24.3125 22.1863L24.0456 22.9861C23.9943 23.1402 23.987 23.3056 24.0244 23.4637C24.0618 23.6218 24.1425 23.7664 24.2574 23.8812L27.1939 26.8177C27.358 26.9817 27.5805 27.0739 27.8125 27.0739C28.0445 27.0739 28.267 26.9817 28.4311 26.8177L29.8189 25.43C29.9829 25.2659 30.0751 25.0433 30.0751 24.8113C30.0751 24.5793 29.9829 24.3568 29.8189 24.1927L26.8824 21.2562C26.7675 21.1413 26.623 21.0606 26.4649 21.0232C26.3068 20.9858 26.1414 20.9932 25.9872 21.0445L25.1875 21.3113L24.3475 20.4713L26.6925 18.1587C27.0815 18.2625 27.4892 18.2757 27.8841 18.197C28.2789 18.1184 28.6505 17.9502 28.9701 17.7052C29.2897 17.4603 29.5487 17.1453 29.7273 16.7844C29.9058 16.4235 29.9992 16.0265 30 15.6238C30 15.3885 29.9694 15.1601 29.9107 14.944L28.0382 16.8173L26.5 16.4988L26.1815 14.9615L28.0549 13.0881C27.6092 12.9683 27.1399 12.968 26.6941 13.0874C26.2484 13.2068 25.842 13.4416 25.5159 13.7682C25.1898 14.0947 24.9555 14.5014 24.8368 14.9473C24.718 15.3932 24.7188 15.8626 24.8393 16.3081L22.5293 18.6513L20.1939 16.3177C20.0298 16.1536 19.9375 15.9311 19.9375 15.6991V15.637C19.9375 15.4976 19.9043 15.3603 19.8405 15.2364C19.7767 15.1125 19.6843 15.0057 19.5709 14.9247L16.875 12.9988ZM25.3153 22.3141C25.3559 22.2733 25.4042 22.241 25.4573 22.219C25.5105 22.1969 25.5675 22.1855 25.625 22.1855C25.6825 22.1855 25.7395 22.1969 25.7927 22.219C25.8458 22.241 25.8941 22.2733 25.9347 22.3141L28.5597 24.9391C28.6004 24.9798 28.6327 25.028 28.6547 25.0812C28.6767 25.1343 28.6881 25.1913 28.6881 25.2488C28.6881 25.3064 28.6767 25.3633 28.6547 25.4165C28.6327 25.4696 28.6004 25.5179 28.5597 25.5586C28.5191 25.5993 28.4708 25.6315 28.4176 25.6535C28.3645 25.6756 28.3075 25.6869 28.25 25.6869C28.1925 25.6869 28.1355 25.6756 28.0824 25.6535C28.0292 25.6315 27.9809 25.5993 27.9403 25.5586L25.3153 22.9336C25.2745 22.8929 25.2422 22.8447 25.2201 22.7915C25.1981 22.7384 25.1867 22.6814 25.1867 22.6238C25.1867 22.5663 25.1981 22.5093 25.2201 22.4561C25.2422 22.403 25.2745 22.3547 25.3153 22.3141ZM18.625 22.6238L19.0371 22.8356L19.5 22.8583L19.7511 23.2477L20.1405 23.4988L20.1632 23.9617L20.375 24.3738L20.1632 24.786L20.1405 25.2488L19.7511 25.5L19.5 25.8893L19.0371 25.9121L18.625 26.1238L18.2129 25.9121L17.75 25.8893L17.4989 25.5L17.1095 25.2488L17.0868 24.786L16.875 24.3738L17.0868 23.9617L17.1095 23.4988L17.4989 23.2477L17.75 22.8583L18.2129 22.8356L18.625 22.6238Z" fill="#495057"/>
</g>
</g>
<g clip-path="url(#clip2_407_18054)">
<rect width="38" height="24" transform="translate(38 8)" fill="white" fill-opacity="0.01"/>
<path d="M41.744 26V15.728H43.088V26H41.744ZM38.176 16.032V14.8H46.656V16.032H38.176ZM50.5477 26.192C49.7691 26.192 49.0758 26.016 48.4678 25.664C47.8598 25.3013 47.3851 24.8053 47.0438 24.176C46.7024 23.5467 46.5318 22.8213 46.5318 22C46.5318 21.1787 46.6971 20.4533 47.0278 19.824C47.3691 19.1947 47.8438 18.704 48.4518 18.352C49.0598 17.9893 49.7478 17.808 50.5158 17.808C51.3051 17.808 51.9984 17.9893 52.5958 18.352C53.2038 18.704 53.6731 19.1947 54.0038 19.824C54.3451 20.4533 54.5158 21.1787 54.5158 22C54.5158 22.8213 54.3451 23.5467 54.0038 24.176C53.6731 24.8053 53.2091 25.3013 52.6118 25.664C52.0144 26.016 51.3264 26.192 50.5477 26.192ZM50.5477 24.976C51.0704 24.976 51.5291 24.8533 51.9238 24.608C52.3184 24.352 52.6278 24 52.8518 23.552C53.0758 23.104 53.1878 22.5867 53.1878 22C53.1878 21.4133 53.0704 20.896 52.8358 20.448C52.6118 20 52.2971 19.6533 51.8918 19.408C51.4971 19.152 51.0384 19.024 50.5158 19.024C49.9931 19.024 49.5344 19.152 49.1398 19.408C48.7451 19.6533 48.4304 20 48.1957 20.448C47.9718 20.896 47.8598 21.4133 47.8598 22C47.8598 22.5867 47.9718 23.104 48.1957 23.552C48.4304 24 48.7504 24.352 49.1558 24.608C49.5611 24.8533 50.0251 24.976 50.5477 24.976ZM59.9071 26.192C59.1285 26.192 58.4351 26.016 57.8271 25.664C57.2191 25.3013 56.7445 24.8053 56.4031 24.176C56.0618 23.5467 55.8911 22.8213 55.8911 22C55.8911 21.1787 56.0565 20.4533 56.3871 19.824C56.7285 19.1947 57.2031 18.704 57.8111 18.352C58.4191 17.9893 59.1071 17.808 59.8751 17.808C60.6645 17.808 61.3578 17.9893 61.9551 18.352C62.5631 18.704 63.0325 19.1947 63.3631 19.824C63.7045 20.4533 63.8751 21.1787 63.8751 22C63.8751 22.8213 63.7045 23.5467 63.3631 24.176C63.0325 24.8053 62.5685 25.3013 61.9711 25.664C61.3738 26.016 60.6858 26.192 59.9071 26.192ZM59.9071 24.976C60.4298 24.976 60.8885 24.8533 61.2831 24.608C61.6778 24.352 61.9871 24 62.2111 23.552C62.4351 23.104 62.5471 22.5867 62.5471 22C62.5471 21.4133 62.4298 20.896 62.1951 20.448C61.9711 20 61.6565 19.6533 61.2511 19.408C60.8565 19.152 60.3978 19.024 59.8751 19.024C59.3525 19.024 58.8938 19.152 58.4991 19.408C58.1045 19.6533 57.7898 20 57.5551 20.448C57.3311 20.896 57.2191 21.4133 57.2191 22C57.2191 22.5867 57.3311 23.104 57.5551 23.552C57.7898 24 58.1098 24.352 58.5151 24.608C58.9205 24.8533 59.3845 24.976 59.9071 24.976ZM65.6825 26L65.7145 14.8H66.9945L66.9625 26H65.6825ZM72.0294 26.192C71.4427 26.192 70.9307 26.1067 70.4934 25.936C70.056 25.7547 69.688 25.52 69.3894 25.232C69.1014 24.944 68.8934 24.6293 68.7654 24.288L69.8854 23.824C70.0667 24.176 70.3387 24.464 70.7014 24.688C71.064 24.912 71.464 25.024 71.9014 25.024C72.4027 25.024 72.8187 24.928 73.1494 24.736C73.4907 24.5333 73.6614 24.256 73.6614 23.904C73.6614 23.5733 73.5334 23.3067 73.2774 23.104C73.032 22.9013 72.6694 22.736 72.1894 22.608L71.4214 22.4C70.696 22.208 70.1307 21.92 69.7254 21.536C69.32 21.1413 69.1174 20.6987 69.1174 20.208C69.1174 19.4507 69.3627 18.864 69.8534 18.448C70.3547 18.0213 71.096 17.808 72.0774 17.808C72.5467 17.808 72.9734 17.8773 73.3574 18.016C73.7414 18.1547 74.072 18.352 74.3494 18.608C74.6267 18.8533 74.8294 19.1467 74.9574 19.488L73.8374 19.984C73.6987 19.6213 73.4694 19.3653 73.1494 19.216C72.8294 19.056 72.44 18.976 71.9814 18.976C71.4907 18.976 71.1067 19.0773 70.8294 19.28C70.552 19.4827 70.4134 19.7707 70.4134 20.144C70.4134 20.3573 70.5254 20.56 70.7494 20.752C70.984 20.9333 71.3254 21.0827 71.7734 21.2L72.5734 21.408C73.096 21.536 73.5334 21.728 73.8854 21.984C74.2374 22.2293 74.504 22.512 74.6854 22.832C74.8667 23.152 74.9574 23.4933 74.9574 23.856C74.9574 24.336 74.8294 24.752 74.5734 25.104C74.3174 25.456 73.9707 25.728 73.5334 25.92C73.096 26.1013 72.5947 26.192 72.0294 26.192Z" fill="#495057"/>
</g>
<defs>
<clipPath id="clip0_407_18054">
<rect width="14" height="14" fill="white" transform="translate(16 13)"/>
</clipPath>
<clipPath id="clip1_407_18054">
<rect width="14" height="14" fill="white" transform="translate(16 13)"/>
</clipPath>
<clipPath id="clip2_407_18054">
<rect width="38" height="24" fill="white" transform="translate(38 8)"/>
</clipPath>
</defs>
</svg>
