<svg width="218" height="24" viewBox="0 0 218 24" fill="none" xmlns="http://www.w3.org/2000/svg">
<g clip-path="url(#clip0_1643_65151)">
<rect width="16" height="16" transform="translate(0 4)" fill="white" fill-opacity="0.01"/>
<path d="M14.002 9.00098C14.2672 9.00098 14.5215 9.10633 14.7091 9.29387C14.8966 9.48141 15.002 9.73576 15.002 10.001V15.001C15.002 15.2662 14.8966 15.5205 14.7091 15.7081C14.5215 15.8956 14.2672 16.001 14.002 16.001H2.00195C1.73674 16.001 1.48238 15.8956 1.29485 15.7081C1.10731 15.5205 1.00195 15.2662 1.00195 15.001V10.001C1.00195 9.73576 1.10731 9.48141 1.29485 9.29387C1.48238 9.10633 1.73674 9.00098 2.00195 9.00098H14.002ZM2.00195 8.00098C1.47152 8.00098 0.962812 8.21169 0.58774 8.58676C0.212667 8.96184 0.00195313 9.47054 0.00195312 10.001V15.001C0.00195313 15.5314 0.212667 16.0401 0.58774 16.4152C0.962812 16.7903 1.47152 17.001 2.00195 17.001H14.002C14.5324 17.001 15.0411 16.7903 15.4162 16.4152C15.7912 16.0401 16.002 15.5314 16.002 15.001V10.001C16.002 9.47054 15.7912 8.96184 15.4162 8.58676C15.0411 8.21169 14.5324 8.00098 14.002 8.00098H2.00195Z" fill="#495057"/>
<path d="M13.002 14.251C13.002 14.1847 13.0283 14.1211 13.0752 14.0742C13.1221 14.0273 13.1856 14.001 13.252 14.001H13.752C13.8183 14.001 13.8818 14.0273 13.9287 14.0742C13.9756 14.1211 14.002 14.1847 14.002 14.251V14.751C14.002 14.8173 13.9756 14.8809 13.9287 14.9278C13.8818 14.9746 13.8183 15.001 13.752 15.001H13.252C13.1856 15.001 13.1221 14.9746 13.0752 14.9278C13.0283 14.8809 13.002 14.8173 13.002 14.751V14.251ZM13.002 12.251C13.002 12.1847 13.0283 12.1211 13.0752 12.0742C13.1221 12.0273 13.1856 12.001 13.252 12.001H13.752C13.8183 12.001 13.8818 12.0273 13.9287 12.0742C13.9756 12.1211 14.002 12.1847 14.002 12.251V12.751C14.002 12.8173 13.9756 12.8809 13.9287 12.9278C13.8818 12.9746 13.8183 13.001 13.752 13.001H13.252C13.1856 13.001 13.1221 12.9746 13.0752 12.9278C13.0283 12.8809 13.002 12.8173 13.002 12.751V12.251ZM8.00195 12.251C8.00195 12.1847 8.02829 12.1211 8.07518 12.0742C8.12206 12.0273 8.18565 12.001 8.25195 12.001H8.75195C8.81826 12.001 8.88185 12.0273 8.92873 12.0742C8.97561 12.1211 9.00195 12.1847 9.00195 12.251V12.751C9.00195 12.8173 8.97561 12.8809 8.92873 12.9278C8.88185 12.9746 8.81826 13.001 8.75195 13.001H8.25195C8.18565 13.001 8.12206 12.9746 8.07518 12.9278C8.02829 12.8809 8.00195 12.8173 8.00195 12.751V12.251ZM10.002 12.251C10.002 12.1847 10.0283 12.1211 10.0752 12.0742C10.1221 12.0273 10.1856 12.001 10.252 12.001H11.752C11.8183 12.001 11.8818 12.0273 11.9287 12.0742C11.9756 12.1211 12.002 12.1847 12.002 12.251V12.751C12.002 12.8173 11.9756 12.8809 11.9287 12.9278C11.8818 12.9746 11.8183 13.001 11.752 13.001H10.252C10.1856 13.001 10.1221 12.9746 10.0752 12.9278C10.0283 12.8809 10.002 12.8173 10.002 12.751V12.251ZM11.002 14.251C11.002 14.1847 11.0283 14.1211 11.0752 14.0742C11.1221 14.0273 11.1856 14.001 11.252 14.001H11.752C11.8183 14.001 11.8818 14.0273 11.9287 14.0742C11.9756 14.1211 12.002 14.1847 12.002 14.251V14.751C12.002 14.8173 11.9756 14.8809 11.9287 14.9278C11.8818 14.9746 11.8183 15.001 11.752 15.001H11.252C11.1856 15.001 11.1221 14.9746 11.0752 14.9278C11.0283 14.8809 11.002 14.8173 11.002 14.751V14.251ZM6.00195 12.251C6.00195 12.1847 6.02829 12.1211 6.07518 12.0742C6.12206 12.0273 6.18565 12.001 6.25195 12.001H6.75195C6.81826 12.001 6.88185 12.0273 6.92873 12.0742C6.97561 12.1211 7.00195 12.1847 7.00195 12.251V12.751C7.00195 12.8173 6.97561 12.8809 6.92873 12.9278C6.88185 12.9746 6.81826 13.001 6.75195 13.001H6.25195C6.18565 13.001 6.12206 12.9746 6.07518 12.9278C6.02829 12.8809 6.00195 12.8173 6.00195 12.751V12.251ZM4.00195 12.251C4.00195 12.1847 4.02829 12.1211 4.07518 12.0742C4.12206 12.0273 4.18565 12.001 4.25195 12.001H4.75195C4.81826 12.001 4.88185 12.0273 4.92873 12.0742C4.97561 12.1211 5.00195 12.1847 5.00195 12.251V12.751C5.00195 12.8173 4.97561 12.8809 4.92873 12.9278C4.88185 12.9746 4.81826 13.001 4.75195 13.001H4.25195C4.18565 13.001 4.12206 12.9746 4.07518 12.9278C4.02829 12.8809 4.00195 12.8173 4.00195 12.751V12.251ZM2.00195 12.251C2.00195 12.1847 2.02829 12.1211 2.07518 12.0742C2.12206 12.0273 2.18565 12.001 2.25195 12.001H2.75195C2.81826 12.001 2.88185 12.0273 2.92873 12.0742C2.97561 12.1211 3.00195 12.1847 3.00195 12.251V12.751C3.00195 12.8173 2.97561 12.8809 2.92873 12.9278C2.88185 12.9746 2.81826 13.001 2.75195 13.001H2.25195C2.18565 13.001 2.12206 12.9746 2.07518 12.9278C2.02829 12.8809 2.00195 12.8173 2.00195 12.751V12.251ZM13.002 10.251C13.002 10.1847 13.0283 10.1211 13.0752 10.0742C13.1221 10.0273 13.1856 10.001 13.252 10.001H13.752C13.8183 10.001 13.8818 10.0273 13.9287 10.0742C13.9756 10.1211 14.002 10.1847 14.002 10.251V10.751C14.002 10.8173 13.9756 10.8809 13.9287 10.9278C13.8818 10.9746 13.8183 11.001 13.752 11.001H13.252C13.1856 11.001 13.1221 10.9746 13.0752 10.9278C13.0283 10.8809 13.002 10.8173 13.002 10.751V10.251ZM11.002 10.251C11.002 10.1847 11.0283 10.1211 11.0752 10.0742C11.1221 10.0273 11.1856 10.001 11.252 10.001H11.752C11.8183 10.001 11.8818 10.0273 11.9287 10.0742C11.9756 10.1211 12.002 10.1847 12.002 10.251V10.751C12.002 10.8173 11.9756 10.8809 11.9287 10.9278C11.8818 10.9746 11.8183 11.001 11.752 11.001H11.252C11.1856 11.001 11.1221 10.9746 11.0752 10.9278C11.0283 10.8809 11.002 10.8173 11.002 10.751V10.251ZM9.00195 10.251C9.00195 10.1847 9.02829 10.1211 9.07518 10.0742C9.12206 10.0273 9.18565 10.001 9.25195 10.001H9.75195C9.81826 10.001 9.88185 10.0273 9.92873 10.0742C9.97561 10.1211 10.002 10.1847 10.002 10.251V10.751C10.002 10.8173 9.97561 10.8809 9.92873 10.9278C9.88185 10.9746 9.81826 11.001 9.75195 11.001H9.25195C9.18565 11.001 9.12206 10.9746 9.07518 10.9278C9.02829 10.8809 9.00195 10.8173 9.00195 10.751V10.251ZM7.00195 10.251C7.00195 10.1847 7.02829 10.1211 7.07518 10.0742C7.12206 10.0273 7.18565 10.001 7.25195 10.001H7.75195C7.81826 10.001 7.88185 10.0273 7.92873 10.0742C7.97561 10.1211 8.00195 10.1847 8.00195 10.251V10.751C8.00195 10.8173 7.97561 10.8809 7.92873 10.9278C7.88185 10.9746 7.81826 11.001 7.75195 11.001H7.25195C7.18565 11.001 7.12206 10.9746 7.07518 10.9278C7.02829 10.8809 7.00195 10.8173 7.00195 10.751V10.251ZM5.00195 10.251C5.00195 10.1847 5.02829 10.1211 5.07518 10.0742C5.12206 10.0273 5.18565 10.001 5.25195 10.001H5.75195C5.81826 10.001 5.88185 10.0273 5.92873 10.0742C5.97561 10.1211 6.00195 10.1847 6.00195 10.251V10.751C6.00195 10.8173 5.97561 10.8809 5.92873 10.9278C5.88185 10.9746 5.81826 11.001 5.75195 11.001H5.25195C5.18565 11.001 5.12206 10.9746 5.07518 10.9278C5.02829 10.8809 5.00195 10.8173 5.00195 10.751V10.251ZM2.00195 10.251C2.00195 10.1847 2.02829 10.1211 2.07518 10.0742C2.12206 10.0273 2.18565 10.001 2.25195 10.001H3.75195C3.81826 10.001 3.88185 10.0273 3.92873 10.0742C3.97561 10.1211 4.00195 10.1847 4.00195 10.251V10.751C4.00195 10.8173 3.97561 10.8809 3.92873 10.9278C3.88185 10.9746 3.81826 11.001 3.75195 11.001H2.25195C2.18565 11.001 2.12206 10.9746 2.07518 10.9278C2.02829 10.8809 2.00195 10.8173 2.00195 10.751V10.251ZM2.00195 14.251C2.00195 14.1847 2.02829 14.1211 2.07518 14.0742C2.12206 14.0273 2.18565 14.001 2.25195 14.001H2.75195C2.81826 14.001 2.88185 14.0273 2.92873 14.0742C2.97561 14.1211 3.00195 14.1847 3.00195 14.251V14.751C3.00195 14.8173 2.97561 14.8809 2.92873 14.9278C2.88185 14.9746 2.81826 15.001 2.75195 15.001H2.25195C2.18565 15.001 2.12206 14.9746 2.07518 14.9278C2.02829 14.8809 2.00195 14.8173 2.00195 14.751V14.251ZM4.00195 14.251C4.00195 14.1847 4.02829 14.1211 4.07518 14.0742C4.12206 14.0273 4.18565 14.001 4.25195 14.001H9.75195C9.81826 14.001 9.88185 14.0273 9.92873 14.0742C9.97561 14.1211 10.002 14.1847 10.002 14.251V14.751C10.002 14.8173 9.97561 14.8809 9.92873 14.9278C9.88185 14.9746 9.81826 15.001 9.75195 15.001H4.25195C4.18565 15.001 4.12206 14.9746 4.07518 14.9278C4.02829 14.8809 4.00195 14.8173 4.00195 14.751V14.251Z" fill="#495057"/>
</g>
<g clip-path="url(#clip1_1643_65151)">
<rect width="194" height="24" transform="translate(24)" fill="white" fill-opacity="0.01"/>
<path d="M30.768 14.816L25.712 7.344L26.256 7.056L26.896 6.8L31.424 13.504L30.768 14.816ZM25.488 18V6.8H26.848V18H25.488ZM30.768 14.816L30.112 13.504L34.64 6.8L35.28 7.056L35.808 7.328L30.768 14.816ZM34.688 18V6.8H36.032V18H34.688ZM43.6593 18L43.5313 13.776C43.5099 13.1467 43.4299 12.6293 43.2913 12.224C43.1526 11.808 42.9393 11.4987 42.6513 11.296C42.3633 11.0827 41.9793 10.976 41.4993 10.976C41.0406 10.976 40.6406 11.0667 40.2993 11.248C39.9686 11.4293 39.6966 11.712 39.4833 12.096L38.3473 11.632C38.5499 11.2587 38.8006 10.9387 39.0993 10.672C39.3979 10.3947 39.7499 10.1813 40.1553 10.032C40.5606 9.88267 41.0139 9.808 41.5153 9.808C42.2513 9.808 42.8646 9.952 43.3553 10.24C43.8459 10.528 44.2086 10.96 44.4433 11.536C44.6886 12.1013 44.8113 12.8107 44.8113 13.664V18H43.6593ZM41.2273 18.192C40.2779 18.192 39.5366 17.9787 39.0033 17.552C38.4806 17.1147 38.2193 16.512 38.2193 15.744C38.2193 14.9333 38.4859 14.3147 39.0193 13.888C39.5633 13.4507 40.3206 13.232 41.2913 13.232H44.1073V14.304H41.5793C40.8326 14.304 40.2993 14.4267 39.9793 14.672C39.6699 14.9173 39.5153 15.2693 39.5153 15.728C39.5153 16.144 39.6699 16.4747 39.9793 16.72C40.2886 16.9547 40.7206 17.072 41.2753 17.072C41.7446 17.072 42.1499 16.9653 42.4913 16.752C42.8326 16.5387 43.0939 16.2507 43.2753 15.888C43.4566 15.5147 43.5473 15.0933 43.5473 14.624H44.3313C44.3313 15.712 44.0646 16.5813 43.5313 17.232C42.9979 17.872 42.2299 18.192 41.2273 18.192ZM46.8388 18V10H48.0388L48.1188 11.472V18H46.8388ZM52.4548 18V13.904L53.7348 13.424V18H52.4548ZM52.4548 13.904C52.4548 13.1147 52.3641 12.512 52.1828 12.096C52.0014 11.68 51.7508 11.3973 51.4308 11.248C51.1108 11.088 50.7481 11.008 50.3428 11.008C49.6388 11.008 49.0894 11.2587 48.6948 11.76C48.3108 12.2507 48.1188 12.9493 48.1188 13.856H47.4948C47.4948 13.0133 47.6174 12.288 47.8628 11.68C48.1081 11.072 48.4601 10.608 48.9188 10.288C49.3881 9.968 49.9534 9.808 50.6148 9.808C51.5854 9.808 52.3481 10.1067 52.9028 10.704C53.4681 11.3013 53.7454 12.208 53.7348 13.424L52.4548 13.904ZM61.2486 18L61.1686 16.528V10H62.4486V18H61.2486ZM55.5526 14.576V10H56.8326V14.096L55.5526 14.576ZM56.8326 14.096C56.8326 14.8853 56.9233 15.488 57.1046 15.904C57.286 16.32 57.5366 16.608 57.8566 16.768C58.1873 16.9173 58.5553 16.992 58.9606 16.992C59.654 16.992 60.1926 16.7413 60.5766 16.24C60.9713 15.7387 61.1686 15.04 61.1686 14.144H61.7926C61.7926 14.9867 61.67 15.712 61.4246 16.32C61.1793 16.928 60.822 17.392 60.3526 17.712C59.894 18.032 59.334 18.192 58.6726 18.192C57.702 18.192 56.934 17.8933 56.3686 17.296C55.814 16.6987 55.542 15.792 55.5526 14.576L56.8326 14.096ZM69.6905 18L69.5625 13.776C69.5412 13.1467 69.4612 12.6293 69.3225 12.224C69.1838 11.808 68.9705 11.4987 68.6825 11.296C68.3945 11.0827 68.0105 10.976 67.5305 10.976C67.0718 10.976 66.6718 11.0667 66.3305 11.248C65.9998 11.4293 65.7278 11.712 65.5145 12.096L64.3785 11.632C64.5812 11.2587 64.8318 10.9387 65.1305 10.672C65.4292 10.3947 65.7812 10.1813 66.1865 10.032C66.5918 9.88267 67.0452 9.808 67.5465 9.808C68.2825 9.808 68.8958 9.952 69.3865 10.24C69.8772 10.528 70.2398 10.96 70.4745 11.536C70.7198 12.1013 70.8425 12.8107 70.8425 13.664V18H69.6905ZM67.2585 18.192C66.3092 18.192 65.5678 17.9787 65.0345 17.552C64.5118 17.1147 64.2505 16.512 64.2505 15.744C64.2505 14.9333 64.5172 14.3147 65.0505 13.888C65.5945 13.4507 66.3518 13.232 67.3225 13.232H70.1385V14.304H67.6105C66.8638 14.304 66.3305 14.4267 66.0105 14.672C65.7012 14.9173 65.5465 15.2693 65.5465 15.728C65.5465 16.144 65.7012 16.4747 66.0105 16.72C66.3198 16.9547 66.7518 17.072 67.3065 17.072C67.7758 17.072 68.1812 16.9653 68.5225 16.752C68.8638 16.5387 69.1252 16.2507 69.3065 15.888C69.4878 15.5147 69.5785 15.0933 69.5785 14.624H70.3625C70.3625 15.712 70.0958 16.5813 69.5625 17.232C69.0292 17.872 68.2612 18.192 67.2585 18.192ZM72.87 18L72.902 6.8H74.182L74.15 18H72.87ZM86.29 18L86.226 16.512V6.8H87.506V18H86.29ZM83.522 18.192C82.8073 18.192 82.178 18.016 81.634 17.664C81.09 17.312 80.6633 16.8213 80.354 16.192C80.0553 15.552 79.906 14.8213 79.906 14C79.906 13.168 80.0553 12.4373 80.354 11.808C80.6633 11.1787 81.09 10.688 81.634 10.336C82.178 9.984 82.8073 9.808 83.522 9.808C84.194 9.808 84.7807 9.984 85.282 10.336C85.794 10.688 86.1887 11.1787 86.466 11.808C86.7433 12.4373 86.882 13.168 86.882 14C86.882 14.8213 86.7433 15.552 86.466 16.192C86.1887 16.8213 85.794 17.312 85.282 17.664C84.7807 18.016 84.194 18.192 83.522 18.192ZM83.81 17.024C84.2793 17.024 84.6953 16.896 85.058 16.64C85.4207 16.384 85.7033 16.0267 85.906 15.568C86.1193 15.1093 86.226 14.5867 86.226 14C86.226 13.4133 86.1193 12.8907 85.906 12.432C85.7033 11.9733 85.4207 11.616 85.058 11.36C84.6953 11.104 84.274 10.976 83.794 10.976C83.2927 10.976 82.8447 11.104 82.45 11.36C82.066 11.616 81.762 11.9733 81.538 12.432C81.314 12.8907 81.202 13.4133 81.202 14C81.202 14.5867 81.314 15.1093 81.538 15.568C81.762 16.0267 82.0713 16.384 82.466 16.64C82.8607 16.896 83.3087 17.024 83.81 17.024ZM93.281 18.192C92.5023 18.192 91.8143 18.016 91.217 17.664C90.6303 17.3013 90.1663 16.8053 89.825 16.176C89.4837 15.5467 89.313 14.8213 89.313 14C89.313 13.1787 89.4783 12.4533 89.809 11.824C90.1503 11.1947 90.6197 10.704 91.217 10.352C91.8143 9.98933 92.4917 9.808 93.249 9.808C93.9957 9.808 94.641 9.99467 95.185 10.368C95.729 10.7307 96.1503 11.2427 96.449 11.904C96.7477 12.5653 96.897 13.344 96.897 14.24H95.617C95.617 13.5573 95.5263 12.976 95.345 12.496C95.1637 12.0053 94.897 11.6267 94.545 11.36C94.193 11.0933 93.7557 10.96 93.233 10.96C92.7103 10.96 92.2517 11.088 91.857 11.344C91.473 11.5893 91.1743 11.9413 90.961 12.4C90.7477 12.8587 90.641 13.3973 90.641 14.016C90.641 14.624 90.7583 15.152 90.993 15.6C91.2277 16.0373 91.5477 16.384 91.953 16.64C92.3583 16.8853 92.8223 17.008 93.345 17.008C93.9103 17.008 94.385 16.8747 94.769 16.608C95.153 16.3413 95.4517 15.9947 95.665 15.568L96.801 16.128C96.5877 16.544 96.3103 16.9067 95.969 17.216C95.6383 17.5253 95.249 17.7653 94.801 17.936C94.353 18.1067 93.8463 18.192 93.281 18.192ZM90.177 14.24V13.136H96.113V14.24H90.177ZM99.3575 18V9.088C99.3575 8.256 99.5495 7.632 99.9335 7.216C100.328 6.78933 100.926 6.576 101.726 6.576C101.939 6.576 102.179 6.61333 102.446 6.688C102.712 6.76267 102.995 6.86933 103.294 7.008L102.814 8.016C102.568 7.92 102.36 7.84533 102.19 7.792C102.019 7.73867 101.875 7.712 101.758 7.712C101.384 7.712 101.102 7.83467 100.91 8.08C100.728 8.31467 100.638 8.68267 100.638 9.184V18H99.3575ZM97.8855 11.104V10H102.958V11.104H97.8855ZM109.472 18L109.344 13.776C109.322 13.1467 109.242 12.6293 109.104 12.224C108.965 11.808 108.752 11.4987 108.464 11.296C108.176 11.0827 107.792 10.976 107.312 10.976C106.853 10.976 106.453 11.0667 106.112 11.248C105.781 11.4293 105.509 11.712 105.296 12.096L104.16 11.632C104.362 11.2587 104.613 10.9387 104.912 10.672C105.21 10.3947 105.562 10.1813 105.968 10.032C106.373 9.88267 106.826 9.808 107.328 9.808C108.064 9.808 108.677 9.952 109.168 10.24C109.658 10.528 110.021 10.96 110.256 11.536C110.501 12.1013 110.624 12.8107 110.624 13.664V18H109.472ZM107.04 18.192C106.09 18.192 105.349 17.9787 104.816 17.552C104.293 17.1147 104.032 16.512 104.032 15.744C104.032 14.9333 104.298 14.3147 104.832 13.888C105.376 13.4507 106.133 13.232 107.104 13.232H109.92V14.304H107.392C106.645 14.304 106.112 14.4267 105.792 14.672C105.482 14.9173 105.328 15.2693 105.328 15.728C105.328 16.144 105.482 16.4747 105.792 16.72C106.101 16.9547 106.533 17.072 107.088 17.072C107.557 17.072 107.962 16.9653 108.304 16.752C108.645 16.5387 108.906 16.2507 109.088 15.888C109.269 15.5147 109.36 15.0933 109.36 14.624H110.144C110.144 15.712 109.877 16.5813 109.344 17.232C108.81 17.872 108.042 18.192 107.04 18.192ZM118.139 18L118.059 16.528V10H119.339V18H118.139ZM112.443 14.576V10H113.723V14.096L112.443 14.576ZM113.723 14.096C113.723 14.8853 113.814 15.488 113.995 15.904C114.177 16.32 114.427 16.608 114.747 16.768C115.078 16.9173 115.446 16.992 115.851 16.992C116.545 16.992 117.083 16.7413 117.467 16.24C117.862 15.7387 118.059 15.04 118.059 14.144H118.683C118.683 14.9867 118.561 15.712 118.315 16.32C118.07 16.928 117.713 17.392 117.243 17.712C116.785 18.032 116.225 18.192 115.563 18.192C114.593 18.192 113.825 17.8933 113.259 17.296C112.705 16.6987 112.433 15.792 112.443 14.576L113.723 14.096ZM121.573 18L121.605 6.8H122.885L122.853 18H121.573ZM128.288 18.192C127.509 18.192 126.907 17.9893 126.48 17.584C126.053 17.1787 125.84 16.608 125.84 15.872V7.504H127.12V15.744C127.12 16.1493 127.227 16.464 127.44 16.688C127.664 16.9013 127.973 17.008 128.368 17.008C128.496 17.008 128.619 16.992 128.736 16.96C128.864 16.9173 129.029 16.8213 129.232 16.672L129.728 17.712C129.451 17.8933 129.2 18.016 128.976 18.08C128.752 18.1547 128.523 18.192 128.288 18.192ZM124.448 11.136V10H129.52V11.136H124.448ZM137.677 19.6C137.187 18.9493 136.739 18.2453 136.333 17.488C135.928 16.72 135.608 15.9093 135.373 15.056C135.139 14.2027 135.021 13.3173 135.021 12.4C135.021 11.472 135.139 10.5867 135.373 9.744C135.608 8.89067 135.928 8.08533 136.333 7.328C136.739 6.56 137.187 5.85067 137.677 5.2H138.989C138.499 5.88267 138.051 6.61333 137.645 7.392C137.24 8.17067 136.92 8.98133 136.685 9.824C136.451 10.656 136.333 11.5147 136.333 12.4C136.333 13.2747 136.451 14.1333 136.685 14.976C136.92 15.8187 137.24 16.6293 137.645 17.408C138.051 18.176 138.499 18.9067 138.989 19.6H137.677ZM146.311 18L146.231 16.528V10H147.511V18H146.311ZM140.615 14.576V10H141.895V14.096L140.615 14.576ZM141.895 14.096C141.895 14.8853 141.986 15.488 142.167 15.904C142.348 16.32 142.599 16.608 142.919 16.768C143.25 16.9173 143.618 16.992 144.023 16.992C144.716 16.992 145.255 16.7413 145.639 16.24C146.034 15.7387 146.231 15.04 146.231 14.144H146.855C146.855 14.9867 146.732 15.712 146.487 16.32C146.242 16.928 145.884 17.392 145.415 17.712C144.956 18.032 144.396 18.192 143.735 18.192C142.764 18.192 141.996 17.8933 141.431 17.296C140.876 16.6987 140.604 15.792 140.615 14.576L141.895 14.096ZM152.545 18.192C151.958 18.192 151.446 18.1067 151.009 17.936C150.572 17.7547 150.204 17.52 149.905 17.232C149.617 16.944 149.409 16.6293 149.281 16.288L150.401 15.824C150.582 16.176 150.854 16.464 151.217 16.688C151.58 16.912 151.98 17.024 152.417 17.024C152.918 17.024 153.334 16.928 153.665 16.736C154.006 16.5333 154.177 16.256 154.177 15.904C154.177 15.5733 154.049 15.3067 153.793 15.104C153.548 14.9013 153.185 14.736 152.705 14.608L151.937 14.4C151.212 14.208 150.646 13.92 150.241 13.536C149.836 13.1413 149.633 12.6987 149.633 12.208C149.633 11.4507 149.878 10.864 150.369 10.448C150.87 10.0213 151.612 9.808 152.593 9.808C153.062 9.808 153.489 9.87733 153.873 10.016C154.257 10.1547 154.588 10.352 154.865 10.608C155.142 10.8533 155.345 11.1467 155.473 11.488L154.353 11.984C154.214 11.6213 153.985 11.3653 153.665 11.216C153.345 11.056 152.956 10.976 152.497 10.976C152.006 10.976 151.622 11.0773 151.345 11.28C151.068 11.4827 150.929 11.7707 150.929 12.144C150.929 12.3573 151.041 12.56 151.265 12.752C151.5 12.9333 151.841 13.0827 152.289 13.2L153.089 13.408C153.612 13.536 154.049 13.728 154.401 13.984C154.753 14.2293 155.02 14.512 155.201 14.832C155.382 15.152 155.473 15.4933 155.473 15.856C155.473 16.336 155.345 16.752 155.089 17.104C154.833 17.456 154.486 17.728 154.049 17.92C153.612 18.1013 153.11 18.192 152.545 18.192ZM160.734 18.192C159.955 18.192 159.267 18.016 158.67 17.664C158.083 17.3013 157.619 16.8053 157.278 16.176C156.937 15.5467 156.766 14.8213 156.766 14C156.766 13.1787 156.931 12.4533 157.262 11.824C157.603 11.1947 158.073 10.704 158.67 10.352C159.267 9.98933 159.945 9.808 160.702 9.808C161.449 9.808 162.094 9.99467 162.638 10.368C163.182 10.7307 163.603 11.2427 163.902 11.904C164.201 12.5653 164.35 13.344 164.35 14.24H163.07C163.07 13.5573 162.979 12.976 162.798 12.496C162.617 12.0053 162.35 11.6267 161.998 11.36C161.646 11.0933 161.209 10.96 160.686 10.96C160.163 10.96 159.705 11.088 159.31 11.344C158.926 11.5893 158.627 11.9413 158.414 12.4C158.201 12.8587 158.094 13.3973 158.094 14.016C158.094 14.624 158.211 15.152 158.446 15.6C158.681 16.0373 159.001 16.384 159.406 16.64C159.811 16.8853 160.275 17.008 160.798 17.008C161.363 17.008 161.838 16.8747 162.222 16.608C162.606 16.3413 162.905 15.9947 163.118 15.568L164.254 16.128C164.041 16.544 163.763 16.9067 163.422 17.216C163.091 17.5253 162.702 17.7653 162.254 17.936C161.806 18.1067 161.299 18.192 160.734 18.192ZM157.63 14.24V13.136H163.566V14.24H157.63ZM166.715 13.664C166.715 12.8 166.88 12.1013 167.211 11.568C167.541 11.024 167.963 10.624 168.475 10.368C168.997 10.1013 169.547 9.968 170.123 9.968V11.168C169.653 11.168 169.2 11.248 168.763 11.408C168.336 11.5573 167.984 11.808 167.707 12.16C167.429 12.512 167.291 12.992 167.291 13.6L166.715 13.664ZM166.011 18V10H167.291V18H166.011ZM175.45 18L175.482 10H176.762L176.73 18H175.45ZM176.106 8.144C175.893 8.144 175.706 8.064 175.546 7.904C175.386 7.744 175.306 7.55733 175.306 7.344C175.306 7.12 175.386 6.93333 175.546 6.784C175.706 6.624 175.893 6.544 176.106 6.544C176.33 6.544 176.517 6.624 176.666 6.784C176.826 6.93333 176.906 7.12 176.906 7.344C176.906 7.55733 176.826 7.744 176.666 7.904C176.517 8.064 176.33 8.144 176.106 8.144ZM179.089 18V10H180.289L180.369 11.472V18H179.089ZM184.705 18V13.904L185.985 13.424V18H184.705ZM184.705 13.904C184.705 13.1147 184.614 12.512 184.433 12.096C184.251 11.68 184.001 11.3973 183.681 11.248C183.361 11.088 182.998 11.008 182.593 11.008C181.889 11.008 181.339 11.2587 180.945 11.76C180.561 12.2507 180.369 12.9493 180.369 13.856H179.745C179.745 13.0133 179.867 12.288 180.113 11.68C180.358 11.072 180.71 10.608 181.169 10.288C181.638 9.968 182.203 9.808 182.865 9.808C183.835 9.808 184.598 10.1067 185.153 10.704C185.718 11.3013 185.995 12.208 185.985 13.424L184.705 13.904ZM188.091 21.2V10H189.291L189.371 11.472V21.2H188.091ZM192.075 18.192C191.403 18.192 190.811 18.016 190.299 17.664C189.797 17.312 189.408 16.8213 189.131 16.192C188.853 15.552 188.715 14.8213 188.715 14C188.715 13.168 188.853 12.4373 189.131 11.808C189.408 11.1787 189.797 10.688 190.299 10.336C190.811 9.984 191.403 9.808 192.075 9.808C192.789 9.808 193.419 9.984 193.963 10.336C194.507 10.688 194.928 11.1787 195.227 11.808C195.536 12.4373 195.691 13.168 195.691 14C195.691 14.8213 195.536 15.552 195.227 16.192C194.928 16.8213 194.507 17.312 193.963 17.664C193.419 18.016 192.789 18.192 192.075 18.192ZM191.787 17.024C192.288 17.024 192.731 16.896 193.115 16.64C193.509 16.384 193.819 16.0267 194.043 15.568C194.277 15.1093 194.395 14.5867 194.395 14C194.395 13.4133 194.283 12.8907 194.059 12.432C193.845 11.9733 193.541 11.616 193.147 11.36C192.752 11.104 192.304 10.976 191.803 10.976C191.333 10.976 190.912 11.104 190.539 11.36C190.176 11.616 189.888 11.9733 189.675 12.432C189.472 12.8907 189.371 13.4133 189.371 14C189.371 14.5867 189.472 15.1093 189.675 15.568C189.888 16.0267 190.176 16.384 190.539 16.64C190.901 16.896 191.317 17.024 191.787 17.024ZM202.952 18L202.872 16.528V10H204.152V18H202.952ZM197.256 14.576V10H198.536V14.096L197.256 14.576ZM198.536 14.096C198.536 14.8853 198.626 15.488 198.808 15.904C198.989 16.32 199.24 16.608 199.56 16.768C199.89 16.9173 200.258 16.992 200.664 16.992C201.357 16.992 201.896 16.7413 202.28 16.24C202.674 15.7387 202.872 15.04 202.872 14.144H203.496C203.496 14.9867 203.373 15.712 203.128 16.32C202.882 16.928 202.525 17.392 202.056 17.712C201.597 18.032 201.037 18.192 200.376 18.192C199.405 18.192 198.637 17.8933 198.072 17.296C197.517 16.6987 197.245 15.792 197.256 14.576L198.536 14.096ZM209.554 18.192C208.775 18.192 208.172 17.9893 207.746 17.584C207.319 17.1787 207.106 16.608 207.106 15.872V7.504H208.386V15.744C208.386 16.1493 208.492 16.464 208.706 16.688C208.93 16.9013 209.239 17.008 209.634 17.008C209.762 17.008 209.884 16.992 210.002 16.96C210.13 16.9173 210.295 16.8213 210.498 16.672L210.994 17.712C210.716 17.8933 210.466 18.016 210.242 18.08C210.018 18.1547 209.788 18.192 209.554 18.192ZM205.714 11.136V10H210.786V11.136H205.714ZM213.486 19.6H212.174C212.675 18.9067 213.123 18.176 213.518 17.408C213.923 16.6293 214.243 15.8187 214.478 14.976C214.713 14.1333 214.83 13.2747 214.83 12.4C214.83 11.5147 214.713 10.656 214.478 9.824C214.243 8.98133 213.923 8.17067 213.518 7.392C213.123 6.61333 212.675 5.88267 212.174 5.2H213.486C213.987 5.85067 214.435 6.56 214.83 7.328C215.235 8.08533 215.555 8.89067 215.79 9.744C216.025 10.5867 216.142 11.472 216.142 12.4C216.142 13.3173 216.025 14.2027 215.79 15.056C215.555 15.9093 215.235 16.72 214.83 17.488C214.435 18.2453 213.987 18.9493 213.486 19.6Z" fill="#212529"/>
</g>
<defs>
<clipPath id="clip0_1643_65151">
<rect width="16" height="16" fill="white" transform="translate(0 4)"/>
</clipPath>
<clipPath id="clip1_1643_65151">
<rect width="194" height="24" fill="white" transform="translate(24)"/>
</clipPath>
</defs>
</svg>
