<svg width="18" height="18" viewBox="0 0 18 18" fill="none" xmlns="http://www.w3.org/2000/svg">
<path d="M7.82086 0.490474C8.47336 -0.162026 9.53086 -0.162026 10.1834 0.490474L17.5127 7.82097C18.1652 8.47347 18.1652 9.52985 17.5127 10.1812L10.1834 17.5117C9.53086 18.1642 8.47448 18.1642 7.82311 17.5117L0.491482 10.1823C0.336303 10.0275 0.21319 9.84354 0.12919 9.64104C0.0451905 9.43854 0.00195312 9.22146 0.00195312 9.00222C0.00195312 8.78299 0.0451905 8.56591 0.12919 8.36341C0.21319 8.16091 0.336303 7.97696 0.491482 7.8221L7.82086 0.490474ZM9.39586 1.27797C9.29142 1.17355 9.14979 1.11489 9.00211 1.11489C8.85442 1.11489 8.71279 1.17355 8.60836 1.27797L1.27786 8.60735C1.17343 8.71178 1.11477 8.85342 1.11477 9.0011C1.11477 9.14878 1.17343 9.29042 1.27786 9.39485L8.60836 16.7253C8.71279 16.8298 8.85442 16.8884 9.00211 16.8884C9.14979 16.8884 9.29142 16.8298 9.39586 16.7253L16.7264 9.39485C16.8308 9.29042 16.8894 9.14878 16.8894 9.0011C16.8894 8.85342 16.8308 8.71178 16.7264 8.60735L9.39586 1.27685V1.27797Z" fill="#6C757D"/>
</svg>
