<svg width="44" height="40" viewBox="0 0 44 40" fill="none" xmlns="http://www.w3.org/2000/svg">
<path d="M23.789 9.1054L19.789 1.1054C19.6229 0.773199 19.3675 0.493825 19.0515 0.298586C18.7355 0.103347 18.3714 -4.30773e-05 18 1.34639e-08H2C1.46957 1.34639e-08 0.960859 0.210714 0.585786 0.585786C0.210714 0.960859 0 1.46957 0 2V10C0 10.5304 0.210714 11.0391 0.585786 11.4142C0.960859 11.7893 1.46957 12 2 12H22C22.341 12 22.6762 11.9129 22.9741 11.7469C23.2719 11.5809 23.5223 11.3415 23.7015 11.0515C23.8808 10.7615 23.9829 10.4304 23.9982 10.0898C24.0135 9.7492 23.9415 9.41034 23.789 9.1054Z" fill="#AEB8C2"/>
<path d="M42 8H0V38C0 38.5304 0.210714 39.0391 0.585786 39.4142C0.960859 39.7893 1.46957 40 2 40H42C42.5304 40 43.0391 39.7893 43.4142 39.4142C43.7893 39.0391 44 38.5304 44 38V10C44 9.46957 43.7893 8.96086 43.4142 8.58579C43.0391 8.21071 42.5304 8 42 8Z" fill="url(#paint0_linear_1589_47547)"/>
<defs>
<linearGradient id="paint0_linear_1589_47547" x1="0" y1="8" x2="30.4432" y2="49.8595" gradientUnits="userSpaceOnUse">
<stop stop-color="#C7CED5"/>
<stop offset="1" stop-color="#E0E4E9"/>
</linearGradient>
</defs>
</svg>
