<svg width="61" height="40" viewBox="0 0 61 40" fill="none" xmlns="http://www.w3.org/2000/svg">
<g clip-path="url(#clip0_266_181375)">
<path d="M57.3439 28.0623C57.4581 29.0233 57.5247 29.9995 57.5413 30.9883L54.5417 31.0386C54.5442 31.1851 54.5454 31.332 54.5454 31.4791C54.5454 31.6263 54.5442 31.7731 54.5417 31.9196L57.5413 31.97C57.5247 32.9587 57.4581 33.9349 57.3439 34.896L54.3649 34.5421C54.3304 34.8326 54.291 35.1215 54.2469 35.4087L57.2121 35.864C57.0624 36.8393 56.8634 37.7976 56.6181 38.7364L53.7156 37.9777C53.6417 38.2602 53.5632 38.5406 53.4801 38.819L56.3546 39.6776C56.0728 40.6209 55.7437 41.5428 55.3701 42.4403L52.6004 41.2875C52.4883 41.5569 52.3717 41.8238 52.2507 42.0881L54.9786 43.3367C54.5696 44.2301 54.1159 45.0974 53.6204 45.9356L51.0379 44.409C50.8896 44.66 50.737 44.908 50.5804 45.153L53.1079 46.769C52.5794 47.5956 52.0093 48.3914 51.4007 49.1532L49.0569 47.2806C48.8751 47.508 48.6896 47.7321 48.5003 47.9525L50.7767 49.9066C50.1385 50.65 49.4623 51.358 48.7512 52.0273L46.6951 49.8427C46.4836 50.0418 46.2686 50.237 46.0503 50.4283L48.0272 52.6848C47.2912 53.3296 46.5213 53.9343 45.7205 54.4957L43.9983 52.0393C43.761 52.2056 43.5209 52.3676 43.2778 52.5252L44.9097 55.0425C44.0902 55.5738 43.241 56.0609 42.3652 56.5006L41.0192 53.8195C40.7611 53.949 40.5005 54.0739 40.2374 54.194L41.4835 56.923C40.597 57.3277 39.6855 57.6847 38.7519 57.9906L37.8177 55.1397C37.5441 55.2294 37.2683 55.3141 36.9905 55.3938L37.8175 58.2775C36.8836 58.5454 35.9293 58.7627 34.9575 58.9264L34.4591 55.9681C34.1755 56.0159 33.8902 56.0585 33.6032 56.0959L33.9909 59.0708C33.0309 59.1959 32.0552 59.2689 31.0665 59.2871L31.0113 56.2876C30.8665 56.2903 30.7213 56.2916 30.5757 56.2916C30.4302 56.2916 30.285 56.2903 30.1401 56.2876L30.0849 59.2871C29.0962 59.2689 28.1205 59.1959 27.1606 59.0708L27.5482 56.0959C27.2613 56.0585 26.9759 56.0159 26.6924 55.9681L26.1939 58.9264C25.2221 58.7627 24.2678 58.5454 23.3339 58.2775L24.1609 55.3938C23.8831 55.3141 23.6074 55.2294 23.3337 55.1397L22.3995 57.9906C21.4659 57.6847 20.5544 57.3277 19.668 56.923L20.914 54.194C20.6509 54.0739 20.3903 53.949 20.1322 53.8195L18.7862 56.5006C17.9105 56.0609 17.0613 55.5738 16.2417 55.0425L17.8736 52.5252C17.6306 52.3676 17.3904 52.2056 17.1532 52.0393L15.4309 54.4957C14.6302 53.9343 13.8602 53.3296 13.1243 52.6848L15.1011 50.4283C14.8828 50.237 14.6679 50.0418 14.4563 49.8427L12.4002 52.0273C11.6891 51.358 11.0129 50.65 10.3748 49.9066L12.6511 47.9525C12.4618 47.7321 12.2763 47.508 12.0946 47.2806L9.75077 49.1532C9.14211 48.3914 8.572 47.5956 8.04351 46.769L10.571 45.153C10.4144 44.908 10.2619 44.66 10.1135 44.409L7.53101 45.9356C7.03551 45.0974 6.58181 44.2301 6.17288 43.3367L8.90072 42.0881C8.77973 41.8238 8.66312 41.5569 8.55099 41.2875L5.78135 42.4403C5.40775 41.5428 5.07864 40.6209 4.79687 39.6776L7.67138 38.819C7.58824 38.5406 7.5097 38.2602 7.43585 37.9777L4.53338 38.7364C4.288 37.7976 4.08907 36.8393 3.9393 35.864L6.90454 35.4087C6.86043 35.1215 6.82108 34.8326 6.78657 34.5421L3.80752 34.896C3.69335 33.9349 3.62673 32.9587 3.61013 31.97L6.60971 31.9196C6.60725 31.7731 6.60602 31.6263 6.60602 31.4791C6.60602 31.332 6.60725 31.1851 6.60971 31.0386L3.61013 30.9883C3.62673 29.9995 3.69335 29.0233 3.80752 28.0623L6.78657 28.4162C6.82108 28.1257 6.86043 27.8368 6.90454 27.5496L3.9393 27.0942C4.08907 26.119 4.288 25.1606 4.53338 24.2219L7.43585 24.9806C7.5097 24.6981 7.58824 24.4176 7.67138 24.1393L4.79687 23.2807C5.07864 22.3374 5.40775 21.4155 5.78135 20.5179L8.55099 21.6708C8.66312 21.4014 8.77973 21.1345 8.90072 20.8701L6.17288 19.6216C6.58181 18.7282 7.03551 17.8608 7.531 17.0226L10.1135 18.5492C10.2619 18.2983 10.4144 18.0503 10.571 17.8053L8.0435 16.1893C8.572 15.3627 9.14211 14.5669 9.75077 13.8051L12.0946 15.6777C12.2763 15.4502 12.4618 15.2262 12.6511 15.0057L10.3748 13.0517C11.0129 12.3082 11.6891 11.6002 12.4002 10.931L14.4563 13.1155C14.6679 12.9164 14.8828 12.7212 15.1011 12.53L13.1243 10.2734C13.8602 9.6287 14.6302 9.02397 15.4309 8.46253L17.1532 10.9189C17.3904 10.7526 17.6306 10.5906 17.8736 10.433L16.2417 7.91575C17.0613 7.38443 17.9105 6.89733 18.7862 6.45768L20.1322 9.1388C20.3903 9.00923 20.6509 8.88434 20.914 8.76424L19.668 6.03524C20.5544 5.63051 21.4659 5.2736 22.3995 4.96768L23.3337 7.81852C23.6074 7.72884 23.8831 7.64413 24.1609 7.56447L23.3339 4.6807C24.2678 4.41289 25.2221 4.19559 26.1939 4.03186L26.6924 6.99016C26.9759 6.94237 27.2613 6.89973 27.5482 6.86234L27.1606 3.88749C28.1205 3.76239 29.0962 3.68933 30.0849 3.67114L30.1401 6.67063C30.285 6.66797 30.4302 6.66663 30.5757 6.66663C30.7213 6.66663 30.8665 6.66797 31.0113 6.67063L31.0665 3.67114C32.0552 3.68933 33.0309 3.76239 33.9909 3.88749L33.6032 6.86234C33.8902 6.89973 34.1755 6.94237 34.4591 6.99016L34.9575 4.03186C35.9293 4.19559 36.8836 4.41289 37.8175 4.6807L36.9905 7.56447C37.2683 7.64413 37.5441 7.72884 37.8177 7.81852L38.7519 4.96768C39.6855 5.2736 40.597 5.63051 41.4835 6.03524L40.2374 8.76424C40.5005 8.88434 40.7611 9.00923 41.0192 9.1388L42.3652 6.45768C43.2409 6.89733 44.0902 7.38443 44.9097 7.91575L43.2778 10.433C43.5209 10.5906 43.761 10.7526 43.9983 10.9189L45.7205 8.46253C46.5213 9.02397 47.2912 9.6287 48.0272 10.2734L46.0503 12.53C46.2686 12.7212 46.4836 12.9164 46.6951 13.1155L48.7512 10.931C49.4623 11.6002 50.1385 12.3082 50.7767 13.0517L48.5003 15.0057C48.6896 15.2262 48.8751 15.4502 49.0569 15.6777L51.4007 13.8051C52.0093 14.5669 52.5794 15.3627 53.1079 16.1893L50.5804 17.8053C50.737 18.0503 50.8896 18.2983 51.0379 18.5492L53.6204 17.0226C54.1159 17.8608 54.5696 18.7282 54.9786 19.6216L52.2507 20.8701C52.3717 21.1345 52.4883 21.4014 52.6004 21.6708L55.3701 20.5179C55.7437 21.4155 56.0728 22.3374 56.3546 23.2807L53.4801 24.1393C53.5632 24.4176 53.6417 24.6981 53.7156 24.9806L56.6181 24.2219C56.8634 25.1606 57.0624 26.119 57.2121 27.0942L54.2469 27.5496C54.291 27.8368 54.3304 28.1257 54.3649 28.4162L57.3439 28.0623Z" stroke="#ADB5BD" stroke-width="6" stroke-dasharray="1 3"/>
<path opacity="0.2" d="M59.7273 31.6875C59.7273 37.6827 58.0033 43.5434 54.7735 48.5282C51.5437 53.5131 46.9529 57.3983 41.5819 59.6926C36.2109 61.9869 30.3007 62.5872 24.5989 61.4176C18.897 60.2479 13.6595 57.361 9.54868 53.1217C5.43786 48.8824 2.63836 43.4812 1.50419 37.6012C0.370017 31.7211 0.952115 25.6263 3.17687 20.0874C5.40163 14.5485 9.16913 9.81436 14.0029 6.48358C18.8367 3.1528 24.5198 1.375 30.3333 1.375V31.6875H59.7273Z" fill="url(#paint0_radial_266_181375)"/>
</g>
<path d="M23.2746 4.52084C17.4755 6.12326 12.3512 9.65421 8.69643 14.5661C5.04163 19.478 3.06061 25.4962 3.06061 31.6875H9.60606C9.60606 26.9821 11.1116 22.4082 13.8893 18.6752C16.6669 14.9422 20.5614 12.2587 24.9687 11.0408L23.2746 4.52084Z" fill="#FFCD39"/>
<circle cx="30.6667" cy="31.5217" r="7.65217" fill="#89A7A7" fill-opacity="0.32"/>
<path d="M25.5985 12.5176L32.2671 30.4104C32.6416 31.4153 32.0697 32.5245 31.0337 32.8021C29.9978 33.0797 28.9478 32.4051 28.7697 31.3475L25.5985 12.5176Z" fill="#737C7B"/>
<circle cx="30.6511" cy="31.3742" r="1.91304" transform="rotate(-15 30.6511 31.3742)" fill="#737C7B"/>
<defs>
<radialGradient id="paint0_radial_266_181375" cx="0" cy="0" r="1" gradientUnits="userSpaceOnUse" gradientTransform="translate(30.3333 31.6875) rotate(90) scale(30.3125 29.3939)">
<stop offset="0.785075" stop-color="#C8D2D1" stop-opacity="0"/>
<stop offset="1" stop-color="#C8D2D1"/>
</radialGradient>
<clipPath id="clip0_266_181375">
<rect width="60" height="30.9375" fill="white" transform="translate(0.333313 0.75)"/>
</clipPath>
</defs>
</svg>
