<svg width="61" height="40" viewBox="0 0 61 40" fill="none" xmlns="http://www.w3.org/2000/svg">
<g clip-path="url(#clip0_4_127786)">
<path d="M57.344 28.0623C57.4581 29.0234 57.5248 29.9996 57.5414 30.9883L54.5418 31.0387C54.5442 31.1852 54.5455 31.332 54.5455 31.4792C54.5455 31.6264 54.5442 31.7732 54.5418 31.9197L57.5414 31.97C57.5248 32.9588 57.4581 33.935 57.344 34.896L54.3649 34.5422C54.3304 34.8327 54.2911 35.1215 54.247 35.4087L57.2122 35.8641C57.0624 36.8393 56.8635 37.7977 56.6181 38.7364L53.7156 37.9777C53.6418 38.2602 53.5633 38.5407 53.4801 38.819L56.3546 39.6776C56.0729 40.6209 55.7438 41.5428 55.3702 42.4404L52.6005 41.2875C52.4884 41.5569 52.3718 41.8238 52.2508 42.0882L54.9786 43.3367C54.5697 44.2302 54.116 45.0975 53.6205 45.9357L51.038 44.4091C50.8896 44.66 50.7371 44.9081 50.5805 45.153L53.108 46.7691C52.5795 47.5956 52.0094 48.3914 51.4007 49.1532L49.0569 47.2806C48.8752 47.5081 48.6897 47.7321 48.5004 47.9526L50.7767 49.9066C50.1386 50.6501 49.4624 51.3581 48.7513 52.0273L46.6952 49.8428C46.4836 50.0419 46.2687 50.2371 46.0504 50.4283L48.0272 52.6849C47.2913 53.3296 46.5213 53.9343 45.7206 54.4958L43.9983 52.0394C43.7611 52.2057 43.5209 52.3677 43.2779 52.5253L44.9098 55.0426C44.0902 55.5739 43.241 56.061 42.3653 56.5006L41.0193 53.8195C40.7612 53.9491 40.5006 54.074 40.2375 54.1941L41.4835 56.9231C40.5971 57.3278 39.6856 57.6847 38.752 57.9906L37.8178 55.1398C37.5441 55.2295 37.2684 55.3142 36.9906 55.3938L37.8176 58.2776C36.8837 58.5454 35.9294 58.7627 34.9576 58.9265L34.4591 55.9682C34.1756 56.0159 33.8902 56.0586 33.6033 56.096L33.9909 59.0708C33.031 59.1959 32.0553 59.269 31.0666 59.2872L31.0114 56.2877C30.8665 56.2903 30.7213 56.2917 30.5758 56.2917C30.4302 56.2917 30.285 56.2903 30.1402 56.2877L30.085 59.2872C29.0963 59.269 28.1206 59.1959 27.1606 59.0708L27.5483 56.096C27.2613 56.0586 26.976 56.0159 26.6924 55.9682L26.194 58.9265C25.2222 58.7627 24.2679 58.5454 23.334 58.2776L24.161 55.3938C23.8832 55.3142 23.6074 55.2295 23.3338 55.1398L22.3996 57.9906C21.466 57.6847 20.5545 57.3278 19.668 56.9231L20.914 54.1941C20.651 54.074 20.3904 53.9491 20.1323 53.8195L18.7863 56.5006C17.9105 56.061 17.0613 55.5739 16.2418 55.0426L17.8737 52.5253C17.6306 52.3677 17.3905 52.2057 17.1532 52.0394L15.431 54.4958C14.6302 53.9343 13.8603 53.3296 13.1243 52.6849L15.1012 50.4283C14.8829 50.2371 14.6679 50.0419 14.4564 49.8428L12.4003 52.0273C11.6892 51.3581 11.013 50.6501 10.3748 49.9066L12.6512 47.9526C12.4619 47.7321 12.2764 47.5081 12.0946 47.2806L9.75083 49.1532C9.14217 48.3914 8.57206 47.5956 8.04357 46.7691L10.5711 45.153C10.4145 44.9081 10.2619 44.66 10.1136 44.4091L7.53107 45.9357C7.03557 45.0975 6.58187 44.2302 6.17294 43.3367L8.90078 42.0882C8.77979 41.8238 8.66318 41.5569 8.55105 41.2875L5.78141 42.4404C5.40781 41.5429 5.0787 40.6209 4.79693 39.6776L7.67144 38.819C7.5883 38.5407 7.50976 38.2602 7.43592 37.9777L4.53344 38.7364C4.28806 37.7977 4.08913 36.8393 3.93936 35.8641L6.9046 35.4087C6.86049 35.1215 6.82114 34.8327 6.78663 34.5422L3.80758 34.896C3.69342 33.935 3.62679 32.9588 3.61019 31.97L6.60977 31.9197C6.60731 31.7732 6.60608 31.6264 6.60608 31.4792C6.60608 31.332 6.60731 31.1852 6.60977 31.0387L3.61019 30.9883C3.62679 29.9996 3.69342 29.0234 3.80758 28.0623L6.78663 28.4162C6.82114 28.1257 6.8605 27.8368 6.9046 27.5497L3.93936 27.0943C4.08913 26.119 4.28806 25.1607 4.53344 24.2219L7.43592 24.9806C7.50976 24.6982 7.5883 24.4177 7.67144 24.1393L4.79693 23.2807C5.0787 22.3374 5.40781 21.4155 5.78141 20.518L8.55105 21.6708C8.66318 21.4014 8.77979 21.1345 8.90078 20.8702L6.17294 19.6216C6.58187 18.7282 7.03557 17.8609 7.53107 17.0227L10.1136 18.5493C10.2619 18.2983 10.4145 18.0503 10.5711 17.8053L8.04357 16.1893C8.57206 15.3627 9.14217 14.5669 9.75083 13.8051L12.0946 15.6777C12.2764 15.4503 12.4619 15.2263 12.6512 15.0058L10.3748 13.0517C11.013 12.3083 11.6892 11.6003 12.4002 10.9311L14.4564 13.1156C14.6679 12.9165 14.8829 12.7213 15.1012 12.53L13.1243 10.2735C13.8603 9.62876 14.6302 9.02404 15.431 8.46259L17.1532 10.919C17.3905 10.7527 17.6306 10.5907 17.8737 10.4331L16.2418 7.91581C17.0613 7.38449 17.9105 6.89739 18.7863 6.45775L20.1323 9.13886C20.3904 9.00929 20.651 8.88441 20.914 8.7643L19.668 6.0353C20.5545 5.63057 21.466 5.27366 22.3996 4.96774L23.3338 7.81858C23.6074 7.72891 23.8832 7.64419 24.161 7.56453L23.334 4.68077C24.2679 4.41295 25.2222 4.19565 26.194 4.03192L26.6924 6.99022C26.976 6.94243 27.2613 6.8998 27.5483 6.8624L27.1606 3.88755C28.1206 3.76246 29.0963 3.68939 30.085 3.6712L30.1402 6.67069C30.285 6.66803 30.4302 6.66669 30.5758 6.66669C30.7213 6.66669 30.8665 6.66803 31.0114 6.67069L31.0666 3.6712C32.0553 3.68939 33.031 3.76245 33.9909 3.88755L33.6033 6.8624C33.8902 6.8998 34.1755 6.94243 34.4591 6.99022L34.9576 4.03192C35.9294 4.19565 36.8837 4.41295 37.8176 4.68077L36.9906 7.56453C37.2684 7.64419 37.5441 7.7289 37.8178 7.81858L38.752 4.96774C39.6856 5.27366 40.5971 5.63057 41.4835 6.0353L40.2375 8.7643C40.5006 8.8844 40.7612 9.00929 41.0193 9.13886L42.3652 6.45775C43.241 6.89739 44.0902 7.38449 44.9098 7.91581L43.2779 10.4331C43.5209 10.5907 43.7611 10.7527 43.9983 10.919L45.7206 8.46259C46.5213 9.02403 47.2913 9.62876 48.0272 10.2735L46.0504 12.53C46.2686 12.7213 46.4836 12.9165 46.6952 13.1156L48.7513 10.931C49.4624 11.6003 50.1385 12.3083 50.7767 13.0517L48.5004 15.0058C48.6897 15.2263 48.8752 15.4503 49.0569 15.6777L51.4007 13.8051C52.0094 14.5669 52.5795 15.3627 53.108 16.1893L50.5804 17.8053C50.7371 18.0503 50.8896 18.2983 51.038 18.5493L53.6205 17.0227C54.116 17.8609 54.5697 18.7282 54.9786 19.6216L52.2508 20.8702C52.3718 21.1345 52.4884 21.4014 52.6005 21.6708L55.3702 20.518C55.7437 21.4155 56.0729 22.3374 56.3546 23.2807L53.4801 24.1393C53.5633 24.4177 53.6418 24.6982 53.7156 24.9806L56.6181 24.2219C56.8635 25.1607 57.0624 26.119 57.2122 27.0943L54.247 27.5497C54.2911 27.8368 54.3304 28.1257 54.3649 28.4162L57.344 28.0623Z" stroke="#ADB5BD" stroke-width="6" stroke-dasharray="1 3"/>
<path opacity="0.2" d="M59.7273 31.6875C59.7273 37.6827 58.0034 43.5434 54.7736 48.5282C51.5437 53.5131 46.953 57.3983 41.582 59.6926C36.2109 61.9869 30.3008 62.5872 24.5989 61.4176C18.8971 60.2479 13.6596 57.361 9.54874 53.1217C5.43792 48.8824 2.63842 43.4812 1.50425 37.6012C0.370078 31.7211 0.952176 25.6263 3.17693 20.0874C5.40169 14.5485 9.16919 9.81436 14.003 6.48358C18.8368 3.1528 24.5198 1.375 30.3334 1.375V31.6875H59.7273Z" fill="url(#paint0_radial_4_127786)"/>
</g>
<path d="M23.2747 4.52084C17.4756 6.12326 12.3513 9.65421 8.69649 14.5661C5.04169 19.478 3.06067 25.4962 3.06067 31.6875H9.60612C9.60613 26.9821 11.1117 22.4082 13.8893 18.6752C16.667 14.9422 20.5615 12.2587 24.9688 11.0408L23.2747 4.52084Z" fill="#FFCD39"/>
<circle cx="30.6667" cy="31.5217" r="7.65217" fill="#89A7A7" fill-opacity="0.32"/>
<path d="M25.5986 12.5176L32.2672 30.4104C32.6417 31.4153 32.0697 32.5245 31.0338 32.8021C29.9979 33.0797 28.9479 32.4051 28.7698 31.3475L25.5986 12.5176Z" fill="#737C7B"/>
<circle cx="30.6512" cy="31.3742" r="1.91304" transform="rotate(-15 30.6512 31.3742)" fill="#737C7B"/>
<defs>
<radialGradient id="paint0_radial_4_127786" cx="0" cy="0" r="1" gradientUnits="userSpaceOnUse" gradientTransform="translate(30.3334 31.6875) rotate(90) scale(30.3125 29.3939)">
<stop offset="0.785075" stop-color="#C8D2D1" stop-opacity="0"/>
<stop offset="1" stop-color="#C8D2D1"/>
</radialGradient>
<clipPath id="clip0_4_127786">
<rect width="60" height="30.9375" fill="white" transform="translate(0.333374 0.75)"/>
</clipPath>
</defs>
</svg>
