<svg width="798" height="585" viewBox="0 0 798 585" fill="none" xmlns="http://www.w3.org/2000/svg">
<g opacity="0.3">
<path d="M311.844 60.454C315.809 53.362 318.767 48.0731 321.548 44.0358C324.324 40.007 326.905 37.2556 330.099 35.2279C333.201 33.2588 336.654 31.8003 340.229 30.95C343.909 30.0743 347.681 30.1433 352.504 30.9628C357.338 31.7841 363.191 33.352 371.039 35.455L521.128 75.6712C528.978 77.7745 534.829 79.3429 539.199 80.9874C543.567 82.6312 546.383 84.326 548.213 86.6392C550 88.8976 551.117 91.5408 551.489 94.3965C551.871 97.3216 551.123 100.521 549.255 104.799C547.386 109.078 544.431 114.366 540.465 121.459L464.636 257.083C460.671 264.175 457.713 269.464 454.931 273.501C452.156 277.53 449.575 280.281 446.381 282.309C443.279 284.278 439.826 285.737 436.251 286.587C432.571 287.463 428.799 287.394 423.976 286.574C419.142 285.753 413.289 284.185 405.441 282.082L255.352 241.866C247.502 239.763 241.651 238.194 237.281 236.55C232.913 234.906 230.097 233.211 228.267 230.898C226.479 228.64 225.363 225.996 224.991 223.141C224.609 220.215 225.357 217.016 227.225 212.738C229.093 208.459 232.049 203.171 236.015 196.078L311.844 60.454ZM486.043 525.108C482.078 532.2 479.12 537.489 476.338 541.526C473.563 545.555 470.982 548.307 467.788 550.334C464.686 552.303 461.233 553.762 457.658 554.612C453.978 555.488 450.206 555.419 445.383 554.599C440.549 553.778 434.696 552.21 426.848 550.107L276.759 509.891C268.909 507.788 263.058 506.219 258.688 504.575C254.32 502.931 251.504 501.236 249.674 498.923C247.886 496.665 246.77 494.021 246.398 491.166C246.016 488.241 246.764 485.041 248.632 480.763C250.5 476.484 253.456 471.197 257.422 464.104L333.251 328.479C337.216 321.387 340.174 316.098 342.956 312.061C345.731 308.032 348.312 305.281 351.506 303.253C354.608 301.284 358.061 299.825 361.636 298.975C365.316 298.099 369.088 298.168 373.911 298.988C378.745 299.809 384.598 301.377 392.446 303.48L542.535 343.696C550.385 345.8 556.236 347.368 560.606 349.012C564.974 350.656 567.79 352.351 569.62 354.664C571.408 356.923 572.524 359.566 572.896 362.422C573.278 365.347 572.53 368.546 570.662 372.824C568.794 377.103 565.838 382.391 561.872 389.484L486.043 525.108ZM512.112 221.416C516.077 214.324 519.034 209.035 521.816 204.998C524.592 200.969 527.172 198.218 530.366 196.19C533.468 194.221 536.922 192.762 540.496 191.912C544.177 191.036 547.948 191.105 552.772 191.924C557.605 192.746 563.459 194.314 571.307 196.417L617.899 208.901C625.748 211.004 631.6 212.573 635.969 214.217C640.338 215.861 643.153 217.556 644.984 219.869C646.771 222.127 647.887 224.77 648.26 227.626C648.641 230.551 647.893 233.751 646.026 238.028C644.157 242.307 641.202 247.595 637.236 254.688L613.584 296.993C609.619 304.085 606.661 309.374 603.88 313.411C601.104 317.44 598.524 320.192 595.329 322.22C592.227 324.189 588.774 325.647 585.2 326.498C581.519 327.373 577.747 327.304 572.924 326.485C568.09 325.663 562.237 324.096 554.388 321.993L507.797 309.508C499.947 307.405 494.096 305.837 489.726 304.192C485.358 302.548 482.543 300.854 480.712 298.541C478.925 296.282 477.808 293.639 477.436 290.783C477.054 287.858 477.802 284.659 479.67 280.381C481.538 276.102 484.494 270.815 488.459 263.722L512.112 221.416ZM285.775 364.146C281.81 371.238 278.853 376.527 276.071 380.564C273.295 384.593 270.715 387.345 267.521 389.372C264.419 391.342 260.965 392.8 257.391 393.651C253.71 394.526 249.939 394.457 245.115 393.638C240.282 392.816 234.428 391.248 226.58 389.145L179.988 376.661C172.138 374.558 166.287 372.99 161.917 371.345C157.549 369.701 154.734 368.007 152.903 365.693C151.116 363.435 150 360.792 149.627 357.936C149.246 355.011 149.994 351.811 151.861 347.534C153.73 343.255 156.685 337.967 160.651 330.875L184.303 288.569C188.268 281.477 191.226 276.188 194.007 272.151C196.783 268.122 199.363 265.37 202.557 263.343C205.659 261.373 209.113 259.915 212.687 259.065C216.368 258.189 220.14 258.258 224.963 259.077C229.797 259.899 235.65 261.467 243.499 263.57L290.09 276.054C297.94 278.157 303.791 279.725 308.161 281.37C312.529 283.014 315.344 284.708 317.175 287.022C318.962 289.28 320.078 291.923 320.451 294.779C320.833 297.704 320.084 300.904 318.217 305.181C316.349 309.46 313.393 314.748 309.427 321.841L285.775 364.146Z" stroke="white"/>
</g>
</svg>
