<svg width="16" height="16" viewBox="0 0 16 16" fill="none" xmlns="http://www.w3.org/2000/svg">
<g clip-path="url(#clip0_12_10806)">
<path d="M7.99966 14.9992C6.14315 14.9992 4.36267 14.2617 3.04992 12.9489C1.73716 11.6362 0.999664 9.85569 0.999664 7.99918C0.999664 6.14266 1.73716 4.36218 3.04992 3.04943C4.36267 1.73667 6.14315 0.999176 7.99966 0.999176C9.85618 0.999176 11.6367 1.73667 12.9494 3.04943C14.2622 4.36218 14.9997 6.14266 14.9997 7.99918C14.9997 9.85569 14.2622 11.6362 12.9494 12.9489C11.6367 14.2617 9.85618 14.9992 7.99966 14.9992ZM7.99966 15.9992C10.1214 15.9992 12.1562 15.1563 13.6565 13.656C15.1568 12.1557 15.9997 10.1209 15.9997 7.99918C15.9997 5.87744 15.1568 3.84261 13.6565 2.34232C12.1562 0.842031 10.1214 -0.000823975 7.99966 -0.000823975C5.87793 -0.000823975 3.8431 0.842031 2.34281 2.34232C0.842519 3.84261 -0.000335693 5.87744 -0.000335693 7.99918C-0.000335693 10.1209 0.842519 12.1557 2.34281 13.656C3.8431 15.1563 5.87793 15.9992 7.99966 15.9992Z" fill="black"/>
<path d="M7.99966 3.99918C8.13227 3.99918 8.25945 4.05185 8.35322 4.14562C8.44699 4.23939 8.49966 4.36657 8.49966 4.49918V7.49918H11.4997C11.6323 7.49918 11.7594 7.55185 11.8532 7.64562C11.947 7.73939 11.9997 7.86657 11.9997 7.99918C11.9997 8.13178 11.947 8.25896 11.8532 8.35273C11.7594 8.4465 11.6323 8.49918 11.4997 8.49918H8.49966V11.4992C8.49966 11.6318 8.44699 11.759 8.35322 11.8527C8.25945 11.9465 8.13227 11.9992 7.99966 11.9992C7.86706 11.9992 7.73988 11.9465 7.64611 11.8527C7.55234 11.759 7.49966 11.6318 7.49966 11.4992V8.49918H4.49966C4.36706 8.49918 4.23988 8.4465 4.14611 8.35273C4.05234 8.25896 3.99966 8.13178 3.99966 7.99918C3.99966 7.86657 4.05234 7.73939 4.14611 7.64562C4.23988 7.55185 4.36706 7.49918 4.49966 7.49918H7.49966V4.49918C7.49966 4.36657 7.55234 4.23939 7.64611 4.14562C7.73988 4.05185 7.86706 3.99918 7.99966 3.99918Z" fill="black"/>
</g>
<defs>
<clipPath id="clip0_12_10806">
<rect width="16" height="16" fill="white"/>
</clipPath>
</defs>
</svg>
