<svg width="32" height="32" viewBox="0 0 32 32" fill="none" xmlns="http://www.w3.org/2000/svg">
<rect width="32" height="32" rx="6" fill="url(#paint0_linear_8_1110)"/>
<path d="M22.7191 9.25092C21.2775 9.25092 20.1046 10.4238 20.1046 11.8654C20.1046 13.307 21.2775 14.4799 22.7191 14.4799C24.1607 14.4799 25.3336 13.307 25.3336 11.8654C25.3336 10.4238 24.1607 9.25092 22.7191 9.25092ZM22.7191 13.3856C21.8808 13.3856 21.1989 12.7037 21.1989 11.8654C21.1989 11.0271 21.8808 10.3452 22.7191 10.3452C23.5574 10.3452 24.2393 11.0271 24.2393 11.8654C24.2393 12.7037 23.5574 13.3856 22.7191 13.3856Z" fill="white"/>
<path d="M7.34345 12.7691C7.45029 12.8759 7.59032 12.9293 7.73035 12.9293C7.87038 12.9293 8.01042 12.8759 8.11726 12.7691L9.53931 11.347L10.9614 12.7691C11.0682 12.8759 11.2082 12.9293 11.3483 12.9293C11.4883 12.9293 11.6283 12.8759 11.7352 12.7691C11.9488 12.5555 11.9488 12.209 11.7352 11.9953L10.3131 10.5733L11.7351 9.15124C11.9487 8.93761 11.9487 8.59112 11.7351 8.37743C11.5214 8.16386 11.1751 8.16386 10.9613 8.37743L9.53931 9.79948L8.11726 8.37743C7.90357 8.16386 7.5572 8.16386 7.34345 8.37743C7.12982 8.59106 7.12982 8.93755 7.34345 9.15124L8.7655 10.5733L7.34345 11.9953C7.12982 12.209 7.12982 12.5554 7.34345 12.7691Z" fill="white"/>
<path d="M18.9708 19.2309C18.7571 19.0174 18.4108 19.0174 18.197 19.2309L16.775 20.6529L15.353 19.2309C15.1393 19.0174 14.7929 19.0174 14.5792 19.2309C14.3655 19.4446 14.3655 19.7911 14.5792 20.0048L16.0012 21.4267L14.5792 22.8488C14.3655 23.0624 14.3655 23.4089 14.5792 23.6226C14.686 23.7294 14.826 23.7828 14.9661 23.7828C15.1061 23.7828 15.2461 23.7294 15.353 23.6226L16.775 22.2006L18.197 23.6225C18.3039 23.7293 18.4439 23.7827 18.5839 23.7827C18.7239 23.7827 18.864 23.7293 18.9708 23.6225C19.1845 23.4089 19.1845 23.0624 18.9708 22.8487L17.5488 21.4267L18.9708 20.0048C19.1845 19.7911 19.1845 19.4446 18.9708 19.2309Z" fill="white"/>
<path d="M19.0137 11.5588L16.8072 9.64073C16.5792 9.44244 16.2336 9.46676 16.0353 9.69472C15.8371 9.92274 15.8613 10.2683 16.0893 10.4666L17.2595 11.4838C13.8057 11.9355 11.7608 13.7404 10.6239 15.2659C9.62819 16.6021 9.16266 17.9182 8.97574 18.5723C7.67763 18.7241 6.66675 19.8301 6.66675 21.1683C6.66675 22.6099 7.8396 23.7828 9.28119 23.7828C10.7228 23.7828 11.8957 22.61 11.8957 21.1683C11.8957 20.0079 11.1355 19.0221 10.0871 18.6815C10.284 18.0595 10.7105 16.9702 11.5278 15.8845C12.9508 13.9946 14.9275 12.8815 17.4141 12.565L16.3238 13.8193C16.1256 14.0473 16.1498 14.3929 16.3778 14.5912C16.4814 14.6813 16.6092 14.7254 16.7365 14.7254C16.8894 14.7254 17.0415 14.6616 17.1497 14.5372L19.0677 12.3307C19.266 12.1026 19.2418 11.7571 19.0137 11.5588ZM10.8014 21.1683C10.8014 22.0066 10.1195 22.6886 9.28119 22.6886C8.44296 22.6886 7.76103 22.0066 7.76103 21.1683C7.76103 20.3301 8.44296 19.6482 9.28119 19.6482C10.1194 19.6482 10.8014 20.3301 10.8014 21.1683Z" fill="white"/>
<defs>
<linearGradient id="paint0_linear_8_1110" x1="32" y1="32" x2="2.66667" y2="-1.43051e-06" gradientUnits="userSpaceOnUse">
<stop stop-color="#F6D365"/>
<stop offset="1" stop-color="#FDA085"/>
</linearGradient>
</defs>
</svg>
