<svg width="260" height="88" viewBox="0 0 260 88" fill="none" xmlns="http://www.w3.org/2000/svg">
<path d="M30.8002 27.2952C31.136 25.9939 31.304 25.3433 31.7459 24.8715C31.9586 24.6445 32.2117 24.4512 32.4883 24.3046C33.0628 24 33.7468 24 35.1149 24H48.2112C49.5793 24 50.2633 24 50.6806 24.3046C50.8815 24.4512 51.0348 24.6445 51.1304 24.8715C51.3288 25.3433 51.1609 25.9939 50.8251 27.2952L47.6103 39.7524C47.2744 41.0537 47.1065 41.7044 46.6646 42.1761C46.4518 42.4032 46.1988 42.5964 45.9222 42.743C45.3477 43.0476 44.6636 43.0476 43.2955 43.0476H30.1993C28.8312 43.0476 28.1471 43.0476 27.7298 42.743C27.5289 42.5964 27.3756 42.4032 27.2801 42.1761C27.0816 41.7044 27.2495 41.0537 27.5854 39.7524L30.8002 27.2952Z" fill="url(#paint0_linear_2306_534654)"/>
<path d="M55.1998 60.7048C54.864 62.0061 54.696 62.6567 54.2541 63.1285C54.0414 63.3555 53.7883 63.5488 53.5117 63.6954C52.9372 64 52.2532 64 50.8851 64H37.7888C36.4207 64 35.7367 64 35.3194 63.6954C35.1185 63.5488 34.9652 63.3555 34.8696 63.1285C34.6712 62.6567 34.8391 62.0061 35.1749 60.7048L38.3897 48.2476C38.7256 46.9463 38.8935 46.2956 39.3354 45.8239C39.5482 45.5968 39.8012 45.4036 40.0778 45.257C40.6523 44.9524 41.3364 44.9524 42.7045 44.9524H55.8007C57.1688 44.9524 57.8529 44.9524 58.2702 45.257C58.4711 45.4036 58.6244 45.5968 58.7199 45.8239C58.9184 46.2956 58.7505 46.9463 58.4146 48.2476L55.1998 60.7048Z" fill="url(#paint1_linear_2306_534654)"/>
<path d="M50.6156 35.8667C50.9514 34.5654 51.1193 33.9147 51.5613 33.443C51.774 33.2159 52.0271 33.0226 52.3036 32.876C52.8782 32.5714 53.5622 32.5714 54.9303 32.5714H58.9958C60.3638 32.5714 61.0479 32.5714 61.4652 32.876C61.6661 33.0226 61.8194 33.2159 61.9149 33.4429C62.1134 33.9147 61.9455 34.5653 61.6097 35.8666L60.607 39.7523C60.2712 41.0537 60.1033 41.7043 59.6613 42.1761C59.4486 42.4031 59.1955 42.5964 58.9189 42.743C58.3444 43.0476 57.6604 43.0476 56.2922 43.0476H52.2268C50.8587 43.0476 50.1747 43.0476 49.7574 42.743C49.5565 42.5964 49.4032 42.4032 49.3077 42.1761C49.1092 41.7044 49.2771 41.0537 49.6129 39.7524L50.6156 35.8667Z" fill="url(#paint2_linear_2306_534654)"/>
<path d="M35.3844 52.1333C35.0486 53.4346 34.8807 54.0853 34.4387 54.557C34.226 54.7841 33.9729 54.9774 33.6964 55.124C33.1218 55.4286 32.4378 55.4286 31.0697 55.4286H27.0042C25.6362 55.4286 24.9521 55.4286 24.5348 55.124C24.3339 54.9774 24.1806 54.7841 24.0851 54.5571C23.8866 54.0853 24.0545 53.4347 24.3903 52.1334L25.393 48.2477C25.7288 46.9463 25.8967 46.2957 26.3387 45.8239C26.5514 45.5969 26.8045 45.4036 27.0811 45.257C27.6556 44.9524 28.3396 44.9524 29.7078 44.9524H33.7732C35.1413 44.9524 35.8253 44.9524 36.2426 45.257C36.4435 45.4036 36.5968 45.5968 36.6923 45.8239C36.8908 46.2956 36.7229 46.9463 36.3871 48.2476L35.3844 52.1333Z" fill="url(#paint3_linear_2306_534654)"/>
<path d="M79.738 50.5L84.773 37.2H87.566L82.284 50.5H79.738ZM79.453 50.5L74.152 37.2H76.945L81.999 50.5H79.453ZM98.3709 50.5L89.7639 38.625L91.8729 37.2L100.442 49.018L98.3709 50.5ZM89.1559 50.5V37.2H91.8729L91.7589 39.499V50.519L89.1559 50.5ZM98.3709 50.5V37.2H100.955V50.5H98.3709ZM109.722 50.728C108.43 50.728 107.284 50.4367 106.283 49.854C105.283 49.2587 104.497 48.448 103.927 47.422C103.357 46.3833 103.072 45.1927 103.072 43.85C103.072 42.5073 103.357 41.323 103.927 40.297C104.497 39.2583 105.276 38.4477 106.264 37.865C107.265 37.2697 108.411 36.972 109.703 36.972C110.615 36.972 111.464 37.1367 112.249 37.466C113.035 37.7827 113.719 38.2323 114.301 38.815C114.897 39.385 115.353 40.0437 115.669 40.791L113.256 41.684C113.041 41.2153 112.756 40.81 112.401 40.468C112.047 40.1133 111.641 39.841 111.185 39.651C110.729 39.4483 110.235 39.347 109.703 39.347C108.931 39.347 108.24 39.5433 107.632 39.936C107.037 40.316 106.568 40.8417 106.226 41.513C105.897 42.1843 105.732 42.9633 105.732 43.85C105.732 44.7367 105.903 45.522 106.245 46.206C106.587 46.8773 107.062 47.4093 107.67 47.802C108.278 48.182 108.975 48.372 109.76 48.372C110.305 48.372 110.799 48.2707 111.242 48.068C111.698 47.8527 112.097 47.5613 112.439 47.194C112.794 46.8267 113.079 46.4023 113.294 45.921L115.707 46.795C115.391 47.5677 114.935 48.2517 114.339 48.847C113.757 49.4423 113.073 49.9047 112.287 50.234C111.502 50.5633 110.647 50.728 109.722 50.728ZM126.402 50.5V48.068C127.01 48.068 127.574 47.9603 128.093 47.745C128.612 47.5297 129.062 47.232 129.442 46.852C129.835 46.472 130.139 46.0287 130.354 45.522C130.569 45.0027 130.677 44.4453 130.677 43.85C130.677 43.2547 130.569 42.7037 130.354 42.197C130.139 41.6777 129.835 41.228 129.442 40.848C129.062 40.468 128.612 40.1703 128.093 39.955C127.574 39.7397 127.01 39.632 126.402 39.632V37.2C127.757 37.2 128.954 37.485 129.993 38.055C131.044 38.625 131.861 39.4103 132.444 40.411C133.039 41.399 133.337 42.5453 133.337 43.85C133.337 45.142 133.039 46.2883 132.444 47.289C131.849 48.2897 131.032 49.075 129.993 49.645C128.954 50.215 127.757 50.5 126.402 50.5ZM123.647 50.5V48.068H126.402V50.5H123.647ZM122.146 50.5V37.2H124.749V50.5H122.146ZM123.647 39.632V37.2H126.402V39.632H123.647ZM139.535 50.728C138.598 50.728 137.768 50.519 137.046 50.101C136.324 49.6703 135.754 49.0813 135.336 48.334C134.931 47.5867 134.728 46.7253 134.728 45.75C134.728 44.7747 134.937 43.9133 135.355 43.166C135.786 42.4187 136.368 41.836 137.103 41.418C137.85 40.9873 138.705 40.772 139.668 40.772C140.491 40.772 141.251 40.9937 141.948 41.437C142.657 41.8677 143.227 42.5073 143.658 43.356C144.089 44.192 144.304 45.2117 144.304 46.415H141.758C141.771 45.579 141.682 44.914 141.492 44.42C141.315 43.9133 141.061 43.5523 140.732 43.337C140.403 43.109 140.016 42.995 139.573 42.995C139.104 42.995 138.705 43.0963 138.376 43.299C138.059 43.5017 137.819 43.812 137.654 44.23C137.489 44.6353 137.407 45.1673 137.407 45.826C137.407 46.396 137.515 46.871 137.73 47.251C137.945 47.631 138.237 47.9223 138.604 48.125C138.971 48.315 139.37 48.41 139.801 48.41C140.295 48.41 140.694 48.3023 140.998 48.087C141.315 47.8717 141.555 47.593 141.72 47.251L144.076 48.163C143.797 48.695 143.449 49.1573 143.031 49.55C142.613 49.93 142.113 50.2213 141.53 50.424C140.947 50.6267 140.282 50.728 139.535 50.728ZM136.362 46.415L136.381 44.458H143.069V46.415H136.362ZM149.478 50.728C148.87 50.728 148.3 50.6393 147.768 50.462C147.236 50.272 146.767 50.006 146.362 49.664C145.956 49.3093 145.64 48.8787 145.412 48.372L147.559 47.384C147.749 47.6753 148.008 47.9287 148.338 48.144C148.667 48.3593 149.047 48.467 149.478 48.467C149.883 48.467 150.2 48.41 150.428 48.296C150.656 48.182 150.77 48.0173 150.77 47.802C150.77 47.574 150.675 47.4093 150.485 47.308C150.307 47.194 150.067 47.099 149.763 47.023L148.889 46.795C147.964 46.5543 147.236 46.1743 146.704 45.655C146.184 45.123 145.925 44.515 145.925 43.831C145.925 42.8557 146.241 42.102 146.875 41.57C147.508 41.038 148.401 40.772 149.554 40.772C150.149 40.772 150.7 40.8607 151.207 41.038C151.726 41.2153 152.169 41.4623 152.537 41.779C152.904 42.0957 153.157 42.463 153.297 42.881L151.226 43.831C151.137 43.5777 150.922 43.3813 150.58 43.242C150.238 43.09 149.896 43.014 149.554 43.014C149.224 43.014 148.965 43.0837 148.775 43.223C148.597 43.3623 148.509 43.5523 148.509 43.793C148.509 43.9577 148.597 44.097 148.775 44.211C148.952 44.3123 149.199 44.401 149.516 44.477L150.751 44.781C151.371 44.933 151.872 45.18 152.252 45.522C152.632 45.8513 152.904 46.225 153.069 46.643C153.246 47.0483 153.335 47.4473 153.335 47.84C153.335 48.41 153.164 48.9167 152.822 49.36C152.492 49.7907 152.036 50.1263 151.454 50.367C150.884 50.6077 150.225 50.728 149.478 50.728ZM154.927 50.5V41H157.435V50.5H154.927ZM156.181 39.461C155.801 39.461 155.466 39.3217 155.174 39.043C154.883 38.7517 154.737 38.4097 154.737 38.017C154.737 37.6243 154.883 37.2887 155.174 37.01C155.466 36.7187 155.801 36.573 156.181 36.573C156.574 36.573 156.91 36.7187 157.188 37.01C157.48 37.2887 157.625 37.6243 157.625 38.017C157.625 38.4097 157.48 38.7517 157.188 39.043C156.91 39.3217 156.574 39.461 156.181 39.461ZM164.023 54.547C163.301 54.547 162.661 54.4963 162.104 54.395C161.547 54.2937 161.078 54.1607 160.698 53.996C160.318 53.8313 160.008 53.6667 159.767 53.502L160.755 51.488C160.932 51.5893 161.167 51.7033 161.458 51.83C161.749 51.9693 162.098 52.0833 162.503 52.172C162.908 52.2733 163.377 52.324 163.909 52.324C164.416 52.324 164.859 52.2227 165.239 52.02C165.632 51.83 165.936 51.526 166.151 51.108C166.379 50.7027 166.493 50.1833 166.493 49.55V41H169.001V49.474C169.001 50.538 168.798 51.45 168.393 52.21C167.988 52.9827 167.411 53.5653 166.664 53.958C165.929 54.3507 165.049 54.547 164.023 54.547ZM163.529 50.234C162.655 50.234 161.895 50.044 161.249 49.664C160.616 49.284 160.122 48.752 159.767 48.068C159.412 47.384 159.235 46.5733 159.235 45.636C159.235 44.648 159.412 43.793 159.767 43.071C160.122 42.3363 160.616 41.7727 161.249 41.38C161.895 40.9747 162.655 40.772 163.529 40.772C164.289 40.772 164.948 40.9747 165.505 41.38C166.062 41.7727 166.493 42.3363 166.797 43.071C167.101 43.8057 167.253 44.6797 167.253 45.693C167.253 46.605 167.101 47.403 166.797 48.087C166.493 48.771 166.062 49.303 165.505 49.683C164.948 50.0503 164.289 50.234 163.529 50.234ZM164.251 48.125C164.682 48.125 165.055 48.0173 165.372 47.802C165.701 47.574 165.955 47.27 166.132 46.89C166.309 46.4973 166.398 46.054 166.398 45.56C166.398 45.0533 166.303 44.61 166.113 44.23C165.936 43.85 165.682 43.5523 165.353 43.337C165.036 43.1217 164.663 43.014 164.232 43.014C163.789 43.014 163.396 43.1217 163.054 43.337C162.712 43.5523 162.446 43.85 162.256 44.23C162.066 44.61 161.965 45.0533 161.952 45.56C161.965 46.054 162.066 46.4973 162.256 46.89C162.446 47.27 162.712 47.574 163.054 47.802C163.409 48.0173 163.808 48.125 164.251 48.125ZM170.992 50.5V41H173.348L173.5 42.748V50.5H170.992ZM177.281 50.5V45.636L179.789 45.066V50.5H177.281ZM177.281 45.636C177.281 44.99 177.205 44.4897 177.053 44.135C176.914 43.7803 176.711 43.527 176.445 43.375C176.179 43.2103 175.869 43.128 175.514 43.128C174.868 43.1153 174.368 43.3117 174.013 43.717C173.671 44.1223 173.5 44.724 173.5 45.522H172.664C172.664 44.5087 172.81 43.6537 173.101 42.957C173.405 42.2477 173.823 41.7093 174.355 41.342C174.887 40.962 175.514 40.772 176.236 40.772C177.389 40.772 178.269 41.1267 178.877 41.836C179.498 42.5327 179.802 43.6093 179.789 45.066L177.281 45.636ZM186.237 50.728C185.3 50.728 184.47 50.519 183.748 50.101C183.026 49.6703 182.456 49.0813 182.038 48.334C181.633 47.5867 181.43 46.7253 181.43 45.75C181.43 44.7747 181.639 43.9133 182.057 43.166C182.488 42.4187 183.07 41.836 183.805 41.418C184.552 40.9873 185.407 40.772 186.37 40.772C187.193 40.772 187.953 40.9937 188.65 41.437C189.359 41.8677 189.929 42.5073 190.36 43.356C190.791 44.192 191.006 45.2117 191.006 46.415H188.46C188.473 45.579 188.384 44.914 188.194 44.42C188.017 43.9133 187.763 43.5523 187.434 43.337C187.105 43.109 186.718 42.995 186.275 42.995C185.806 42.995 185.407 43.0963 185.078 43.299C184.761 43.5017 184.521 43.812 184.356 44.23C184.191 44.6353 184.109 45.1673 184.109 45.826C184.109 46.396 184.217 46.871 184.432 47.251C184.647 47.631 184.939 47.9223 185.306 48.125C185.673 48.315 186.072 48.41 186.503 48.41C186.997 48.41 187.396 48.3023 187.7 48.087C188.017 47.8717 188.257 47.593 188.422 47.251L190.778 48.163C190.499 48.695 190.151 49.1573 189.733 49.55C189.315 49.93 188.815 50.2213 188.232 50.424C187.649 50.6267 186.984 50.728 186.237 50.728ZM183.064 46.415L183.083 44.458H189.771V46.415H183.064ZM194.394 45.503C194.394 44.477 194.59 43.6283 194.983 42.957C195.388 42.2857 195.901 41.7853 196.522 41.456C197.155 41.1267 197.814 40.962 198.498 40.962V43.394C197.915 43.394 197.364 43.4637 196.845 43.603C196.338 43.7423 195.927 43.9703 195.61 44.287C195.293 44.6037 195.135 45.009 195.135 45.503H194.394ZM192.627 50.5V41H195.135V50.5H192.627Z" fill="white"/>
<g opacity="0.5" clip-path="url(#clip0_2306_534654)">
<rect width="20" height="20" transform="translate(228 34)" fill="white" fill-opacity="0.01"/>
<path fill-rule="evenodd" clip-rule="evenodd" d="M238.445 36.0586C238.503 36.1167 238.549 36.1856 238.581 36.2616C238.612 36.3375 238.629 36.4189 238.629 36.5011C238.629 36.5833 238.612 36.6647 238.581 36.7407C238.549 36.8166 238.503 36.8856 238.445 36.9436L231.386 44.0011L238.445 51.0586C238.562 51.176 238.628 51.3351 238.628 51.5011C238.628 51.6671 238.562 51.8263 238.445 51.9436C238.328 52.061 238.168 52.1269 238.002 52.1269C237.836 52.1269 237.677 52.061 237.56 51.9436L230.06 44.4436C230.002 44.3856 229.956 44.3166 229.924 44.2407C229.893 44.1647 229.876 44.0833 229.876 44.0011C229.876 43.9189 229.893 43.8375 229.924 43.7616C229.956 43.6856 230.002 43.6167 230.06 43.5586L237.56 36.0586C237.618 36.0004 237.687 35.9542 237.763 35.9227C237.839 35.8912 237.92 35.875 238.002 35.875C238.085 35.875 238.166 35.8912 238.242 35.9227C238.318 35.9542 238.387 36.0004 238.445 36.0586Z" fill="white"/>
<path fill-rule="evenodd" clip-rule="evenodd" d="M243.445 36.0586C243.503 36.1167 243.549 36.1856 243.581 36.2616C243.612 36.3375 243.629 36.4189 243.629 36.5011C243.629 36.5833 243.612 36.6647 243.581 36.7407C243.549 36.8166 243.503 36.8856 243.445 36.9436L236.386 44.0011L243.445 51.0586C243.503 51.1167 243.549 51.1857 243.581 51.2616C243.612 51.3376 243.628 51.4189 243.628 51.5011C243.628 51.5833 243.612 51.6647 243.581 51.7406C243.549 51.8165 243.503 51.8855 243.445 51.9436C243.387 52.0017 243.318 52.0478 243.242 52.0793C243.166 52.1107 243.085 52.1269 243.002 52.1269C242.92 52.1269 242.839 52.1107 242.763 52.0793C242.687 52.0478 242.618 52.0017 242.56 51.9436L235.06 44.4436C235.002 44.3856 234.956 44.3166 234.924 44.2407C234.893 44.1647 234.876 44.0833 234.876 44.0011C234.876 43.9189 234.893 43.8375 234.924 43.7616C234.956 43.6856 235.002 43.6167 235.06 43.5586L242.56 36.0586C242.618 36.0004 242.687 35.9542 242.763 35.9227C242.839 35.8912 242.92 35.875 243.002 35.875C243.085 35.875 243.166 35.8912 243.242 35.9227C243.318 35.9542 243.387 36.0004 243.445 36.0586Z" fill="white"/>
</g>
<defs>
<linearGradient id="paint0_linear_2306_534654" x1="46.9048" y1="26.9473" x2="29.7567" y2="58.2847" gradientUnits="userSpaceOnUse">
<stop stop-color="#0051EE"/>
<stop offset="0.471862" stop-color="#05B4FF"/>
<stop offset="1" stop-color="#24FFD8"/>
</linearGradient>
<linearGradient id="paint1_linear_2306_534654" x1="46.9048" y1="26.9473" x2="29.7567" y2="58.2847" gradientUnits="userSpaceOnUse">
<stop stop-color="#0051EE"/>
<stop offset="0.471862" stop-color="#05B4FF"/>
<stop offset="1" stop-color="#24FFD8"/>
</linearGradient>
<linearGradient id="paint2_linear_2306_534654" x1="46.9048" y1="26.9473" x2="29.7567" y2="58.2847" gradientUnits="userSpaceOnUse">
<stop stop-color="#0051EE"/>
<stop offset="0.471862" stop-color="#05B4FF"/>
<stop offset="1" stop-color="#24FFD8"/>
</linearGradient>
<linearGradient id="paint3_linear_2306_534654" x1="46.9048" y1="26.9473" x2="29.7567" y2="58.2847" gradientUnits="userSpaceOnUse">
<stop stop-color="#0051EE"/>
<stop offset="0.471862" stop-color="#05B4FF"/>
<stop offset="1" stop-color="#24FFD8"/>
</linearGradient>
<clipPath id="clip0_2306_534654">
<rect width="20" height="20" fill="white" transform="translate(228 34)"/>
</clipPath>
</defs>
</svg>
