<svg width="18" height="18" viewBox="0 0 18 18" fill="none" xmlns="http://www.w3.org/2000/svg">
<path d="M14.3457 12.8507C14.7324 13.0441 15.0811 13.2814 15.3916 13.5627C15.7021 13.8439 15.9658 14.1574 16.1826 14.5031C16.3994 14.8488 16.5693 15.2238 16.6924 15.6281C16.8154 16.0324 16.877 16.4484 16.877 16.8761H15.752C15.752 16.4132 15.6641 15.9767 15.4883 15.5666C15.3125 15.1564 15.0723 14.799 14.7676 14.4943C14.4629 14.1896 14.1025 13.9464 13.6865 13.7648C13.2705 13.5832 12.834 13.4953 12.377 13.5011C11.9082 13.5011 11.4717 13.589 11.0674 13.7648C10.6631 13.9406 10.3057 14.1808 9.99512 14.4855C9.68457 14.7902 9.44141 15.1505 9.26562 15.5666C9.08984 15.9826 9.00195 16.4191 9.00195 16.8761H7.87695C7.87695 16.4484 7.93555 16.0324 8.05273 15.6281C8.16992 15.2238 8.33984 14.8488 8.5625 14.5031C8.78516 14.1574 9.05176 13.8439 9.3623 13.5627C9.67285 13.2814 10.0215 13.0441 10.4082 12.8507C9.96875 12.5343 9.62598 12.1388 9.37988 11.6642C9.13379 11.1896 9.00781 10.6769 9.00195 10.1261C9.00195 9.66324 8.91406 9.22672 8.73828 8.81656C8.5625 8.4064 8.32227 8.04898 8.01758 7.74429C7.71289 7.43961 7.35254 7.19644 6.93652 7.0148C6.52051 6.83316 6.08398 6.74527 5.62695 6.75113C5.1582 6.75113 4.72168 6.83902 4.31738 7.0148C3.91309 7.19058 3.55566 7.43082 3.24512 7.7355C2.93457 8.04019 2.69141 8.40054 2.51562 8.81656C2.33984 9.23257 2.25195 9.6691 2.25195 10.1261H1.12695C1.12695 9.69839 1.18555 9.28238 1.30273 8.87808C1.41992 8.47379 1.58984 8.09879 1.8125 7.75308C2.03516 7.40738 2.30176 7.0939 2.6123 6.81265C2.92285 6.5314 3.27148 6.2941 3.6582 6.10074C3.21875 5.78433 2.87598 5.38882 2.62988 4.91422C2.38379 4.43961 2.25781 3.92691 2.25195 3.37613C2.25195 2.91324 2.33984 2.47672 2.51562 2.06656C2.69141 1.6564 2.93164 1.29898 3.23633 0.994293C3.54102 0.689606 3.89844 0.446442 4.30859 0.264801C4.71875 0.0831604 5.1582 -0.00473022 5.62695 0.00112915C6.08984 0.00112915 6.52637 0.0890198 6.93652 0.264801C7.34668 0.440582 7.7041 0.680817 8.00879 0.985504C8.31348 1.29019 8.55664 1.65054 8.73828 2.06656C8.91992 2.48257 9.00781 2.9191 9.00195 3.37613C9.00195 3.92691 8.87891 4.43961 8.63281 4.91422C8.38672 5.38882 8.04102 5.78433 7.5957 6.10074C8.04102 6.32339 8.43945 6.6105 8.79102 6.96207C9.14258 7.31363 9.42969 7.71207 9.65234 8.15738C9.96875 7.71793 10.3643 7.37515 10.8389 7.12906C11.3135 6.88297 11.8262 6.75699 12.377 6.75113C12.8398 6.75113 13.2764 6.83902 13.6865 7.0148C14.0967 7.19058 14.4541 7.43082 14.7588 7.7355C15.0635 8.04019 15.3066 8.40054 15.4883 8.81656C15.6699 9.23257 15.7578 9.6691 15.752 10.1261C15.752 10.6769 15.6289 11.1896 15.3828 11.6642C15.1367 12.1388 14.791 12.5343 14.3457 12.8507ZM5.62695 5.62613C5.9375 5.62613 6.22754 5.56754 6.49707 5.45035C6.7666 5.33316 7.00684 5.17203 7.21777 4.96695C7.42871 4.76187 7.58984 4.52457 7.70117 4.25504C7.8125 3.9855 7.87109 3.69254 7.87695 3.37613C7.87695 3.06558 7.81836 2.77554 7.70117 2.50601C7.58398 2.23648 7.42285 1.99625 7.21777 1.78531C7.0127 1.57437 6.77539 1.41324 6.50586 1.30191C6.23633 1.19058 5.94336 1.13199 5.62695 1.12613C5.31641 1.12613 5.02637 1.18472 4.75684 1.30191C4.4873 1.4191 4.24707 1.58023 4.03613 1.78531C3.8252 1.99039 3.66406 2.22769 3.55273 2.49722C3.44141 2.76675 3.38281 3.05972 3.37695 3.37613C3.37695 3.68668 3.43555 3.97672 3.55273 4.24625C3.66992 4.51578 3.83105 4.75601 4.03613 4.96695C4.24121 5.17789 4.47852 5.33902 4.74805 5.45035C5.01758 5.56168 5.31055 5.62027 5.62695 5.62613ZM12.377 12.3761C12.6875 12.3761 12.9775 12.3175 13.2471 12.2003C13.5166 12.0832 13.7568 11.922 13.9678 11.7169C14.1787 11.5119 14.3398 11.2746 14.4512 11.005C14.5625 10.7355 14.6211 10.4425 14.627 10.1261C14.627 9.81558 14.5684 9.52554 14.4512 9.25601C14.334 8.98648 14.1729 8.74625 13.9678 8.53531C13.7627 8.32437 13.5254 8.16324 13.2559 8.05191C12.9863 7.94058 12.6934 7.88199 12.377 7.87613C12.0664 7.87613 11.7764 7.93472 11.5068 8.05191C11.2373 8.1691 10.9971 8.33023 10.7861 8.53531C10.5752 8.74039 10.4141 8.97769 10.3027 9.24722C10.1914 9.51675 10.1328 9.80972 10.127 10.1261C10.127 10.4367 10.1855 10.7267 10.3027 10.9962C10.4199 11.2658 10.5811 11.506 10.7861 11.7169C10.9912 11.9279 11.2285 12.089 11.498 12.2003C11.7676 12.3117 12.0605 12.3703 12.377 12.3761ZM13.502 2.25113H10.127V1.12613H14.627V5.62613H13.502V2.25113Z" fill="#6C757D"/>
</svg>
