<svg width="288" height="8" viewBox="0 0 288 8" fill="none" xmlns="http://www.w3.org/2000/svg">
<g clip-path="url(#clip0_4_127745)">
<rect width="149.002" height="8" rx="4" fill="#32D583"/>
<g opacity="0.15" clip-path="url(#clip1_4_127745)">
<path d="M-16 -4L-7.99973 -4L8 12L0 12L-16 -4Z" fill="white"/>
<path d="M8.00027 -4L0 -4L16 12L24 12L8.00027 -4Z" fill="white"/>
<path d="M24.0003 -4L16 -4L32 12L40 12L24.0003 -4Z" fill="white"/>
<path d="M40.0003 -4L32 -4L48 12L56 12L40.0003 -4Z" fill="white"/>
<path d="M56.0003 -4L48 -4L64 12L72 12L56.0003 -4Z" fill="white"/>
<path d="M72.0003 -4L64 -4L80 12L88 12L72.0003 -4Z" fill="white"/>
<path d="M88.0003 -4L80 -4L96 12L104 12L88.0003 -4Z" fill="white"/>
<path d="M104 -4L96 -4L112 12L120 12L104 -4Z" fill="white"/>
<path d="M120 -4L112 -4L128 12L136 12L120 -4Z" fill="white"/>
<path d="M136 -4L128 -4L144 12L152 12L136 -4Z" fill="white"/>
<path d="M152 -4L144 -4L160 12L168 12L152 -4Z" fill="white"/>
<path d="M168 -4L160 -4L176 12L184 12L168 -4Z" fill="white"/>
<path d="M184 -4L176 -4L192 12L200 12L184 -4Z" fill="white"/>
<path d="M200 -4L192 -4L208 12L216 12L200 -4Z" fill="white"/>
<path d="M216 -4L208 -4L224 12L232 12L216 -4Z" fill="white"/>
<path d="M224 -4L232 -4L248 12L240 12L224 -4Z" fill="white"/>
<path d="M240 -4L248 -4L264 12L256 12L240 -4Z" fill="white"/>
<path d="M264 -4L256 -4L272 12L280 12L264 -4Z" fill="white"/>
<path d="M280 -4L272 -4L288 12L296 12L280 -4Z" fill="white"/>
<path d="M296 -4L288 -4L304 12L312 12L296 -4Z" fill="white"/>
<path d="M312 -4L304 -4L320 12L328 12L312 -4Z" fill="white"/>
<path d="M328 -4L320 -4L336 12L344 12L328 -4Z" fill="white"/>
<path d="M344 -4L336 -4L352 12L360 12L344 -4Z" fill="white"/>
<path d="M360 -4L352 -4L368 12L376 12L360 -4Z" fill="white"/>
<path d="M376 -4L368 -4L384 12L392 12L376 -4Z" fill="white"/>
<path d="M392 -4L384 -4L400 12L408 12L392 -4Z" fill="white"/>
<path d="M408 -4L400 -4L416 12L424 12L408 -4Z" fill="white"/>
<path d="M424 -4L416 -4L432 12L440 12L424 -4Z" fill="white"/>
</g>
<g opacity="0.15" clip-path="url(#clip2_4_127745)">
<path d="M112 -4L120 -4L136 12L128 12L112 -4Z" fill="white"/>
<path d="M136 -4L128 -4L144 12L152 12L136 -4Z" fill="white"/>
<path d="M152 -4L144 -4L160 12L168 12L152 -4Z" fill="white"/>
<path d="M168 -4L160 -4L176 12L184 12L168 -4Z" fill="white"/>
<path d="M184 -4L176 -4L192 12L200 12L184 -4Z" fill="white"/>
<path d="M200 -4L192 -4L208 12L216 12L200 -4Z" fill="white"/>
<path d="M216 -4L208 -4L224 12L232 12L216 -4Z" fill="white"/>
<path d="M232 -4L224 -4L240 12L248 12L232 -4Z" fill="white"/>
<path d="M248 -4L240 -4L256 12L264 12L248 -4Z" fill="white"/>
<path d="M264 -4L256 -4L272 12L280 12L264 -4Z" fill="white"/>
<path d="M280 -4L272 -4L288 12L296 12L280 -4Z" fill="white"/>
<path d="M296 -4L288 -4L304 12L312 12L296 -4Z" fill="white"/>
<path d="M312 -4L304 -4L320 12L328 12L312 -4Z" fill="white"/>
<path d="M328 -4L320 -4L336 12L344 12L328 -4Z" fill="white"/>
<path d="M344 -4L336 -4L352 12L360 12L344 -4Z" fill="white"/>
<path d="M352 -4L360 -4L376 12L368 12L352 -4Z" fill="white"/>
<path d="M368 -4L376 -4L392 12L384 12L368 -4Z" fill="white"/>
<path d="M392 -4L384 -4L400 12L408 12L392 -4Z" fill="white"/>
<path d="M408 -4L400 -4L416 12L424 12L408 -4Z" fill="white"/>
<path d="M424 -4L416 -4L432 12L440 12L424 -4Z" fill="white"/>
<path d="M440 -4L432 -4L448 12L456 12L440 -4Z" fill="white"/>
<path d="M456 -4L448 -4L464 12L472 12L456 -4Z" fill="white"/>
<path d="M472 -4L464 -4L480 12L488 12L472 -4Z" fill="white"/>
<path d="M488 -4L480 -4L496 12L504 12L488 -4Z" fill="white"/>
<path d="M504 -4L496 -4L512 12L520 12L504 -4Z" fill="white"/>
<path d="M520 -4L512 -4L528 12L536 12L520 -4Z" fill="white"/>
<path d="M536 -4L528 -4L544 12L552 12L536 -4Z" fill="white"/>
<path d="M552 -4L544 -4L560 12L568 12L552 -4Z" fill="white"/>
</g>
</g>
<line x1="149.002" y1="3.5" x2="288" y2="3.5" stroke="black" stroke-opacity="0.08"/>
<defs>
<clipPath id="clip0_4_127745">
<rect width="149.002" height="8" fill="white" transform="matrix(-1 0 0 -1 149.002 8)"/>
</clipPath>
<clipPath id="clip1_4_127745">
<rect width="128" height="16" fill="white" transform="translate(0 -4)"/>
</clipPath>
<clipPath id="clip2_4_127745">
<rect width="128" height="16" fill="white" transform="translate(128 -4)"/>
</clipPath>
</defs>
</svg>
