<svg width="31" height="32" viewBox="0 0 31 32" fill="none" xmlns="http://www.w3.org/2000/svg">
<g clip-path="url(#clip0_1238_24928)">
<rect width="16" height="16" transform="translate(7.5 8)" fill="white" fill-opacity="0.01"/>
<path d="M10.5 17.4993C10.1022 17.4993 9.72064 17.3412 9.43934 17.0599C9.15804 16.7786 9 16.3971 9 15.9993C9 15.6014 9.15804 15.2199 9.43934 14.9386C9.72064 14.6573 10.1022 14.4993 10.5 14.4993C10.8978 14.4993 11.2794 14.6573 11.5607 14.9386C11.842 15.2199 12 15.6014 12 15.9993C12 16.3971 11.842 16.7786 11.5607 17.0599C11.2794 17.3412 10.8978 17.4993 10.5 17.4993ZM15.5 17.4993C15.1022 17.4993 14.7206 17.3412 14.4393 17.0599C14.158 16.7786 14 16.3971 14 15.9993C14 15.6014 14.158 15.2199 14.4393 14.9386C14.7206 14.6573 15.1022 14.4993 15.5 14.4993C15.8978 14.4993 16.2794 14.6573 16.5607 14.9386C16.842 15.2199 17 15.6014 17 15.9993C17 16.3971 16.842 16.7786 16.5607 17.0599C16.2794 17.3412 15.8978 17.4993 15.5 17.4993ZM20.5 17.4993C20.1022 17.4993 19.7206 17.3412 19.4393 17.0599C19.158 16.7786 19 16.3971 19 15.9993C19 15.6014 19.158 15.2199 19.4393 14.9386C19.7206 14.6573 20.1022 14.4993 20.5 14.4993C20.8978 14.4993 21.2794 14.6573 21.5607 14.9386C21.842 15.2199 22 15.6014 22 15.9993C22 16.3971 21.842 16.7786 21.5607 17.0599C21.2794 17.3412 20.8978 17.4993 20.5 17.4993Z" fill="#ADB5BD"/>
</g>
<defs>
<clipPath id="clip0_1238_24928">
<rect width="16" height="16" fill="white" transform="translate(7.5 8)"/>
</clipPath>
</defs>
</svg>
