<svg width="48" height="48" viewBox="0 0 48 48" fill="none" xmlns="http://www.w3.org/2000/svg">
<rect width="48" height="48" rx="12" fill="url(#paint0_linear_1240_12563)"/>
<path d="M16.6797 13.9771C16.8812 13.1964 16.982 12.806 17.2471 12.5229C17.3748 12.3867 17.5266 12.2707 17.6926 12.1828C18.0373 12 18.4477 12 19.2686 12H27.1263C27.9472 12 28.3576 12 28.608 12.1828C28.7285 12.2707 28.8205 12.3867 28.8778 12.5229C28.9969 12.806 28.8962 13.1964 28.6947 13.9771L26.7658 21.4514C26.5643 22.2322 26.4635 22.6226 26.1983 22.9056C26.0707 23.0419 25.9189 23.1579 25.7529 23.2458C25.4082 23.4286 24.9978 23.4286 24.1769 23.4286H16.3192C15.4983 23.4286 15.0879 23.4286 14.8375 23.2458C14.717 23.1579 14.625 23.0419 14.5677 22.9056C14.4486 22.6226 14.5493 22.2322 14.7508 21.4514L16.6797 13.9771Z" fill="white"/>
<path d="M31.3195 34.0229C31.118 34.8037 31.0172 35.194 30.7521 35.4771C30.6244 35.6133 30.4726 35.7293 30.3067 35.8172C29.9619 36 29.5515 36 28.7307 36H20.8729C20.052 36 19.6416 36 19.3912 35.8172C19.2707 35.7293 19.1787 35.6133 19.1214 35.4771C19.0023 35.194 19.1031 34.8036 19.3046 34.0229L21.2335 26.5486C21.435 25.7678 21.5357 25.3774 21.8009 25.0944C21.9285 24.9581 22.0804 24.8422 22.2463 24.7542C22.591 24.5714 23.0014 24.5714 23.8223 24.5714H31.68C32.5009 24.5714 32.9113 24.5714 33.1617 24.7542C33.2822 24.8422 33.3742 24.9581 33.4316 25.0944C33.5506 25.3774 33.4499 25.7678 33.2484 26.5486L31.3195 34.0229Z" fill="white"/>
<path d="M28.569 19.12C28.7705 18.3392 28.8712 17.9488 29.1364 17.6658C29.264 17.5295 29.4158 17.4136 29.5818 17.3256C29.9265 17.1429 30.3369 17.1429 31.1578 17.1429H33.5971C34.4179 17.1429 34.8283 17.1429 35.0787 17.3256C35.1992 17.4136 35.2912 17.5295 35.3486 17.6658C35.4676 17.9488 35.3669 18.3392 35.1654 19.12L34.5638 21.4514C34.3623 22.2322 34.2616 22.6226 33.9964 22.9056C33.8688 23.0419 33.7169 23.1578 33.551 23.2458C33.2063 23.4286 32.7958 23.4286 31.975 23.4286H29.5357C28.7149 23.4286 28.3044 23.4286 28.0541 23.2458C27.9335 23.1579 27.8415 23.0419 27.7842 22.9057C27.6651 22.6226 27.7659 22.2322 27.9673 21.4515L28.569 19.12Z" fill="white"/>
<path d="M19.4303 28.88C19.2288 29.6608 19.128 30.0512 18.8629 30.3342C18.7352 30.4705 18.5834 30.5864 18.4174 30.6744C18.0727 30.8571 17.6623 30.8571 16.8414 30.8571H14.4022C13.5813 30.8571 13.1709 30.8571 12.9205 30.6744C12.8 30.5864 12.708 30.4705 12.6507 30.3342C12.5316 30.0512 12.6323 29.6608 12.8338 28.88L13.4354 26.5486C13.6369 25.7678 13.7377 25.3774 14.0028 25.0944C14.1305 24.9581 14.2823 24.8422 14.4482 24.7542C14.793 24.5714 15.2034 24.5714 16.0243 24.5714H18.4635C19.2844 24.5714 19.6948 24.5714 19.9452 24.7542C20.0657 24.8421 20.1577 24.9581 20.215 25.0943C20.3341 25.3774 20.2334 25.7678 20.0319 26.5485L19.4303 28.88Z" fill="white"/>
<defs>
<linearGradient id="paint0_linear_1240_12563" x1="48" y1="48" x2="0" y2="0" gradientUnits="userSpaceOnUse">
<stop stop-color="#6BEBFF"/>
<stop offset="0.48" stop-color="#53B7FF"/>
<stop offset="1" stop-color="#6962F8"/>
</linearGradient>
</defs>
</svg>
