<svg width="16" height="16" viewBox="0 0 16 16" fill="none" xmlns="http://www.w3.org/2000/svg">
<g clip-path="url(#clip0_1240_25270)">
<rect width="16" height="16" fill="white" fill-opacity="0.01"/>
<path fill-rule="evenodd" clip-rule="evenodd" d="M8.35294 1.64518C8.3995 1.69163 8.43645 1.74681 8.46165 1.80755C8.48686 1.8683 8.49983 1.93342 8.49983 1.99918C8.49983 2.06495 8.48686 2.13007 8.46165 2.19082C8.43645 2.25156 8.3995 2.30674 8.35294 2.35318L2.70594 7.99918L8.35294 13.6452C8.44683 13.7391 8.49957 13.8664 8.49957 13.9992C8.49957 14.132 8.44683 14.2593 8.35294 14.3532C8.25905 14.4471 8.13172 14.4998 7.99894 14.4998C7.86616 14.4998 7.73883 14.4471 7.64494 14.3532L1.64494 8.35318C1.59838 8.30674 1.56143 8.25156 1.53623 8.19082C1.51102 8.13007 1.49805 8.06495 1.49805 7.99918C1.49805 7.93342 1.51102 7.8683 1.53623 7.80755C1.56143 7.74681 1.59838 7.69163 1.64494 7.64518L7.64494 1.64518C7.69139 1.59862 7.74656 1.56168 7.80731 1.53647C7.86805 1.51127 7.93317 1.49829 7.99894 1.49829C8.06471 1.49829 8.12983 1.51127 8.19057 1.53647C8.25132 1.56168 8.30649 1.59862 8.35294 1.64518Z" fill="#0D6EFD"/>
<path fill-rule="evenodd" clip-rule="evenodd" d="M12.3529 1.64518C12.3995 1.69163 12.4364 1.74681 12.4617 1.80755C12.4869 1.8683 12.4998 1.93342 12.4998 1.99918C12.4998 2.06495 12.4869 2.13007 12.4617 2.19082C12.4364 2.25156 12.3995 2.30674 12.3529 2.35318L6.70594 7.99918L12.3529 13.6452C12.3994 13.6917 12.4363 13.7469 12.4615 13.8076C12.4866 13.8683 12.4996 13.9334 12.4996 13.9992C12.4996 14.0649 12.4866 14.13 12.4615 14.1908C12.4363 14.2515 12.3994 14.3067 12.3529 14.3532C12.3065 14.3997 12.2513 14.4365 12.1905 14.4617C12.1298 14.4869 12.0647 14.4998 11.9989 14.4998C11.9332 14.4998 11.8681 14.4869 11.8074 14.4617C11.7466 14.4365 11.6914 14.3997 11.6449 14.3532L5.64494 8.35318C5.59838 8.30674 5.56143 8.25156 5.53623 8.19082C5.51102 8.13007 5.49805 8.06495 5.49805 7.99918C5.49805 7.93342 5.51102 7.8683 5.53623 7.80755C5.56143 7.74681 5.59838 7.69163 5.64494 7.64518L11.6449 1.64518C11.6914 1.59862 11.7466 1.56168 11.8073 1.53647C11.8681 1.51127 11.9332 1.49829 11.9989 1.49829C12.0647 1.49829 12.1298 1.51127 12.1906 1.53647C12.2513 1.56168 12.3065 1.59862 12.3529 1.64518Z" fill="#0D6EFD"/>
</g>
<defs>
<clipPath id="clip0_1240_25270">
<rect width="16" height="16" fill="white"/>
</clipPath>
</defs>
</svg>
