<svg width="48" height="48" viewBox="0 0 48 48" fill="none" xmlns="http://www.w3.org/2000/svg">
<rect width="48" height="48" rx="12" fill="url(#paint0_linear_1240_12636)"/>
<path d="M34.078 13.8765C31.9156 13.8765 30.1562 15.6357 30.1562 17.7981C30.1562 19.9605 31.9155 21.7199 34.078 21.7199C36.2404 21.7199 37.9997 19.9605 37.9997 17.7981C37.9997 15.6357 36.2404 13.8765 34.078 13.8765ZM34.078 20.0785C32.8206 20.0785 31.7977 19.0556 31.7977 17.7981C31.7977 16.5408 32.8206 15.5179 34.078 15.5179C35.3354 15.5179 36.3582 16.5408 36.3582 17.7981C36.3583 19.0556 35.3354 20.0785 34.078 20.0785Z" fill="white"/>
<path d="M11.0157 19.1537C11.176 19.3139 11.386 19.394 11.5961 19.394C11.8061 19.394 12.0162 19.3139 12.1764 19.1537L14.3095 17.0206L16.4426 19.1537C16.6029 19.3139 16.8129 19.394 17.0229 19.394C17.233 19.394 17.443 19.3139 17.6033 19.1537C17.9237 18.8332 17.9237 18.3135 17.6033 17.993L15.4701 15.86L17.6032 13.7269C17.9237 13.4065 17.9237 12.8867 17.6032 12.5662C17.2827 12.2458 16.7631 12.2458 16.4425 12.5662L14.3095 14.6993L12.1764 12.5662C11.8559 12.2458 11.3364 12.2458 11.0157 12.5662C10.6953 12.8866 10.6953 13.4064 11.0157 13.7269L13.1488 15.86L11.0157 17.993C10.6953 18.3135 10.6953 18.8331 11.0157 19.1537Z" fill="white"/>
<path d="M28.4567 28.8465C28.1362 28.5261 27.6166 28.5261 27.296 28.8465L25.163 30.9794L23.03 28.8465C22.7094 28.5261 22.1899 28.5261 21.8692 28.8465C21.5488 29.167 21.5488 29.6866 21.8692 30.0072L24.0023 32.1402L21.8692 34.2732C21.5488 34.5937 21.5488 35.1134 21.8692 35.434C22.0295 35.5941 22.2396 35.6743 22.4496 35.6743C22.6596 35.6743 22.8697 35.5941 23.03 35.434L25.163 33.3009L27.296 35.4339C27.4563 35.594 27.6663 35.6742 27.8764 35.6742C28.0864 35.6742 28.2965 35.594 28.4567 35.4339C28.7772 35.1133 28.7772 34.5937 28.4567 34.2731L26.3237 32.1402L28.4567 30.0072C28.7773 29.6866 28.7773 29.1669 28.4567 28.8465Z" fill="white"/>
<path d="M28.5204 17.3382L25.2107 14.4611C24.8686 14.1636 24.3502 14.2001 24.0529 14.542C23.7555 14.8841 23.7918 15.4024 24.1339 15.6998L25.8891 17.2257C20.7085 17.9032 17.641 20.6105 15.9358 22.8988C14.4422 24.9031 13.7439 26.8773 13.4635 27.8584C11.5163 28.0861 10 29.7451 10 31.7525C10 33.9149 11.7593 35.6742 13.9217 35.6742C16.0841 35.6742 17.8434 33.915 17.8434 31.7525C17.8434 30.0118 16.7031 28.5332 15.1305 28.0223C15.4258 27.0892 16.0656 25.4553 17.2916 23.8268C19.426 20.9918 22.3911 19.3223 26.1211 18.8475L24.4856 20.729C24.1883 21.071 24.2245 21.5893 24.5666 21.8868C24.7219 22.0219 24.9137 22.088 25.1046 22.088C25.334 22.088 25.5621 21.9924 25.7244 21.8058L28.6015 18.496C28.8988 18.1538 28.8625 17.6356 28.5204 17.3382ZM16.202 31.7525C16.202 33.0099 15.1791 34.0328 13.9217 34.0328C12.6643 34.0328 11.6414 33.0099 11.6414 31.7525C11.6414 30.4951 12.6643 29.4722 13.9217 29.4722C15.179 29.4722 16.202 30.4951 16.202 31.7525Z" fill="white"/>
<defs>
<linearGradient id="paint0_linear_1240_12636" x1="48" y1="48" x2="4" y2="-2.14577e-06" gradientUnits="userSpaceOnUse">
<stop stop-color="#F6D365"/>
<stop offset="1" stop-color="#FDA085"/>
</linearGradient>
</defs>
</svg>
