<svg width="48" height="48" viewBox="0 0 48 48" fill="none" xmlns="http://www.w3.org/2000/svg">
<path d="M47.9999 20L38.9799 39.8599C38.6858 40.4985 38.215 41.0394 37.6231 41.4186C37.0311 41.7979 36.3429 41.9996 35.6399 41.9999H3.63999C2.67569 41.9964 1.75188 41.6118 1.07001 40.9299C0.388135 40.2481 0.0035095 39.3243 0 38.3599V8C0.00158272 7.47005 0.212804 6.96226 0.587534 6.58753C0.962264 6.2128 1.47005 6.00158 2 6H16.92C17.2524 6.0006 17.5795 6.08302 17.8725 6.23998C18.1655 6.39694 18.4153 6.62362 18.6 6.9L22 12H37.9999C38.5299 12.0016 39.0377 12.2128 39.4124 12.5875C39.7871 12.9623 39.9984 13.47 39.9999 14V20H47.9999Z" fill="#A9B3BE"/>
<path d="M48.0006 20L38.9806 39.86C38.6865 40.4985 38.2156 41.0394 37.6237 41.4186C37.0318 41.7979 36.3436 41.9996 35.6406 42H3.64062C4.34362 41.9996 5.03181 41.7979 5.62373 41.4186C6.21565 41.0394 6.68653 40.4985 6.98062 39.86L16.0006 20H48.0006Z" fill="url(#paint0_linear_1240_12519)"/>
<defs>
<linearGradient id="paint0_linear_1240_12519" x1="15.501" y1="20.0001" x2="25.4984" y2="49.6001" gradientUnits="userSpaceOnUse">
<stop stop-color="#C7CED5"/>
<stop offset="1" stop-color="#E0E4E9"/>
</linearGradient>
</defs>
</svg>
