<svg width="16" height="16" viewBox="0 0 16 16" fill="none" xmlns="http://www.w3.org/2000/svg">
<g clip-path="url(#clip0_1240_12677)">
<rect width="16" height="16" fill="white" fill-opacity="0.01"/>
<g clip-path="url(#clip1_1240_12677)">
<path d="M8.51422 1.01827C8.34284 1.00562 8.17106 0.999278 7.99922 0.999268V-0.00073214C8.19576 -0.000636313 8.39222 0.006702 8.58822 0.0212679L8.51422 1.01827ZM10.5182 1.46827C10.1977 1.34457 9.86844 1.24464 9.53322 1.16927L9.75222 0.193268C10.1352 0.279268 10.5122 0.393268 10.8782 0.535268L10.5182 1.46827ZM11.8882 2.17827C11.7452 2.08292 11.5988 1.99286 11.4492 1.90827L11.9422 1.03827C12.2841 1.232 12.6113 1.45059 12.9212 1.69227L12.3062 2.48127C12.1706 2.3755 12.0312 2.27476 11.8882 2.17927V2.17827ZM13.7222 3.96827C13.5244 3.68724 13.3062 3.42119 13.0692 3.17227L13.7932 2.48227C14.0632 2.76727 14.3132 3.07227 14.5402 3.39227L13.7222 3.96827ZM14.4662 5.32027C14.4006 5.16173 14.3292 5.00562 14.2522 4.85227L15.1452 4.40227C15.3218 4.75335 15.4722 5.11701 15.5952 5.49027L14.6452 5.80327C14.5915 5.64013 14.5318 5.47903 14.4662 5.32027ZM14.9962 7.82727C14.9881 7.48361 14.9547 7.14101 14.8962 6.80227L15.8812 6.63227C15.9482 7.01827 15.9872 7.41027 15.9972 7.80227L14.9972 7.82727H14.9962ZM14.8652 9.36527C14.8982 9.19527 14.9252 9.02627 14.9462 8.85527L15.9392 8.97827C15.8912 9.36842 15.8143 9.75448 15.7092 10.1333L14.7452 9.86627C14.7912 9.70127 14.8312 9.53427 14.8652 9.36527ZM13.9132 11.7443C14.0972 11.4543 14.2592 11.1503 14.3992 10.8363L15.3132 11.2413C15.1532 11.6013 14.9682 11.9473 14.7582 12.2793L13.9132 11.7443ZM12.9492 12.9493C13.0712 12.8273 13.1882 12.7013 13.2992 12.5713L14.0572 13.2243C13.9289 13.3731 13.7951 13.5172 13.6562 13.6563L12.9492 12.9493Z" fill="#ADB5BD"/>
<path d="M7.99922 0.999268C6.8481 0.999351 5.71476 1.28331 4.6996 1.82601C3.68443 2.3687 2.81876 3.15337 2.17927 4.11052C1.53979 5.06767 1.14621 6.16775 1.03341 7.31333C0.920612 8.45891 1.09207 9.61463 1.53259 10.6781C1.97312 11.7416 2.66912 12.6801 3.55894 13.4103C4.44877 14.1406 5.50495 14.6401 6.63395 14.8647C7.76295 15.0893 8.92991 15.032 10.0315 14.6979C11.133 14.3638 12.1352 13.7632 12.9492 12.9493L13.6562 13.6563C12.726 14.587 11.5805 15.274 10.3213 15.6563C9.06205 16.0385 7.72799 16.1043 6.43728 15.8477C5.14658 15.5912 3.93907 15.0203 2.92177 14.1855C1.90446 13.3507 1.10875 12.2779 0.605152 11.0622C0.101551 9.84638 -0.0943961 8.52515 0.0346716 7.21554C0.163739 5.90593 0.613837 4.64837 1.34509 3.55429C2.07633 2.4602 3.06615 1.56338 4.22684 0.943271C5.38754 0.323163 6.68326 -0.00108115 7.99922 -0.00073214V0.999268Z" fill="#ADB5BD"/>
<path d="M7.49922 2.99927C7.63183 2.99927 7.759 3.05195 7.85277 3.14571C7.94654 3.23948 7.99922 3.36666 7.99922 3.49927V8.70927L11.2472 10.5653C11.359 10.6327 11.44 10.7412 11.4728 10.8676C11.5057 10.9939 11.4878 11.1281 11.4231 11.2415C11.3583 11.3548 11.2517 11.4383 11.1262 11.4742C11.0007 11.51 10.8661 11.4953 10.7512 11.4333L7.25122 9.43327C7.17469 9.38955 7.11108 9.32639 7.06682 9.25017C7.02257 9.17396 6.99925 9.0874 6.99922 8.99927V3.49927C6.99922 3.36666 7.0519 3.23948 7.14566 3.14571C7.23943 3.05195 7.36661 2.99927 7.49922 2.99927Z" fill="#ADB5BD"/>
</g>
</g>
<defs>
<clipPath id="clip0_1240_12677">
<rect width="16" height="16" fill="white"/>
</clipPath>
<clipPath id="clip1_1240_12677">
<rect width="16" height="16" fill="white"/>
</clipPath>
</defs>
</svg>
