<svg width="24" height="24" viewBox="0 0 24 24" fill="none" xmlns="http://www.w3.org/2000/svg">
<path d="M20.8447 7.33309L21.7705 6.40734C22.2609 5.91692 21.9136 5.07357 21.2181 5.07357H18.9265V2.78216C18.9265 2.08849 18.0845 1.738 17.5927 2.22964L16.667 3.15539C15.2345 2.3987 13.6334 2.00091 11.9996 2.00091C6.47314 2.00091 2 6.47326 2 12.0005C2 17.5269 6.47238 22 11.9996 22C17.5261 22 21.9992 17.5276 21.9992 12.0005C21.9992 10.3667 21.6016 8.76574 20.8447 7.33309ZM18.1453 6.63607H19.332L17.8216 8.14639H15.8537V6.17846L17.364 4.66814V5.85482C17.364 6.28634 17.7138 6.63607 18.1453 6.63607ZM11.9996 20.4377C7.33664 20.4377 3.56251 16.664 3.56251 12.0005C3.56251 7.33752 7.33603 3.56325 11.9996 3.56325C13.2145 3.56325 14.4076 3.82357 15.5006 4.32192L14.5201 5.30245C14.3736 5.44894 14.2912 5.64761 14.2912 5.85482V8.604L11.4472 11.4481C11.1422 11.7531 11.1422 12.2478 11.4472 12.5528C11.7523 12.8578 12.247 12.858 12.5521 12.5528L15.3961 9.70889H18.1453C18.3525 9.70889 18.5512 9.62649 18.6976 9.48016L19.6783 8.49947C20.1767 9.59246 20.4369 10.7855 20.4369 12.0005C20.4369 16.6634 16.6633 20.4377 11.9996 20.4377ZM18.1602 12.0005C18.1602 15.3974 15.3967 18.161 11.9996 18.161C8.60267 18.161 5.83898 15.3974 5.83898 12.0005C5.83898 8.60354 8.60267 5.83987 11.9996 5.83987C12.4311 5.83987 12.7809 6.1896 12.7809 6.62112C12.7809 7.05264 12.4311 7.40237 11.9996 7.40237C9.46419 7.40237 7.40149 9.46505 7.40149 12.0005C7.40149 14.5359 9.46419 16.5985 11.9996 16.5985C14.535 16.5985 16.5979 14.5359 16.5979 12.0005C16.5979 11.5689 16.9476 11.2192 17.379 11.2192C17.8105 11.2192 18.1602 11.5689 18.1602 12.0005Z" fill="#6C757D"/>
</svg>
