<svg width="48" height="48" viewBox="0 0 48 48" fill="none" xmlns="http://www.w3.org/2000/svg">
<rect width="48" height="48" rx="12" fill="url(#paint0_linear_341_4572)"/>
<path d="M35.8137 30.009H34.9987V28.9799C34.9987 26.5434 33.0164 24.5612 30.5799 24.5612H28.8685H25.0041V20.7555H27.4485C28.6541 20.7555 29.6348 19.7747 29.6348 18.5691V13.2621C29.6348 12.0565 28.6541 11.0757 27.4485 11.0757H20.9176C19.7121 11.0757 18.7313 12.0565 18.7313 13.2621V18.5691C18.7313 19.7746 19.7121 20.7555 20.9176 20.7555H23.3621V24.5612H19.5524H17.4578C15.0212 24.5612 13.0391 26.5434 13.0391 28.9799V30.009H12.1876C10.982 30.009 10.0012 30.9898 10.0012 32.1954V34.7375C10.0012 35.943 10.982 36.9238 12.1876 36.9238H15.5325C16.738 36.9238 17.7188 35.943 17.7188 34.7375V32.1954C17.7188 30.9898 16.738 30.009 15.5325 30.009H14.6811V28.9799C14.6811 27.4489 15.9267 26.2033 17.4577 26.2033H19.5523H23.362V30.009H22.5106C21.305 30.009 20.3243 30.9898 20.3243 32.1954V34.7375C20.3243 35.943 21.305 36.9238 22.5106 36.9238H25.8555C27.061 36.9238 28.0418 35.943 28.0418 34.7375V32.1954C28.0418 30.9898 27.061 30.009 25.8555 30.009H25.0041V26.2033H28.8686H30.58C32.1111 26.2033 33.3567 27.4489 33.3567 28.9799V30.009H32.4688C31.2633 30.009 30.2825 30.9898 30.2825 32.1954V34.7375C30.2825 35.943 31.2633 36.9238 32.4688 36.9238H35.8137C37.0193 36.9238 38 35.943 38 34.7375V32.1954C38 30.9898 37.0193 30.009 35.8137 30.009ZM15.5325 31.651C15.8326 31.651 16.0768 31.8953 16.0768 32.1954V34.7375C16.0768 35.0376 15.8326 35.2818 15.5325 35.2818H12.1876C11.8875 35.2818 11.6433 35.0376 11.6433 34.7375V32.1954C11.6433 31.8953 11.8875 31.651 12.1876 31.651H15.5325ZM25.8556 31.651C26.1557 31.651 26.3998 31.8953 26.3998 32.1954V34.7375C26.3998 35.0376 26.1557 35.2818 25.8556 35.2818H22.5107C22.2106 35.2818 21.9663 35.0376 21.9663 34.7375V32.1954C21.9663 31.8953 22.2106 31.651 22.5107 31.651H25.8556ZM20.9176 19.1135C20.6175 19.1135 20.3734 18.8693 20.3734 18.5691V13.2621C20.3734 12.9619 20.6175 12.7177 20.9176 12.7177H27.4485C27.7486 12.7177 27.9928 12.9619 27.9928 13.2621V18.5691C27.9928 18.8692 27.7486 19.1134 27.4485 19.1134H20.9176V19.1135ZM36.358 34.7375C36.358 35.0376 36.1138 35.2818 35.8137 35.2818H32.4688C32.1687 35.2818 31.9245 35.0376 31.9245 34.7375V32.1954C31.9245 31.8953 32.1687 31.6511 32.4688 31.6511H35.8137C36.1138 31.6511 36.358 31.8953 36.358 32.1954V34.7375Z" fill="white"/>
<defs>
<linearGradient id="paint0_linear_341_4572" x1="46" y1="48" x2="5.5" y2="3" gradientUnits="userSpaceOnUse">
<stop stop-color="#C2E9FB"/>
<stop offset="0.701691" stop-color="#A1C4FD"/>
</linearGradient>
</defs>
</svg>
