<svg width="20" height="20" viewBox="0 0 20 20" fill="none" xmlns="http://www.w3.org/2000/svg">
<path fill-rule="evenodd" clip-rule="evenodd" d="M5.5962 6.8236C5.2412 6.8236 4.9537 6.52735 5.0087 6.17735C5.35245 4.0511 6.97245 2.5011 9.7837 2.5011C12.5962 2.5011 14.4924 4.2011 14.4924 6.51985C14.4924 8.19985 13.6612 9.37985 12.2549 10.2361C10.8799 11.0598 10.4874 11.6336 10.4874 12.7486V12.7861C10.4874 12.9519 10.4216 13.1108 10.3044 13.228C10.1872 13.3453 10.0282 13.4111 9.86245 13.4111H8.89995C8.73526 13.4111 8.57723 13.3461 8.4602 13.2303C8.34317 13.1144 8.27659 12.957 8.27495 12.7923L8.2712 12.5423C8.21745 11.0161 8.86745 10.0411 10.3274 9.15235C11.6149 8.36235 12.0737 7.7336 12.0737 6.61735C12.0737 5.3936 11.1262 4.49485 9.6662 4.49485C8.40495 4.49485 7.5287 5.1561 7.2437 6.24735C7.1612 6.56485 6.8962 6.8236 6.5687 6.8236H5.59745H5.5962ZM9.37245 17.5011C10.1499 17.5011 10.7412 16.9086 10.7412 16.1386C10.7412 15.3661 10.1499 14.7736 9.37245 14.7736C8.61495 14.7736 8.0137 15.3661 8.0137 16.1373C8.0137 16.9086 8.61495 17.5011 9.37245 17.5011Z" fill="#6C757D"/>
</svg>
