<svg width="13" height="12" viewBox="0 0 13 12" fill="none" xmlns="http://www.w3.org/2000/svg">
<path d="M6.50182 3.56574C6.18212 3.56574 5.86555 3.62871 5.57018 3.75105C5.27481 3.8734 5.00644 4.05272 4.78037 4.27878C4.55431 4.50485 4.37498 4.77323 4.25264 5.06859C4.13029 5.36396 4.06732 5.68053 4.06732 6.00024C4.06732 6.31994 4.13029 6.63651 4.25264 6.93188C4.37498 7.22725 4.55431 7.49562 4.78037 7.72169C5.00644 7.94775 5.27481 8.12708 5.57018 8.24942C5.86555 8.37177 6.18212 8.43474 6.50182 8.43474C7.14749 8.43474 7.76672 8.17825 8.22327 7.72169C8.67983 7.26513 8.93632 6.64591 8.93632 6.00024C8.93632 5.35457 8.67983 4.73534 8.22327 4.27878C7.76672 3.82223 7.14749 3.56574 6.50182 3.56574ZM4.81732 6.00024C4.81732 5.55348 4.9948 5.12502 5.3107 4.80911C5.62661 4.49321 6.05507 4.31574 6.50182 4.31574C6.94858 4.31574 7.37704 4.49321 7.69294 4.80911C8.00885 5.12502 8.18632 5.55348 8.18632 6.00024C8.18632 6.44699 8.00885 6.87545 7.69294 7.19136C7.37704 7.50726 6.94858 7.68474 6.50182 7.68474C6.05507 7.68474 5.62661 7.50726 5.3107 7.19136C4.9948 6.87545 4.81732 6.44699 4.81732 6.00024Z" fill="#027A48"/>
<path d="M7.84882 1.00749C7.45357 -0.335015 5.55007 -0.335015 5.15482 1.00749L5.08432 1.24674C5.05672 1.34045 5.0085 1.4268 4.94319 1.49945C4.87787 1.57211 4.79713 1.62923 4.70688 1.66662C4.61662 1.70402 4.51915 1.72075 4.42159 1.71557C4.32403 1.7104 4.22887 1.68346 4.14307 1.63674L3.92407 1.51674C2.69407 0.847736 1.34932 2.19324 2.01907 3.42249L2.13832 3.64149C2.18505 3.72728 2.21199 3.82244 2.21716 3.92C2.22233 4.01756 2.20561 4.11504 2.16821 4.20529C2.13082 4.29555 2.0737 4.37629 2.00104 4.4416C1.92839 4.50691 1.84204 4.55513 1.74832 4.58274L1.50907 4.65324C0.166572 5.04849 0.166572 6.95199 1.50907 7.34724L1.74832 7.41774C1.84204 7.44534 1.92839 7.49356 2.00104 7.55887C2.0737 7.62418 2.13082 7.70493 2.16821 7.79518C2.20561 7.88543 2.22233 7.98291 2.21716 8.08047C2.21199 8.17803 2.18505 8.27319 2.13832 8.35899L2.01832 8.57799C1.34932 9.80799 2.69407 11.1535 3.92407 10.483L4.14307 10.3637C4.22887 10.317 4.32403 10.2901 4.42159 10.2849C4.51915 10.2797 4.61662 10.2965 4.70688 10.3338C4.79713 10.3712 4.87787 10.4284 4.94319 10.501C5.0085 10.5737 5.05672 10.66 5.08432 10.7537L5.15482 10.993C5.55007 12.3355 7.45357 12.3355 7.84882 10.993L7.91932 10.7537C7.94693 10.66 7.99515 10.5737 8.06046 10.501C8.12577 10.4284 8.20651 10.3712 8.29677 10.3338C8.38702 10.2965 8.4845 10.2797 8.58206 10.2849C8.67962 10.2901 8.77478 10.317 8.86057 10.3637L9.07957 10.4837C10.3096 11.1535 11.6551 9.80724 10.9846 8.57799L10.8653 8.35899C10.8186 8.27319 10.7917 8.17803 10.7865 8.08047C10.7813 7.98291 10.798 7.88543 10.8354 7.79518C10.8728 7.70493 10.9299 7.62418 11.0026 7.55887C11.0753 7.49356 11.1616 7.44534 11.2553 7.41774L11.4946 7.34724C12.8371 6.95199 12.8371 5.04849 11.4946 4.65324L11.2553 4.58274C11.1616 4.55513 11.0753 4.50691 11.0026 4.4416C10.9299 4.37629 10.8728 4.29555 10.8354 4.20529C10.798 4.11504 10.7813 4.01756 10.7865 3.92C10.7917 3.82244 10.8186 3.72728 10.8653 3.64149L10.9853 3.42249C11.6551 2.19249 10.3088 0.847735 9.07957 1.51749L8.86057 1.63674C8.77478 1.68346 8.67962 1.7104 8.58206 1.71557C8.4845 1.72075 8.38702 1.70402 8.29677 1.66662C8.20651 1.62923 8.12577 1.57211 8.06046 1.49945C7.99515 1.4268 7.94693 1.34045 7.91932 1.24674L7.84882 1.00749ZM5.87407 1.21974C6.05857 0.593485 6.94507 0.593485 7.12957 1.21974L7.20007 1.45899C7.25934 1.66005 7.36285 1.8453 7.50302 2.00116C7.64319 2.15702 7.81646 2.27953 8.01013 2.35972C8.2038 2.43991 8.41296 2.47574 8.62228 2.46458C8.8316 2.45342 9.03577 2.39556 9.21982 2.29524L9.43807 2.17524C10.0111 1.86399 10.6381 2.49024 10.3261 3.06399L10.2068 3.28299C10.1067 3.46706 10.0489 3.67121 10.0379 3.88048C10.0269 4.08975 10.0628 4.29884 10.143 4.49242C10.2233 4.68601 10.3458 4.85919 10.5017 4.99927C10.6576 5.13935 10.8428 5.24278 11.0438 5.30199L11.2823 5.37249C11.9086 5.55699 11.9086 6.44349 11.2823 6.62799L11.0431 6.69849C10.842 6.75775 10.6568 6.86126 10.5009 7.00143C10.345 7.1416 10.2225 7.31487 10.1423 7.50854C10.0622 7.70222 10.0263 7.91138 10.0375 8.1207C10.0486 8.33002 10.1065 8.53419 10.2068 8.71824L10.3268 8.93649C10.6381 9.50949 10.0118 10.1365 9.43807 9.82449L9.21982 9.70524C9.03572 9.60492 8.8315 9.54709 8.62214 9.53598C8.41278 9.52487 8.20359 9.56076 8.00991 9.64103C7.81623 9.72129 7.64297 9.84389 7.50283 9.99983C7.3627 10.1558 7.25925 10.3411 7.20007 10.5422L7.12957 10.7807C6.94507 11.407 6.05857 11.407 5.87407 10.7807L5.80357 10.5415C5.74428 10.3405 5.64079 10.1554 5.50067 9.9996C5.36055 9.84382 5.18737 9.72135 4.99379 9.64117C4.80021 9.561 4.59115 9.52514 4.38192 9.53622C4.17269 9.54731 3.96859 9.60505 3.78457 9.70524L3.56557 9.82524C2.99257 10.1365 2.36557 9.51024 2.67757 8.93649L2.79682 8.71824C2.89729 8.53416 2.95526 8.32992 2.96649 8.12051C2.97772 7.9111 2.94193 7.70184 2.86173 7.50807C2.78153 7.3143 2.65897 7.14094 2.50303 7.00072C2.34709 6.8605 2.16174 6.75698 1.96057 6.69774L1.72132 6.62724C1.09507 6.44274 1.09507 5.55624 1.72132 5.37174L1.96057 5.30124C2.16143 5.24192 2.34648 5.13844 2.50218 4.99838C2.65788 4.85831 2.7803 4.68521 2.86046 4.49173C2.94063 4.29825 2.97652 4.08929 2.96551 3.88015C2.9545 3.67101 2.89686 3.46698 2.79682 3.28299L2.67682 3.06399C2.36557 2.49099 2.99182 1.86399 3.56557 2.17599L3.78457 2.29524C3.96859 2.39542 4.17269 2.45317 4.38192 2.46425C4.59115 2.47533 4.80021 2.43948 4.99379 2.3593C5.18737 2.27912 5.36055 2.15666 5.50067 2.00088C5.64079 1.8451 5.74428 1.65994 5.80357 1.45899L5.87407 1.21974Z" fill="#027A48"/>
</svg>
