<svg width="25" height="24" viewBox="0 0 25 24" fill="none" xmlns="http://www.w3.org/2000/svg">
<path d="M12.3554 2.33959C12.2469 2.28181 12.1258 2.25159 12.0029 2.25159C11.8799 2.25159 11.7589 2.28181 11.6504 2.33959L0.400382 8.33959C0.280574 8.4036 0.180399 8.49895 0.110555 8.61546C0.0407109 8.73196 0.00381934 8.86525 0.00381934 9.00109C0.00381934 9.13693 0.0407109 9.27021 0.110555 9.38672C0.180399 9.50322 0.280574 9.59857 0.400382 9.66259L4.78488 12.0011L0.398882 14.3396C0.279074 14.4036 0.178899 14.499 0.109055 14.6155C0.0392109 14.732 0.00231934 14.8653 0.00231934 15.0011C0.00231934 15.1369 0.0392109 15.2702 0.109055 15.3867C0.178899 15.5032 0.279074 15.5986 0.398882 15.6626L11.6489 21.6626C11.7574 21.7204 11.8784 21.7506 12.0014 21.7506C12.1243 21.7506 12.2454 21.7204 12.3539 21.6626L23.6039 15.6626C23.7237 15.5986 23.8239 15.5032 23.8937 15.3867C23.9636 15.2702 24.0004 15.1369 24.0004 15.0011C24.0004 14.8653 23.9636 14.732 23.8937 14.6155C23.8239 14.499 23.7237 14.4036 23.6039 14.3396L19.2224 12.0011L23.6054 9.66259C23.7252 9.59857 23.8254 9.50322 23.8952 9.38672C23.9651 9.27021 24.0019 9.13693 24.0019 9.00109C24.0019 8.86525 23.9651 8.73196 23.8952 8.61546C23.8254 8.49895 23.7252 8.4036 23.6054 8.33959L12.3554 2.33959ZM17.6279 12.8516L21.6599 15.0011L12.0029 20.1506L2.34588 15.0011L6.37788 12.8516L11.6504 15.6626C11.7589 15.7204 11.8799 15.7506 12.0029 15.7506C12.1258 15.7506 12.2469 15.7204 12.3554 15.6626L17.6279 12.8516ZM12.0029 14.1506L2.34588 9.00109L12.0029 3.85159L21.6599 9.00109L12.0029 14.1506Z" fill="#ADB5BD"/>
</svg>
