<svg width="21" height="21" viewBox="0 0 21 21" fill="none" xmlns="http://www.w3.org/2000/svg">
<path d="M14.6799 12.9311C15.8903 11.2795 16.4324 9.23171 16.1978 7.19754C15.9632 5.16336 14.9692 3.29278 13.4146 1.96001C11.8601 0.627253 9.85962 -0.0693934 7.81348 0.00944807C5.76734 0.0882895 3.82641 0.936805 2.37902 2.38524C0.931624 3.83367 0.0844977 5.7752 0.00712042 7.82139C-0.0702568 9.86759 0.627821 11.8676 1.96169 13.4212C3.29557 14.9748 5.16686 15.9674 7.20121 16.2006C9.23555 16.4337 11.2829 15.8902 12.9337 14.6786H12.9324C12.9699 14.7286 13.0099 14.7761 13.0549 14.8224L17.8674 19.6349C18.1018 19.8694 18.4198 20.0012 18.7514 20.0014C19.083 20.0015 19.401 19.8699 19.6356 19.6355C19.8701 19.4011 20.0019 19.0831 20.0021 18.7515C20.0022 18.42 19.8706 18.1019 19.6362 17.8674L14.8237 13.0549C14.779 13.0096 14.7309 12.9678 14.6799 12.9299V12.9311ZM15.0024 8.1261C15.0024 9.02894 14.8246 9.92294 14.4791 10.7571C14.1336 11.5912 13.6272 12.3491 12.9888 12.9875C12.3504 13.6259 11.5925 14.1323 10.7584 14.4778C9.92427 14.8233 9.03027 15.0011 8.12743 15.0011C7.2246 15.0011 6.3306 14.8233 5.49649 14.4778C4.66237 14.1323 3.90448 13.6259 3.26608 12.9875C2.62767 12.3491 2.12126 11.5912 1.77576 10.7571C1.43026 9.92294 1.25243 9.02894 1.25243 8.1261C1.25243 6.30274 1.97676 4.55406 3.26608 3.26474C4.55539 1.97543 6.30407 1.2511 8.12743 1.2511C9.9508 1.2511 11.6995 1.97543 12.9888 3.26474C14.2781 4.55406 15.0024 6.30274 15.0024 8.1261V8.1261Z" fill="#6C757D"/>
</svg>
