<svg width="15" height="14" viewBox="0 0 15 14" fill="none" xmlns="http://www.w3.org/2000/svg">
<path d="M12.6895 2.62512C12.8055 2.62512 12.9168 2.67122 12.9988 2.75326C13.0809 2.83531 13.127 2.94659 13.127 3.06262V10.9376C13.127 11.0537 13.0809 11.1649 12.9988 11.247C12.9168 11.329 12.8055 11.3751 12.6895 11.3751H1.31445C1.19842 11.3751 1.08714 11.329 1.00509 11.247C0.923047 11.1649 0.876953 11.0537 0.876953 10.9376V3.06262C0.876953 2.94659 0.923047 2.83531 1.00509 2.75326C1.08714 2.67122 1.19842 2.62512 1.31445 2.62512H12.6895ZM1.31445 1.75012C0.966356 1.75012 0.632517 1.8884 0.386375 2.13454C0.140234 2.38069 0.00195313 2.71453 0.00195312 3.06262V10.9376C0.00195313 11.2857 0.140234 11.6196 0.386375 11.8657C0.632517 12.1118 0.966356 12.2501 1.31445 12.2501H12.6895C13.0375 12.2501 13.3714 12.1118 13.6175 11.8657C13.8637 11.6196 14.002 11.2857 14.002 10.9376V3.06262C14.002 2.71453 13.8637 2.38069 13.6175 2.13454C13.3714 1.8884 13.0375 1.75012 12.6895 1.75012H1.31445Z" fill="#6C757D"/>
<path d="M2.62695 7.43762C2.62695 7.32159 2.67305 7.21031 2.75509 7.12826C2.83714 7.04622 2.94842 7.00012 3.06445 7.00012H10.9395C11.0555 7.00012 11.1668 7.04622 11.2488 7.12826C11.3309 7.21031 11.377 7.32159 11.377 7.43762C11.377 7.55365 11.3309 7.66493 11.2488 7.74698C11.1668 7.82903 11.0555 7.87512 10.9395 7.87512H3.06445C2.94842 7.87512 2.83714 7.82903 2.75509 7.74698C2.67305 7.66493 2.62695 7.55365 2.62695 7.43762ZM2.62695 9.18762C2.62695 9.07159 2.67305 8.96031 2.75509 8.87826C2.83714 8.79622 2.94842 8.75012 3.06445 8.75012H8.31445C8.43049 8.75012 8.54177 8.79622 8.62381 8.87826C8.70586 8.96031 8.75195 9.07159 8.75195 9.18762C8.75195 9.30365 8.70586 9.41493 8.62381 9.49698C8.54177 9.57903 8.43049 9.62512 8.31445 9.62512H3.06445C2.94842 9.62512 2.83714 9.57903 2.75509 9.49698C2.67305 9.41493 2.62695 9.30365 2.62695 9.18762ZM2.62695 4.81262C2.62695 4.69659 2.67305 4.58531 2.75509 4.50326C2.83714 4.42122 2.94842 4.37512 3.06445 4.37512H10.9395C11.0555 4.37512 11.1668 4.42122 11.2488 4.50326C11.3309 4.58531 11.377 4.69659 11.377 4.81262V5.68762C11.377 5.80365 11.3309 5.91493 11.2488 5.99698C11.1668 6.07903 11.0555 6.12512 10.9395 6.12512H3.06445C2.94842 6.12512 2.83714 6.07903 2.75509 5.99698C2.67305 5.91493 2.62695 5.80365 2.62695 5.68762V4.81262Z" fill="#6C757D"/>
</svg>
