<svg width="20" height="20" viewBox="0 0 20 20" fill="none" xmlns="http://www.w3.org/2000/svg">
<path fill-rule="evenodd" clip-rule="evenodd" d="M10.4449 2.05862C10.5031 2.11667 10.5493 2.18564 10.5808 2.26158C10.6123 2.33751 10.6285 2.41891 10.6285 2.50112C10.6285 2.58333 10.6123 2.66473 10.5808 2.74066C10.5493 2.81659 10.5031 2.88556 10.4449 2.94362L3.38618 10.0011L10.4449 17.0586C10.5623 17.176 10.6282 17.3351 10.6282 17.5011C10.6282 17.6671 10.5623 17.8263 10.4449 17.9436C10.3276 18.061 10.1684 18.1269 10.0024 18.1269C9.83646 18.1269 9.67729 18.061 9.55993 17.9436L2.05993 10.4436C2.00173 10.3856 1.95555 10.3166 1.92404 10.2407C1.89253 10.1647 1.87631 10.0833 1.87631 10.0011C1.87631 9.91891 1.89253 9.83751 1.92404 9.76158C1.95555 9.68564 2.00173 9.61667 2.05993 9.55862L9.55993 2.05862C9.61799 2.00041 9.68696 1.95423 9.76289 1.92273C9.83882 1.89122 9.92022 1.875 10.0024 1.875C10.0846 1.875 10.166 1.89122 10.242 1.92273C10.3179 1.95423 10.3869 2.00041 10.4449 2.05862Z" fill="white"/>
<path fill-rule="evenodd" clip-rule="evenodd" d="M15.4449 2.05862C15.5031 2.11667 15.5493 2.18564 15.5808 2.26158C15.6123 2.33751 15.6285 2.41891 15.6285 2.50112C15.6285 2.58333 15.6123 2.66473 15.5808 2.74066C15.5493 2.81659 15.5031 2.88556 15.4449 2.94362L8.38618 10.0011L15.4449 17.0586C15.503 17.1167 15.5491 17.1857 15.5806 17.2616C15.612 17.3376 15.6282 17.4189 15.6282 17.5011C15.6282 17.5833 15.612 17.6647 15.5806 17.7406C15.5491 17.8165 15.503 17.8855 15.4449 17.9436C15.3868 18.0017 15.3178 18.0478 15.2419 18.0793C15.166 18.1107 15.0846 18.1269 15.0024 18.1269C14.9202 18.1269 14.8389 18.1107 14.7629 18.0793C14.687 18.0478 14.618 18.0017 14.5599 17.9436L7.05993 10.4436C7.00173 10.3856 6.95555 10.3166 6.92404 10.2407C6.89253 10.1647 6.87631 10.0833 6.87631 10.0011C6.87631 9.91891 6.89253 9.83751 6.92404 9.76158C6.95555 9.68564 7.00173 9.61667 7.05993 9.55862L14.5599 2.05862C14.618 2.00041 14.687 1.95423 14.7629 1.92273C14.8388 1.89122 14.9202 1.875 15.0024 1.875C15.0846 1.875 15.166 1.89122 15.242 1.92273C15.3179 1.95423 15.3869 2.00041 15.4449 2.05862Z" fill="white"/>
</svg>
