<svg width="13" height="12" viewBox="0 0 13 12" fill="none" xmlns="http://www.w3.org/2000/svg">
<path d="M6.00182 3.56574C5.68212 3.56574 5.36555 3.62871 5.07018 3.75105C4.77481 3.8734 4.50644 4.05272 4.28037 4.27878C4.05431 4.50485 3.87498 4.77323 3.75264 5.06859C3.63029 5.36396 3.56732 5.68053 3.56732 6.00024C3.56732 6.31994 3.63029 6.63651 3.75264 6.93188C3.87498 7.22725 4.05431 7.49562 4.28037 7.72169C4.50644 7.94775 4.77481 8.12708 5.07018 8.24942C5.36555 8.37177 5.68212 8.43474 6.00182 8.43474C6.64749 8.43474 7.26672 8.17825 7.72327 7.72169C8.17983 7.26513 8.43632 6.64591 8.43632 6.00024C8.43632 5.35457 8.17983 4.73534 7.72327 4.27878C7.26672 3.82223 6.64749 3.56574 6.00182 3.56574ZM4.31732 6.00024C4.31732 5.55348 4.4948 5.12502 4.8107 4.80911C5.12661 4.49321 5.55507 4.31574 6.00182 4.31574C6.44858 4.31574 6.87704 4.49321 7.19294 4.80911C7.50885 5.12502 7.68632 5.55348 7.68632 6.00024C7.68632 6.44699 7.50885 6.87545 7.19294 7.19136C6.87704 7.50726 6.44858 7.68474 6.00182 7.68474C5.55507 7.68474 5.12661 7.50726 4.8107 7.19136C4.4948 6.87545 4.31732 6.44699 4.31732 6.00024Z" fill="#984C0C"/>
<path d="M7.34882 1.00749C6.95357 -0.335015 5.05007 -0.335015 4.65482 1.00749L4.58432 1.24674C4.55672 1.34045 4.5085 1.4268 4.44319 1.49945C4.37787 1.57211 4.29713 1.62923 4.20688 1.66662C4.11662 1.70402 4.01915 1.72075 3.92159 1.71557C3.82403 1.7104 3.72887 1.68346 3.64307 1.63674L3.42407 1.51674C2.19407 0.847736 0.849322 2.19324 1.51907 3.42249L1.63832 3.64149C1.68505 3.72728 1.71199 3.82244 1.71716 3.92C1.72233 4.01756 1.70561 4.11504 1.66821 4.20529C1.63082 4.29555 1.5737 4.37629 1.50104 4.4416C1.42839 4.50691 1.34204 4.55513 1.24832 4.58274L1.00907 4.65324C-0.333428 5.04849 -0.333428 6.95199 1.00907 7.34724L1.24832 7.41774C1.34204 7.44534 1.42839 7.49356 1.50104 7.55887C1.5737 7.62418 1.63082 7.70493 1.66821 7.79518C1.70561 7.88543 1.72233 7.98291 1.71716 8.08047C1.71199 8.17803 1.68505 8.27319 1.63832 8.35899L1.51832 8.57799C0.849322 9.80799 2.19407 11.1535 3.42407 10.483L3.64307 10.3637C3.72887 10.317 3.82403 10.2901 3.92159 10.2849C4.01915 10.2797 4.11662 10.2965 4.20688 10.3338C4.29713 10.3712 4.37787 10.4284 4.44319 10.501C4.5085 10.5737 4.55672 10.66 4.58432 10.7537L4.65482 10.993C5.05007 12.3355 6.95357 12.3355 7.34882 10.993L7.41932 10.7537C7.44693 10.66 7.49515 10.5737 7.56046 10.501C7.62577 10.4284 7.70651 10.3712 7.79677 10.3338C7.88702 10.2965 7.9845 10.2797 8.08206 10.2849C8.17962 10.2901 8.27478 10.317 8.36057 10.3637L8.57957 10.4837C9.80957 11.1535 11.1551 9.80724 10.4846 8.57799L10.3653 8.35899C10.3186 8.27319 10.2917 8.17803 10.2865 8.08047C10.2813 7.98291 10.298 7.88543 10.3354 7.79518C10.3728 7.70493 10.4299 7.62418 10.5026 7.55887C10.5753 7.49356 10.6616 7.44534 10.7553 7.41774L10.9946 7.34724C12.3371 6.95199 12.3371 5.04849 10.9946 4.65324L10.7553 4.58274C10.6616 4.55513 10.5753 4.50691 10.5026 4.4416C10.4299 4.37629 10.3728 4.29555 10.3354 4.20529C10.298 4.11504 10.2813 4.01756 10.2865 3.92C10.2917 3.82244 10.3186 3.72728 10.3653 3.64149L10.4853 3.42249C11.1551 2.19249 9.80882 0.847735 8.57957 1.51749L8.36057 1.63674C8.27478 1.68346 8.17962 1.7104 8.08206 1.71557C7.9845 1.72075 7.88702 1.70402 7.79677 1.66662C7.70651 1.62923 7.62577 1.57211 7.56046 1.49945C7.49515 1.4268 7.44693 1.34045 7.41932 1.24674L7.34882 1.00749ZM5.37407 1.21974C5.55857 0.593485 6.44507 0.593485 6.62957 1.21974L6.70007 1.45899C6.75934 1.66005 6.86285 1.8453 7.00302 2.00116C7.14319 2.15702 7.31646 2.27953 7.51013 2.35972C7.7038 2.43991 7.91296 2.47574 8.12228 2.46458C8.3316 2.45342 8.53577 2.39556 8.71982 2.29524L8.93807 2.17524C9.51107 1.86399 10.1381 2.49024 9.82607 3.06399L9.70682 3.28299C9.60665 3.46706 9.54893 3.67121 9.53789 3.88048C9.52686 4.08975 9.56278 4.29884 9.64303 4.49242C9.72329 4.68601 9.84584 4.85919 10.0017 4.99927C10.1576 5.13935 10.3428 5.24278 10.5438 5.30199L10.7823 5.37249C11.4086 5.55699 11.4086 6.44349 10.7823 6.62799L10.5431 6.69849C10.342 6.75775 10.1568 6.86126 10.0009 7.00143C9.84504 7.1416 9.72253 7.31487 9.64234 7.50854C9.56215 7.70222 9.52632 7.91138 9.53748 8.1207C9.54864 8.33002 9.6065 8.53419 9.70682 8.71824L9.82682 8.93649C10.1381 9.50949 9.51182 10.1365 8.93807 9.82449L8.71982 9.70524C8.53572 9.60492 8.3315 9.54709 8.12214 9.53598C7.91278 9.52487 7.70359 9.56076 7.50991 9.64103C7.31623 9.72129 7.14297 9.84389 7.00283 9.99983C6.8627 10.1558 6.75925 10.3411 6.70007 10.5422L6.62957 10.7807C6.44507 11.407 5.55857 11.407 5.37407 10.7807L5.30357 10.5415C5.24428 10.3405 5.14079 10.1554 5.00067 9.9996C4.86055 9.84382 4.68737 9.72135 4.49379 9.64117C4.30021 9.561 4.09115 9.52514 3.88192 9.53622C3.67269 9.54731 3.46859 9.60505 3.28457 9.70524L3.06557 9.82524C2.49257 10.1365 1.86557 9.51024 2.17757 8.93649L2.29682 8.71824C2.39729 8.53416 2.45526 8.32992 2.46649 8.12051C2.47772 7.9111 2.44193 7.70184 2.36173 7.50807C2.28153 7.3143 2.15897 7.14094 2.00303 7.00072C1.84709 6.8605 1.66174 6.75698 1.46057 6.69774L1.22132 6.62724C0.595072 6.44274 0.595072 5.55624 1.22132 5.37174L1.46057 5.30124C1.66143 5.24192 1.84648 5.13844 2.00218 4.99838C2.15788 4.85831 2.2803 4.68521 2.36046 4.49173C2.44063 4.29825 2.47652 4.08929 2.46551 3.88015C2.4545 3.67101 2.39686 3.46698 2.29682 3.28299L2.17682 3.06399C1.86557 2.49099 2.49182 1.86399 3.06557 2.17599L3.28457 2.29524C3.46859 2.39542 3.67269 2.45317 3.88192 2.46425C4.09115 2.47533 4.30021 2.43948 4.49379 2.3593C4.68737 2.27912 4.86055 2.15666 5.00067 2.00088C5.14079 1.8451 5.24428 1.65994 5.30357 1.45899L5.37407 1.21974Z" fill="#984C0C"/>
</svg>
