<svg width="20" height="21" viewBox="0 0 20 21" fill="none" xmlns="http://www.w3.org/2000/svg">
<path d="M14.0662 0.0861015C14.1885 0.157025 14.2832 0.267339 14.3347 0.399023C14.3863 0.530708 14.3916 0.675978 14.3499 0.811101L12.0987 8.1261H16.2524C16.3745 8.12605 16.4939 8.16175 16.5959 8.22879C16.698 8.29583 16.7781 8.39127 16.8265 8.50334C16.8749 8.61541 16.8894 8.73919 16.8682 8.85942C16.8471 8.97964 16.7912 9.09103 16.7074 9.17985L6.70745 19.8049C6.61069 19.9077 6.48193 19.9748 6.34216 19.9952C6.2024 20.0155 6.05986 19.9879 5.93778 19.9169C5.81571 19.8458 5.7213 19.7355 5.66994 19.604C5.61857 19.4724 5.61329 19.3273 5.65495 19.1924L7.9062 11.8761H3.75245C3.63038 11.8761 3.51097 11.8405 3.40895 11.7734C3.30694 11.7064 3.22679 11.6109 3.1784 11.4989C3.13001 11.3868 3.1155 11.263 3.13665 11.1428C3.15781 11.0226 3.21371 10.9112 3.29745 10.8224L13.2974 0.197351C13.3941 0.0946004 13.5226 0.0275622 13.6622 0.00713718C13.8018 -0.0132879 13.9442 0.0141013 14.0662 0.0848515V0.0861015ZM5.1987 10.6261H8.75245C8.85026 10.6261 8.94671 10.649 9.03404 10.6931C9.12137 10.7371 9.19714 10.801 9.25526 10.8797C9.31338 10.9584 9.35222 11.0496 9.36867 11.146C9.38512 11.2424 9.3787 11.3414 9.34995 11.4349L7.63995 16.9886L14.8049 9.3761H11.2524C11.1546 9.37612 11.0582 9.35318 10.9709 9.30913C10.8835 9.26509 10.8078 9.20116 10.7496 9.12249C10.6915 9.04382 10.6527 8.95261 10.6362 8.85619C10.6198 8.75977 10.6262 8.66084 10.6549 8.56735L12.3649 3.0136L5.1987 10.6261Z" fill="url(#paint0_linear_1_5825)"/>
<defs>
<linearGradient id="paint0_linear_1_5825" x1="11.4154" y1="1.47429" x2="1.61973" y2="14.4288" gradientUnits="userSpaceOnUse">
<stop stop-color="#0051EE"/>
<stop offset="0.471862" stop-color="#05B4FF"/>
<stop offset="1" stop-color="#24FFD8"/>
</linearGradient>
</defs>
</svg>
