<svg width="129" height="41" viewBox="0 0 129 41" fill="none" xmlns="http://www.w3.org/2000/svg">
<g clip-path="url(#clip0_407_18018)">
<rect width="14" height="14" transform="translate(16 13)" fill="white" fill-opacity="0.01"/>
<g clip-path="url(#clip1_407_18018)">
<path fill-rule="evenodd" clip-rule="evenodd" d="M17.0031 26.4334C16.9211 26.3513 16.875 26.2401 16.875 26.124V13.874C16.875 13.758 16.9211 13.6467 17.0031 13.5647C17.0852 13.4826 17.1965 13.4365 17.3125 13.4365C17.4285 13.4365 17.5398 13.4826 17.6219 13.5647C17.7039 13.6467 17.75 13.758 17.75 13.874V26.124C17.75 26.2401 17.7039 26.3513 17.6219 26.4334C17.5398 26.5154 17.4285 26.5615 17.3125 26.5615C17.1965 26.5615 17.0852 26.5154 17.0031 26.4334ZM19.9375 14.3115C19.5894 14.3115 19.2556 14.4498 19.0094 14.6959C18.7633 14.9421 18.625 15.2759 18.625 15.624V18.249C18.625 18.5971 18.7633 18.931 19.0094 19.1771C19.2556 19.4232 19.5894 19.5615 19.9375 19.5615H24.75C25.0981 19.5615 25.4319 19.4232 25.6781 19.1771C25.9242 18.931 26.0625 18.5971 26.0625 18.249V15.624C26.0625 15.2759 25.9242 14.9421 25.6781 14.6959C25.4319 14.4498 25.0981 14.3115 24.75 14.3115H19.9375ZM25.1875 15.624V18.249C25.1875 18.3651 25.1414 18.4763 25.0594 18.5584C24.9773 18.6404 24.866 18.6865 24.75 18.6865H19.9375C19.8215 18.6865 19.7102 18.6404 19.6281 18.5584C19.5461 18.4763 19.5 18.3651 19.5 18.249V15.624C19.5 15.508 19.5461 15.3967 19.6281 15.3147C19.7102 15.2326 19.8215 15.1865 19.9375 15.1865H24.75C24.866 15.1865 24.9773 15.2326 25.0594 15.3147C25.1414 15.3967 25.1875 15.508 25.1875 15.624ZM28.25 20.4365H19.9375C19.5894 20.4365 19.2556 20.5748 19.0094 20.8209C18.7633 21.0671 18.625 21.4009 18.625 21.749V24.374C18.625 24.7221 18.7633 25.056 19.0094 25.3021C19.2556 25.5482 19.5894 25.6865 19.9375 25.6865H28.25C28.5981 25.6865 28.9319 25.5482 29.1781 25.3021C29.4242 25.056 29.5625 24.7221 29.5625 24.374V21.749C29.5625 21.4009 29.4242 21.0671 29.1781 20.8209C28.9319 20.5748 28.5981 20.4365 28.25 20.4365ZM28.6875 24.374C28.6875 24.4901 28.6414 24.6013 28.5594 24.6834C28.4773 24.7654 28.366 24.8115 28.25 24.8115H19.9375C19.8215 24.8115 19.7102 24.7654 19.6281 24.6834C19.5461 24.6013 19.5 24.4901 19.5 24.374V21.749C19.5 21.633 19.5461 21.5217 19.6281 21.4397C19.7102 21.3576 19.8215 21.3115 19.9375 21.3115H28.25C28.366 21.3115 28.4773 21.3576 28.5594 21.4397C28.6414 21.5217 28.6875 21.633 28.6875 21.749V24.374Z" fill="#495057"/>
</g>
</g>
<g clip-path="url(#clip2_407_18018)">
<rect width="75" height="24" transform="translate(38 8)" fill="white" fill-opacity="0.01"/>
<path d="M47.248 26L42.752 14.8H44.112L48.672 26H47.248ZM38.144 26L42.704 14.8H44.08L39.584 26H38.144ZM40.304 22.816V21.6H46.528V22.816H40.304ZM49.9481 26L49.9801 14.8H51.2601L51.2281 26H49.9481ZM53.575 26L53.607 18H54.887L54.855 26H53.575ZM54.231 16.144C54.0177 16.144 53.831 16.064 53.671 15.904C53.511 15.744 53.431 15.5573 53.431 15.344C53.431 15.12 53.511 14.9333 53.671 14.784C53.831 14.624 54.0177 14.544 54.231 14.544C54.455 14.544 54.6417 14.624 54.791 14.784C54.951 14.9333 55.031 15.12 55.031 15.344C55.031 15.5573 54.951 15.744 54.791 15.904C54.6417 16.064 54.455 16.144 54.231 16.144ZM60.4138 29.392C59.9018 29.392 59.4324 29.3387 59.0058 29.232C58.5898 29.136 58.2324 29.024 57.9338 28.896C57.6458 28.7787 57.4378 28.6773 57.3098 28.592L57.7898 27.552C57.9284 27.6267 58.1258 27.7173 58.3818 27.824C58.6378 27.9413 58.9364 28.0373 59.2778 28.112C59.6298 28.1973 60.0031 28.24 60.3978 28.24C60.9098 28.24 61.3684 28.1333 61.7738 27.92C62.1898 27.7173 62.5098 27.392 62.7338 26.944C62.9684 26.5067 63.0858 25.9413 63.0858 25.248V18H64.3658V25.232C64.3658 26.1493 64.1951 26.9173 63.8538 27.536C63.5124 28.1547 63.0431 28.6187 62.4458 28.928C61.8484 29.2373 61.1711 29.392 60.4138 29.392ZM60.3658 25.936C59.6511 25.936 59.0218 25.7653 58.4778 25.424C57.9338 25.0827 57.5071 24.608 57.1978 24C56.8991 23.3813 56.7498 22.6773 56.7498 21.888C56.7498 21.0773 56.8991 20.368 57.1978 19.76C57.5071 19.1413 57.9338 18.6613 58.4778 18.32C59.0218 17.9787 59.6511 17.808 60.3658 17.808C61.0378 17.808 61.6244 17.9787 62.1258 18.32C62.6271 18.6613 63.0164 19.1413 63.2938 19.76C63.5818 20.368 63.7258 21.0773 63.7258 21.888C63.7258 22.688 63.5818 23.392 63.2938 24C63.0164 24.608 62.6271 25.0827 62.1258 25.424C61.6244 25.7653 61.0378 25.936 60.3658 25.936ZM60.6698 24.832C61.1391 24.832 61.5551 24.704 61.9178 24.448C62.2804 24.192 62.5631 23.8453 62.7658 23.408C62.9684 22.96 63.0698 22.4427 63.0698 21.856C63.0698 21.2907 62.9631 20.7893 62.7498 20.352C62.5471 19.904 62.2644 19.5573 61.9018 19.312C61.5498 19.056 61.1338 18.928 60.6538 18.928C60.1524 18.928 59.7044 19.056 59.3098 19.312C58.9258 19.5573 58.6218 19.904 58.3978 20.352C58.1844 20.7893 58.0778 21.2907 58.0778 21.856C58.0778 22.4427 58.1898 22.96 58.4138 23.408C58.6378 23.8453 58.9418 24.192 59.3258 24.448C59.7204 24.704 60.1684 24.832 60.6698 24.832ZM66.4013 26V18H67.6013L67.6813 19.472V26H66.4013ZM72.0173 26V21.904L73.2973 21.424V26H72.0173ZM72.0173 21.904C72.0173 21.1147 71.9266 20.512 71.7453 20.096C71.5639 19.68 71.3133 19.3973 70.9933 19.248C70.6733 19.088 70.3106 19.008 69.9053 19.008C69.2013 19.008 68.6519 19.2587 68.2573 19.76C67.8733 20.2507 67.6813 20.9493 67.6813 21.856H67.0573C67.0573 21.0133 67.1799 20.288 67.4253 19.68C67.6706 19.072 68.0226 18.608 68.4813 18.288C68.9506 17.968 69.5159 17.808 70.1773 17.808C71.1479 17.808 71.9106 18.1067 72.4653 18.704C73.0306 19.3013 73.3079 20.208 73.2973 21.424L72.0173 21.904ZM75.3231 26V18H76.5231L76.6031 19.472V26H75.3231ZM80.9391 26V21.904L82.2191 21.424V26H80.9391ZM86.5711 26V21.904L87.8511 21.424V26H86.5711ZM80.9391 21.904C80.9391 21.1147 80.8485 20.512 80.6671 20.096C80.4858 19.68 80.2351 19.3973 79.9151 19.248C79.5951 19.088 79.2325 19.008 78.8271 19.008C78.1231 19.008 77.5738 19.2587 77.1791 19.76C76.7951 20.2507 76.6031 20.9493 76.6031 21.856H75.9791C75.9791 21.0133 76.1018 20.288 76.3471 19.68C76.5925 19.072 76.9445 18.608 77.4031 18.288C77.8725 17.968 78.4378 17.808 79.0991 17.808C80.0698 17.808 80.8325 18.1067 81.3871 18.704C81.9525 19.3013 82.2298 20.208 82.2191 21.424L80.9391 21.904ZM86.5711 21.904C86.5711 21.1147 86.4751 20.512 86.2831 20.096C86.1018 19.68 85.8511 19.3973 85.5311 19.248C85.2111 19.088 84.8485 19.008 84.4431 19.008C83.7391 19.008 83.1898 19.2587 82.7951 19.76C82.4111 20.2507 82.2191 20.9493 82.2191 21.856H81.5951C81.5951 21.0133 81.7178 20.288 81.9631 19.68C82.2085 19.072 82.5658 18.608 83.0351 18.288C83.5045 17.968 84.0698 17.808 84.7311 17.808C85.6911 17.808 86.4485 18.1067 87.0031 18.704C87.5685 19.3013 87.8511 20.208 87.8511 21.424L86.5711 21.904ZM93.406 26.192C92.6273 26.192 91.9393 26.016 91.342 25.664C90.7553 25.3013 90.2913 24.8053 89.95 24.176C89.6087 23.5467 89.438 22.8213 89.438 22C89.438 21.1787 89.6033 20.4533 89.934 19.824C90.2753 19.1947 90.7447 18.704 91.342 18.352C91.9393 17.9893 92.6167 17.808 93.374 17.808C94.1207 17.808 94.766 17.9947 95.31 18.368C95.854 18.7307 96.2753 19.2427 96.574 19.904C96.8727 20.5653 97.022 21.344 97.022 22.24H95.742C95.742 21.5573 95.6513 20.976 95.47 20.496C95.2887 20.0053 95.022 19.6267 94.67 19.36C94.318 19.0933 93.8807 18.96 93.358 18.96C92.8353 18.96 92.3767 19.088 91.982 19.344C91.598 19.5893 91.2993 19.9413 91.086 20.4C90.8727 20.8587 90.766 21.3973 90.766 22.016C90.766 22.624 90.8833 23.152 91.118 23.6C91.3527 24.0373 91.6727 24.384 92.078 24.64C92.4833 24.8853 92.9473 25.008 93.47 25.008C94.0353 25.008 94.51 24.8747 94.894 24.608C95.278 24.3413 95.5767 23.9947 95.79 23.568L96.926 24.128C96.7127 24.544 96.4353 24.9067 96.094 25.216C95.7633 25.5253 95.374 25.7653 94.926 25.936C94.478 26.1067 93.9713 26.192 93.406 26.192ZM90.302 22.24V21.136H96.238V22.24H90.302ZM98.6825 26V18H99.8825L99.9625 19.472V26H98.6825ZM104.299 26V21.904L105.579 21.424V26H104.299ZM104.299 21.904C104.299 21.1147 104.208 20.512 104.027 20.096C103.845 19.68 103.595 19.3973 103.275 19.248C102.955 19.088 102.592 19.008 102.187 19.008C101.483 19.008 100.933 19.2587 100.539 19.76C100.155 20.2507 99.9625 20.9493 99.9625 21.856H99.3385C99.3385 21.0133 99.4612 20.288 99.7065 19.68C99.9518 19.072 100.304 18.608 100.763 18.288C101.232 17.968 101.797 17.808 102.459 17.808C103.429 17.808 104.192 18.1067 104.747 18.704C105.312 19.3013 105.589 20.208 105.579 21.424L104.299 21.904ZM110.772 26.192C109.994 26.192 109.391 25.9893 108.964 25.584C108.538 25.1787 108.324 24.608 108.324 23.872V15.504H109.604V23.744C109.604 24.1493 109.711 24.464 109.924 24.688C110.148 24.9013 110.458 25.008 110.852 25.008C110.98 25.008 111.103 24.992 111.22 24.96C111.348 24.9173 111.514 24.8213 111.716 24.672L112.212 25.712C111.935 25.8933 111.684 26.016 111.46 26.08C111.236 26.1547 111.007 26.192 110.772 26.192ZM106.932 19.136V18H112.004V19.136H106.932Z" fill="#495057"/>
</g>
<defs>
<clipPath id="clip0_407_18018">
<rect width="14" height="14" fill="white" transform="translate(16 13)"/>
</clipPath>
<clipPath id="clip1_407_18018">
<rect width="14" height="14" fill="white" transform="translate(16 13)"/>
</clipPath>
<clipPath id="clip2_407_18018">
<rect width="75" height="24" fill="white" transform="translate(38 8)"/>
</clipPath>
</defs>
</svg>
