<svg width="132" height="41" viewBox="0 0 132 41" fill="none" xmlns="http://www.w3.org/2000/svg">
<g clip-path="url(#clip0_407_18001)">
<rect width="14" height="14" transform="translate(16 13)" fill="white" fill-opacity="0.01"/>
<g clip-path="url(#clip1_407_18001)">
<path d="M27.8125 13.874C28.0446 13.874 28.2671 13.9662 28.4312 14.1303C28.5953 14.2944 28.6875 14.517 28.6875 14.749V25.249C28.6875 25.4811 28.5953 25.7036 28.4312 25.8677C28.2671 26.0318 28.0446 26.124 27.8125 26.124H18.1875C17.9554 26.124 17.7329 26.0318 17.5688 25.8677C17.4047 25.7036 17.3125 25.4811 17.3125 25.249V14.749C17.3125 14.517 17.4047 14.2944 17.5688 14.1303C17.7329 13.9662 17.9554 13.874 18.1875 13.874H27.8125ZM18.1875 12.999C17.7234 12.999 17.2783 13.1834 16.9501 13.5116C16.6219 13.8398 16.4375 14.2849 16.4375 14.749V25.249C16.4375 25.7132 16.6219 26.1583 16.9501 26.4865C17.2783 26.8146 17.7234 26.999 18.1875 26.999H27.8125C28.2766 26.999 28.7217 26.8146 29.0499 26.4865C29.3781 26.1583 29.5625 25.7132 29.5625 25.249V14.749C29.5625 14.2849 29.3781 13.8398 29.0499 13.5116C28.7217 13.1834 28.2766 12.999 27.8125 12.999H18.1875Z" fill="#495057"/>
<path d="M21.6875 15.624C21.6875 15.392 21.7797 15.1694 21.9438 15.0053C22.1079 14.8412 22.3304 14.749 22.5625 14.749H23.4375C23.6696 14.749 23.8921 14.8412 24.0562 15.0053C24.2203 15.1694 24.3125 15.392 24.3125 15.624V18.249C24.3125 18.4811 24.2203 18.7036 24.0562 18.8677C23.8921 19.0318 23.6696 19.124 23.4375 19.124H22.5625C22.3304 19.124 22.1079 19.0318 21.9438 18.8677C21.7797 18.7036 21.6875 18.4811 21.6875 18.249V15.624ZM18.1875 15.624C18.1875 15.392 18.2797 15.1694 18.4438 15.0053C18.6079 14.8412 18.8304 14.749 19.0625 14.749H19.9375C20.1696 14.749 20.3921 14.8412 20.5562 15.0053C20.7203 15.1694 20.8125 15.392 20.8125 15.624V21.749C20.8125 21.9811 20.7203 22.2036 20.5562 22.3677C20.3921 22.5318 20.1696 22.624 19.9375 22.624H19.0625C18.8304 22.624 18.6079 22.5318 18.4438 22.3677C18.2797 22.2036 18.1875 21.9811 18.1875 21.749V15.624ZM25.1875 15.624C25.1875 15.392 25.2797 15.1694 25.4438 15.0053C25.6079 14.8412 25.8304 14.749 26.0625 14.749H26.9375C27.1696 14.749 27.3921 14.8412 27.5562 15.0053C27.7203 15.1694 27.8125 15.392 27.8125 15.624V24.374C27.8125 24.6061 27.7203 24.8286 27.5562 24.9927C27.3921 25.1568 27.1696 25.249 26.9375 25.249H26.0625C25.8304 25.249 25.6079 25.1568 25.4438 24.9927C25.2797 24.8286 25.1875 24.6061 25.1875 24.374V15.624Z" fill="#495057"/>
</g>
</g>
<g clip-path="url(#clip2_407_18001)">
<rect width="78" height="24" transform="translate(38 8)" fill="white" fill-opacity="0.01"/>
<path d="M42.896 26V24.752C43.4613 24.752 43.984 24.6453 44.464 24.432C44.944 24.208 45.3653 23.8933 45.728 23.488C46.1013 23.0827 46.3893 22.6187 46.592 22.096C46.8053 21.5627 46.912 20.9973 46.912 20.4C46.912 19.8027 46.8053 19.2427 46.592 18.72C46.3893 18.1867 46.1013 17.7173 45.728 17.312C45.3653 16.9067 44.944 16.5973 44.464 16.384C43.984 16.16 43.4613 16.048 42.896 16.048V14.8C43.952 14.8 44.88 15.04 45.68 15.52C46.4907 15.9893 47.1253 16.6453 47.584 17.488C48.0427 18.3307 48.272 19.3013 48.272 20.4C48.272 21.488 48.0427 22.4533 47.584 23.296C47.1253 24.1387 46.4907 24.8 45.68 25.28C44.88 25.76 43.952 26 42.896 26ZM40.576 26V24.752H42.896V26H40.576ZM39.488 26V14.8H40.848V26H39.488ZM40.576 16.048V14.8H42.896V16.048H40.576ZM55.1436 26L55.0156 21.776C54.9943 21.1467 54.9143 20.6293 54.7756 20.224C54.637 19.808 54.4236 19.4987 54.1356 19.296C53.8476 19.0827 53.4636 18.976 52.9836 18.976C52.525 18.976 52.125 19.0667 51.7836 19.248C51.453 19.4293 51.181 19.712 50.9676 20.096L49.8316 19.632C50.0343 19.2587 50.285 18.9387 50.5836 18.672C50.8823 18.3947 51.2343 18.1813 51.6396 18.032C52.045 17.8827 52.4983 17.808 52.9996 17.808C53.7356 17.808 54.349 17.952 54.8396 18.24C55.3303 18.528 55.693 18.96 55.9276 19.536C56.173 20.1013 56.2956 20.8107 56.2956 21.664V26H55.1436ZM52.7116 26.192C51.7623 26.192 51.021 25.9787 50.4876 25.552C49.965 25.1147 49.7036 24.512 49.7036 23.744C49.7036 22.9333 49.9703 22.3147 50.5036 21.888C51.0476 21.4507 51.805 21.232 52.7756 21.232H55.5916V22.304H53.0636C52.317 22.304 51.7836 22.4267 51.4636 22.672C51.1543 22.9173 50.9996 23.2693 50.9996 23.728C50.9996 24.144 51.1543 24.4747 51.4636 24.72C51.773 24.9547 52.205 25.072 52.7596 25.072C53.229 25.072 53.6343 24.9653 53.9756 24.752C54.317 24.5387 54.5783 24.2507 54.7596 23.888C54.941 23.5147 55.0316 23.0933 55.0316 22.624H55.8156C55.8156 23.712 55.549 24.5813 55.0156 25.232C54.4823 25.872 53.7143 26.192 52.7116 26.192ZM61.1231 26.192C60.5365 26.192 60.0245 26.1067 59.5871 25.936C59.1498 25.7547 58.7818 25.52 58.4831 25.232C58.1951 24.944 57.9871 24.6293 57.8591 24.288L58.9791 23.824C59.1605 24.176 59.4325 24.464 59.7951 24.688C60.1578 24.912 60.5578 25.024 60.9951 25.024C61.4965 25.024 61.9125 24.928 62.2431 24.736C62.5845 24.5333 62.7551 24.256 62.7551 23.904C62.7551 23.5733 62.6271 23.3067 62.3711 23.104C62.1258 22.9013 61.7631 22.736 61.2831 22.608L60.5151 22.4C59.7898 22.208 59.2245 21.92 58.8191 21.536C58.4138 21.1413 58.2111 20.6987 58.2111 20.208C58.2111 19.4507 58.4565 18.864 58.9471 18.448C59.4485 18.0213 60.1898 17.808 61.1711 17.808C61.6405 17.808 62.0671 17.8773 62.4511 18.016C62.8351 18.1547 63.1658 18.352 63.4431 18.608C63.7205 18.8533 63.9231 19.1467 64.0511 19.488L62.9311 19.984C62.7925 19.6213 62.5631 19.3653 62.2431 19.216C61.9231 19.056 61.5338 18.976 61.0751 18.976C60.5845 18.976 60.2005 19.0773 59.9231 19.28C59.6458 19.4827 59.5071 19.7707 59.5071 20.144C59.5071 20.3573 59.6191 20.56 59.8431 20.752C60.0778 20.9333 60.4191 21.0827 60.8671 21.2L61.6671 21.408C62.1898 21.536 62.6271 21.728 62.9791 21.984C63.3311 22.2293 63.5978 22.512 63.7791 22.832C63.9605 23.152 64.0511 23.4933 64.0511 23.856C64.0511 24.336 63.9231 24.752 63.6671 25.104C63.4111 25.456 63.0645 25.728 62.6271 25.92C62.1898 26.1013 61.6885 26.192 61.1231 26.192ZM65.7763 26V14.592H67.0563V26H65.7763ZM71.4083 26V21.904L72.6883 21.424V26H71.4083ZM71.4083 21.904C71.4083 21.1147 71.3123 20.512 71.1203 20.096C70.9389 19.68 70.6883 19.3973 70.3683 19.248C70.0483 19.088 69.6856 19.008 69.2803 19.008C68.5763 19.008 68.0269 19.2587 67.6323 19.76C67.2483 20.2507 67.0563 20.9493 67.0563 21.856H66.4323C66.4323 21.0133 66.5549 20.288 66.8003 19.68C67.0456 19.072 67.4029 18.608 67.8723 18.288C68.3416 17.968 68.9069 17.808 69.5683 17.808C70.5283 17.808 71.2909 18.1067 71.8563 18.704C72.4216 19.3013 72.6989 20.208 72.6883 21.424L71.4083 21.904ZM74.6981 26V14.8H75.9781V24.512L75.9141 26H74.6981ZM78.6821 26.192C78.0101 26.192 77.4181 26.016 76.9061 25.664C76.4048 25.312 76.0155 24.8213 75.7381 24.192C75.4608 23.552 75.3221 22.8213 75.3221 22C75.3221 21.168 75.4608 20.4373 75.7381 19.808C76.0155 19.1787 76.4048 18.688 76.9061 18.336C77.4181 17.984 78.0101 17.808 78.6821 17.808C79.3968 17.808 80.0261 17.984 80.5701 18.336C81.1141 18.688 81.5355 19.1787 81.8341 19.808C82.1435 20.4373 82.2981 21.168 82.2981 22C82.2981 22.8213 82.1435 23.552 81.8341 24.192C81.5355 24.8213 81.1141 25.312 80.5701 25.664C80.0261 26.016 79.3968 26.192 78.6821 26.192ZM78.3941 25.024C78.8955 25.024 79.3381 24.896 79.7221 24.64C80.1168 24.384 80.4261 24.0267 80.6501 23.568C80.8848 23.1093 81.0021 22.5867 81.0021 22C81.0021 21.4133 80.8901 20.8907 80.6661 20.432C80.4528 19.9733 80.1488 19.616 79.7541 19.36C79.3595 19.104 78.9115 18.976 78.4101 18.976C77.9408 18.976 77.5195 19.104 77.1461 19.36C76.7835 19.616 76.4955 19.9733 76.2821 20.432C76.0795 20.8907 75.9781 21.4133 75.9781 22C75.9781 22.5867 76.0795 23.1093 76.2821 23.568C76.4955 24.0267 76.7835 24.384 77.1461 24.64C77.5088 24.896 77.9248 25.024 78.3941 25.024ZM87.6571 26.192C86.8785 26.192 86.1851 26.016 85.5771 25.664C84.9691 25.3013 84.4945 24.8053 84.1531 24.176C83.8118 23.5467 83.6411 22.8213 83.6411 22C83.6411 21.1787 83.8065 20.4533 84.1371 19.824C84.4785 19.1947 84.9531 18.704 85.5611 18.352C86.1691 17.9893 86.8571 17.808 87.6251 17.808C88.4145 17.808 89.1078 17.9893 89.7051 18.352C90.3131 18.704 90.7825 19.1947 91.1131 19.824C91.4545 20.4533 91.6251 21.1787 91.6251 22C91.6251 22.8213 91.4545 23.5467 91.1131 24.176C90.7825 24.8053 90.3185 25.3013 89.7211 25.664C89.1238 26.016 88.4358 26.192 87.6571 26.192ZM87.6571 24.976C88.1798 24.976 88.6385 24.8533 89.0331 24.608C89.4278 24.352 89.7371 24 89.9611 23.552C90.1851 23.104 90.2971 22.5867 90.2971 22C90.2971 21.4133 90.1798 20.896 89.9451 20.448C89.7211 20 89.4065 19.6533 89.0011 19.408C88.6065 19.152 88.1478 19.024 87.6251 19.024C87.1025 19.024 86.6438 19.152 86.2491 19.408C85.8545 19.6533 85.5398 20 85.3051 20.448C85.0811 20.896 84.9691 21.4133 84.9691 22C84.9691 22.5867 85.0811 23.104 85.3051 23.552C85.5398 24 85.8598 24.352 86.2651 24.608C86.6705 24.8533 87.1345 24.976 87.6571 24.976ZM98.4405 26L98.3125 21.776C98.2912 21.1467 98.2112 20.6293 98.0725 20.224C97.9338 19.808 97.7205 19.4987 97.4325 19.296C97.1445 19.0827 96.7605 18.976 96.2805 18.976C95.8218 18.976 95.4218 19.0667 95.0805 19.248C94.7498 19.4293 94.4778 19.712 94.2645 20.096L93.1285 19.632C93.3312 19.2587 93.5818 18.9387 93.8805 18.672C94.1792 18.3947 94.5312 18.1813 94.9365 18.032C95.3418 17.8827 95.7952 17.808 96.2965 17.808C97.0325 17.808 97.6458 17.952 98.1365 18.24C98.6272 18.528 98.9898 18.96 99.2245 19.536C99.4698 20.1013 99.5925 20.8107 99.5925 21.664V26H98.4405ZM96.0085 26.192C95.0592 26.192 94.3178 25.9787 93.7845 25.552C93.2618 25.1147 93.0005 24.512 93.0005 23.744C93.0005 22.9333 93.2672 22.3147 93.8005 21.888C94.3445 21.4507 95.1018 21.232 96.0725 21.232H98.8885V22.304H96.3605C95.6138 22.304 95.0805 22.4267 94.7605 22.672C94.4512 22.9173 94.2965 23.2693 94.2965 23.728C94.2965 24.144 94.4512 24.4747 94.7605 24.72C95.0698 24.9547 95.5018 25.072 96.0565 25.072C96.5258 25.072 96.9312 24.9653 97.2725 24.752C97.6138 24.5387 97.8752 24.2507 98.0565 23.888C98.2378 23.5147 98.3285 23.0933 98.3285 22.624H99.1125C99.1125 23.712 98.8458 24.5813 98.3125 25.232C97.7792 25.872 97.0112 26.192 96.0085 26.192ZM102.324 21.664C102.324 20.8 102.489 20.1013 102.82 19.568C103.151 19.024 103.572 18.624 104.084 18.368C104.607 18.1013 105.156 17.968 105.732 17.968V19.168C105.263 19.168 104.809 19.248 104.372 19.408C103.945 19.5573 103.593 19.808 103.316 20.16C103.039 20.512 102.9 20.992 102.9 21.6L102.324 21.664ZM101.62 26V18H102.9V26H101.62ZM112.946 26L112.882 24.512V14.8H114.162V26H112.946ZM110.178 26.192C109.464 26.192 108.834 26.016 108.29 25.664C107.746 25.312 107.32 24.8213 107.01 24.192C106.712 23.552 106.562 22.8213 106.562 22C106.562 21.168 106.712 20.4373 107.01 19.808C107.32 19.1787 107.746 18.688 108.29 18.336C108.834 17.984 109.464 17.808 110.178 17.808C110.85 17.808 111.437 17.984 111.938 18.336C112.45 18.688 112.845 19.1787 113.122 19.808C113.4 20.4373 113.538 21.168 113.538 22C113.538 22.8213 113.4 23.552 113.122 24.192C112.845 24.8213 112.45 25.312 111.938 25.664C111.437 26.016 110.85 26.192 110.178 26.192ZM110.466 25.024C110.936 25.024 111.352 24.896 111.714 24.64C112.077 24.384 112.36 24.0267 112.562 23.568C112.776 23.1093 112.882 22.5867 112.882 22C112.882 21.4133 112.776 20.8907 112.562 20.432C112.36 19.9733 112.077 19.616 111.714 19.36C111.352 19.104 110.93 18.976 110.45 18.976C109.949 18.976 109.501 19.104 109.106 19.36C108.722 19.616 108.418 19.9733 108.194 20.432C107.97 20.8907 107.858 21.4133 107.858 22C107.858 22.5867 107.97 23.1093 108.194 23.568C108.418 24.0267 108.728 24.384 109.122 24.64C109.517 24.896 109.965 25.024 110.466 25.024Z" fill="#495057"/>
</g>
<defs>
<clipPath id="clip0_407_18001">
<rect width="14" height="14" fill="white" transform="translate(16 13)"/>
</clipPath>
<clipPath id="clip1_407_18001">
<rect width="14" height="14" fill="white" transform="translate(16 13)"/>
</clipPath>
<clipPath id="clip2_407_18001">
<rect width="78" height="24" fill="white" transform="translate(38 8)"/>
</clipPath>
</defs>
</svg>
