<svg width="16" height="16" viewBox="0 0 16 16" fill="none" xmlns="http://www.w3.org/2000/svg">
<path fill-rule="evenodd" clip-rule="evenodd" d="M4.71355 0.501099L11.2904 0.5011C11.9253 0.501095 12.4324 0.501092 12.8419 0.53455C13.2619 0.568866 13.6231 0.640856 13.9549 0.809915C14.4881 1.08156 14.9215 1.515 15.1931 2.04813C15.3622 2.37992 15.4342 2.74118 15.4685 3.16119C15.502 3.57069 15.502 4.07772 15.502 4.71268V11.2895C15.502 11.9245 15.502 12.4315 15.4685 12.841C15.4342 13.261 15.3622 13.6223 15.1931 13.9541C14.9215 14.4872 14.4881 14.9206 13.9549 15.1923C13.6231 15.3613 13.2619 15.4333 12.8419 15.4676C12.4324 15.5011 11.9253 15.5011 11.2904 15.5011H4.71358C4.0786 15.5011 3.57156 15.5011 3.16204 15.4676C2.74203 15.4333 2.38078 15.3613 2.04898 15.1923C1.51585 14.9206 1.08241 14.4872 0.810768 13.9541C0.641709 13.6223 0.56972 13.261 0.535404 12.841C0.501945 12.4315 0.501949 11.9245 0.501953 11.2895L0.501953 4.71269C0.501949 4.07773 0.501946 3.5707 0.535404 3.16119C0.56972 2.74118 0.641709 2.37992 0.810768 2.04813C1.08241 1.515 1.51585 1.08155 2.04898 0.809913C2.38078 0.640854 2.74203 0.568865 3.16204 0.534549C3.57155 0.501091 4.07858 0.501094 4.71355 0.501099ZM3.24347 1.53123C2.88531 1.56049 2.6703 1.61566 2.50297 1.70092C2.15801 1.87669 1.87754 2.15715 1.70177 2.50212C1.61652 2.66945 1.56135 2.88445 1.53208 3.24262C1.50234 3.60662 1.50195 4.07279 1.50195 4.73443L1.50195 11.2678C1.50195 11.9294 1.50234 12.3956 1.53208 12.7596C1.56135 13.1177 1.61652 13.3328 1.70177 13.5001C1.87754 13.845 2.15801 14.1255 2.50297 14.3013C2.6703 14.3865 2.88531 14.4417 3.24347 14.471C3.60748 14.5007 4.07364 14.5011 4.73529 14.5011H11.2686C11.9303 14.5011 12.3964 14.5007 12.7604 14.471C13.1186 14.4417 13.3336 14.3865 13.5009 14.3013C13.8459 14.1255 14.1264 13.845 14.3021 13.5001C14.3874 13.3328 14.4426 13.1177 14.4718 12.7596C14.5016 12.3956 14.502 11.9294 14.502 11.2678V4.73443C14.502 4.07279 14.5016 3.60663 14.4718 3.24262C14.4426 2.88445 14.3874 2.66945 14.3021 2.50212C14.1264 2.15715 13.8459 1.87669 13.5009 1.70092C13.3336 1.61566 13.1186 1.56049 12.7604 1.53123C12.3964 1.50149 11.9303 1.5011 11.2686 1.5011L4.73529 1.5011C4.07364 1.5011 3.60748 1.50149 3.24347 1.53123ZM5.16862 6.44554C5.16862 4.88074 6.43715 3.61221 8.00195 3.61221C9.56676 3.61221 10.8353 4.88074 10.8353 6.44554C10.8353 7.26481 10.4869 8.00347 9.93171 8.52012C9.86573 8.58152 9.8195 8.62463 9.7854 8.65776C9.79441 8.68605 9.8065 8.72249 9.82307 8.77219L10.5422 10.9296C10.5835 11.0533 10.6243 11.1757 10.6491 11.2808C10.6757 11.3932 10.7005 11.5479 10.6579 11.7176C10.6026 11.9378 10.4651 12.1284 10.2737 12.2505C10.1262 12.3446 9.97163 12.37 9.85663 12.3804C9.749 12.39 9.61999 12.39 9.48962 12.39H6.51428C6.38392 12.39 6.2549 12.39 6.14728 12.3804C6.03228 12.37 5.87771 12.3446 5.73018 12.2505C5.53877 12.1284 5.40134 11.9378 5.34605 11.7176C5.30343 11.5479 5.32823 11.3932 5.35478 11.2808C5.37964 11.1757 5.42045 11.0533 5.46169 10.9296L6.18084 8.77219C6.19741 8.72249 6.20949 8.68605 6.2185 8.65776C6.18441 8.62463 6.13818 8.58152 6.07219 8.52012C5.51698 8.00347 5.16862 7.26481 5.16862 6.44554ZM8.00195 4.61221C6.98943 4.61221 6.16862 5.43302 6.16862 6.44554C6.16862 6.97568 6.39299 7.45265 6.75342 7.78804L6.76099 7.79509C6.83739 7.86617 6.90639 7.93038 6.95951 7.98434C7.00832 8.03393 7.08366 8.11348 7.13634 8.21507C7.16186 8.26428 7.19073 8.32694 7.21042 8.40408C7.2301 8.48122 7.23477 8.55005 7.23595 8.60547C7.23816 8.71004 7.21735 8.80149 7.19906 8.86845C7.18182 8.93156 7.15741 9.00478 7.13288 9.07835L6.41596 11.2291C6.39406 11.2948 6.37681 11.3469 6.36325 11.3893C6.40782 11.3899 6.46265 11.39 6.53191 11.39H9.472C9.54125 11.39 9.59609 11.3899 9.64066 11.3893C9.6271 11.3469 9.60985 11.2948 9.58795 11.2291L8.87105 9.07843C8.84651 9.00483 8.82209 8.93159 8.80484 8.86845C8.78656 8.8015 8.76574 8.71004 8.76796 8.60547C8.76913 8.55005 8.77381 8.48122 8.79349 8.40408C8.81317 8.32694 8.84205 8.26428 8.86757 8.21507C8.92025 8.11349 8.99558 8.03393 9.0444 7.98434C9.09752 7.93038 9.16653 7.86616 9.24293 7.79507L9.25049 7.78804C9.61092 7.45265 9.83529 6.97568 9.83529 6.44554C9.83529 5.43302 9.01448 4.61221 8.00195 4.61221Z" fill="#495057"/>
</svg>
