<svg width="17" height="16" viewBox="0 0 17 16" fill="none" xmlns="http://www.w3.org/2000/svg">
<g id="icon-wrapper">
<path id="Union" fill-rule="evenodd" clip-rule="evenodd" d="M1.6462 15.3526C1.55243 15.2588 1.49976 15.1316 1.49976 14.999V0.999023C1.49976 0.866415 1.55243 0.739238 1.6462 0.64547C1.73997 0.551702 1.86715 0.499023 1.99976 0.499023C2.13236 0.499023 2.25954 0.551702 2.35331 0.64547C2.44708 0.739238 2.49976 0.866415 2.49976 0.999023V14.999C2.49976 15.1316 2.44708 15.2588 2.35331 15.3526C2.25954 15.4463 2.13236 15.499 1.99976 15.499C1.86715 15.499 1.73997 15.4463 1.6462 15.3526ZM4.99976 1.49902C4.60193 1.49902 4.2204 1.65706 3.9391 1.93836C3.65779 2.21967 3.49976 2.6012 3.49976 2.99902V5.99902C3.49976 6.39685 3.65779 6.77838 3.9391 7.05968C4.2204 7.34099 4.60193 7.49902 4.99976 7.49902H10.4998C10.8976 7.49902 11.2791 7.34099 11.5604 7.05968C11.8417 6.77838 11.9998 6.39685 11.9998 5.99902V2.99902C11.9998 2.6012 11.8417 2.21967 11.5604 1.93836C11.2791 1.65706 10.8976 1.49902 10.4998 1.49902H4.99976ZM10.9998 2.99902V5.99902C10.9998 6.13163 10.9471 6.25881 10.8533 6.35258C10.7595 6.44634 10.6324 6.49902 10.4998 6.49902H4.99976C4.86715 6.49902 4.73997 6.44634 4.6462 6.35258C4.55243 6.25881 4.49976 6.13163 4.49976 5.99902V2.99902C4.49976 2.86642 4.55243 2.73924 4.6462 2.64547C4.73997 2.5517 4.86715 2.49902 4.99976 2.49902H10.4998C10.6324 2.49902 10.7595 2.5517 10.8533 2.64547C10.9471 2.73924 10.9998 2.86642 10.9998 2.99902ZM14.4998 8.49902H4.99976C4.60193 8.49902 4.2204 8.65706 3.9391 8.93836C3.65779 9.21967 3.49976 9.6012 3.49976 9.99902V12.999C3.49976 13.3968 3.65779 13.7784 3.9391 14.0597C4.2204 14.341 4.60193 14.499 4.99976 14.499H14.4998C14.8976 14.499 15.2791 14.341 15.5604 14.0597C15.8417 13.7784 15.9998 13.3968 15.9998 12.999V9.99902C15.9998 9.6012 15.8417 9.21967 15.5604 8.93836C15.2791 8.65706 14.8976 8.49902 14.4998 8.49902ZM14.9998 12.999C14.9998 13.1316 14.9471 13.2588 14.8533 13.3526C14.7595 13.4463 14.6324 13.499 14.4998 13.499H4.99976C4.86715 13.499 4.73997 13.4463 4.6462 13.3526C4.55243 13.2588 4.49976 13.1316 4.49976 12.999V9.99902C4.49976 9.86642 4.55243 9.73924 4.6462 9.64547C4.73997 9.5517 4.86715 9.49902 4.99976 9.49902H14.4998C14.6324 9.49902 14.7595 9.5517 14.8533 9.64547C14.9471 9.73924 14.9998 9.86642 14.9998 9.99902V12.999Z" fill="white"/>
</g>
</svg>
