<svg width="20" height="20" viewBox="0 0 20 20" fill="none" xmlns="http://www.w3.org/2000/svg">
<g id="Frame 3">
<g id="Vector">
<path d="M10 8.06337C11.5015 8.06337 12.7188 6.9299 12.7188 5.53169C12.7188 4.13347 11.5015 3 10 3C8.49848 3 7.28125 4.13347 7.28125 5.53169C7.28125 6.9299 8.49848 8.06337 10 8.06337Z" fill="#6C757D"/>
<path d="M15.5 8.06334C16.4492 8.06334 17.2188 7.34678 17.2188 6.46285C17.2188 5.57892 16.4492 4.86236 15.5 4.86236C14.5508 4.86236 13.7812 5.57892 13.7812 6.46285C13.7812 7.34678 14.5508 8.06334 15.5 8.06334Z" fill="#6C757D"/>
<path d="M4.5 8.06334C5.44924 8.06334 6.21875 7.34678 6.21875 6.46285C6.21875 5.57892 5.44924 4.86236 4.5 4.86236C3.55076 4.86236 2.78125 5.57892 2.78125 6.46285C2.78125 7.34678 3.55076 8.06334 4.5 8.06334Z" fill="#6C757D"/>
<path d="M6.19344 9.50061C5.51688 8.98444 4.90416 9.05276 4.12188 9.05276C2.95188 9.05276 2 9.93391 2 11.0167V14.1947C2 14.665 2.41219 15.0473 2.91906 15.0473C5.10738 15.0473 4.84375 15.0842 4.84375 14.9594C4.84375 12.7075 4.55731 11.0561 6.19344 9.50061Z" fill="#6C757D"/>
<path d="M10.7441 9.06438C9.37769 8.95825 8.19003 9.0656 7.16563 9.85298C5.45134 11.1316 5.78125 12.8533 5.78125 14.9594C5.78125 15.5167 6.26813 15.9785 6.87563 15.9785C13.4719 15.9785 13.7345 16.1766 14.1256 15.37C14.2539 15.0972 14.2188 15.1839 14.2188 12.5744C14.2188 10.5017 12.2915 9.06438 10.7441 9.06438Z" fill="#6C757D"/>
<path d="M15.8781 9.05274C15.0916 9.05274 14.4822 8.98511 13.8066 9.50058C15.4305 11.0445 15.1562 12.5833 15.1562 14.9594C15.1562 15.085 14.9374 15.0473 17.0481 15.0473C17.5731 15.0473 18 14.6513 18 14.1644V11.0167C18 9.93388 17.0481 9.05274 15.8781 9.05274Z" fill="#6C757D"/>
</g>
</g>
</svg>
