<svg width="20" height="20" viewBox="0 0 20 20" fill="none" xmlns="http://www.w3.org/2000/svg">
<g id="Dollar Coin">
<g id="Group">
<path id="Vector" opacity="0.6" d="M13.8687 5.95703C14.2049 6.75253 14.3909 7.62638 14.3909 8.54288C14.3909 12.1445 11.5189 15.0875 7.94482 15.2031C8.99567 16.4158 10.5464 17.1841 12.2732 17.1841C15.431 17.1841 18 14.6151 18 11.4573C18 8.85312 16.2525 6.64956 13.8687 5.95703Z" fill="#6C757D"/>
<path id="Vector_2" d="M13.4534 8.54312C13.4534 5.38541 10.8844 2.81641 7.72669 2.81641C4.56897 2.81641 2 5.38541 2 8.54312C2 11.7008 4.56897 14.2698 7.72669 14.2698C10.8844 14.2698 13.4534 11.7008 13.4534 8.54312ZM9.35328 9.92966C9.2575 10.4994 8.83216 11.0767 8.16778 11.2682V11.4332C8.16778 11.6921 7.95791 11.902 7.69903 11.902C7.44016 11.902 7.23028 11.6921 7.23028 11.4332V11.3159C6.91669 11.2808 6.60606 11.1846 6.26625 10.9316C6.05856 10.777 6.01559 10.4833 6.17016 10.2757C6.32472 10.068 6.61847 10.0251 6.82606 10.1796C7.08244 10.3705 7.25863 10.4002 7.69588 10.3972C8.12794 10.3943 8.37862 10.0723 8.42872 9.77425C8.45325 9.62828 8.46272 9.27194 8.02175 9.11606C7.33669 8.87391 6.93997 8.68312 6.65241 8.45759C6.64822 8.45434 6.64409 8.45097 6.64003 8.44756C6.21459 8.08991 6.02281 7.59694 6.11384 7.09512C6.21519 6.53644 6.65334 6.04341 7.23028 5.83856V5.65313C7.23028 5.39425 7.44016 5.18438 7.69903 5.18438C7.95791 5.18438 8.16778 5.39425 8.16778 5.65313V5.77994C8.44859 5.84366 8.71809 5.98066 8.95853 6.18772C9.15469 6.35666 9.17672 6.65262 9.00778 6.84878C8.83881 7.04494 8.54287 7.067 8.34672 6.89803C8.03369 6.62847 7.73787 6.65337 7.54478 6.72166C7.28656 6.81306 7.0775 7.03541 7.03631 7.26244C7.00563 7.43175 7.07134 7.58306 7.23731 7.72484C7.48859 7.91897 7.93241 8.09013 8.33425 8.23216C9.07066 8.49244 9.48019 9.17462 9.35328 9.92966Z" fill="#6C757D"/>
</g>
</g>
</svg>
