<svg width="16" height="16" viewBox="0 0 16 16" fill="none" xmlns="http://www.w3.org/2000/svg">
<g id="wrapper">
<path id="Union" d="M0.542265 3.87098L0.502265 3.00098C0.502265 2.47054 0.712979 1.96184 1.08805 1.58676C1.46312 1.21169 1.97183 1.00098 2.50227 1.00098H6.17427C6.70466 1.00109 7.21328 1.21188 7.58827 1.58698L8.41626 2.41498C8.79125 2.79008 9.29988 3.00086 9.83027 3.00098H13.8123C14.0902 3.00095 14.3651 3.05884 14.6194 3.17097C14.8737 3.28309 15.1018 3.44699 15.2892 3.6522C15.4766 3.85741 15.6193 4.09943 15.7079 4.36282C15.7966 4.62621 15.8294 4.9052 15.8043 5.18198L15.1673 12.182C15.1221 12.6789 14.8928 13.141 14.5245 13.4775C14.1561 13.8141 13.6752 14.0008 13.1763 14.001H2.82827C2.3293 14.0008 1.84843 13.8141 1.48006 13.4775C1.11169 13.141 0.882421 12.6789 0.837265 12.182L0.200265 5.18198C0.157652 4.71876 0.278659 4.25525 0.542265 3.87198V3.87098ZM2.19227 4.00098C2.05335 4.00097 1.91596 4.0299 1.78885 4.08594C1.66173 4.14197 1.54769 4.22387 1.45399 4.32642C1.36028 4.42897 1.28897 4.54992 1.2446 4.68155C1.20022 4.81319 1.18376 4.95263 1.19627 5.09098L1.83327 12.091C1.85572 12.3394 1.97023 12.5705 2.15432 12.7389C2.33841 12.9073 2.57879 13.0007 2.82827 13.001H13.1763C13.4257 13.0007 13.6661 12.9073 13.8502 12.7389C14.0343 12.5705 14.1488 12.3394 14.1713 12.091L14.8083 5.09098C14.8208 4.95263 14.8043 4.81319 14.7599 4.68155C14.7156 4.54992 14.6443 4.42897 14.5505 4.32642C14.4568 4.22387 14.3428 4.14197 14.2157 4.08594C14.0886 4.0299 13.9512 4.00097 13.8123 4.00098H2.19227ZM6.88227 2.29398C6.78931 2.20099 6.67893 2.12725 6.55744 2.07698C6.43595 2.0267 6.30575 2.00087 6.17427 2.00098H2.50227C2.24031 2.00093 1.98879 2.10367 1.80179 2.28712C1.61479 2.47057 1.50724 2.72007 1.50227 2.98198L1.50827 3.12098C1.72227 3.04298 1.95227 3.00098 2.19227 3.00098H7.58827L6.88127 2.29398H6.88227Z" fill="#495057"/>
</g>
</svg>
