<svg width="17" height="16" viewBox="0 0 17 16" fill="none" xmlns="http://www.w3.org/2000/svg">
<g id="icon-wrapper">
<g id="Union">
<path d="M5.54812 6.5416L4.17612 7.9136C3.61346 8.47625 3.29736 9.23938 3.29736 10.0351C3.29736 10.8308 3.61346 11.5939 4.17612 12.1566C4.73877 12.7193 5.5019 13.0354 6.29762 13.0354C7.09333 13.0354 7.85646 12.7193 8.41912 12.1566L10.2471 10.3276C10.5864 9.98825 10.8394 9.57247 10.9847 9.11514C11.1301 8.65782 11.1636 8.1723 11.0825 7.69933C11.0014 7.22637 10.808 6.77976 10.5185 6.397C10.2291 6.01424 9.85209 5.7065 9.41912 5.4996L8.83312 6.0856C8.77363 6.1452 8.72188 6.21206 8.67912 6.2846C9.01364 6.38077 9.31728 6.56258 9.56001 6.81206C9.80274 7.06153 9.97616 7.37004 10.0631 7.70708C10.1501 8.04412 10.1476 8.39802 10.0558 8.73379C9.96412 9.06956 9.78636 9.37558 9.54012 9.6216L7.71312 11.4496C7.33784 11.8249 6.82885 12.0357 6.29812 12.0357C5.76739 12.0357 5.2584 11.8249 4.88312 11.4496C4.50784 11.0743 4.297 10.5653 4.297 10.0346C4.297 9.50387 4.50784 8.99488 4.88312 8.6196L5.67612 7.8276C5.56423 7.40832 5.52101 6.97469 5.54812 6.5416Z" fill="white"/>
<path d="M7.41912 4.6716C7.07982 5.01094 6.82688 5.42672 6.68153 5.88405C6.53617 6.34138 6.50264 6.8269 6.58376 7.29986C6.66487 7.77283 6.85826 8.21943 7.14769 8.60219C7.43712 8.98495 7.81414 9.2927 8.24712 9.4996L9.02212 8.7236C8.68307 8.63265 8.37392 8.45407 8.12575 8.2058C7.87758 7.95753 7.69913 7.64831 7.60833 7.30922C7.51753 6.97013 7.51757 6.61311 7.60846 6.27404C7.69935 5.93498 7.87788 5.62581 8.12612 5.3776L9.95312 3.5496C10.3284 3.17432 10.8374 2.96349 11.3681 2.96349C11.8988 2.96349 12.4078 3.17432 12.7831 3.5496C13.1584 3.92488 13.3692 4.43387 13.3692 4.9646C13.3692 5.49533 13.1584 6.00432 12.7831 6.3796L11.9901 7.1716C12.1021 7.5916 12.1451 8.0266 12.1181 8.4586L13.4901 7.0866C14.0528 6.52394 14.3689 5.76081 14.3689 4.9651C14.3689 4.16938 14.0528 3.40625 13.4901 2.8436C12.9275 2.28094 12.1643 1.96484 11.3686 1.96484C10.5729 1.96484 9.80977 2.28094 9.24712 2.8436L7.41912 4.6716Z" fill="white"/>
</g>
</g>
</svg>
