<svg width="17" height="16" viewBox="0 0 17 16" fill="none" xmlns="http://www.w3.org/2000/svg">
<g id="icon-wrapper" clip-path="url(#clip0_2160_66944)">
<path id="Union" d="M16.1559 -0.000976562H5.26225C5.12682 -0.000976562 4.99694 0.0528226 4.90117 0.148586C4.80541 0.244349 4.75161 0.374232 4.75161 0.509662V4.08413H1.17714C1.04171 4.08413 0.91183 4.13793 0.816066 4.23369C0.720303 4.32946 0.666504 4.45934 0.666504 4.59477V15.4884C0.666504 15.6238 0.720303 15.7537 0.816066 15.8495C0.91183 15.9452 1.04171 15.999 1.17714 15.999H12.0708C12.2062 15.999 12.3361 15.9452 12.4318 15.8495C12.5276 15.7537 12.5814 15.6238 12.5814 15.4884V11.9139H16.1559C16.2913 11.9139 16.4212 11.8601 16.5169 11.7644C16.6127 11.6686 16.6665 11.5387 16.6665 11.4033V0.509662C16.6665 0.374232 16.6127 0.244349 16.5169 0.148586C16.4212 0.0528226 16.2913 -0.000976562 16.1559 -0.000976562ZM11.5601 14.9777H1.68778V5.10541H11.5601V14.9777ZM15.6452 10.8926H12.5814V4.59477C12.5814 4.45934 12.5276 4.32946 12.4318 4.23369C12.3361 4.13793 12.2062 4.08413 12.0708 4.08413H5.77289V1.0203H15.6452V10.8926Z" fill="white"/>
</g>
<defs>
<clipPath id="clip0_2160_66944">
<rect width="16" height="16" fill="white" transform="translate(0.666748)"/>
</clipPath>
</defs>
</svg>
