<svg width="21" height="21" viewBox="0 0 21 21" fill="none" xmlns="http://www.w3.org/2000/svg">
<rect width="20.625" height="20.7475" rx="4" fill="url(#paint0_linear_1493_23666)"/>
<path d="M8.285 13.2775L6.035 15.5275C5.885 15.6775 5.695 15.7475 5.505 15.7475C5.315 15.7475 5.115 15.6775 4.975 15.5275L4.225 14.7775C3.925 14.4875 3.925 14.0075 4.225 13.7175C4.515 13.4275 4.985 13.4275 5.285 13.7175L5.505 13.9375L7.225 12.2175C7.515 11.9275 7.985 11.9275 8.285 12.2175C8.575 12.5075 8.575 12.9875 8.285 13.2775ZM8.285 6.2775L6.035 8.5275C5.885 8.6775 5.695 8.7475 5.505 8.7475C5.315 8.7475 5.115 8.6775 4.975 8.5275L4.225 7.7775C3.925 7.4875 3.925 7.0075 4.225 6.7175C4.515 6.4275 4.985 6.4275 5.285 6.7175L5.505 6.9375L7.225 5.2175C7.515 4.9275 7.985 4.9275 8.285 5.2175C8.575 5.5075 8.575 5.9875 8.285 6.2775ZM15.875 14.9975H10.625C10.215 14.9975 9.875 14.6575 9.875 14.2475C9.875 13.8375 10.215 13.4975 10.625 13.4975H15.875C16.295 13.4975 16.625 13.8375 16.625 14.2475C16.625 14.6575 16.295 14.9975 15.875 14.9975ZM15.875 7.9975H10.625C10.215 7.9975 9.875 7.6575 9.875 7.2475C9.875 6.8375 10.215 6.4975 10.625 6.4975H15.875C16.295 6.4975 16.625 6.8375 16.625 7.2475C16.625 7.6575 16.295 7.9975 15.875 7.9975Z" fill="white"/>
<defs>
<linearGradient id="paint0_linear_1493_23666" x1="0" y1="5.18688" x2="18.6452" y2="19.6031" gradientUnits="userSpaceOnUse">
<stop stop-color="#4481EB"/>
<stop offset="1" stop-color="#04BEFE"/>
</linearGradient>
</defs>
</svg>
