<svg width="20" height="21" viewBox="0 0 20 21" fill="none" xmlns="http://www.w3.org/2000/svg">
<rect y="0.74707" width="20" height="20" rx="4" fill="url(#paint0_linear_2422_23677)"/>
<path d="M10 9.39746C11.3138 9.39746 12.3789 8.33239 12.3789 7.01855C12.3789 5.70472 11.3138 4.63965 10 4.63965C8.68617 4.63965 7.62109 5.70472 7.62109 7.01855C7.62109 8.33239 8.68617 9.39746 10 9.39746Z" fill="white"/>
<path d="M14.8125 9.39743C15.6431 9.39743 16.3164 8.72411 16.3164 7.89353C16.3164 7.06294 15.6431 6.38962 14.8125 6.38962C13.9819 6.38962 13.3086 7.06294 13.3086 7.89353C13.3086 8.72411 13.9819 9.39743 14.8125 9.39743Z" fill="white"/>
<path d="M5.1875 9.39743C6.01808 9.39743 6.69141 8.72411 6.69141 7.89353C6.69141 7.06294 6.01808 6.38962 5.1875 6.38962C4.35692 6.38962 3.68359 7.06294 3.68359 7.89353C3.68359 8.72411 4.35692 9.39743 5.1875 9.39743Z" fill="white"/>
<path d="M6.66926 10.748C6.07727 10.2629 5.54114 10.3271 4.85664 10.3271C3.83289 10.3271 3 11.1551 3 12.1726V15.1588C3 15.6007 3.36066 15.96 3.80418 15.96C5.71895 15.96 5.48828 15.9946 5.48828 15.8774C5.48828 13.7614 5.23765 12.2096 6.66926 10.748Z" fill="white"/>
<path d="M10.6511 10.3381C9.45548 10.2383 8.41628 10.3392 7.51992 11.0791C6.01993 12.2806 6.30859 13.8983 6.30859 15.8774C6.30859 16.401 6.73461 16.8349 7.26617 16.8349C13.0379 16.8349 13.2677 17.0211 13.6099 16.2632C13.7222 16.0069 13.6914 16.0883 13.6914 13.6363C13.6914 11.6887 12.005 10.3381 10.6511 10.3381Z" fill="white"/>
<path d="M15.1434 10.3271C14.4551 10.3271 13.9219 10.2636 13.3307 10.7479C14.7517 12.1987 14.5117 13.6446 14.5117 15.8774C14.5117 15.9953 14.3202 15.9599 16.1671 15.9599C16.6265 15.9599 17 15.5878 17 15.1303V12.1726C17 11.1551 16.1671 10.3271 15.1434 10.3271Z" fill="white"/>
<defs>
<linearGradient id="paint0_linear_2422_23677" x1="0.5" y1="4.74707" x2="19" y2="19.7471" gradientUnits="userSpaceOnUse">
<stop stop-color="#439AE2"/>
<stop offset="0.457313" stop-color="#53C2C0"/>
<stop offset="1" stop-color="#A5CF77"/>
</linearGradient>
</defs>
</svg>
