<svg width="48" height="48" viewBox="0 0 48 48" fill="none" xmlns="http://www.w3.org/2000/svg">
<rect width="48" height="48" rx="12" fill="url(#paint0_linear_2417_61653)"/>
<g clip-path="url(#clip0_2417_61653)">
<path d="M24 10C31.732 10 38 16.268 38 24C38 31.732 31.732 38 24 38C16.268 38 10 31.732 10 24C10 16.268 16.268 10 24 10ZM24 11.4737C17.0819 11.4737 11.4737 17.0819 11.4737 24C11.4737 30.9181 17.0819 36.5264 24 36.5264C30.9181 36.5264 36.5264 30.9181 36.5264 24C36.5264 17.0819 30.9181 11.4737 24 11.4737ZM31.8895 16.1106C32.1551 16.3762 32.203 16.8553 31.8895 17.1526L26.5393 22.5028C26.7986 22.9416 26.9474 23.4534 26.9474 24C26.9474 25.6278 25.6278 26.9474 24 26.9474C22.3722 26.9474 21.0526 25.6278 21.0526 24C21.0526 22.3722 22.3722 21.0526 24 21.0526C24.5466 21.0526 25.0585 21.2014 25.4973 21.4607L30.8474 16.1106C31.1352 15.8228 31.6017 15.8228 31.8895 16.1106ZM24 22.5263C23.1861 22.5263 22.5263 23.1861 22.5263 24C22.5263 24.8139 23.1861 25.4737 24 25.4737C24.8139 25.4737 25.4737 24.8139 25.4737 24C25.4737 23.1861 24.8139 22.5263 24 22.5263ZM32.7078 20.0034C33.2792 21.2465 33.579 22.6028 33.579 24C33.579 24.407 33.2491 24.7369 32.8421 24.7369C32.4352 24.7369 32.1053 24.407 32.1053 24C32.1053 22.8163 31.8519 21.6699 31.3688 20.6189C31.1988 20.2492 31.3608 19.8117 31.7305 19.6417C32.1003 19.4717 32.5378 19.6337 32.7078 20.0034ZM24 14.4211C25.4102 14.4211 26.7785 14.7265 28.0308 15.3081C28.3998 15.4795 28.5601 15.9176 28.3887 16.2867C28.2172 16.6558 27.7791 16.816 27.41 16.6446C26.3513 16.1529 25.1946 15.8947 24 15.8947C19.5236 15.8947 15.8947 19.5236 15.8947 24C15.8947 24.407 15.5649 24.7369 15.1579 24.7369C14.751 24.7369 14.4211 24.407 14.4211 24C14.4211 18.7097 18.7097 14.4211 24 14.4211Z" fill="white"/>
</g>
<defs>
<linearGradient id="paint0_linear_2417_61653" x1="-2.5" y1="7.5" x2="43" y2="43" gradientUnits="userSpaceOnUse">
<stop stop-color="#F6D365"/>
<stop offset="1" stop-color="#FDA085"/>
</linearGradient>
<clipPath id="clip0_2417_61653">
<rect width="28" height="28" fill="white" transform="translate(10 10)"/>
</clipPath>
</defs>
</svg>
