<svg width="16" height="16" viewBox="0 0 16 16" fill="none" xmlns="http://www.w3.org/2000/svg">
<g id="wrapper">
<g id="Union">
<path d="M8.00195 15.001C6.14544 15.001 4.36496 14.2635 3.05221 12.9507C1.73945 11.638 1.00195 9.85749 1.00195 8.00098C1.00195 6.14446 1.73945 4.36398 3.05221 3.05123C4.36496 1.73847 6.14544 1.00098 8.00195 1.00098C9.85847 1.00098 11.6389 1.73847 12.9517 3.05123C14.2645 4.36398 15.002 6.14446 15.002 8.00098C15.002 9.85749 14.2645 11.638 12.9517 12.9507C11.6389 14.2635 9.85847 15.001 8.00195 15.001ZM8.00195 16.001C10.1237 16.001 12.1585 15.1581 13.6588 13.6578C15.1591 12.1575 16.002 10.1227 16.002 8.00098C16.002 5.87924 15.1591 3.84441 13.6588 2.34412C12.1585 0.843831 10.1237 0.000976563 8.00195 0.000976562C5.88022 0.000976563 3.84539 0.843831 2.3451 2.34412C0.844808 3.84441 0.00195313 5.87924 0.00195312 8.00098C0.00195313 10.1227 0.844808 12.1575 2.3451 13.6578C3.84539 15.1581 5.88022 16.001 8.00195 16.001Z" fill="#495057"/>
<path d="M8.00195 4.00098C8.13456 4.00098 8.26174 4.05366 8.35551 4.14742C8.44928 4.24119 8.50195 4.36837 8.50195 4.50098V7.50098H11.502C11.6346 7.50098 11.7617 7.55366 11.8555 7.64742C11.9493 7.74119 12.002 7.86837 12.002 8.00098C12.002 8.13358 11.9493 8.26076 11.8555 8.35453C11.7617 8.4483 11.6346 8.50098 11.502 8.50098H8.50195V11.501C8.50195 11.6336 8.44928 11.7608 8.35551 11.8545C8.26174 11.9483 8.13456 12.001 8.00195 12.001C7.86934 12.001 7.74217 11.9483 7.6484 11.8545C7.55463 11.7608 7.50195 11.6336 7.50195 11.501V8.50098H4.50195C4.36934 8.50098 4.24217 8.4483 4.1484 8.35453C4.05463 8.26076 4.00195 8.13358 4.00195 8.00098C4.00195 7.86837 4.05463 7.74119 4.1484 7.64742C4.24217 7.55366 4.36934 7.50098 4.50195 7.50098H7.50195V4.50098C7.50195 4.36837 7.55463 4.24119 7.6484 4.14742C7.74217 4.05366 7.86934 4.00098 8.00195 4.00098Z" fill="#495057"/>
</g>
</g>
</svg>
