<svg width="24" height="24" viewBox="0 0 24 24" fill="none" xmlns="http://www.w3.org/2000/svg">
<g id="wrapper">
<path id="Union" d="M0.00292969 21.001C0.00292969 21.7966 0.319 22.5597 0.881609 23.1223C1.44422 23.6849 2.20728 24.001 3.00293 24.001H21.0029C21.7986 24.001 22.5616 23.6849 23.1242 23.1223C23.6869 22.5597 24.0029 21.7966 24.0029 21.001V3.00098C24.0029 2.20533 23.6869 1.44227 23.1242 0.879656C22.5616 0.317047 21.7986 0.000976563 21.0029 0.000976562H3.00293C2.20728 0.000976563 1.44422 0.317047 0.881609 0.879656C0.319 1.44227 0.00292969 2.20533 0.00292969 3.00098V21.001ZM6.75293 11.251H15.4424L12.2219 8.03198C12.0811 7.89115 12.002 7.70014 12.002 7.50098C12.002 7.30181 12.0811 7.11081 12.2219 6.96998C12.3628 6.82915 12.5538 6.75003 12.7529 6.75003C12.9521 6.75003 13.1431 6.82915 13.2839 6.96998L17.7839 11.47C17.8538 11.5396 17.9092 11.6224 17.947 11.7135C17.9848 11.8046 18.0043 11.9023 18.0043 12.001C18.0043 12.0996 17.9848 12.1973 17.947 12.2884C17.9092 12.3795 17.8538 12.4623 17.7839 12.532L13.2839 17.032C13.1431 17.1728 12.9521 17.2519 12.7529 17.2519C12.5538 17.2519 12.3628 17.1728 12.2219 17.032C12.0811 16.8911 12.002 16.7001 12.002 16.501C12.002 16.3018 12.0811 16.1108 12.2219 15.97L15.4424 12.751H6.75293C6.55402 12.751 6.36325 12.672 6.2226 12.5313C6.08195 12.3907 6.00293 12.1999 6.00293 12.001C6.00293 11.8021 6.08195 11.6113 6.2226 11.4706C6.36325 11.33 6.55402 11.251 6.75293 11.251Z" fill="#ADB5BD"/>
</g>
</svg>
