<svg width="16" height="16" viewBox="0 0 16 16" fill="none" xmlns="http://www.w3.org/2000/svg">
<g id="icon-wrapper" clip-path="url(#clip0_701_62910)">
<path id="Union" fill-rule="evenodd" clip-rule="evenodd" d="M1 1.03648C1 0.463524 1.4645 -0.000976562 2.03746 -0.000976562C2.61045 -0.000976562 3.07495 0.463524 3.07492 1.03648V13.4344C3.07317 13.4344 3.07144 13.4342 3.06971 13.4341C3.06757 13.434 3.06544 13.4338 3.06326 13.4338H1V1.03648ZM14.5582 4.78037L4.05712 0.787598C4.06712 0.869177 4.07287 0.952068 4.07287 1.0363V10.4126L14.5849 5.70212C14.7691 5.61958 14.8855 5.43413 14.8796 5.23234C14.8737 5.03049 14.7469 4.85214 14.5582 4.78037ZM3.06329 14.4313H1V14.9611C1 15.534 1.4645 15.9985 2.03746 15.9985C2.61045 15.9985 3.07492 15.534 3.07492 14.9611V14.4307L3.06971 14.431C3.06759 14.4311 3.06546 14.4313 3.06329 14.4313Z" fill="#6C757D"/>
</g>
<defs>
<clipPath id="clip0_701_62910">
<rect width="16" height="16" fill="white"/>
</clipPath>
</defs>
</svg>
