<svg width="14" height="14" viewBox="0 0 14 14" fill="none" xmlns="http://www.w3.org/2000/svg">
<g id="wrapper">
<path id="Union" d="M5.77479 4.38616C5.79412 4.37765 5.81528 4.37413 5.83632 4.37594C5.85736 4.37774 5.87761 4.38481 5.89521 4.39648C5.91281 4.40815 5.92719 4.42406 5.93703 4.44275C5.94688 4.46143 5.95186 4.48229 5.95154 4.50341V5.51228C5.95154 5.62831 5.99763 5.73959 6.07968 5.82164C6.16173 5.90369 6.27301 5.94978 6.38904 5.94978C6.97267 5.94978 8.15042 5.95416 9.27654 6.66903C10.1375 7.21503 11.0178 8.20903 11.5472 10.0605C10.6547 9.20041 9.63529 8.73403 8.74279 8.48641C8.19421 8.33489 7.63043 8.24508 7.06192 8.21866C6.82921 8.20843 6.59612 8.21077 6.36367 8.22566H6.35229L6.34792 8.22653H6.34704L6.38904 8.66228L6.34529 8.22653C6.2373 8.23738 6.1372 8.28799 6.06443 8.36852C5.99167 8.44905 5.95143 8.55375 5.95154 8.66228V9.67116C5.95154 9.76566 5.85529 9.82516 5.77479 9.78841L2.28879 7.22203C2.27696 7.21325 2.26469 7.20508 2.25204 7.19753C2.23302 7.1861 2.21727 7.16994 2.20634 7.15062C2.19541 7.1313 2.18967 7.10948 2.18967 7.08728C2.18967 7.06508 2.19541 7.04326 2.20634 7.02395C2.21727 7.00463 2.23302 6.98846 2.25204 6.97703C2.2647 6.96949 2.27696 6.96131 2.28879 6.95253L5.77479 4.38616ZM6.82654 9.08753C6.88604 9.08753 6.95167 9.09016 7.02167 9.09278C7.40142 9.11028 7.92642 9.16803 8.50917 9.32991C9.66942 9.65191 11.0432 10.3817 11.9567 12.0249C12.0061 12.1136 12.0848 12.1824 12.1793 12.2194C12.2739 12.2564 12.3783 12.2594 12.4748 12.2279C12.5713 12.1963 12.6539 12.1322 12.7083 12.0465C12.7627 11.9608 12.7856 11.8588 12.773 11.758C12.367 8.51178 11.1228 6.80378 9.74554 5.93053C8.65617 5.23928 7.53442 5.10628 6.82654 5.08091V4.50341C6.82662 4.32322 6.77806 4.14635 6.68599 3.99146C6.59391 3.83657 6.46174 3.7094 6.30341 3.62338C6.14508 3.53736 5.96646 3.49567 5.78641 3.50272C5.60636 3.50976 5.43154 3.56528 5.28042 3.66341L1.78567 6.23591C1.64119 6.32609 1.52203 6.45156 1.43943 6.60051C1.35682 6.74945 1.31348 6.91696 1.31348 7.08728C1.31348 7.2576 1.35682 7.42511 1.43943 7.57406C1.52203 7.723 1.64119 7.84847 1.78567 7.93866L5.28042 10.5112C5.43154 10.6093 5.60636 10.6648 5.78641 10.6718C5.96646 10.6789 6.14508 10.6372 6.30341 10.5512C6.46174 10.4652 6.59391 10.338 6.68599 10.1831C6.77806 10.0282 6.82662 9.85135 6.82654 9.67116V9.08753Z" fill="#6C757D"/>
</g>
</svg>
