<svg width="24" height="24" viewBox="0 0 24 24" fill="none" xmlns="http://www.w3.org/2000/svg">
<g id="wrapper">
<g id="Union">
<path d="M4.29877 1.97812C4.51088 1.19733 4.61693 0.806931 4.89605 0.523901C5.03042 0.387658 5.19024 0.271698 5.36491 0.183727C5.72777 0.000976563 6.1598 0.000976562 7.02385 0.000976562H15.2952C16.1592 0.000976562 16.5913 0.000976563 16.8548 0.183727C16.9817 0.271698 17.0785 0.387658 17.1389 0.523901C17.2642 0.806931 17.1582 1.19733 16.9461 1.97812L14.9156 9.45241C14.7035 10.2332 14.5975 10.6236 14.3184 10.9066C14.184 11.0429 14.0242 11.1588 13.8495 11.2468C13.4867 11.4295 13.0546 11.4295 12.1906 11.4295H3.91924C3.05518 11.4295 2.62315 11.4295 2.35959 11.2468C2.23271 11.1588 2.13589 11.0429 2.07555 10.9066C1.95019 10.6236 2.05625 10.2332 2.26835 9.45241L4.29877 1.97812Z" fill="#ADB5BD"/>
<path d="M19.709 22.0238C19.4969 22.8046 19.3909 23.195 19.1118 23.4781C18.9774 23.6143 18.8176 23.7303 18.6429 23.8182C18.28 24.001 17.848 24.001 16.984 24.001H8.71263C7.84857 24.001 7.41655 24.001 7.15298 23.8182C7.0261 23.7303 6.92928 23.6143 6.86894 23.4781C6.74359 23.195 6.84964 22.8046 7.06174 22.0238L9.09216 14.5495C9.30427 13.7688 9.41032 13.3784 9.68945 13.0953C9.82381 12.9591 9.98363 12.8431 10.1583 12.7552C10.5212 12.5724 10.9532 12.5724 11.8172 12.5724H20.0886C20.9526 12.5724 21.3847 12.5724 21.6482 12.7552C21.7751 12.8431 21.8719 12.9591 21.9323 13.0953C22.0576 13.3784 21.9516 13.7688 21.7395 14.5495L19.709 22.0238Z" fill="#ADB5BD"/>
<path d="M16.8138 7.12102C17.0258 6.34021 17.1319 5.94981 17.411 5.66677C17.5454 5.53053 17.7052 5.41456 17.8799 5.32659C18.2427 5.14383 18.6748 5.14383 19.5388 5.14383H22.1065C22.9705 5.14383 23.4026 5.14383 23.6661 5.32658C23.793 5.41455 23.8898 5.53051 23.9502 5.66675C24.0755 5.94977 23.9695 6.34016 23.7574 7.12094L23.1241 9.45236C22.912 10.2332 22.806 10.6236 22.5268 10.9066C22.3925 11.0429 22.2326 11.1588 22.058 11.2468C21.6951 11.4295 21.2631 11.4295 20.399 11.4295H17.8314C16.9673 11.4295 16.5353 11.4295 16.2717 11.2468C16.1449 11.1588 16.048 11.0429 15.9877 10.9066C15.8623 10.6236 15.9684 10.2332 16.1805 9.45245L16.8138 7.12102Z" fill="#ADB5BD"/>
<path d="M7.19406 16.8809C6.98197 17.6617 6.87592 18.0521 6.5968 18.3352C6.46243 18.4714 6.30261 18.5874 6.12793 18.6754C5.76507 18.8581 5.33304 18.8581 4.46897 18.8581H1.90132C1.03728 18.8581 0.605259 18.8581 0.341693 18.6754C0.21482 18.5874 0.117995 18.4715 0.0576522 18.3352C-0.0677031 18.0522 0.0383385 17.6618 0.250422 16.881L0.883709 14.5496C1.0958 13.7688 1.20185 13.3784 1.48097 13.0953C1.61533 12.9591 1.77516 12.8431 1.94983 12.7552C2.31269 12.5724 2.74473 12.5724 3.6088 12.5724H6.17645C7.04049 12.5724 7.47251 12.5724 7.73607 12.7552C7.86295 12.8431 7.95977 12.9591 8.02011 13.0953C8.14547 13.3783 8.03943 13.7687 7.82735 14.5495L7.19406 16.8809Z" fill="#ADB5BD"/>
</g>
</g>
</svg>
