<svg width="20" height="20" viewBox="0 0 20 20" fill="none" xmlns="http://www.w3.org/2000/svg">
<g clip-path="url(#clip0_1846_15342)">
<rect width="20" height="20" fill="white" fill-opacity="0.01"/>
<g clip-path="url(#clip1_1846_15342)">
<path d="M19.8059 8.04166H19.0004V8.00016H10.0002V12.0002H15.6518C14.8273 14.3288 12.6117 16.0003 10.0002 16.0003C6.68663 16.0003 4.00008 13.3138 4.00008 10.0002C4.00008 6.68663 6.68663 4.00008 10.0002 4.00008C11.5297 4.00008 12.9213 4.57709 13.9808 5.51961L16.8093 2.69105C15.0233 1.02652 12.6342 0 10.0002 0C4.47759 0 0 4.47759 0 10.0002C0 15.5228 4.47759 20.0004 10.0002 20.0004C15.5228 20.0004 20.0004 15.5228 20.0004 10.0002C20.0004 9.32968 19.9314 8.67517 19.8059 8.04166Z" fill="#FFC107"/>
<path d="M1.15234 5.3456L4.43791 7.75515C5.32693 5.55411 7.47997 4.00008 9.99952 4.00008C11.529 4.00008 12.9206 4.57709 13.9801 5.51961L16.8087 2.69105C15.0226 1.02652 12.6336 0 9.99952 0C6.15844 0 2.82738 2.16854 1.15234 5.3456Z" fill="#FF3D00"/>
<path d="M10.0003 20.0005C12.5834 20.0005 14.9304 19.012 16.705 17.4044L13.6099 14.7854C12.5722 15.5746 11.3041 16.0015 10.0003 16.0004C7.39928 16.0004 5.19074 14.3419 4.35872 12.0273L1.09766 14.5399C2.75269 17.7785 6.11375 20.0005 10.0003 20.0005Z" fill="#4CAF50"/>
<path d="M19.8057 8.0415H19.0002V8H10V12.0001H15.6516C15.2572 13.1083 14.5468 14.0767 13.6081 14.7856L13.6096 14.7846L16.7046 17.4037C16.4856 17.6027 20.0002 15.0001 20.0002 10C20.0002 9.32953 19.9312 8.67501 19.8057 8.0415Z" fill="#1976D2"/>
</g>
</g>
<defs>
<clipPath id="clip0_1846_15342">
<rect width="20" height="20" fill="white"/>
</clipPath>
<clipPath id="clip1_1846_15342">
<rect width="20" height="20" fill="white"/>
</clipPath>
</defs>
</svg>
