<svg width="20" height="21" viewBox="0 0 20 21" fill="none" xmlns="http://www.w3.org/2000/svg">
<g clip-path="url(#clip0_1_28914)">
<path d="M19.9713 8.20537C19.9024 7.99319 19.719 7.83862 19.4983 7.80659L13.2983 6.90557L10.5255 1.28734C10.4267 1.0873 10.2231 0.960739 10 0.960739C9.77702 0.960739 9.57331 1.0873 9.47459 1.28734L6.70163 6.90553L0.501682 7.80659C0.281018 7.83862 0.0975813 7.99319 0.0287142 8.2053C-0.040231 8.41748 0.0172689 8.65033 0.176956 8.80596L4.6632 13.1792L3.60429 19.3543C3.5666 19.5741 3.65699 19.7962 3.83742 19.9274C4.01785 20.0584 4.25699 20.0758 4.45449 19.972L9.99998 17.0564L15.5453 19.9719C15.6311 20.017 15.7247 20.0392 15.8179 20.0392C15.9394 20.0392 16.0604 20.0015 16.1624 19.9274C16.3428 19.7962 16.4332 19.5741 16.3955 19.3543L15.3363 13.1792L19.823 8.80596C19.9827 8.65029 20.0402 8.41744 19.9713 8.20537Z" fill="#FED42D"/>
</g>
<defs>
<clipPath id="clip0_1_28914">
<rect width="20" height="20" fill="white" transform="translate(0 0.5)"/>
</clipPath>
</defs>
</svg>
