<svg xmlns="http://www.w3.org/2000/svg" width="719" height="942" viewBox="0 0 719 942" fill="none">
  <path d="M665.947 996.913C656.994 1032.26 652.518 1049.93 640.934 1062.74C635.358 1068.91 628.738 1074.16 621.513 1078.14C606.505 1086.41 588.693 1086.41 553.069 1086.41H212.051C176.427 1086.41 158.615 1086.41 147.797 1078.14C142.589 1074.16 138.628 1068.91 136.177 1062.74C131.084 1049.93 135.56 1032.26 144.513 996.913L230.213 658.573C239.166 623.229 243.642 605.557 255.226 592.745C260.801 586.577 267.422 581.328 274.647 577.346C289.655 569.073 307.467 569.073 343.091 569.073H684.109C719.733 569.073 737.545 569.073 748.363 577.346C753.57 581.328 757.532 586.577 759.983 592.745C765.076 605.557 760.6 623.229 751.647 658.573L665.947 996.913Z" fill="url(#paint0_linear_1_28907)"/>
  <path d="M35.932 89.4995C44.8846 54.1552 49.3609 36.4832 60.9442 23.6712C66.5201 17.5038 73.1404 12.2547 80.3652 8.2725C95.374 -9.15806e-05 113.186 -0.000109817 148.81 -0.000109817H489.828C525.452 -0.000109817 543.264 -9.15806e-05 554.082 8.2725C559.289 12.2547 563.25 17.5038 565.702 23.6712C570.795 36.4832 566.318 54.1553 557.366 89.4996L471.665 427.84C462.713 463.184 458.236 480.856 446.653 493.668C441.077 499.835 434.457 505.085 427.232 509.067C412.223 517.339 394.411 517.339 358.787 517.339H17.7695C-17.8545 517.339 -35.6665 517.339 -46.4845 509.067C-51.6919 505.085 -55.6531 499.835 -58.1046 493.668C-63.1975 480.856 -58.7211 463.184 -49.7685 427.84L35.932 89.4995Z" fill="url(#paint1_linear_1_28907)"/>
  <path d="M151.336 764.108C142.384 799.453 137.908 817.126 126.325 829.938C120.749 836.106 114.129 841.355 106.904 845.337C91.8948 853.61 74.0825 853.61 38.4578 853.61H-67.4034C-103.027 853.61 -120.839 853.61 -131.656 845.338C-136.864 841.356 -140.825 836.107 -143.277 829.939C-148.37 817.128 -143.894 799.456 -134.942 764.112L-108.212 658.575C-99.26 623.23 -94.7839 605.557 -83.2006 592.745C-77.6247 586.578 -71.0044 581.328 -63.7795 577.346C-48.7705 569.073 -30.9581 569.073 4.66659 569.073H110.528C146.151 569.073 163.963 569.073 174.781 577.346C179.988 581.328 183.949 586.577 186.401 592.744C191.494 605.556 187.018 623.228 178.066 658.571L151.336 764.108Z" fill="url(#paint2_linear_1_28907)"/>
  <path d="M550.542 322.304C559.494 286.959 563.97 269.287 575.554 256.475C581.13 250.307 587.75 245.058 594.975 241.075C609.984 232.803 627.796 232.803 663.421 232.803H769.282C804.905 232.803 822.717 232.803 833.535 241.075C838.742 245.057 842.704 250.306 845.155 256.473C850.248 269.285 845.772 286.957 836.821 322.301L810.091 427.838C801.139 463.183 796.662 480.855 785.079 493.668C779.503 499.835 772.883 505.084 765.658 509.067C750.649 517.339 732.837 517.339 697.212 517.339H591.351C555.727 517.339 537.916 517.339 527.098 509.067C521.89 505.085 517.929 499.836 515.478 493.669C510.385 480.857 514.861 463.185 523.812 427.842L550.542 322.304Z" fill="url(#paint3_linear_1_28907)"/>
  <defs>
    <linearGradient id="paint0_linear_1_28907" x1="576.171" y1="1032.24" x2="322.482" y2="93.4911" gradientUnits="userSpaceOnUse">
      <stop stop-color="#00D1FF"/>
      <stop offset="1" stop-color="#011EFF"/>
    </linearGradient>
    <linearGradient id="paint1_linear_1_28907" x1="576.171" y1="1032.24" x2="322.482" y2="93.4911" gradientUnits="userSpaceOnUse">
      <stop stop-color="#00D1FF"/>
      <stop offset="1" stop-color="#011EFF"/>
    </linearGradient>
    <linearGradient id="paint2_linear_1_28907" x1="576.171" y1="1032.24" x2="322.482" y2="93.4911" gradientUnits="userSpaceOnUse">
      <stop stop-color="#00D1FF"/>
      <stop offset="1" stop-color="#011EFF"/>
    </linearGradient>
    <linearGradient id="paint3_linear_1_28907" x1="576.171" y1="1032.24" x2="322.482" y2="93.4911" gradientUnits="userSpaceOnUse">
      <stop stop-color="#00D1FF"/>
      <stop offset="1" stop-color="#011EFF"/>
    </linearGradient>
  </defs>
</svg>