<svg width="14" height="15" viewBox="0 0 14 15" fill="none" xmlns="http://www.w3.org/2000/svg">
<g id="wrapper">
<path id="Union" fill-rule="evenodd" clip-rule="evenodd" d="M1.44201 4.56506C1.48265 4.52431 1.53093 4.49199 1.58408 4.46993C1.63723 4.44788 1.69421 4.43652 1.75176 4.43652C1.80931 4.43652 1.86629 4.44788 1.91944 4.46993C1.97259 4.49199 2.02087 4.52431 2.06151 4.56506L7.00176 9.50618L11.942 4.56506C11.9827 4.52438 12.031 4.49211 12.0841 4.4701C12.1373 4.44808 12.1942 4.43675 12.2518 4.43675C12.3093 4.43675 12.3662 4.44808 12.4194 4.4701C12.4725 4.49211 12.5208 4.52438 12.5615 4.56506C12.6022 4.60573 12.6345 4.65402 12.6565 4.70717C12.6785 4.76032 12.6898 4.81728 12.6898 4.87481C12.6898 4.93233 12.6785 4.98929 12.6565 5.04244C12.6345 5.09559 12.6022 5.14388 12.5615 5.18456L7.31151 10.4346C7.27087 10.4753 7.22259 10.5076 7.16944 10.5297C7.11629 10.5517 7.0593 10.5631 7.00176 10.5631C6.94421 10.5631 6.88723 10.5517 6.83408 10.5297C6.78093 10.5076 6.73265 10.4753 6.69201 10.4346L1.44201 5.18456C1.40127 5.14392 1.36894 5.09564 1.34689 5.04248C1.32483 4.98933 1.31348 4.93235 1.31348 4.87481C1.31348 4.81726 1.32483 4.76028 1.34689 4.70713C1.36894 4.65397 1.40127 4.6057 1.44201 4.56506Z" fill="#ADB5BD"/>
</g>
</svg>
