<svg width="20" height="20" viewBox="0 0 20 20" fill="none" xmlns="http://www.w3.org/2000/svg">
<g id="wrapper">
<path id="Union" fill-rule="evenodd" clip-rule="evenodd" d="M18.7521 10.0008C18.7521 9.83503 18.6862 9.67606 18.569 9.55885C18.4518 9.44164 18.2929 9.37579 18.1271 9.37579H3.38584L7.31959 5.44329C7.3777 5.38518 7.4238 5.31619 7.45525 5.24027C7.4867 5.16434 7.50288 5.08297 7.50288 5.00079C7.50288 4.91861 7.4867 4.83723 7.45525 4.76131C7.4238 4.68539 7.3777 4.6164 7.31959 4.55829C7.26148 4.50018 7.1925 4.45408 7.11657 4.42264C7.04065 4.39119 6.95927 4.375 6.87709 4.375C6.79491 4.375 6.71354 4.39119 6.63761 4.42264C6.56169 4.45408 6.4927 4.50018 6.43459 4.55829L1.43459 9.55829C1.37639 9.61635 1.33021 9.68532 1.2987 9.76125C1.2672 9.83718 1.25098 9.91858 1.25098 10.0008C1.25098 10.083 1.2672 10.1644 1.2987 10.2403C1.33021 10.3163 1.37639 10.3852 1.43459 10.4433L6.43459 15.4433C6.4927 15.5014 6.56169 15.5475 6.63761 15.5789C6.71354 15.6104 6.79491 15.6266 6.87709 15.6266C6.95927 15.6266 7.04065 15.6104 7.11657 15.5789C7.1925 15.5475 7.26148 15.5014 7.31959 15.4433C7.3777 15.3852 7.4238 15.3162 7.45525 15.2403C7.4867 15.1643 7.50288 15.083 7.50288 15.0008C7.50288 14.9186 7.4867 14.8372 7.45525 14.7613C7.4238 14.6854 7.3777 14.6164 7.31959 14.5583L3.38584 10.6258H18.1271C18.2929 10.6258 18.4518 10.5599 18.569 10.4427C18.6862 10.3255 18.7521 10.1665 18.7521 10.0008Z" fill="black"/>
</g>
</svg>
