<svg width="20" height="20" viewBox="0 0 20 20" fill="none" xmlns="http://www.w3.org/2000/svg">
<path d="M6.25293 10.001C6.25293 10.3325 6.12123 10.6504 5.88681 10.8849C5.65239 11.1193 5.33445 11.251 5.00293 11.251C4.67141 11.251 4.35347 11.1193 4.11905 10.8849C3.88463 10.6504 3.75293 10.3325 3.75293 10.001C3.75293 9.66946 3.88463 9.35151 4.11905 9.11709C4.35347 8.88267 4.67141 8.75098 5.00293 8.75098C5.33445 8.75098 5.65239 8.88267 5.88681 9.11709C6.12123 9.35151 6.25293 9.66946 6.25293 10.001ZM11.2529 10.001C11.2529 10.3325 11.1212 10.6504 10.8868 10.8849C10.6524 11.1193 10.3344 11.251 10.0029 11.251C9.67141 11.251 9.35347 11.1193 9.11905 10.8849C8.88463 10.6504 8.75293 10.3325 8.75293 10.001C8.75293 9.66946 8.88463 9.35151 9.11905 9.11709C9.35347 8.88267 9.67141 8.75098 10.0029 8.75098C10.3344 8.75098 10.6524 8.88267 10.8868 9.11709C11.1212 9.35151 11.2529 9.66946 11.2529 10.001ZM15.0029 11.251C15.3345 11.251 15.6524 11.1193 15.8868 10.8849C16.1212 10.6504 16.2529 10.3325 16.2529 10.001C16.2529 9.66946 16.1212 9.35151 15.8868 9.11709C15.6524 8.88267 15.3345 8.75098 15.0029 8.75098C14.6714 8.75098 14.3535 8.88267 14.119 9.11709C13.8846 9.35151 13.7529 9.66946 13.7529 10.001C13.7529 10.3325 13.8846 10.6504 14.119 10.8849C14.3535 11.1193 14.6714 11.251 15.0029 11.251Z" fill="#6C757D"/>
<path d="M2.70918 19.7547L2.73418 19.7497C5.02168 19.296 6.41918 18.6972 7.06918 18.3685C8.02616 18.6237 9.01249 18.7523 10.0029 18.751C15.5254 18.751 20.0029 14.8335 20.0029 10.001C20.0029 5.16848 15.5254 1.25098 10.0029 1.25098C4.48043 1.25098 0.00292969 5.16848 0.00292969 10.001C0.00292969 12.201 0.93168 14.2135 2.46543 15.751C2.35813 16.7386 2.13837 17.7107 1.81043 18.6485L1.80668 18.6622C1.71348 18.9308 1.61177 19.1964 1.50168 19.4585C1.40293 19.691 1.59418 19.951 1.84293 19.911C2.13251 19.8636 2.42129 19.8115 2.70918 19.7547ZM3.70918 15.8697C3.72669 15.6867 3.70362 15.5021 3.64161 15.329C3.5796 15.156 3.48018 14.9987 3.35043 14.8685C2.02543 13.5385 1.25293 11.836 1.25293 10.001C1.25293 6.01098 5.00793 2.50098 10.0029 2.50098C14.9979 2.50098 18.7529 6.01098 18.7529 10.001C18.7529 13.9922 14.9979 17.501 10.0029 17.501C9.12181 17.5023 8.24432 17.388 7.39293 17.161C7.0954 17.0813 6.77891 17.1142 6.50418 17.2535C6.02043 17.4985 4.95418 17.966 3.21168 18.3697C3.45478 17.5536 3.62133 16.7167 3.70918 15.8697Z" fill="#6C757D"/>
</svg>
