<svg width="20" height="20" viewBox="0 0 20 20" fill="none" xmlns="http://www.w3.org/2000/svg">
<g id="Frame">
<g id="Vector">
<path d="M3.27263 14.0792L3.87014 14.6767H3.11598C2.53077 14.6767 2.05468 14.2006 2.05468 13.6155V11.4973C2.05468 10.9121 2.53077 10.436 3.11598 10.436H5.57029V9.38132H3.11598C1.94921 9.38132 1 10.3305 1 11.4973V13.6154C1 14.7822 1.94921 15.7314 3.11598 15.7314H3.87018L3.27263 16.3289L4.0184 17.0747L5.88905 15.2041L4.0184 13.3334L3.27263 14.0792Z" fill="#6C757D"/>
<path d="M6.62498 8.22117H13.375V11.5962H6.62498V8.22117Z" fill="#6C757D"/>
<path d="M6.62498 13.5166H13.375V16.8915H6.62498V13.5166Z" fill="#6C757D"/>
<path d="M6.62498 2.92578H13.375V6.30077H6.62498V2.92578Z" fill="#6C757D"/>
<path d="M16.884 4.0859H14.4296V5.14058H16.884C17.4692 5.14058 17.9452 5.61666 17.9452 6.20187V8.32006C17.9452 8.90524 17.4692 9.38132 16.884 9.38132H16.1298L16.7273 8.78377L15.9816 8.03801L14.1109 9.90863L15.9816 11.7793L16.7273 11.0335L16.1298 10.436H16.884C18.0507 10.436 19 9.48675 19 8.32003V6.20184C18.9999 5.03511 18.0507 4.0859 16.884 4.0859Z" fill="#6C757D"/>
</g>
</g>
</svg>
