<svg width="20" height="21" viewBox="0 0 20 21" fill="none" xmlns="http://www.w3.org/2000/svg">
<path opacity="0.6" d="M13.8692 6.45703C14.2053 7.25253 14.3913 8.12638 14.3913 9.04288C14.3913 12.6445 11.5193 15.5875 7.94531 15.7031C8.99616 16.9158 10.5469 17.6841 12.2737 17.6841C15.4315 17.6841 18.0005 15.1151 18.0005 11.9573C18.0005 9.35312 16.253 7.14956 13.8692 6.45703Z" fill="#6C757D"/>
<path d="M13.4534 9.04312C13.4534 5.88541 10.8844 3.31641 7.72669 3.31641C4.56897 3.31641 2 5.88541 2 9.04312C2 12.2008 4.56897 14.7698 7.72669 14.7698C10.8844 14.7698 13.4534 12.2008 13.4534 9.04312ZM9.35328 10.4297C9.2575 10.9994 8.83216 11.5767 8.16778 11.7682V11.9332C8.16778 12.1921 7.95791 12.402 7.69903 12.402C7.44016 12.402 7.23028 12.1921 7.23028 11.9332V11.8159C6.91669 11.7808 6.60606 11.6846 6.26625 11.4316C6.05856 11.277 6.01559 10.9833 6.17016 10.7757C6.32472 10.568 6.61847 10.5251 6.82606 10.6796C7.08244 10.8705 7.25863 10.9002 7.69588 10.8972C8.12794 10.8943 8.37862 10.5723 8.42872 10.2743C8.45325 10.1283 8.46272 9.77194 8.02175 9.61606C7.33669 9.37391 6.93997 9.18312 6.65241 8.95759C6.64822 8.95434 6.64409 8.95097 6.64003 8.94756C6.21459 8.58991 6.02281 8.09694 6.11384 7.59512C6.21519 7.03644 6.65334 6.54341 7.23028 6.33856V6.15313C7.23028 5.89425 7.44016 5.68438 7.69903 5.68438C7.95791 5.68438 8.16778 5.89425 8.16778 6.15313V6.27994C8.44859 6.34366 8.71809 6.48066 8.95853 6.68772C9.15469 6.85666 9.17672 7.15262 9.00778 7.34878C8.83881 7.54494 8.54287 7.567 8.34672 7.39803C8.03369 7.12847 7.73787 7.15337 7.54478 7.22166C7.28656 7.31306 7.0775 7.53541 7.03631 7.76244C7.00563 7.93175 7.07134 8.08306 7.23731 8.22484C7.48859 8.41897 7.93241 8.59013 8.33425 8.73216C9.07066 8.99244 9.48019 9.67462 9.35328 10.4297Z" fill="#6C757D"/>
</svg>
