<svg width="20" height="20" viewBox="0 0 20 20" fill="none" xmlns="http://www.w3.org/2000/svg">
<g id="Frame 5">
<g id="Union">
<path fill-rule="evenodd" clip-rule="evenodd" d="M7.07353 2.49391C7.39502 2.17767 7.83106 2 8.28571 2H11.7143C12.1689 2 12.605 2.17767 12.9265 2.49391C13.248 2.81016 13.4286 3.23908 13.4286 3.68632V4.81053C13.4286 5.25777 13.248 5.68669 12.9265 6.00293C12.605 6.31918 12.1689 6.49685 11.7143 6.49685H8.28571C7.83106 6.49685 7.39502 6.31918 7.07353 6.00293C6.75204 5.68669 6.57143 5.25777 6.57143 4.81053V3.68632C6.57143 3.23908 6.75204 2.81016 7.07353 2.49391ZM12.1183 3.28885C12.0112 3.18343 11.8658 3.12421 11.7143 3.12421H8.28571C8.13416 3.12421 7.98882 3.18343 7.88165 3.28885C7.77449 3.39426 7.71429 3.53724 7.71429 3.68632V4.81053C7.71429 4.95961 7.77449 5.10258 7.88165 5.208C7.98882 5.31341 8.13416 5.37263 8.28571 5.37263H11.7143C11.8658 5.37263 12.0112 5.31341 12.1183 5.208C12.2255 5.10258 12.2857 4.95961 12.2857 4.81053V3.68632C12.2857 3.53724 12.2255 3.39426 12.1183 3.28885Z" fill="#6C757D"/>
<path fill-rule="evenodd" clip-rule="evenodd" d="M5.28571 3.68632H5.42857V4.81053C5.42857 5.55593 5.72959 6.2708 6.26541 6.79787C6.80123 7.32495 7.52795 7.62106 8.28571 7.62106H11.7143C12.0895 7.62106 12.461 7.54836 12.8077 7.40712C13.1543 7.26588 13.4693 7.05885 13.7346 6.79787C13.9999 6.53689 14.2104 6.22706 14.3539 5.88607C14.4975 5.54508 14.5714 5.17961 14.5714 4.81053V3.68632H14.7143C15.3205 3.68632 15.9019 3.9232 16.3305 4.34486C16.7592 4.76653 17 5.33842 17 5.93474V15.7516C17 16.3479 16.7592 16.9198 16.3305 17.3415C15.9019 17.7631 15.3205 18 14.7143 18H5.28571C4.67951 18 4.09812 17.7631 3.66947 17.3415C3.24082 16.9198 3 16.3479 3 15.7516V5.93474C3 5.33842 3.24082 4.76653 3.66947 4.34486C4.09812 3.9232 4.67951 3.68632 5.28571 3.68632ZM9.83314 14.339L13.2617 10.9664C13.369 10.8608 13.4293 10.7177 13.4293 10.5684C13.4293 10.4191 13.369 10.276 13.2617 10.1704C13.1544 10.0649 13.0089 10.0056 12.8571 10.0056C12.7054 10.0056 12.5599 10.0649 12.4526 10.1704L9.42857 13.1462L8.11886 11.8568C8.01156 11.7512 7.86603 11.6919 7.71429 11.6919C7.56254 11.6919 7.41701 11.7512 7.30971 11.8568C7.20241 11.9623 7.14214 12.1055 7.14214 12.2547C7.14214 12.404 7.20241 12.5472 7.30971 12.6527L9.024 14.339C9.07708 14.3914 9.14014 14.4329 9.20956 14.4612C9.27899 14.4896 9.35341 14.5042 9.42857 14.5042C9.50373 14.5042 9.57816 14.4896 9.64758 14.4612C9.717 14.4329 9.78006 14.3914 9.83314 14.339Z" fill="#6C757D"/>
</g>
</g>
</svg>
