<svg width="20" height="21" viewBox="0 0 20 21" fill="none" xmlns="http://www.w3.org/2000/svg">
<path d="M17.6448 9.10794L15.8095 8.65659C15.6992 8.30869 15.5573 7.97131 15.3861 7.64859C15.6616 7.18991 16.2407 6.2245 16.2407 6.2245C16.3515 6.04003 16.3222 5.80381 16.1702 5.65184L14.8445 4.32616C14.6926 4.17372 14.4568 4.14444 14.2719 4.25566L12.8455 5.11031C12.5246 4.94047 12.189 4.79994 11.8434 4.69053L11.3921 2.85525C11.3399 2.6465 11.1527 2.5 10.9375 2.5H9.0625C8.84734 2.5 8.65966 2.6465 8.60794 2.85522C8.60794 2.85522 8.29528 4.13616 8.15703 4.69006C7.78853 4.80678 7.43241 4.95831 7.09319 5.14325L5.61416 4.25566C5.42922 4.14578 5.19394 4.17419 5.0415 4.32616L3.71581 5.65184C3.56384 5.80381 3.53453 6.04003 3.64531 6.2245L4.55994 7.75206C4.41253 8.04275 4.28894 8.34531 4.19053 8.65522L2.35525 9.10794C2.1465 9.16012 2 9.34734 2 9.5625V11.4375C2 11.6527 2.1465 11.8403 2.35522 11.8921L4.19097 12.3434C4.30222 12.6963 4.44684 13.0392 4.62219 13.3683L3.80372 14.7325C3.69294 14.9169 3.72225 15.1532 3.87422 15.3051L5.19991 16.6308C5.35144 16.7823 5.58763 16.8112 5.77256 16.7013C5.77256 16.7013 6.69038 16.1511 7.13991 15.8819C7.46537 16.0554 7.80594 16.1987 8.15706 16.3099L8.60797 18.1447C8.65966 18.3535 8.84734 18.5 9.0625 18.5H10.9375C11.1527 18.5 11.3399 18.3535 11.3921 18.1448L11.843 16.3099C12.2042 16.1955 12.552 16.0476 12.883 15.8682C13.3449 16.1451 14.2718 16.7013 14.2718 16.7013C14.4563 16.8116 14.6925 16.7832 14.8445 16.6308L16.1702 15.3051C16.3222 15.1532 16.3515 14.9169 16.2407 14.7325L15.3979 13.3285C15.5641 13.0131 15.7019 12.6831 15.8095 12.3434L17.6447 11.8921C17.8535 11.8399 18 11.6527 18 11.4375V9.5625C18 9.34734 17.8535 9.16012 17.6448 9.10794ZM10 13.7812C8.19091 13.7812 6.71875 12.3091 6.71875 10.5C6.71875 8.69091 8.19091 7.21875 10 7.21875C11.8091 7.21875 13.2812 8.69091 13.2812 10.5C13.2812 12.3091 11.8091 13.7812 10 13.7812Z" fill="#6C757D"/>
</svg>
