<svg width="20" height="20" viewBox="0 0 20 20" fill="none" xmlns="http://www.w3.org/2000/svg">
<g id="Chemistry">
<g id="Group">
<path id="Vector" d="M15.8942 14.6442L14.4652 11.8525H5.53511L4.10611 14.6442C3.73739 15.3645 3.76933 16.2067 4.19148 16.8971C4.61367 17.5874 5.34879 17.9996 6.15801 17.9996H13.8423C14.6515 17.9996 15.3867 17.5874 15.8088 16.8971C16.231 16.2067 16.2629 15.3645 15.8942 14.6442Z" fill="#6C757D"/>
<path id="Vector_2" opacity="0.6" d="M12.5135 8.04078V2.9375H12.9731C13.232 2.9375 13.4418 2.72763 13.4418 2.46875C13.4418 2.20987 13.232 2 12.9731 2H12.0447H7.9549H7.02655C6.76768 2 6.5578 2.20987 6.5578 2.46875C6.5578 2.72763 6.76768 2.9375 7.02655 2.9375H7.48615V8.04078L6.01465 10.9155H13.985L12.5135 8.04078Z" fill="#6C757D"/>
</g>
</g>
</svg>
