<svg width="16" height="16" viewBox="0 0 16 16" fill="none" xmlns="http://www.w3.org/2000/svg">
<g id="speedometer" clip-path="url(#clip0_667_5315)">
<g id="Vector">
<path d="M8.00244 2.00201C8.13503 2.00201 8.26218 2.05468 8.35593 2.14843C8.44969 2.24219 8.50236 2.36934 8.50236 2.50193V4.00167C8.50236 4.13426 8.44969 4.26141 8.35593 4.35516C8.26218 4.44892 8.13503 4.50158 8.00244 4.50158C7.86985 4.50158 7.7427 4.44892 7.64895 4.35516C7.5552 4.26141 7.50253 4.13426 7.50253 4.00167V2.50193C7.50253 2.36934 7.5552 2.24219 7.64895 2.14843C7.7427 2.05468 7.86985 2.00201 8.00244 2.00201ZM3.73517 3.73372C3.82892 3.64 3.95605 3.58735 4.08861 3.58735C4.22117 3.58735 4.3483 3.64 4.44205 3.73372L5.35689 4.64756C5.45076 4.74143 5.5035 4.86875 5.5035 5.0015C5.5035 5.13425 5.45076 5.26157 5.35689 5.35544C5.26302 5.44931 5.13571 5.50205 5.00295 5.50205C4.8702 5.50205 4.74288 5.44931 4.64901 5.35544L3.73517 4.4406C3.64145 4.34685 3.5888 4.21971 3.5888 4.08715C3.5888 3.9546 3.64145 3.82746 3.73517 3.73372ZM2.00346 8.00099C2.00346 7.8684 2.05613 7.74125 2.14989 7.64749C2.24364 7.55374 2.37079 7.50107 2.50338 7.50107H4.08911C4.22169 7.50107 4.34885 7.55374 4.4426 7.64749C4.53635 7.74125 4.58902 7.8684 4.58902 8.00099C4.58902 8.13357 4.53635 8.26073 4.4426 8.35448C4.34885 8.44823 4.22169 8.5009 4.08911 8.5009H2.50338C2.37079 8.5009 2.24364 8.44823 2.14989 8.35448C2.05613 8.26073 2.00346 8.13357 2.00346 8.00099ZM11.5018 8.00099C11.5018 7.8684 11.5545 7.74125 11.6483 7.64749C11.742 7.55374 11.8692 7.50107 12.0018 7.50107H13.5015C13.6341 7.50107 13.7612 7.55374 13.855 7.64749C13.9487 7.74125 14.0014 7.8684 14.0014 8.00099C14.0014 8.13357 13.9487 8.26073 13.855 8.35448C13.7612 8.44823 13.6341 8.5009 13.5015 8.5009H12.0018C11.8692 8.5009 11.742 8.44823 11.6483 8.35448C11.5545 8.26073 11.5018 8.13357 11.5018 8.00099ZM12.2557 3.75571C12.1865 3.68681 12.0938 3.6465 11.9962 3.64279C11.8985 3.63909 11.8031 3.67226 11.7288 3.73572L7.54952 7.3111C7.45325 7.39352 7.37527 7.49513 7.32056 7.60944C7.26584 7.72374 7.23561 7.84822 7.2318 7.97488C7.22799 8.10155 7.25068 8.22761 7.29842 8.345C7.34615 8.46239 7.41789 8.56851 7.50902 8.65657C7.60015 8.74462 7.70867 8.81267 7.82763 8.85635C7.94659 8.90002 8.07336 8.91837 8.19982 8.91021C8.32628 8.90205 8.44964 8.86757 8.562 8.80896C8.67436 8.75036 8.77324 8.66893 8.8523 8.56989L12.2857 4.27362C12.3454 4.19885 12.3755 4.10468 12.3702 4.00913C12.3648 3.91358 12.3244 3.82335 12.2567 3.75571H12.2557Z" fill="#6C757D"/>
<path fill-rule="evenodd" clip-rule="evenodd" d="M6.66667 15.8886C5.63078 15.7132 4.63959 15.3355 3.74968 14.777C2.85978 14.2185 2.08858 13.4902 1.48014 12.6337C0.25133 10.9039 -0.239982 8.75678 0.114287 6.66471C0.468556 4.57265 1.63939 2.707 3.36921 1.47819C5.09903 0.249377 7.24614 -0.241935 9.33821 0.112334C11.4304 0.466602 13.2962 1.63748 14.5251 3.3674C15.754 5.09732 16.2454 7.24456 15.8911 9.33676C15.5368 11.429 14.3659 13.2947 12.636 14.5236C10.9061 15.7525 8.75887 16.2439 6.66667 15.8896V15.8886ZM2.00246 11.6064C3.82584 10.5513 5.89583 9.99736 8.00244 10.0006C10.1881 10.0006 12.2377 10.5855 14.0024 11.6064C14.6402 10.5444 14.9847 9.33217 15.0007 8.0935C15.0167 6.85484 14.7036 5.63412 14.0935 4.55602C13.4834 3.47792 12.598 2.58108 11.5279 1.95708C10.4578 1.33308 9.24121 1.00429 8.00244 1.00429C6.76367 1.00429 5.5471 1.33308 4.47697 1.95708C3.40684 2.58108 2.52151 3.47792 1.91139 4.55602C1.30126 5.63412 0.988218 6.85484 1.00422 8.0935C1.02022 9.33217 1.3647 10.5444 2.00246 11.6064Z" fill="#6C757D"/>
</g>
</g>
<defs>
<clipPath id="clip0_667_5315">
<rect width="15.9973" height="15.9973" fill="white" transform="translate(0.00390625 0.00195312)"/>
</clipPath>
</defs>
</svg>
