<svg width="20" height="21" viewBox="0 0 20 21" fill="none" xmlns="http://www.w3.org/2000/svg">
<g clip-path="url(#clip0_407_30565)">
<path d="M10.0024 4.50201C10.135 4.50201 10.2622 4.55468 10.3559 4.64843C10.4497 4.74219 10.5024 4.86934 10.5024 5.00193V6.50167C10.5024 6.63426 10.4497 6.76141 10.3559 6.85516C10.2622 6.94892 10.135 7.00158 10.0024 7.00158C9.86985 7.00158 9.7427 6.94892 9.64895 6.85516C9.5552 6.76141 9.50253 6.63426 9.50253 6.50167V5.00193C9.50253 4.86934 9.5552 4.74219 9.64895 4.64843C9.7427 4.55468 9.86985 4.50201 10.0024 4.50201ZM5.73517 6.23372C5.82892 6.14 5.95605 6.08735 6.08861 6.08735C6.22117 6.08735 6.3483 6.14 6.44205 6.23372L7.35689 7.14756C7.45076 7.24143 7.5035 7.36875 7.5035 7.5015C7.5035 7.63425 7.45076 7.76157 7.35689 7.85544C7.26302 7.94931 7.13571 8.00205 7.00295 8.00205C6.8702 8.00205 6.74288 7.94931 6.64901 7.85544L5.73517 6.9406C5.64145 6.84685 5.5888 6.71971 5.5888 6.58715C5.5888 6.4546 5.64145 6.32746 5.73517 6.23372ZM4.00346 10.501C4.00346 10.3684 4.05613 10.2412 4.14989 10.1475C4.24364 10.0537 4.37079 10.0011 4.50338 10.0011H6.08911C6.22169 10.0011 6.34885 10.0537 6.4426 10.1475C6.53635 10.2412 6.58902 10.3684 6.58902 10.501C6.58902 10.6336 6.53635 10.7607 6.4426 10.8545C6.34885 10.9482 6.22169 11.0009 6.08911 11.0009H4.50338C4.37079 11.0009 4.24364 10.9482 4.14989 10.8545C4.05613 10.7607 4.00346 10.6336 4.00346 10.501ZM13.5018 10.501C13.5018 10.3684 13.5545 10.2412 13.6483 10.1475C13.742 10.0537 13.8692 10.0011 14.0018 10.0011H15.5015C15.6341 10.0011 15.7612 10.0537 15.855 10.1475C15.9487 10.2412 16.0014 10.3684 16.0014 10.501C16.0014 10.6336 15.9487 10.7607 15.855 10.8545C15.7612 10.9482 15.6341 11.0009 15.5015 11.0009H14.0018C13.8692 11.0009 13.742 10.9482 13.6483 10.8545C13.5545 10.7607 13.5018 10.6336 13.5018 10.501ZM14.2557 6.25571C14.1865 6.18681 14.0938 6.1465 13.9962 6.14279C13.8985 6.13909 13.8031 6.17226 13.7288 6.23572L9.54952 9.8111C9.45325 9.89352 9.37527 9.99513 9.32056 10.1094C9.26584 10.2237 9.23561 10.3482 9.2318 10.4749C9.22799 10.6015 9.25068 10.7276 9.29842 10.845C9.34615 10.9624 9.41789 11.0685 9.50902 11.1566C9.60015 11.2446 9.70867 11.3127 9.82763 11.3563C9.94659 11.4 10.0734 11.4184 10.1998 11.4102C10.3263 11.4021 10.4496 11.3676 10.562 11.309C10.6744 11.2504 10.7732 11.1689 10.8523 11.0699L14.2857 6.77362C14.3454 6.69885 14.3755 6.60468 14.3702 6.50913C14.3648 6.41358 14.3244 6.32335 14.2567 6.25571H14.2557Z" fill="#6C757D"/>
<path fill-rule="evenodd" clip-rule="evenodd" d="M8.66667 18.3886C7.63078 18.2132 6.63959 17.8355 5.74968 17.277C4.85978 16.7185 4.08858 15.9902 3.48014 15.1337C2.25133 13.4039 1.76002 11.2568 2.11429 9.16471C2.46856 7.07265 3.63939 5.207 5.36921 3.97819C7.09903 2.74938 9.24614 2.25806 11.3382 2.61233C13.4304 2.9666 15.2962 4.13748 16.5251 5.8674C17.754 7.59732 18.2454 9.74456 17.8911 11.8368C17.5368 13.929 16.3659 15.7947 14.636 17.0236C12.9061 18.2525 10.7589 18.7439 8.66667 18.3896V18.3886ZM4.00246 14.1064C5.82584 13.0513 7.89583 12.4974 10.0024 12.5006C12.1881 12.5006 14.2377 13.0855 16.0024 14.1064C16.6402 13.0444 16.9847 11.8322 17.0007 10.5935C17.0167 9.35484 16.7036 8.13412 16.0935 7.05602C15.4834 5.97792 14.598 5.08108 13.5279 4.45708C12.4578 3.83308 11.2412 3.50429 10.0024 3.50429C8.76367 3.50429 7.5471 3.83308 6.47697 4.45708C5.40684 5.08108 4.52151 5.97792 3.91139 7.05602C3.30126 8.13412 2.98822 9.35484 3.00422 10.5935C3.02022 11.8322 3.3647 13.0444 4.00246 14.1064Z" fill="#6C757D"/>
</g>
<defs>
<clipPath id="clip0_407_30565">
<rect width="15.9973" height="15.9973" fill="white" transform="translate(2.00391 2.50195)"/>
</clipPath>
</defs>
</svg>
