<svg width="16" height="16" viewBox="0 0 16 16" fill="none" xmlns="http://www.w3.org/2000/svg">
<g id="icon-wrapper">
<path id="Union" fill-rule="evenodd" clip-rule="evenodd" d="M8 1.99902C8.13261 1.99902 8.25979 2.0517 8.35355 2.14547C8.44732 2.23924 8.5 2.36642 8.5 2.49902V7.49902H13.5C13.6326 7.49902 13.7598 7.5517 13.8536 7.64547C13.9473 7.73924 14 7.86642 14 7.99902C14 8.13163 13.9473 8.25881 13.8536 8.35258C13.7598 8.44635 13.6326 8.49902 13.5 8.49902H8.5V13.499C8.5 13.6316 8.44732 13.7588 8.35355 13.8526C8.25979 13.9463 8.13261 13.999 8 13.999C7.86739 13.999 7.74021 13.9463 7.64645 13.8526C7.55268 13.7588 7.5 13.6316 7.5 13.499V8.49902H2.5C2.36739 8.49902 2.24021 8.44635 2.14645 8.35258C2.05268 8.25881 2 8.13163 2 7.99902C2 7.86642 2.05268 7.73924 2.14645 7.64547C2.24021 7.5517 2.36739 7.49902 2.5 7.49902H7.5V2.49902C7.5 2.36642 7.55268 2.23924 7.64645 2.14547C7.74021 2.0517 7.86739 1.99902 8 1.99902Z" fill="#495057"/>
</g>
</svg>
