<svg width="20" height="20" viewBox="0 0 20 20" fill="none" xmlns="http://www.w3.org/2000/svg">
<g id="wrapper">
<path id="Union" fill-rule="evenodd" clip-rule="evenodd" d="M5.59623 6.82348C5.24123 6.82348 4.95373 6.52723 5.00873 6.17723C5.35248 4.05098 6.97248 2.50098 9.78373 2.50098C12.5962 2.50098 14.4925 4.20098 14.4925 6.51973C14.4925 8.19973 13.6612 9.37973 12.255 10.236C10.88 11.0597 10.4875 11.6335 10.4875 12.7485V12.786C10.4875 12.9517 10.4216 13.1107 10.3044 13.2279C10.1872 13.3451 10.0282 13.411 9.86248 13.411H8.89998C8.73529 13.411 8.57726 13.346 8.46023 13.2301C8.3432 13.1143 8.27662 12.9569 8.27498 12.7922L8.27123 12.5422C8.21748 11.016 8.86748 10.041 10.3275 9.15223C11.615 8.36223 12.0737 7.73348 12.0737 6.61723C12.0737 5.39348 11.1262 4.49473 9.66623 4.49473C8.40498 4.49473 7.52873 5.15598 7.24373 6.24723C7.16123 6.56473 6.89623 6.82348 6.56873 6.82348H5.59748H5.59623ZM9.37248 17.501C10.15 17.501 10.7412 16.9085 10.7412 16.1385C10.7412 15.366 10.15 14.7735 9.37248 14.7735C8.61498 14.7735 8.01373 15.366 8.01373 16.1372C8.01373 16.9085 8.61498 17.501 9.37248 17.501Z" fill="#6C757D"/>
</g>
</svg>
