<svg width="20" height="21" viewBox="0 0 20 21" fill="none" xmlns="http://www.w3.org/2000/svg">
<path opacity="0.5" d="M18.0004 16.495V9.0524C18.0004 8.49769 17.5598 8.04688 17.0176 8.04688H16.7621V14.2225C16.7621 14.7604 16.5573 15.2649 16.1872 15.6453C15.817 16.0257 15.3223 16.2335 14.7965 16.2335H6.44434V16.495C6.44434 17.0497 6.88496 17.5005 7.42714 17.5005H17.0193C17.5614 17.5005 18.0004 17.0513 18.0004 16.495Z" fill="#6C757D"/>
<path opacity="0.7" d="M6.44378 13.9611H5.95238H5.46098H4.22266V14.2225C4.22266 14.7772 4.66328 15.228 5.20546 15.228H5.46098H5.95238H6.44378H14.7959C15.3381 15.228 15.7787 14.7772 15.7787 14.2225V8.0469V7.54414V7.04138V6.77994C15.7787 6.22522 15.3381 5.77441 14.7959 5.77441H14.5404V7.04138V7.54414V8.0469V11.95C14.5404 12.488 14.3357 12.9924 13.9655 13.3728C13.5936 13.7532 13.1006 13.9611 12.5748 13.9611H6.44378Z" fill="#6C757D"/>
<path d="M2 11.9498C2 12.5045 2.44062 12.9553 2.9828 12.9553H3.23833H3.72973H4.22113H5.45946H5.95085H6.44226H12.5733C13.1155 12.9553 13.5561 12.5045 13.5561 11.9498V8.04665V7.54389V7.04112V5.77416V5.2714V4.76864V4.50552C13.5561 3.95081 13.1155 3.5 12.5733 3.5H2.9828C2.44062 3.5 2 3.95081 2 4.50552V11.9498Z" fill="#6C757D"/>
</svg>
