<svg width="17" height="16" viewBox="0 0 17 16" fill="none" xmlns="http://www.w3.org/2000/svg">
<g id="exclamation-triangle-fill" clip-path="url(#clip0_667_5329)">
<path id="Vector" d="M8.98423 1.56837C8.88525 1.39594 8.74252 1.25268 8.57046 1.15306C8.3984 1.05344 8.2031 1.00098 8.00428 1.00098C7.80545 1.00098 7.61015 1.05344 7.43809 1.15306C7.26603 1.25268 7.1233 1.39594 7.02432 1.56837L0.167624 13.2348C-0.289356 14.0128 0.25862 15.0018 1.14758 15.0018H14.86C15.7489 15.0018 16.2979 14.0118 15.8399 13.2348L8.98423 1.56837ZM8.00228 5.00222C8.53725 5.00222 8.95623 5.46419 8.90224 5.99717L8.55225 9.50401C8.54049 9.64178 8.47746 9.77012 8.37562 9.86364C8.27377 9.95715 8.14054 10.009 8.00228 10.009C7.86401 10.009 7.73078 9.95715 7.62894 9.86364C7.52709 9.77012 7.46406 9.64178 7.4523 9.50401L7.10232 5.99717C7.08975 5.87141 7.10366 5.74441 7.14316 5.62435C7.18266 5.5043 7.24687 5.39385 7.33165 5.30011C7.41643 5.20638 7.51991 5.13145 7.63541 5.08014C7.75092 5.02883 7.87589 5.00229 8.00228 5.00222ZM8.00428 11.0019C8.26948 11.0019 8.52382 11.1073 8.71135 11.2948C8.89888 11.4824 9.00423 11.7367 9.00423 12.0019C9.00423 12.2671 8.89888 12.5215 8.71135 12.709C8.52382 12.8965 8.26948 13.0019 8.00428 13.0019C7.73907 13.0019 7.48473 12.8965 7.2972 12.709C7.10967 12.5215 7.00432 12.2671 7.00432 12.0019C7.00432 11.7367 7.10967 11.4824 7.2972 11.2948C7.48473 11.1073 7.73907 11.0019 8.00428 11.0019Z" fill="#6C757D"/>
</g>
<defs>
<clipPath id="clip0_667_5329">
<rect width="15.9993" height="15.9993" fill="white" transform="translate(0.00292969 0.00195312)"/>
</clipPath>
</defs>
</svg>
