<svg width="111" height="41" viewBox="0 0 111 41" fill="none" xmlns="http://www.w3.org/2000/svg">
<g clip-path="url(#clip0_407_18037)">
<rect width="14" height="14" transform="translate(16 13)" fill="white" fill-opacity="0.01"/>
<g clip-path="url(#clip1_407_18037)">
<path d="M22.5625 13.8898C21.4285 13.971 20.3395 14.3663 19.4173 15.0314C18.4952 15.6965 17.7764 16.6051 17.3414 17.6555C16.9064 18.7059 16.7723 19.8567 16.9542 20.979C17.1361 22.1013 17.6267 23.1508 18.3713 24.01L22.5625 19.8179V13.8898ZM23.4375 13.8898V19.5615H29.1093C29.0038 18.0921 28.3724 16.71 27.3307 15.6683C26.2891 14.6266 24.9069 13.9952 23.4375 13.8898ZM29.1093 20.4365H23.1811L18.9899 24.6278C19.8491 25.372 20.8986 25.8625 22.0207 26.0442C23.1429 26.226 24.2935 26.0918 25.3437 25.6568C26.394 25.2218 27.3025 24.5031 27.9675 23.5812C28.6325 22.6592 29.0279 21.5704 29.1093 20.4365ZM16 19.999C16 18.1425 16.7375 16.362 18.0503 15.0493C19.363 13.7365 21.1435 12.999 23 12.999C24.8565 12.999 26.637 13.7365 27.9497 15.0493C29.2625 16.362 30 18.1425 30 19.999C30 21.8555 29.2625 23.636 27.9497 24.9488C26.637 26.2615 24.8565 26.999 23 26.999C21.1435 26.999 19.363 26.2615 18.0503 24.9488C16.7375 23.636 16 21.8555 16 19.999Z" fill="#495057"/>
</g>
</g>
<g clip-path="url(#clip2_407_18037)">
<rect width="57" height="24" transform="translate(38 8)" fill="white" fill-opacity="0.01"/>
<path d="M40.768 21.6V20.352H43.328C43.7333 20.352 44.096 20.2613 44.416 20.08C44.736 19.888 44.992 19.632 45.184 19.312C45.3867 18.9813 45.488 18.608 45.488 18.192C45.488 17.552 45.264 17.0347 44.816 16.64C44.3787 16.2347 43.808 16.032 43.104 16.032H40.768V14.8L43.136 14.784C43.8613 14.7733 44.5013 14.9173 45.056 15.216C45.6213 15.504 46.0587 15.9093 46.368 16.432C46.688 16.944 46.848 17.5307 46.848 18.192C46.848 18.8533 46.6773 19.44 46.336 19.952C45.9947 20.464 45.5307 20.8693 44.944 21.168C44.3573 21.456 43.696 21.6 42.96 21.6H40.768ZM39.488 26V14.8H40.848V26H39.488ZM45.808 26L43.12 21.408L44.192 20.704L47.296 26H45.808ZM52.6716 26.192C51.893 26.192 51.205 26.016 50.6076 25.664C50.021 25.3013 49.557 24.8053 49.2156 24.176C48.8743 23.5467 48.7036 22.8213 48.7036 22C48.7036 21.1787 48.869 20.4533 49.1996 19.824C49.541 19.1947 50.0103 18.704 50.6076 18.352C51.205 17.9893 51.8823 17.808 52.6396 17.808C53.3863 17.808 54.0316 17.9947 54.5756 18.368C55.1196 18.7307 55.541 19.2427 55.8396 19.904C56.1383 20.5653 56.2876 21.344 56.2876 22.24H55.0076C55.0076 21.5573 54.917 20.976 54.7356 20.496C54.5543 20.0053 54.2876 19.6267 53.9356 19.36C53.5836 19.0933 53.1463 18.96 52.6236 18.96C52.101 18.96 51.6423 19.088 51.2476 19.344C50.8636 19.5893 50.565 19.9413 50.3516 20.4C50.1383 20.8587 50.0316 21.3973 50.0316 22.016C50.0316 22.624 50.149 23.152 50.3836 23.6C50.6183 24.0373 50.9383 24.384 51.3436 24.64C51.749 24.8853 52.213 25.008 52.7356 25.008C53.301 25.008 53.7756 24.8747 54.1596 24.608C54.5436 24.3413 54.8423 23.9947 55.0556 23.568L56.1916 24.128C55.9783 24.544 55.701 24.9067 55.3596 25.216C55.029 25.5253 54.6396 25.7653 54.1916 25.936C53.7436 26.1067 53.237 26.192 52.6716 26.192ZM49.5676 22.24V21.136H55.5036V22.24H49.5676ZM58.0281 29.2V18H59.2281L59.3081 19.472V29.2H58.0281ZM62.0121 26.192C61.3401 26.192 60.7481 26.016 60.2361 25.664C59.7348 25.312 59.3455 24.8213 59.0681 24.192C58.7908 23.552 58.6521 22.8213 58.6521 22C58.6521 21.168 58.7908 20.4373 59.0681 19.808C59.3455 19.1787 59.7348 18.688 60.2361 18.336C60.7481 17.984 61.3401 17.808 62.0121 17.808C62.7268 17.808 63.3561 17.984 63.9001 18.336C64.4441 18.688 64.8655 19.1787 65.1641 19.808C65.4735 20.4373 65.6281 21.168 65.6281 22C65.6281 22.8213 65.4735 23.552 65.1641 24.192C64.8655 24.8213 64.4441 25.312 63.9001 25.664C63.3561 26.016 62.7268 26.192 62.0121 26.192ZM61.7241 25.024C62.2255 25.024 62.6681 24.896 63.0521 24.64C63.4468 24.384 63.7561 24.0267 63.9801 23.568C64.2148 23.1093 64.3321 22.5867 64.3321 22C64.3321 21.4133 64.2201 20.8907 63.9961 20.432C63.7828 19.9733 63.4788 19.616 63.0841 19.36C62.6895 19.104 62.2415 18.976 61.7401 18.976C61.2708 18.976 60.8495 19.104 60.4761 19.36C60.1135 19.616 59.8255 19.9733 59.6121 20.432C59.4095 20.8907 59.3081 21.4133 59.3081 22C59.3081 22.5867 59.4095 23.1093 59.6121 23.568C59.8255 24.0267 60.1135 24.384 60.4761 24.64C60.8388 24.896 61.2548 25.024 61.7241 25.024ZM70.9852 26.192C70.2066 26.192 69.5133 26.016 68.9053 25.664C68.2973 25.3013 67.8226 24.8053 67.4813 24.176C67.1399 23.5467 66.9693 22.8213 66.9693 22C66.9693 21.1787 67.1346 20.4533 67.4653 19.824C67.8066 19.1947 68.2813 18.704 68.8893 18.352C69.4973 17.9893 70.1853 17.808 70.9533 17.808C71.7426 17.808 72.4359 17.9893 73.0333 18.352C73.6413 18.704 74.1106 19.1947 74.4413 19.824C74.7826 20.4533 74.9533 21.1787 74.9533 22C74.9533 22.8213 74.7826 23.5467 74.4413 24.176C74.1106 24.8053 73.6466 25.3013 73.0493 25.664C72.4519 26.016 71.7639 26.192 70.9852 26.192ZM70.9852 24.976C71.5079 24.976 71.9666 24.8533 72.3613 24.608C72.7559 24.352 73.0653 24 73.2893 23.552C73.5133 23.104 73.6253 22.5867 73.6253 22C73.6253 21.4133 73.5079 20.896 73.2733 20.448C73.0493 20 72.7346 19.6533 72.3293 19.408C71.9346 19.152 71.4759 19.024 70.9533 19.024C70.4306 19.024 69.9719 19.152 69.5773 19.408C69.1826 19.6533 68.8679 20 68.6332 20.448C68.4093 20.896 68.2973 21.4133 68.2973 22C68.2973 22.5867 68.4093 23.104 68.6332 23.552C68.8679 24 69.1879 24.352 69.5933 24.608C69.9986 24.8533 70.4626 24.976 70.9852 24.976ZM77.4646 21.664C77.4646 20.8 77.63 20.1013 77.9606 19.568C78.2913 19.024 78.7126 18.624 79.2246 18.368C79.7473 18.1013 80.2966 17.968 80.8726 17.968V19.168C80.4033 19.168 79.95 19.248 79.5126 19.408C79.086 19.5573 78.734 19.808 78.4566 20.16C78.1793 20.512 78.0406 20.992 78.0406 21.6L77.4646 21.664ZM76.7606 26V18H78.0406V26H76.7606ZM85.3349 26.192C84.5562 26.192 83.9535 25.9893 83.5269 25.584C83.1002 25.1787 82.8869 24.608 82.8869 23.872V15.504H84.1669V23.744C84.1669 24.1493 84.2735 24.464 84.4869 24.688C84.7109 24.9013 85.0202 25.008 85.4149 25.008C85.5429 25.008 85.6655 24.992 85.7829 24.96C85.9109 24.9173 86.0762 24.8213 86.2789 24.672L86.7749 25.712C86.4975 25.8933 86.2469 26.016 86.0229 26.08C85.7989 26.1547 85.5695 26.192 85.3349 26.192ZM81.4949 19.136V18H86.5669V19.136H81.4949ZM91.1231 26.192C90.5365 26.192 90.0245 26.1067 89.5871 25.936C89.1498 25.7547 88.7818 25.52 88.4831 25.232C88.1951 24.944 87.9871 24.6293 87.8591 24.288L88.9791 23.824C89.1605 24.176 89.4325 24.464 89.7951 24.688C90.1578 24.912 90.5578 25.024 90.9951 25.024C91.4965 25.024 91.9125 24.928 92.2431 24.736C92.5845 24.5333 92.7551 24.256 92.7551 23.904C92.7551 23.5733 92.6271 23.3067 92.3711 23.104C92.1258 22.9013 91.7631 22.736 91.2831 22.608L90.5151 22.4C89.7898 22.208 89.2245 21.92 88.8191 21.536C88.4138 21.1413 88.2111 20.6987 88.2111 20.208C88.2111 19.4507 88.4565 18.864 88.9471 18.448C89.4485 18.0213 90.1898 17.808 91.1711 17.808C91.6405 17.808 92.0671 17.8773 92.4511 18.016C92.8351 18.1547 93.1658 18.352 93.4431 18.608C93.7205 18.8533 93.9231 19.1467 94.0511 19.488L92.9311 19.984C92.7925 19.6213 92.5631 19.3653 92.2431 19.216C91.9231 19.056 91.5338 18.976 91.0751 18.976C90.5845 18.976 90.2005 19.0773 89.9231 19.28C89.6458 19.4827 89.5071 19.7707 89.5071 20.144C89.5071 20.3573 89.6191 20.56 89.8431 20.752C90.0778 20.9333 90.4191 21.0827 90.8671 21.2L91.6671 21.408C92.1898 21.536 92.6271 21.728 92.9791 21.984C93.3311 22.2293 93.5978 22.512 93.7791 22.832C93.9605 23.152 94.0511 23.4933 94.0511 23.856C94.0511 24.336 93.9231 24.752 93.6671 25.104C93.4111 25.456 93.0645 25.728 92.6271 25.92C92.1898 26.1013 91.6885 26.192 91.1231 26.192Z" fill="#495057"/>
</g>
<defs>
<clipPath id="clip0_407_18037">
<rect width="14" height="14" fill="white" transform="translate(16 13)"/>
</clipPath>
<clipPath id="clip1_407_18037">
<rect width="14" height="14" fill="white" transform="translate(16 13)"/>
</clipPath>
<clipPath id="clip2_407_18037">
<rect width="57" height="24" fill="white" transform="translate(38 8)"/>
</clipPath>
</defs>
</svg>
