<svg width="169" height="41" viewBox="0 0 169 41" fill="none" xmlns="http://www.w3.org/2000/svg">
<g clip-path="url(#clip0_412_47227)">
<rect width="14" height="14" transform="translate(16 13)" fill="white" fill-opacity="0.01"/>
<g clip-path="url(#clip1_412_47227)">
<path d="M28.25 25.249V16.9365L24.3125 12.999H19.5C19.0359 12.999 18.5908 13.1834 18.2626 13.5116C17.9344 13.8398 17.75 14.2849 17.75 14.749V25.249C17.75 25.7132 17.9344 26.1583 18.2626 26.4865C18.5908 26.8146 19.0359 26.999 19.5 26.999H26.5C26.9641 26.999 27.4092 26.8146 27.7374 26.4865C28.0656 26.1583 28.25 25.7132 28.25 25.249ZM24.3125 15.624C24.3125 15.9721 24.4508 16.306 24.6969 16.5521C24.9431 16.7982 25.2769 16.9365 25.625 16.9365H27.375V20.874H18.625V14.749C18.625 14.517 18.7172 14.2944 18.8813 14.1303C19.0454 13.9662 19.2679 13.874 19.5 13.874H24.3125V15.624ZM18.625 23.499V21.749H20.375V23.499H18.625ZM18.625 24.374H20.375V26.124H19.5C19.2679 26.124 19.0454 26.0318 18.8813 25.8677C18.7172 25.7036 18.625 25.4811 18.625 25.249V24.374ZM21.25 26.124V24.374H23.875V26.124H21.25ZM24.75 26.124V24.374H27.375V25.249C27.375 25.4811 27.2828 25.7036 27.1187 25.8677C26.9546 26.0318 26.7321 26.124 26.5 26.124H24.75ZM27.375 23.499H24.75V21.749H27.375V23.499ZM21.25 23.499V21.749H23.875V23.499H21.25Z" fill="#495057"/>
</g>
</g>
<g clip-path="url(#clip2_412_47227)">
<rect width="99" height="24" transform="translate(38 8)" fill="white" fill-opacity="0.01"/>
<path d="M43.072 26.192C42.4533 26.192 41.904 26.128 41.424 26C40.944 25.8613 40.528 25.6747 40.176 25.44C39.824 25.1947 39.536 24.928 39.312 24.64C39.088 24.3413 38.9227 24.0267 38.816 23.696L40.112 23.248C40.272 23.7173 40.592 24.128 41.072 24.48C41.5627 24.8213 42.16 24.992 42.864 24.992C43.728 24.992 44.4053 24.8213 44.896 24.48C45.3867 24.1387 45.632 23.6853 45.632 23.12C45.632 22.5973 45.4133 22.176 44.976 21.856C44.5387 21.5253 43.9627 21.2693 43.248 21.088L42.016 20.768C41.5147 20.64 41.0507 20.4533 40.624 20.208C40.208 19.952 39.872 19.632 39.616 19.248C39.3707 18.8533 39.248 18.384 39.248 17.84C39.248 16.8267 39.5733 16.0373 40.224 15.472C40.8853 14.896 41.8347 14.608 43.072 14.608C43.808 14.608 44.4427 14.7307 44.976 14.976C45.5093 15.2107 45.9413 15.5147 46.272 15.888C46.6133 16.2507 46.8533 16.6453 46.992 17.072L45.712 17.52C45.5093 16.9867 45.168 16.5707 44.688 16.272C44.208 15.9627 43.6267 15.808 42.944 15.808C42.2293 15.808 41.6587 15.984 41.232 16.336C40.816 16.6773 40.608 17.1467 40.608 17.744C40.608 18.256 40.7733 18.6507 41.104 18.928C41.4347 19.1947 41.8667 19.392 42.4 19.52L43.632 19.824C44.72 20.08 45.552 20.5067 46.128 21.104C46.7147 21.6907 47.008 22.3253 47.008 23.008C47.008 23.5947 46.8587 24.1333 46.56 24.624C46.2613 25.104 45.8187 25.488 45.232 25.776C44.656 26.0533 43.936 26.192 43.072 26.192ZM49.0281 29.2V18H50.2281L50.3081 19.472V29.2H49.0281ZM53.0121 26.192C52.3401 26.192 51.7481 26.016 51.2361 25.664C50.7348 25.312 50.3455 24.8213 50.0681 24.192C49.7908 23.552 49.6521 22.8213 49.6521 22C49.6521 21.168 49.7908 20.4373 50.0681 19.808C50.3455 19.1787 50.7348 18.688 51.2361 18.336C51.7481 17.984 52.3401 17.808 53.0121 17.808C53.7268 17.808 54.3561 17.984 54.9001 18.336C55.4441 18.688 55.8655 19.1787 56.1641 19.808C56.4735 20.4373 56.6281 21.168 56.6281 22C56.6281 22.8213 56.4735 23.552 56.1641 24.192C55.8655 24.8213 55.4441 25.312 54.9001 25.664C54.3561 26.016 53.7268 26.192 53.0121 26.192ZM52.7241 25.024C53.2255 25.024 53.6681 24.896 54.0521 24.64C54.4468 24.384 54.7561 24.0267 54.9801 23.568C55.2148 23.1093 55.3321 22.5867 55.3321 22C55.3321 21.4133 55.2201 20.8907 54.9961 20.432C54.7828 19.9733 54.4788 19.616 54.0841 19.36C53.6895 19.104 53.2415 18.976 52.7401 18.976C52.2708 18.976 51.8495 19.104 51.4761 19.36C51.1135 19.616 50.8255 19.9733 50.6121 20.432C50.4095 20.8907 50.3081 21.4133 50.3081 22C50.3081 22.5867 50.4095 23.1093 50.6121 23.568C50.8255 24.0267 51.1135 24.384 51.4761 24.64C51.8388 24.896 52.2548 25.024 52.7241 25.024ZM59.1053 21.664C59.1053 20.8 59.2706 20.1013 59.6013 19.568C59.9319 19.024 60.3533 18.624 60.8653 18.368C61.3879 18.1013 61.9373 17.968 62.5133 17.968V19.168C62.0439 19.168 61.5906 19.248 61.1533 19.408C60.7266 19.5573 60.3746 19.808 60.0973 20.16C59.8199 20.512 59.6813 20.992 59.6813 21.6L59.1053 21.664ZM58.4013 26V18H59.6813V26H58.4013ZM67.3435 26.192C66.5648 26.192 65.8768 26.016 65.2795 25.664C64.6928 25.3013 64.2288 24.8053 63.8875 24.176C63.5462 23.5467 63.3755 22.8213 63.3755 22C63.3755 21.1787 63.5408 20.4533 63.8715 19.824C64.2128 19.1947 64.6822 18.704 65.2795 18.352C65.8768 17.9893 66.5542 17.808 67.3115 17.808C68.0582 17.808 68.7035 17.9947 69.2475 18.368C69.7915 18.7307 70.2128 19.2427 70.5115 19.904C70.8102 20.5653 70.9595 21.344 70.9595 22.24H69.6795C69.6795 21.5573 69.5888 20.976 69.4075 20.496C69.2262 20.0053 68.9595 19.6267 68.6075 19.36C68.2555 19.0933 67.8182 18.96 67.2955 18.96C66.7728 18.96 66.3142 19.088 65.9195 19.344C65.5355 19.5893 65.2368 19.9413 65.0235 20.4C64.8102 20.8587 64.7035 21.3973 64.7035 22.016C64.7035 22.624 64.8208 23.152 65.0555 23.6C65.2902 24.0373 65.6102 24.384 66.0155 24.64C66.4208 24.8853 66.8848 25.008 67.4075 25.008C67.9728 25.008 68.4475 24.8747 68.8315 24.608C69.2155 24.3413 69.5142 23.9947 69.7275 23.568L70.8635 24.128C70.6502 24.544 70.3728 24.9067 70.0315 25.216C69.7008 25.5253 69.3115 25.7653 68.8635 25.936C68.4155 26.1067 67.9088 26.192 67.3435 26.192ZM64.2395 22.24V21.136H70.1755V22.24H64.2395ZM77.628 26L77.5 21.776C77.4787 21.1467 77.3987 20.6293 77.26 20.224C77.1213 19.808 76.908 19.4987 76.62 19.296C76.332 19.0827 75.948 18.976 75.468 18.976C75.0093 18.976 74.6093 19.0667 74.268 19.248C73.9373 19.4293 73.6653 19.712 73.452 20.096L72.316 19.632C72.5187 19.2587 72.7693 18.9387 73.068 18.672C73.3667 18.3947 73.7187 18.1813 74.124 18.032C74.5293 17.8827 74.9827 17.808 75.484 17.808C76.22 17.808 76.8333 17.952 77.324 18.24C77.8147 18.528 78.1773 18.96 78.412 19.536C78.6573 20.1013 78.78 20.8107 78.78 21.664V26H77.628ZM75.196 26.192C74.2467 26.192 73.5053 25.9787 72.972 25.552C72.4493 25.1147 72.188 24.512 72.188 23.744C72.188 22.9333 72.4547 22.3147 72.988 21.888C73.532 21.4507 74.2893 21.232 75.26 21.232H78.076V22.304H75.548C74.8013 22.304 74.268 22.4267 73.948 22.672C73.6387 22.9173 73.484 23.2693 73.484 23.728C73.484 24.144 73.6387 24.4747 73.948 24.72C74.2573 24.9547 74.6893 25.072 75.244 25.072C75.7133 25.072 76.1187 24.9653 76.46 24.752C76.8013 24.5387 77.0627 24.2507 77.244 23.888C77.4253 23.5147 77.516 23.0933 77.516 22.624H78.3C78.3 23.712 78.0333 24.5813 77.5 25.232C76.9667 25.872 76.1987 26.192 75.196 26.192ZM86.7275 26L86.6635 24.512V14.8H87.9435V26H86.7275ZM83.9595 26.192C83.2448 26.192 82.6155 26.016 82.0715 25.664C81.5275 25.312 81.1008 24.8213 80.7915 24.192C80.4928 23.552 80.3435 22.8213 80.3435 22C80.3435 21.168 80.4928 20.4373 80.7915 19.808C81.1008 19.1787 81.5275 18.688 82.0715 18.336C82.6155 17.984 83.2448 17.808 83.9595 17.808C84.6315 17.808 85.2182 17.984 85.7195 18.336C86.2315 18.688 86.6262 19.1787 86.9035 19.808C87.1808 20.4373 87.3195 21.168 87.3195 22C87.3195 22.8213 87.1808 23.552 86.9035 24.192C86.6262 24.8213 86.2315 25.312 85.7195 25.664C85.2182 26.016 84.6315 26.192 83.9595 26.192ZM84.2475 25.024C84.7168 25.024 85.1328 24.896 85.4955 24.64C85.8582 24.384 86.1408 24.0267 86.3435 23.568C86.5568 23.1093 86.6635 22.5867 86.6635 22C86.6635 21.4133 86.5568 20.8907 86.3435 20.432C86.1408 19.9733 85.8582 19.616 85.4955 19.36C85.1328 19.104 84.7115 18.976 84.2315 18.976C83.7302 18.976 83.2822 19.104 82.8875 19.36C82.5035 19.616 82.1995 19.9733 81.9755 20.432C81.7515 20.8907 81.6395 21.4133 81.6395 22C81.6395 22.5867 81.7515 23.1093 81.9755 23.568C82.1995 24.0267 82.5088 24.384 82.9035 24.64C83.2982 24.896 83.7462 25.024 84.2475 25.024ZM92.9825 26.192C92.3958 26.192 91.8838 26.1067 91.4465 25.936C91.0092 25.7547 90.6412 25.52 90.3425 25.232C90.0545 24.944 89.8465 24.6293 89.7185 24.288L90.8385 23.824C91.0198 24.176 91.2918 24.464 91.6545 24.688C92.0172 24.912 92.4172 25.024 92.8545 25.024C93.3558 25.024 93.7718 24.928 94.1025 24.736C94.4438 24.5333 94.6145 24.256 94.6145 23.904C94.6145 23.5733 94.4865 23.3067 94.2305 23.104C93.9852 22.9013 93.6225 22.736 93.1425 22.608L92.3745 22.4C91.6492 22.208 91.0838 21.92 90.6785 21.536C90.2732 21.1413 90.0705 20.6987 90.0705 20.208C90.0705 19.4507 90.3158 18.864 90.8065 18.448C91.3078 18.0213 92.0492 17.808 93.0305 17.808C93.4998 17.808 93.9265 17.8773 94.3105 18.016C94.6945 18.1547 95.0252 18.352 95.3025 18.608C95.5798 18.8533 95.7825 19.1467 95.9105 19.488L94.7905 19.984C94.6518 19.6213 94.4225 19.3653 94.1025 19.216C93.7825 19.056 93.3932 18.976 92.9345 18.976C92.4438 18.976 92.0598 19.0773 91.7825 19.28C91.5052 19.4827 91.3665 19.7707 91.3665 20.144C91.3665 20.3573 91.4785 20.56 91.7025 20.752C91.9372 20.9333 92.2785 21.0827 92.7265 21.2L93.5265 21.408C94.0492 21.536 94.4865 21.728 94.8385 21.984C95.1905 22.2293 95.4572 22.512 95.6385 22.832C95.8198 23.152 95.9105 23.4933 95.9105 23.856C95.9105 24.336 95.7825 24.752 95.5265 25.104C95.2705 25.456 94.9238 25.728 94.4865 25.92C94.0492 26.1013 93.5478 26.192 92.9825 26.192ZM97.6356 26V14.592H98.9156V26H97.6356ZM103.268 26V21.904L104.548 21.424V26H103.268ZM103.268 21.904C103.268 21.1147 103.172 20.512 102.98 20.096C102.798 19.68 102.548 19.3973 102.228 19.248C101.908 19.088 101.545 19.008 101.14 19.008C100.436 19.008 99.8863 19.2587 99.4916 19.76C99.1076 20.2507 98.9156 20.9493 98.9156 21.856H98.2916C98.2916 21.0133 98.4143 20.288 98.6596 19.68C98.905 19.072 99.2623 18.608 99.7316 18.288C100.201 17.968 100.766 17.808 101.428 17.808C102.388 17.808 103.15 18.1067 103.716 18.704C104.281 19.3013 104.558 20.208 104.548 21.424L103.268 21.904ZM110.094 26.192C109.315 26.192 108.627 26.016 108.03 25.664C107.443 25.3013 106.979 24.8053 106.638 24.176C106.296 23.5467 106.126 22.8213 106.126 22C106.126 21.1787 106.291 20.4533 106.622 19.824C106.963 19.1947 107.432 18.704 108.03 18.352C108.627 17.9893 109.304 17.808 110.062 17.808C110.808 17.808 111.454 17.9947 111.998 18.368C112.542 18.7307 112.963 19.2427 113.262 19.904C113.56 20.5653 113.71 21.344 113.71 22.24H112.43C112.43 21.5573 112.339 20.976 112.158 20.496C111.976 20.0053 111.71 19.6267 111.358 19.36C111.006 19.0933 110.568 18.96 110.046 18.96C109.523 18.96 109.064 19.088 108.67 19.344C108.286 19.5893 107.987 19.9413 107.774 20.4C107.56 20.8587 107.454 21.3973 107.454 22.016C107.454 22.624 107.571 23.152 107.806 23.6C108.04 24.0373 108.36 24.384 108.766 24.64C109.171 24.8853 109.635 25.008 110.158 25.008C110.723 25.008 111.198 24.8747 111.582 24.608C111.966 24.3413 112.264 23.9947 112.478 23.568L113.614 24.128C113.4 24.544 113.123 24.9067 112.782 25.216C112.451 25.5253 112.062 25.7653 111.614 25.936C111.166 26.1067 110.659 26.192 110.094 26.192ZM106.99 22.24V21.136H112.926V22.24H106.99ZM118.906 26.192C118.127 26.192 117.439 26.016 116.842 25.664C116.255 25.3013 115.791 24.8053 115.45 24.176C115.109 23.5467 114.938 22.8213 114.938 22C114.938 21.1787 115.103 20.4533 115.434 19.824C115.775 19.1947 116.245 18.704 116.842 18.352C117.439 17.9893 118.117 17.808 118.874 17.808C119.621 17.808 120.266 17.9947 120.81 18.368C121.354 18.7307 121.775 19.2427 122.074 19.904C122.373 20.5653 122.522 21.344 122.522 22.24H121.242C121.242 21.5573 121.151 20.976 120.97 20.496C120.789 20.0053 120.522 19.6267 120.17 19.36C119.818 19.0933 119.381 18.96 118.858 18.96C118.335 18.96 117.877 19.088 117.482 19.344C117.098 19.5893 116.799 19.9413 116.586 20.4C116.373 20.8587 116.266 21.3973 116.266 22.016C116.266 22.624 116.383 23.152 116.618 23.6C116.853 24.0373 117.173 24.384 117.578 24.64C117.983 24.8853 118.447 25.008 118.97 25.008C119.535 25.008 120.01 24.8747 120.394 24.608C120.778 24.3413 121.077 23.9947 121.29 23.568L122.426 24.128C122.213 24.544 121.935 24.9067 121.594 25.216C121.263 25.5253 120.874 25.7653 120.426 25.936C119.978 26.1067 119.471 26.192 118.906 26.192ZM115.802 22.24V21.136H121.738V22.24H115.802ZM127.351 26.192C126.572 26.192 125.969 25.9893 125.543 25.584C125.116 25.1787 124.903 24.608 124.903 23.872V15.504H126.183V23.744C126.183 24.1493 126.289 24.464 126.503 24.688C126.727 24.9013 127.036 25.008 127.431 25.008C127.559 25.008 127.681 24.992 127.799 24.96C127.927 24.9173 128.092 24.8213 128.295 24.672L128.791 25.712C128.513 25.8933 128.263 26.016 128.039 26.08C127.815 26.1547 127.585 26.192 127.351 26.192ZM123.511 19.136V18H128.583V19.136H123.511ZM133.139 26.192C132.552 26.192 132.04 26.1067 131.603 25.936C131.165 25.7547 130.797 25.52 130.499 25.232C130.211 24.944 130.003 24.6293 129.875 24.288L130.995 23.824C131.176 24.176 131.448 24.464 131.811 24.688C132.173 24.912 132.573 25.024 133.011 25.024C133.512 25.024 133.928 24.928 134.259 24.736C134.6 24.5333 134.771 24.256 134.771 23.904C134.771 23.5733 134.643 23.3067 134.387 23.104C134.141 22.9013 133.779 22.736 133.299 22.608L132.531 22.4C131.805 22.208 131.24 21.92 130.835 21.536C130.429 21.1413 130.227 20.6987 130.227 20.208C130.227 19.4507 130.472 18.864 130.963 18.448C131.464 18.0213 132.205 17.808 133.187 17.808C133.656 17.808 134.083 17.8773 134.467 18.016C134.851 18.1547 135.181 18.352 135.459 18.608C135.736 18.8533 135.939 19.1467 136.067 19.488L134.947 19.984C134.808 19.6213 134.579 19.3653 134.259 19.216C133.939 19.056 133.549 18.976 133.091 18.976C132.6 18.976 132.216 19.0773 131.939 19.28C131.661 19.4827 131.523 19.7707 131.523 20.144C131.523 20.3573 131.635 20.56 131.859 20.752C132.093 20.9333 132.435 21.0827 132.883 21.2L133.683 21.408C134.205 21.536 134.643 21.728 134.995 21.984C135.347 22.2293 135.613 22.512 135.795 22.832C135.976 23.152 136.067 23.4933 136.067 23.856C136.067 24.336 135.939 24.752 135.683 25.104C135.427 25.456 135.08 25.728 134.643 25.92C134.205 26.1013 133.704 26.192 133.139 26.192Z" fill="#495057"/>
</g>
<g clip-path="url(#clip3_412_47227)">
<rect width="12" height="12" transform="translate(141 14)" fill="white" fill-opacity="0.01"/>
<path fill-rule="evenodd" clip-rule="evenodd" d="M142.237 17.4842C142.272 17.4493 142.313 17.4216 142.359 17.4027C142.404 17.3838 142.453 17.374 142.503 17.374C142.552 17.374 142.601 17.3838 142.646 17.4027C142.692 17.4216 142.733 17.4493 142.768 17.4842L147.003 21.7194L151.237 17.4842C151.272 17.4493 151.313 17.4217 151.359 17.4028C151.404 17.3839 151.453 17.3742 151.503 17.3742C151.552 17.3742 151.601 17.3839 151.646 17.4028C151.692 17.4217 151.733 17.4493 151.768 17.4842C151.803 17.5191 151.831 17.5605 151.85 17.606C151.868 17.6516 151.878 17.7004 151.878 17.7497C151.878 17.799 151.868 17.8478 151.85 17.8934C151.831 17.9389 151.803 17.9803 151.768 18.0152L147.268 22.5152C147.233 22.5501 147.192 22.5778 147.146 22.5967C147.101 22.6156 147.052 22.6254 147.003 22.6254C146.953 22.6254 146.904 22.6156 146.859 22.5967C146.813 22.5778 146.772 22.5501 146.737 22.5152L142.237 18.0152C142.202 17.9804 142.174 17.939 142.156 17.8934C142.137 17.8479 142.127 17.799 142.127 17.7497C142.127 17.7004 142.137 17.6515 142.156 17.606C142.174 17.5604 142.202 17.519 142.237 17.4842Z" fill="#495057"/>
</g>
<defs>
<clipPath id="clip0_412_47227">
<rect width="14" height="14" fill="white" transform="translate(16 13)"/>
</clipPath>
<clipPath id="clip1_412_47227">
<rect width="14" height="14" fill="white" transform="translate(16 13)"/>
</clipPath>
<clipPath id="clip2_412_47227">
<rect width="99" height="24" fill="white" transform="translate(38 8)"/>
</clipPath>
<clipPath id="clip3_412_47227">
<rect width="12" height="12" fill="white" transform="translate(141 14)"/>
</clipPath>
</defs>
</svg>
