<svg width="168" height="41" viewBox="0 0 168 41" fill="none" xmlns="http://www.w3.org/2000/svg">
<g clip-path="url(#clip0_407_17980)">
<rect width="14" height="14" transform="translate(16 13)" fill="white" fill-opacity="0.01"/>
<g clip-path="url(#clip1_407_17980)">
<path d="M22.125 19.1241V14.2363C22.125 14.0043 22.2172 13.7817 22.3813 13.6176C22.5454 13.4535 22.7679 13.3613 23 13.3613C23.2321 13.3613 23.4546 13.4535 23.6187 13.6176C23.7828 13.7817 23.875 14.0043 23.875 14.2363V14.7491H28.25C28.3858 14.7491 28.5198 14.7807 28.6413 14.8415C28.7628 14.9022 28.8685 14.9904 28.95 15.0991L29.8031 16.2366C29.8599 16.3123 29.8906 16.4044 29.8906 16.4991C29.8906 16.5937 29.8599 16.6858 29.8031 16.7616L28.95 17.8991C28.8685 18.0077 28.7628 18.096 28.6413 18.1567C28.5198 18.2175 28.3858 18.2491 28.25 18.2491H23.875V26.9991H22.125V22.6241H17.75C17.6142 22.6241 17.4802 22.5925 17.3587 22.5317C17.2372 22.471 17.1315 22.3827 17.05 22.2741L16.1969 21.1366C16.1401 21.0608 16.1094 20.9687 16.1094 20.8741C16.1094 20.7794 16.1401 20.6873 16.1969 20.6116L17.05 19.4741C17.1315 19.3654 17.2372 19.2772 17.3587 19.2165C17.4802 19.1557 17.6142 19.1241 17.75 19.1241H22.125ZM23 21.7491V19.9991H17.75L17.0938 20.8741L17.75 21.7491H23ZM23 17.3741H28.25L28.9062 16.4991L28.25 15.6241H23V17.3741Z" fill="#495057"/>
</g>
</g>
<g clip-path="url(#clip2_407_17980)">
<rect width="98" height="24" transform="translate(38 8)" fill="white" fill-opacity="0.01"/>
<path d="M43.072 26.192C42.4533 26.192 41.904 26.128 41.424 26C40.944 25.8613 40.528 25.6747 40.176 25.44C39.824 25.1947 39.536 24.928 39.312 24.64C39.088 24.3413 38.9227 24.0267 38.816 23.696L40.112 23.248C40.272 23.7173 40.592 24.128 41.072 24.48C41.5627 24.8213 42.16 24.992 42.864 24.992C43.728 24.992 44.4053 24.8213 44.896 24.48C45.3867 24.1387 45.632 23.6853 45.632 23.12C45.632 22.5973 45.4133 22.176 44.976 21.856C44.5387 21.5253 43.9627 21.2693 43.248 21.088L42.016 20.768C41.5147 20.64 41.0507 20.4533 40.624 20.208C40.208 19.952 39.872 19.632 39.616 19.248C39.3707 18.8533 39.248 18.384 39.248 17.84C39.248 16.8267 39.5733 16.0373 40.224 15.472C40.8853 14.896 41.8347 14.608 43.072 14.608C43.808 14.608 44.4427 14.7307 44.976 14.976C45.5093 15.2107 45.9413 15.5147 46.272 15.888C46.6133 16.2507 46.8533 16.6453 46.992 17.072L45.712 17.52C45.5093 16.9867 45.168 16.5707 44.688 16.272C44.208 15.9627 43.6267 15.808 42.944 15.808C42.2293 15.808 41.6587 15.984 41.232 16.336C40.816 16.6773 40.608 17.1467 40.608 17.744C40.608 18.256 40.7733 18.6507 41.104 18.928C41.4347 19.1947 41.8667 19.392 42.4 19.52L43.632 19.824C44.72 20.08 45.552 20.5067 46.128 21.104C46.7147 21.6907 47.008 22.3253 47.008 23.008C47.008 23.5947 46.8587 24.1333 46.56 24.624C46.2613 25.104 45.8187 25.488 45.232 25.776C44.656 26.0533 43.936 26.192 43.072 26.192ZM52.1161 26.192C51.3375 26.192 50.7348 25.9893 50.3081 25.584C49.8815 25.1787 49.6681 24.608 49.6681 23.872V15.504H50.9481V23.744C50.9481 24.1493 51.0548 24.464 51.2681 24.688C51.4921 24.9013 51.8015 25.008 52.1961 25.008C52.3241 25.008 52.4468 24.992 52.5641 24.96C52.6921 24.9173 52.8575 24.8213 53.0601 24.672L53.5561 25.712C53.2788 25.8933 53.0281 26.016 52.8041 26.08C52.5801 26.1547 52.3508 26.192 52.1161 26.192ZM48.2761 19.136V18H53.3481V19.136H48.2761ZM55.8084 21.664C55.8084 20.8 55.9737 20.1013 56.3044 19.568C56.635 19.024 57.0564 18.624 57.5684 18.368C58.091 18.1013 58.6404 17.968 59.2164 17.968V19.168C58.747 19.168 58.2937 19.248 57.8564 19.408C57.4297 19.5573 57.0777 19.808 56.8004 20.16C56.523 20.512 56.3844 20.992 56.3844 21.6L55.8084 21.664ZM55.1044 26V18H56.3844V26H55.1044ZM65.5186 26L65.3906 21.776C65.3693 21.1467 65.2893 20.6293 65.1506 20.224C65.012 19.808 64.7986 19.4987 64.5106 19.296C64.2226 19.0827 63.8386 18.976 63.3586 18.976C62.9 18.976 62.5 19.0667 62.1586 19.248C61.828 19.4293 61.556 19.712 61.3426 20.096L60.2066 19.632C60.4093 19.2587 60.66 18.9387 60.9586 18.672C61.2573 18.3947 61.6093 18.1813 62.0146 18.032C62.42 17.8827 62.8733 17.808 63.3746 17.808C64.1106 17.808 64.724 17.952 65.2146 18.24C65.7053 18.528 66.068 18.96 66.3026 19.536C66.548 20.1013 66.6706 20.8107 66.6706 21.664V26H65.5186ZM63.0866 26.192C62.1373 26.192 61.396 25.9787 60.8626 25.552C60.34 25.1147 60.0786 24.512 60.0786 23.744C60.0786 22.9333 60.3453 22.3147 60.8786 21.888C61.4226 21.4507 62.18 21.232 63.1506 21.232H65.9666V22.304H63.4386C62.692 22.304 62.1586 22.4267 61.8386 22.672C61.5293 22.9173 61.3746 23.2693 61.3746 23.728C61.3746 24.144 61.5293 24.4747 61.8386 24.72C62.148 24.9547 62.58 25.072 63.1346 25.072C63.604 25.072 64.0093 24.9653 64.3506 24.752C64.692 24.5387 64.9533 24.2507 65.1346 23.888C65.316 23.5147 65.4066 23.0933 65.4066 22.624H66.1906C66.1906 23.712 65.924 24.5813 65.3906 25.232C64.8573 25.872 64.0893 26.192 63.0866 26.192ZM71.8661 26.192C71.0875 26.192 70.4848 25.9893 70.0581 25.584C69.6315 25.1787 69.4181 24.608 69.4181 23.872V15.504H70.6981V23.744C70.6981 24.1493 70.8048 24.464 71.0181 24.688C71.2421 24.9013 71.5515 25.008 71.9461 25.008C72.0741 25.008 72.1968 24.992 72.3141 24.96C72.4421 24.9173 72.6075 24.8213 72.8101 24.672L73.3061 25.712C73.0288 25.8933 72.7781 26.016 72.5541 26.08C72.3301 26.1547 72.1008 26.192 71.8661 26.192ZM68.0261 19.136V18H73.0981V19.136H68.0261ZM78.3904 26.192C77.6117 26.192 76.9237 26.016 76.3264 25.664C75.7397 25.3013 75.2757 24.8053 74.9344 24.176C74.593 23.5467 74.4224 22.8213 74.4224 22C74.4224 21.1787 74.5877 20.4533 74.9184 19.824C75.2597 19.1947 75.729 18.704 76.3264 18.352C76.9237 17.9893 77.601 17.808 78.3584 17.808C79.105 17.808 79.7504 17.9947 80.2944 18.368C80.8384 18.7307 81.2597 19.2427 81.5584 19.904C81.857 20.5653 82.0064 21.344 82.0064 22.24H80.7264C80.7264 21.5573 80.6357 20.976 80.4544 20.496C80.273 20.0053 80.0064 19.6267 79.6544 19.36C79.3024 19.0933 78.865 18.96 78.3424 18.96C77.8197 18.96 77.361 19.088 76.9664 19.344C76.5824 19.5893 76.2837 19.9413 76.0704 20.4C75.857 20.8587 75.7504 21.3973 75.7504 22.016C75.7504 22.624 75.8677 23.152 76.1024 23.6C76.337 24.0373 76.657 24.384 77.0624 24.64C77.4677 24.8853 77.9317 25.008 78.4544 25.008C79.0197 25.008 79.4944 24.8747 79.8784 24.608C80.2624 24.3413 80.561 23.9947 80.7744 23.568L81.9104 24.128C81.697 24.544 81.4197 24.9067 81.0784 25.216C80.7477 25.5253 80.3584 25.7653 79.9104 25.936C79.4624 26.1067 78.9557 26.192 78.3904 26.192ZM75.2864 22.24V21.136H81.2224V22.24H75.2864ZM86.8669 29.392C86.3549 29.392 85.8855 29.3387 85.4589 29.232C85.0429 29.136 84.6855 29.024 84.3869 28.896C84.0989 28.7787 83.8909 28.6773 83.7629 28.592L84.2429 27.552C84.3815 27.6267 84.5789 27.7173 84.8349 27.824C85.0909 27.9413 85.3895 28.0373 85.7309 28.112C86.0829 28.1973 86.4562 28.24 86.8509 28.24C87.3629 28.24 87.8215 28.1333 88.2269 27.92C88.6429 27.7173 88.9629 27.392 89.1869 26.944C89.4215 26.5067 89.5389 25.9413 89.5389 25.248V18H90.8189V25.232C90.8189 26.1493 90.6482 26.9173 90.3069 27.536C89.9655 28.1547 89.4962 28.6187 88.8989 28.928C88.3015 29.2373 87.6242 29.392 86.8669 29.392ZM86.8189 25.936C86.1042 25.936 85.4749 25.7653 84.9309 25.424C84.3869 25.0827 83.9602 24.608 83.6509 24C83.3522 23.3813 83.2029 22.6773 83.2029 21.888C83.2029 21.0773 83.3522 20.368 83.6509 19.76C83.9602 19.1413 84.3869 18.6613 84.9309 18.32C85.4749 17.9787 86.1042 17.808 86.8189 17.808C87.4909 17.808 88.0775 17.9787 88.5789 18.32C89.0802 18.6613 89.4695 19.1413 89.7469 19.76C90.0349 20.368 90.1789 21.0773 90.1789 21.888C90.1789 22.688 90.0349 23.392 89.7469 24C89.4695 24.608 89.0802 25.0827 88.5789 25.424C88.0775 25.7653 87.4909 25.936 86.8189 25.936ZM87.1229 24.832C87.5922 24.832 88.0082 24.704 88.3709 24.448C88.7335 24.192 89.0162 23.8453 89.2189 23.408C89.4215 22.96 89.5229 22.4427 89.5229 21.856C89.5229 21.2907 89.4162 20.7893 89.2029 20.352C89.0002 19.904 88.7175 19.5573 88.3549 19.312C88.0029 19.056 87.5869 18.928 87.1069 18.928C86.6055 18.928 86.1575 19.056 85.7629 19.312C85.3789 19.5573 85.0749 19.904 84.8509 20.352C84.6375 20.7893 84.5309 21.2907 84.5309 21.856C84.5309 22.4427 84.6429 22.96 84.8669 23.408C85.0909 23.8453 85.3949 24.192 85.7789 24.448C86.1735 24.704 86.6215 24.832 87.1229 24.832ZM93.5744 29.392C93.3717 29.392 93.137 29.3493 92.8704 29.264C92.6037 29.1893 92.321 29.088 92.0224 28.96L92.5024 27.888C92.7477 27.9947 92.961 28.0747 93.1424 28.128C93.3344 28.1813 93.4837 28.208 93.5904 28.208C93.8784 28.208 94.113 28.128 94.2944 27.968C94.4864 27.8187 94.6464 27.6 94.7744 27.312L95.6864 25.136L98.6464 18H100.022L96.1824 27.12C95.9797 27.5893 95.7664 27.9947 95.5424 28.336C95.329 28.6773 95.0677 28.9387 94.7584 29.12C94.449 29.3013 94.0544 29.392 93.5744 29.392ZM95.3344 26L91.8784 18H93.2384L96.2144 25.12L96.5984 26H95.3344ZM110.877 22.816L105.821 15.344L106.365 15.056L107.005 14.8L111.533 21.504L110.877 22.816ZM105.597 26V14.8H106.957V26H105.597ZM110.877 22.816L110.221 21.504L114.749 14.8L115.389 15.056L115.917 15.328L110.877 22.816ZM114.797 26V14.8H116.141V26H114.797ZM123.769 26L123.641 21.776C123.619 21.1467 123.539 20.6293 123.401 20.224C123.262 19.808 123.049 19.4987 122.761 19.296C122.473 19.0827 122.089 18.976 121.609 18.976C121.15 18.976 120.75 19.0667 120.409 19.248C120.078 19.4293 119.806 19.712 119.593 20.096L118.457 19.632C118.659 19.2587 118.91 18.9387 119.209 18.672C119.507 18.3947 119.859 18.1813 120.265 18.032C120.67 17.8827 121.123 17.808 121.625 17.808C122.361 17.808 122.974 17.952 123.465 18.24C123.955 18.528 124.318 18.96 124.553 19.536C124.798 20.1013 124.921 20.8107 124.921 21.664V26H123.769ZM121.337 26.192C120.387 26.192 119.646 25.9787 119.113 25.552C118.59 25.1147 118.329 24.512 118.329 23.744C118.329 22.9333 118.595 22.3147 119.129 21.888C119.673 21.4507 120.43 21.232 121.401 21.232H124.217V22.304H121.689C120.942 22.304 120.409 22.4267 120.089 22.672C119.779 22.9173 119.625 23.2693 119.625 23.728C119.625 24.144 119.779 24.4747 120.089 24.72C120.398 24.9547 120.83 25.072 121.385 25.072C121.854 25.072 122.259 24.9653 122.601 24.752C122.942 24.5387 123.203 24.2507 123.385 23.888C123.566 23.5147 123.657 23.0933 123.657 22.624H124.441C124.441 23.712 124.174 24.5813 123.641 25.232C123.107 25.872 122.339 26.192 121.337 26.192ZM127.028 29.2V18H128.228L128.308 19.472V29.2H127.028ZM131.012 26.192C130.34 26.192 129.748 26.016 129.236 25.664C128.735 25.312 128.345 24.8213 128.068 24.192C127.791 23.552 127.652 22.8213 127.652 22C127.652 21.168 127.791 20.4373 128.068 19.808C128.345 19.1787 128.735 18.688 129.236 18.336C129.748 17.984 130.34 17.808 131.012 17.808C131.727 17.808 132.356 17.984 132.9 18.336C133.444 18.688 133.865 19.1787 134.164 19.808C134.473 20.4373 134.628 21.168 134.628 22C134.628 22.8213 134.473 23.552 134.164 24.192C133.865 24.8213 133.444 25.312 132.9 25.664C132.356 26.016 131.727 26.192 131.012 26.192ZM130.724 25.024C131.225 25.024 131.668 24.896 132.052 24.64C132.447 24.384 132.756 24.0267 132.98 23.568C133.215 23.1093 133.332 22.5867 133.332 22C133.332 21.4133 133.22 20.8907 132.996 20.432C132.783 19.9733 132.479 19.616 132.084 19.36C131.689 19.104 131.241 18.976 130.74 18.976C130.271 18.976 129.849 19.104 129.476 19.36C129.113 19.616 128.825 19.9733 128.612 20.432C128.409 20.8907 128.308 21.4133 128.308 22C128.308 22.5867 128.409 23.1093 128.612 23.568C128.825 24.0267 129.113 24.384 129.476 24.64C129.839 24.896 130.255 25.024 130.724 25.024Z" fill="#495057"/>
</g>
<g clip-path="url(#clip3_407_17980)">
<rect width="12" height="12" transform="translate(140 14)" fill="white" fill-opacity="0.01"/>
<path fill-rule="evenodd" clip-rule="evenodd" d="M141.236 17.4842C141.271 17.4493 141.312 17.4216 141.358 17.4027C141.403 17.3838 141.452 17.374 141.502 17.374C141.551 17.374 141.6 17.3838 141.645 17.4027C141.691 17.4216 141.732 17.4493 141.767 17.4842L146.002 21.7194L150.236 17.4842C150.271 17.4493 150.312 17.4217 150.358 17.4028C150.404 17.3839 150.452 17.3742 150.502 17.3742C150.551 17.3742 150.6 17.3839 150.645 17.4028C150.691 17.4217 150.732 17.4493 150.767 17.4842C150.802 17.5191 150.83 17.5605 150.849 17.606C150.867 17.6516 150.877 17.7004 150.877 17.7497C150.877 17.799 150.867 17.8478 150.849 17.8934C150.83 17.9389 150.802 17.9803 150.767 18.0152L146.267 22.5152C146.232 22.5501 146.191 22.5778 146.145 22.5967C146.1 22.6156 146.051 22.6254 146.002 22.6254C145.952 22.6254 145.903 22.6156 145.858 22.5967C145.812 22.5778 145.771 22.5501 145.736 22.5152L141.236 18.0152C141.201 17.9804 141.174 17.939 141.155 17.8934C141.136 17.8479 141.126 17.799 141.126 17.7497C141.126 17.7004 141.136 17.6515 141.155 17.606C141.174 17.5604 141.201 17.519 141.236 17.4842Z" fill="#495057"/>
</g>
<defs>
<clipPath id="clip0_407_17980">
<rect width="14" height="14" fill="white" transform="translate(16 13)"/>
</clipPath>
<clipPath id="clip1_407_17980">
<rect width="14" height="14" fill="white" transform="translate(16 13)"/>
</clipPath>
<clipPath id="clip2_407_17980">
<rect width="98" height="24" fill="white" transform="translate(38 8)"/>
</clipPath>
<clipPath id="clip3_407_17980">
<rect width="12" height="12" fill="white" transform="translate(140 14)"/>
</clipPath>
</defs>
</svg>
