<svg width="16" height="16" viewBox="0 0 16 16" fill="none" xmlns="http://www.w3.org/2000/svg">
<g id="wrapper">
<path id="Union" fill-rule="evenodd" clip-rule="evenodd" d="M15.002 2.00098C15.002 1.73576 14.8966 1.48141 14.7091 1.29387C14.5215 1.10633 14.2672 1.00098 14.002 1.00098H2.00195C1.73674 1.00098 1.48238 1.10633 1.29485 1.29387C1.10731 1.48141 1.00195 1.73576 1.00195 2.00098V14.001C1.00195 14.2662 1.10731 14.5205 1.29485 14.7081C1.48238 14.8956 1.73674 15.001 2.00195 15.001H14.002C14.2672 15.001 14.5215 14.8956 14.7091 14.7081C14.8966 14.5205 15.002 14.2662 15.002 14.001V2.00098ZM0.00195312 2.00098C0.00195313 1.47054 0.212667 0.961836 0.58774 0.586763C0.962812 0.21169 1.47152 0.000976563 2.00195 0.000976562H14.002C14.5324 0.000976563 15.0411 0.21169 15.4162 0.586763C15.7912 0.961836 16.002 1.47054 16.002 2.00098V14.001C16.002 14.5314 15.7912 15.0401 15.4162 15.4152C15.0411 15.7903 14.5324 16.001 14.002 16.001H2.00195C1.47152 16.001 0.962812 15.7903 0.58774 15.4152C0.212667 15.0401 0.00195313 14.5314 0.00195312 14.001V2.00098ZM4.50195 7.50098C4.36934 7.50098 4.24217 7.55366 4.1484 7.64742C4.05463 7.74119 4.00195 7.86837 4.00195 8.00098C4.00195 8.13358 4.05463 8.26076 4.1484 8.35453C4.24217 8.4483 4.36934 8.50098 4.50195 8.50098H10.295L8.14795 10.647C8.10147 10.6935 8.06459 10.7487 8.03943 10.8094C8.01427 10.8701 8.00132 10.9352 8.00132 11.001C8.00132 11.0667 8.01427 11.1318 8.03943 11.1926C8.06459 11.2533 8.10147 11.3085 8.14795 11.355C8.19444 11.4015 8.24963 11.4383 8.31037 11.4635C8.37111 11.4887 8.43621 11.5016 8.50195 11.5016C8.5677 11.5016 8.6328 11.4887 8.69354 11.4635C8.75428 11.4383 8.80947 11.4015 8.85595 11.355L11.856 8.35498C11.9025 8.30853 11.9395 8.25336 11.9647 8.19261C11.9899 8.13186 12.0028 8.06674 12.0028 8.00098C12.0028 7.93521 11.9899 7.87009 11.9647 7.80934C11.9395 7.7486 11.9025 7.69342 11.856 7.64698L8.85595 4.64698C8.80947 4.60049 8.75428 4.56361 8.69354 4.53845C8.6328 4.51329 8.5677 4.50034 8.50195 4.50034C8.43621 4.50034 8.37111 4.51329 8.31037 4.53845C8.24963 4.56361 8.19444 4.60049 8.14795 4.64698C8.10147 4.69346 8.06459 4.74865 8.03943 4.80939C8.01427 4.87013 8.00132 4.93523 8.00132 5.00098C8.00132 5.06672 8.01427 5.13182 8.03943 5.19256C8.06459 5.2533 8.10147 5.30849 8.14795 5.35498L10.295 7.50098H4.50195Z" fill="#495057"/>
</g>
</svg>
