<svg width="16" height="16" viewBox="0 0 16 16" fill="none" xmlns="http://www.w3.org/2000/svg">
<g id="icon-wrapper">
<g id="Union">
<path d="M7.76438 1.55769C7.83672 1.51917 7.91742 1.49902 7.99938 1.49902C8.08133 1.49902 8.16203 1.51917 8.23438 1.55769L15.7344 5.55769C15.8142 5.60037 15.881 5.66393 15.9276 5.7416C15.9742 5.81927 15.9988 5.90813 15.9988 5.99869C15.9988 6.08925 15.9742 6.17811 15.9276 6.25578C15.881 6.33345 15.8142 6.39701 15.7344 6.43969L8.23438 10.4397C8.16203 10.4782 8.08133 10.4984 7.99938 10.4984C7.91742 10.4984 7.83672 10.4782 7.76438 10.4397L0.264375 6.43969C0.184503 6.39701 0.11772 6.33345 0.0711572 6.25578C0.0245944 6.17811 0 6.08925 0 5.99869C0 5.90813 0.0245944 5.81927 0.0711572 5.7416C0.11772 5.66393 0.184503 5.60037 0.264375 5.55769L7.76438 1.55769Z" fill="#6C757D"/>
<path d="M2.12438 8.56569L0.264375 9.55769C0.184503 9.60037 0.11772 9.66393 0.0711572 9.7416C0.0245944 9.81927 0 9.90813 0 9.99869C0 10.0892 0.0245944 10.1781 0.0711572 10.2558C0.11772 10.3334 0.184503 10.397 0.264375 10.4397L7.76438 14.4397C7.83672 14.4782 7.91742 14.4984 7.99938 14.4984C8.08133 14.4984 8.16203 14.4782 8.23438 14.4397L15.7344 10.4397C15.8142 10.397 15.881 10.3334 15.9276 10.2558C15.9742 10.1781 15.9988 10.0892 15.9988 9.99869C15.9988 9.90813 15.9742 9.81927 15.9276 9.7416C15.881 9.66393 15.8142 9.60037 15.7344 9.55769L13.8744 8.56569L8.70438 11.3217C8.48735 11.4373 8.24525 11.4977 7.99938 11.4977C7.7535 11.4977 7.5114 11.4373 7.29438 11.3217L2.12438 8.56569Z" fill="#6C757D"/>
</g>
</g>
</svg>
