<svg width="16" height="16" viewBox="0 0 16 16" fill="none" xmlns="http://www.w3.org/2000/svg">
<path fill-rule="evenodd" clip-rule="evenodd" d="M3.42503 4.68258C3.42503 2.11552 5.4559 0.00109863 8.00195 0.00109863C10.2315 0.00109863 12.068 1.62497 12.4881 3.7505C12.5452 4.03957 12.3549 4.31977 12.0631 4.37635C11.7712 4.43293 11.4883 4.24447 11.4312 3.9554C11.1029 2.2941 9.67996 1.06777 8.00195 1.06777C6.08725 1.06777 4.50195 2.66773 4.50195 4.68258V6.64258C4.76907 6.63813 5.06496 6.63813 5.39326 6.63814H10.6107C11.2687 6.63813 11.7966 6.63813 12.2235 6.67395C12.6624 6.71079 13.0426 6.78832 13.392 6.97119C13.9508 7.26361 14.4014 7.72823 14.6827 8.29524C14.8574 8.64742 14.9318 9.03059 14.9673 9.47711C15.002 9.91314 15.002 10.4533 15.002 11.1313V11.508C15.002 12.1859 15.002 12.7261 14.9673 13.1621C14.9318 13.6086 14.8574 13.9918 14.6827 14.344C14.4014 14.911 13.9508 15.3756 13.392 15.668C13.0426 15.8509 12.6624 15.9284 12.2235 15.9653C11.7966 16.0011 11.2687 16.0011 10.6107 16.0011H5.39326C4.73516 16.0011 4.20727 16.0011 3.78041 15.9653C3.34146 15.9284 2.9613 15.8509 2.61188 15.668C2.05315 15.3756 1.6025 14.911 1.32124 14.344C1.14654 13.9918 1.07215 13.6086 1.03663 13.1621C1.00195 12.7261 1.00195 12.1859 1.00195 11.508V11.1312C1.00195 10.4533 1.00195 9.91314 1.03663 9.47711C1.07215 9.03059 1.14654 8.64742 1.32124 8.29524C1.6025 7.72823 2.05315 7.26361 2.61188 6.97119C2.86349 6.8395 3.13106 6.76244 3.42503 6.71586V4.68258ZM3.87133 7.73681C3.50216 7.76779 3.2839 7.8259 3.115 7.91429C2.76186 8.09911 2.47114 8.39599 2.28779 8.76561C2.19839 8.94584 2.14073 9.17735 2.11023 9.56088C2.07927 9.9501 2.07888 10.4482 2.07888 11.1537V11.4855C2.07888 12.191 2.07927 12.6891 2.11023 13.0784C2.14073 13.4619 2.19839 13.6934 2.28779 13.8736C2.47114 14.2432 2.76186 14.5401 3.115 14.7249C3.2839 14.8133 3.50216 14.8714 3.87133 14.9024C4.24738 14.934 4.7296 14.9344 5.41734 14.9344H10.5866C11.2743 14.9344 11.7565 14.934 12.1326 14.9024C12.5017 14.8714 12.72 14.8133 12.8889 14.7249C13.242 14.5401 13.5328 14.2432 13.7161 13.8736C13.8055 13.6934 13.8632 13.4619 13.8937 13.0784C13.9246 12.6891 13.925 12.191 13.925 11.4855V11.1537C13.925 10.4482 13.9246 9.9501 13.8937 9.56088C13.8632 9.17735 13.8055 8.94584 13.7161 8.76561C13.5328 8.39599 13.242 8.09911 12.8889 7.91429C12.72 7.8259 12.5017 7.76779 12.1326 7.73681C11.7565 7.70525 11.2743 7.7048 10.5866 7.7048H5.41734C4.7296 7.7048 4.24738 7.70525 3.87133 7.73681Z" fill="#495057"/>
</svg>
