<svg width="16" height="16" viewBox="0 0 16 16" fill="none" xmlns="http://www.w3.org/2000/svg">
<g clip-path="url(#clip0_1275_27513)">
<path d="M13 -0.000854492H6C5.46957 -0.000854492 4.96086 0.209859 4.58579 0.584932C4.21071 0.960005 4 1.46871 4 1.99915C3.46957 1.99915 2.96086 2.20986 2.58579 2.58493C2.21071 2.96 2 3.46871 2 3.99915V13.9991C2 14.5296 2.21071 15.0383 2.58579 15.4134C2.96086 15.7884 3.46957 15.9991 4 15.9991H11C11.5304 15.9991 12.0391 15.7884 12.4142 15.4134C12.7893 15.0383 13 14.5296 13 13.9991C13.5304 13.9991 14.0391 13.7884 14.4142 13.4134C14.7893 13.0383 15 12.5296 15 11.9991V1.99915C15 1.46871 14.7893 0.960005 14.4142 0.584932C14.0391 0.209859 13.5304 -0.000854492 13 -0.000854492ZM13 12.9991V3.99915C13 3.46871 12.7893 2.96 12.4142 2.58493C12.0391 2.20986 11.5304 1.99915 11 1.99915H5C5 1.73393 5.10536 1.47958 5.29289 1.29204C5.48043 1.1045 5.73478 0.999146 6 0.999146H13C13.2652 0.999146 13.5196 1.1045 13.7071 1.29204C13.8946 1.47958 14 1.73393 14 1.99915V11.9991C14 12.2644 13.8946 12.5187 13.7071 12.7063C13.5196 12.8938 13.2652 12.9991 13 12.9991ZM3 3.99915C3 3.73393 3.10536 3.47958 3.29289 3.29204C3.48043 3.1045 3.73478 2.99915 4 2.99915H11C11.2652 2.99915 11.5196 3.1045 11.7071 3.29204C11.8946 3.47958 12 3.73393 12 3.99915V13.9991C12 14.2644 11.8946 14.5187 11.7071 14.7063C11.5196 14.8938 11.2652 14.9991 11 14.9991H4C3.73478 14.9991 3.48043 14.8938 3.29289 14.7063C3.10536 14.5187 3 14.2644 3 13.9991V3.99915Z" fill="white"/>
</g>
<defs>
<clipPath id="clip0_1275_27513">
<rect width="16" height="16" fill="white"/>
</clipPath>
</defs>
</svg>
