<svg width="16" height="16" viewBox="0 0 16 16" fill="none" xmlns="http://www.w3.org/2000/svg">
<g clip-path="url(#clip0_1275_27498)">
<path fill-rule="evenodd" clip-rule="evenodd" d="M15 1.99915C15 1.73393 14.8946 1.47958 14.7071 1.29204C14.5196 1.1045 14.2652 0.999146 14 0.999146H2C1.73478 0.999146 1.48043 1.1045 1.29289 1.29204C1.10536 1.47958 1 1.73393 1 1.99915V13.9991C1 14.2644 1.10536 14.5187 1.29289 14.7063C1.48043 14.8938 1.73478 14.9991 2 14.9991H14C14.2652 14.9991 14.5196 14.8938 14.7071 14.7063C14.8946 14.5187 15 14.2644 15 13.9991V1.99915ZM0 1.99915C0 1.46871 0.210714 0.960005 0.585786 0.584932C0.960859 0.209859 1.46957 -0.000854492 2 -0.000854492H14C14.5304 -0.000854492 15.0391 0.209859 15.4142 0.584932C15.7893 0.960005 16 1.46871 16 1.99915V13.9991C16 14.5296 15.7893 15.0383 15.4142 15.4134C15.0391 15.7884 14.5304 15.9991 14 15.9991H2C1.46957 15.9991 0.960859 15.7884 0.585786 15.4134C0.210714 15.0383 0 14.5296 0 13.9991V1.99915ZM4.5 7.49915C4.36739 7.49915 4.24021 7.55182 4.14645 7.64559C4.05268 7.73936 4 7.86654 4 7.99915C4 8.13175 4.05268 8.25893 4.14645 8.3527C4.24021 8.44647 4.36739 8.49915 4.5 8.49915H10.293L8.146 10.6451C8.09951 10.6916 8.06264 10.7468 8.03748 10.8076C8.01232 10.8683 7.99937 10.9334 7.99937 10.9991C7.99937 11.0649 8.01232 11.13 8.03748 11.1907C8.06264 11.2515 8.09951 11.3067 8.146 11.3531C8.19249 11.3996 8.24768 11.4365 8.30842 11.4617C8.36916 11.4868 8.43426 11.4998 8.5 11.4998C8.56574 11.4998 8.63084 11.4868 8.69158 11.4617C8.75232 11.4365 8.80751 11.3996 8.854 11.3531L11.854 8.35315C11.9006 8.3067 11.9375 8.25152 11.9627 8.19078C11.9879 8.13003 12.0009 8.06491 12.0009 7.99915C12.0009 7.93338 11.9879 7.86826 11.9627 7.80751C11.9375 7.74677 11.9006 7.69159 11.854 7.64515L8.854 4.64515C8.80751 4.59866 8.75232 4.56178 8.69158 4.53662C8.63084 4.51146 8.56574 4.49851 8.5 4.49851C8.43426 4.49851 8.36916 4.51146 8.30842 4.53662C8.24768 4.56178 8.19249 4.59866 8.146 4.64515C8.09951 4.69163 8.06264 4.74682 8.03748 4.80756C8.01232 4.8683 7.99937 4.9334 7.99937 4.99915C7.99937 5.06489 8.01232 5.12999 8.03748 5.19073C8.06264 5.25147 8.09951 5.30666 8.146 5.35315L10.293 7.49915H4.5Z" fill="white"/>
</g>
<defs>
<clipPath id="clip0_1275_27498">
<rect width="16" height="16" fill="white"/>
</clipPath>
</defs>
</svg>
