<svg width="16" height="16" viewBox="0 0 16 16" fill="none" xmlns="http://www.w3.org/2000/svg">
<path fill-rule="evenodd" clip-rule="evenodd" d="M3.42503 4.68258C3.42503 2.11552 5.4559 0.00109863 8.00195 0.00109863C10.548 0.00109863 12.5789 2.11552 12.5789 4.68258V5.88623C12.8728 5.93281 13.1404 6.00987 13.392 6.14156C13.9508 6.43398 14.4014 6.8986 14.6827 7.46561C14.8574 7.81779 14.9318 8.20096 14.9673 8.64748C15.002 9.08352 15.002 9.6237 15.002 10.3016V11.508C15.002 12.1859 15.002 12.7261 14.9673 13.1621C14.9318 13.6086 14.8574 13.9918 14.6827 14.344C14.4014 14.911 13.9508 15.3756 13.392 15.668C13.0426 15.8509 12.6624 15.9284 12.2235 15.9653C11.7966 16.0011 11.2687 16.0011 10.6107 16.0011H5.39326C4.73516 16.0011 4.20727 16.0011 3.78041 15.9653C3.34146 15.9284 2.9613 15.8509 2.61188 15.668C2.05315 15.3756 1.6025 14.911 1.32124 14.344C1.14654 13.9918 1.07215 13.6086 1.03663 13.1621C1.00195 12.7261 1.00195 12.1859 1.00195 11.508V10.3016C1.00195 9.62369 1.00195 9.08351 1.03663 8.64748C1.07215 8.20096 1.14654 7.81779 1.32124 7.46561C1.6025 6.8986 2.05315 6.43398 2.61188 6.14156C2.86349 6.00987 3.13106 5.93281 3.42503 5.88623V4.68258ZM4.50195 5.81295C4.76906 5.8085 5.06495 5.8085 5.39323 5.80851H10.6107C10.939 5.8085 11.2348 5.8085 11.502 5.81295V4.68258C11.502 2.66773 9.91666 1.06777 8.00195 1.06777C6.08725 1.06777 4.50195 2.66773 4.50195 4.68258V5.81295ZM3.87133 6.90718C3.50216 6.93816 3.2839 6.99627 3.115 7.08466C2.76186 7.26948 2.47114 7.56636 2.28779 7.93598C2.19839 8.11621 2.14073 8.34772 2.11023 8.73125C2.07927 9.12047 2.07888 9.61862 2.07888 10.3241V11.4855C2.07888 12.191 2.07927 12.6891 2.11023 13.0784C2.14073 13.4619 2.19839 13.6934 2.28779 13.8736C2.47114 14.2432 2.76186 14.5401 3.115 14.7249C3.2839 14.8133 3.50216 14.8714 3.87133 14.9024C4.24738 14.934 4.7296 14.9344 5.41734 14.9344H10.5866C11.2743 14.9344 11.7565 14.934 12.1326 14.9024C12.5017 14.8714 12.72 14.8133 12.8889 14.7249C13.242 14.5401 13.5328 14.2432 13.7161 13.8736C13.8055 13.6934 13.8632 13.4619 13.8937 13.0784C13.9246 12.6891 13.925 12.191 13.925 11.4855V10.3241C13.925 9.61862 13.9246 9.12047 13.8937 8.73125C13.8632 8.34772 13.8055 8.11621 13.7161 7.93598C13.5328 7.56636 13.242 7.26948 12.8889 7.08466C12.72 6.99627 12.5017 6.93816 12.1326 6.90718C11.7565 6.87562 11.2743 6.87517 10.5866 6.87517H5.41734C4.7296 6.87517 4.24738 6.87562 3.87133 6.90718ZM8.00195 9.54184C8.29934 9.54184 8.54042 9.78062 8.54042 10.0752V11.7344C8.54042 12.029 8.29934 12.2678 8.00195 12.2678C7.70457 12.2678 7.46349 12.029 7.46349 11.7344V10.0752C7.46349 9.78062 7.70457 9.54184 8.00195 9.54184Z" fill="#495057"/>
</svg>
