<svg width="48" height="48" viewBox="0 0 48 48" fill="none" xmlns="http://www.w3.org/2000/svg">
<rect width="48" height="48" rx="12" fill="url(#paint0_linear_1212_15525)"/>
<path d="M26.1385 17.94C22.9868 17.2793 20.5234 14.8159 19.8627 11.6641C19.7816 11.2772 19.4403 11 19.0449 11C18.6495 11 18.3082 11.2772 18.2271 11.6641C17.5665 14.8159 15.103 17.2793 11.9513 17.9399C11.5643 18.021 11.2871 18.3623 11.2871 18.7576C11.2871 19.153 11.5643 19.4943 11.9513 19.5754C15.103 20.2361 17.5663 22.6995 18.227 25.8513C18.3081 26.2383 18.6493 26.5155 19.0448 26.5155C19.4401 26.5155 19.7814 26.2383 19.8625 25.8513C20.5233 22.6996 22.9868 20.2362 26.1385 19.5756C26.5254 19.4945 26.8027 19.1533 26.8027 18.7579C26.8026 18.3624 26.5254 18.0211 26.1385 17.94ZM19.0448 23.1536C18.097 21.2512 16.5514 19.7055 14.649 18.7577C16.5514 17.8099 18.0971 16.2643 19.0449 14.3618C19.9927 16.2643 21.5383 17.81 23.4407 18.7578C21.5383 19.7056 19.9926 21.2512 19.0448 23.1536Z" fill="white"/>
<g opacity="0.6">
<path d="M24.7566 31.7434C23.2717 31.4321 22.111 30.2715 21.7997 28.7864C21.7186 28.3995 21.3773 28.1223 20.9819 28.1223C20.5865 28.1223 20.2452 28.3994 20.1641 28.7864C19.8528 30.2714 18.6921 31.432 17.2071 31.7433C16.8202 31.8244 16.543 32.1657 16.543 32.5611C16.543 32.9565 16.8201 33.2978 17.2071 33.3789C18.692 33.6902 19.8527 34.8509 20.164 36.3359C20.2451 36.7228 20.5864 37 20.9818 37C21.3772 37 21.7185 36.7229 21.7996 36.3359C22.1109 34.8509 23.2716 33.6902 24.7566 33.3789C25.1436 33.2978 25.4208 32.9565 25.4208 32.5611C25.4208 32.1658 25.1436 31.8245 24.7566 31.7434ZM20.9819 34.0549C20.5854 33.4655 20.0775 32.9577 19.4882 32.5612C20.0776 32.1646 20.5854 31.6569 20.9819 31.0676C21.3784 31.657 21.8862 32.1647 22.4755 32.5612C21.8862 32.9577 21.3784 33.4655 20.9819 34.0549Z" fill="white"/>
</g>
<g opacity="0.85">
<path d="M36.0471 24.0068C34.0399 23.586 32.4711 22.0172 32.0504 20.0101C31.9693 19.6231 31.628 19.3459 31.2326 19.3459C30.8372 19.3459 30.4959 19.623 30.4148 20.01C29.994 22.0172 28.4253 23.586 26.4181 24.0067C26.0311 24.0878 25.7539 24.4291 25.7539 24.8245C25.7539 25.2199 26.0311 25.5611 26.4181 25.6423C28.4252 26.063 29.994 27.6318 30.4147 29.639C30.4958 30.0259 30.8371 30.3032 31.2325 30.3032C31.6279 30.3032 31.9692 30.026 32.0503 29.639C32.4711 27.6318 34.0399 26.063 36.047 25.6424C36.434 25.5612 36.7112 25.22 36.7112 24.8246C36.7112 24.4292 36.434 24.0879 36.0471 24.0068ZM31.2326 27.1995C30.6508 26.2235 29.8336 25.4062 28.8577 24.8245C29.8336 24.2428 30.6508 23.4257 31.2326 22.4496C31.8143 23.4257 32.6315 24.2429 33.6075 24.8246C32.6316 25.4063 31.8143 26.2235 31.2326 27.1995Z" fill="white"/>
</g>
<defs>
<linearGradient id="paint0_linear_1212_15525" x1="1.44045e-07" y1="2" x2="48" y2="48" gradientUnits="userSpaceOnUse">
<stop stop-color="#FFA7E6"/>
<stop offset="1" stop-color="#86B3FF"/>
</linearGradient>
</defs>
</svg>
