<svg width="48" height="48" viewBox="0 0 48 48" fill="none" xmlns="http://www.w3.org/2000/svg">
<rect width="48" height="48" rx="12" fill="url(#paint0_linear_1212_25524)"/>
<path d="M16.7676 29.5416C16.2892 29.5416 15.8926 29.145 15.8926 28.6666V19.3333C15.8926 18.855 16.2892 18.4583 16.7676 18.4583C17.2459 18.4583 17.6426 18.855 17.6426 19.3333C17.6426 21.8883 18.8792 23.125 21.4342 23.125H29.6009C30.0792 23.125 30.4759 23.5216 30.4759 24C30.4759 24.4783 30.0792 24.875 29.6009 24.875H21.4342C19.8476 24.875 18.5759 24.4666 17.6426 23.6966V28.6666C17.6426 29.145 17.2459 29.5416 16.7676 29.5416Z" fill="white"/>
<path d="M16.7676 20.2083C14.3526 20.2083 12.3926 18.2483 12.3926 15.8333C12.3926 13.4183 14.3526 11.4583 16.7676 11.4583C19.1826 11.4583 21.1426 13.4183 21.1426 15.8333C21.1426 18.2483 19.1826 20.2083 16.7676 20.2083ZM16.7676 13.2083C15.3209 13.2083 14.1426 14.3866 14.1426 15.8333C14.1426 17.28 15.3209 18.4583 16.7676 18.4583C18.2142 18.4583 19.3926 17.28 19.3926 15.8333C19.3926 14.3866 18.2142 13.2083 16.7676 13.2083Z" fill="white"/>
<path d="M33.1016 28.375C30.6866 28.375 28.7266 26.415 28.7266 24C28.7266 21.585 30.6866 19.625 33.1016 19.625C35.5166 19.625 37.4766 21.585 37.4766 24C37.4766 26.415 35.5166 28.375 33.1016 28.375ZM33.1016 21.375C31.6549 21.375 30.4766 22.5533 30.4766 24C30.4766 25.4467 31.6549 26.625 33.1016 26.625C34.5482 26.625 35.7266 25.4467 35.7266 24C35.7266 22.5533 34.5482 21.375 33.1016 21.375Z" fill="white"/>
<path d="M16.7676 36.5416C14.3526 36.5416 12.3926 34.5816 12.3926 32.1666C12.3926 29.7516 14.3526 27.7916 16.7676 27.7916C19.1826 27.7916 21.1426 29.7516 21.1426 32.1666C21.1426 34.5816 19.1826 36.5416 16.7676 36.5416ZM16.7676 29.5416C15.3209 29.5416 14.1426 30.72 14.1426 32.1666C14.1426 33.6133 15.3209 34.7916 16.7676 34.7916C18.2142 34.7916 19.3926 33.6133 19.3926 32.1666C19.3926 30.72 18.2142 29.5416 16.7676 29.5416Z" fill="white"/>
<defs>
<linearGradient id="paint0_linear_1212_25524" x1="10.1284" y1="5.45474" x2="36.0978" y2="48.0003" gradientUnits="userSpaceOnUse">
<stop stop-color="#55A8FB"/>
<stop offset="1" stop-color="#BBFFAE"/>
</linearGradient>
</defs>
</svg>
