<svg width="16" height="16" viewBox="0 0 16 16" fill="none" xmlns="http://www.w3.org/2000/svg">
<path d="M0.541777 3.8711L0.501777 3.0011C0.501777 2.47067 0.712491 1.96196 1.08756 1.58689C1.46264 1.21181 1.97134 1.0011 2.50178 1.0011H6.17378C6.70417 1.00121 7.21279 1.212 7.58778 1.5871L8.41578 2.4151C8.79076 2.7902 9.29939 3.00099 9.82978 3.0011H13.8118C14.0897 3.00107 14.3646 3.05896 14.6189 3.17109C14.8732 3.28321 15.1013 3.44711 15.2887 3.65232C15.4762 3.85753 15.6188 4.09955 15.7074 4.36294C15.7961 4.62633 15.8289 4.90532 15.8038 5.1821L15.1668 12.1821C15.1216 12.679 14.8924 13.1411 14.524 13.4777C14.1556 13.8142 13.6747 14.0009 13.1758 14.0011H2.82778C2.32881 14.0009 1.84795 13.8142 1.47957 13.4777C1.1112 13.1411 0.881933 12.679 0.836777 12.1821L0.199777 5.1821C0.157163 4.71888 0.278171 4.25537 0.541777 3.8721V3.8711ZM2.19178 4.0011C2.05286 4.00109 1.91547 4.03002 1.78836 4.08606C1.66125 4.14209 1.5472 4.22399 1.4535 4.32654C1.35979 4.42909 1.28848 4.55004 1.24411 4.68167C1.19973 4.81331 1.18327 4.95275 1.19578 5.0911L1.83278 12.0911C1.85523 12.3396 1.96974 12.5707 2.15383 12.739C2.33793 12.9074 2.5783 13.0009 2.82778 13.0011H13.1758C13.4253 13.0009 13.6656 12.9074 13.8497 12.739C14.0338 12.5707 14.1483 12.3396 14.1708 12.0911L14.8078 5.0911C14.8203 4.95275 14.8038 4.81331 14.7594 4.68167C14.7151 4.55004 14.6438 4.42909 14.5501 4.32654C14.4564 4.22399 14.3423 4.14209 14.2152 4.08606C14.0881 4.03002 13.9507 4.00109 13.8118 4.0011H2.19178ZM6.88178 2.2941C6.78882 2.20111 6.67844 2.12737 6.55695 2.0771C6.43547 2.02682 6.30526 2.001 6.17378 2.0011H2.50178C2.23982 2.00105 1.9883 2.1038 1.8013 2.28724C1.6143 2.47069 1.50675 2.72019 1.50178 2.9821L1.50778 3.1211C1.72178 3.0431 1.95178 3.0011 2.19178 3.0011H7.58778L6.88078 2.2941H6.88178Z" fill="#495057"/>
</svg>
