<svg width="40" height="57" viewBox="0 0 40 57" fill="none" xmlns="http://www.w3.org/2000/svg">
<rect y="8" width="40" height="40.0002" rx="20" fill="#ADB5BD"/>
<g clip-path="url(#clip0_1187_34569)">
<rect width="20" height="20" transform="translate(10 18)" fill="white" fill-opacity="0.01"/>
<path d="M10.0029 28.001C10.0029 25.3488 11.0565 22.8053 12.9319 20.9299C14.8072 19.0545 17.3508 18.001 20.0029 18.001C22.6551 18.001 25.1986 19.0545 27.074 20.9299C28.9494 22.8053 30.0029 25.3488 30.0029 28.001C30.0029 30.6531 28.9494 33.1967 27.074 35.072C25.1986 36.9474 22.6551 38.001 20.0029 38.001C17.3508 38.001 14.8072 36.9474 12.9319 35.072C11.0565 33.1967 10.0029 30.6531 10.0029 28.001ZM19.3779 19.3472C18.5404 19.6022 17.7092 20.3722 17.0192 21.666C16.8404 22.001 16.6742 22.366 16.5254 22.756C17.4067 22.9522 18.3654 23.0772 19.3779 23.1147V19.3472ZM15.3142 22.4247C15.4917 21.9447 15.6942 21.4947 15.9154 21.0772C16.1316 20.6685 16.3812 20.2785 16.6617 19.911C15.5975 20.352 14.6307 20.9985 13.8167 21.8135C14.2692 22.0435 14.7704 22.2497 15.3142 22.426V22.4247ZM14.3892 27.376C14.4342 26.0385 14.6242 24.7672 14.9342 23.616C14.2576 23.3996 13.6026 23.1205 12.9779 22.7822C11.9824 24.1189 11.3915 25.7133 11.2754 27.376H14.3879H14.3892ZM16.1392 23.9497C15.8445 25.0694 15.6768 26.2188 15.6392 27.376H19.3779V24.3647C18.2404 24.3272 17.1492 24.1835 16.1392 23.9497ZM20.6279 24.3635V27.376H24.3654C24.3283 26.2188 24.161 25.0695 23.8667 23.9497C22.8567 24.1835 21.7654 24.326 20.6279 24.3647V24.3635ZM15.6404 28.626C15.6842 29.8597 15.8604 31.0185 16.1392 32.0522C17.203 31.8108 18.2876 31.6723 19.3779 31.6385V28.626H15.6404ZM20.6279 28.626V31.6372C21.7654 31.6747 22.8567 31.8185 23.8667 32.0522C24.1454 31.0185 24.3217 29.8597 24.3667 28.626H20.6279ZM16.5254 33.246C16.6754 33.636 16.8404 34.001 17.0192 34.336C17.7092 35.6297 18.5417 36.3985 19.3779 36.6547V32.8885C18.3654 32.926 17.4067 33.051 16.5254 33.2472V33.246ZM16.6629 36.091C16.382 35.7235 16.1319 35.3335 15.9154 34.9247C15.6852 34.489 15.4843 34.0384 15.3142 33.576C14.8 33.7412 14.2993 33.946 13.8167 34.1885C14.6307 35.0035 15.5975 35.65 16.6617 36.091H16.6629ZM14.9342 32.386C14.6096 31.1575 14.4264 29.896 14.3879 28.626H11.2754C11.3914 30.2887 11.9823 31.8831 12.9779 33.2197C13.5654 32.8972 14.2217 32.6172 14.9342 32.386ZM23.3442 36.091C24.4078 35.6502 25.3741 35.0042 26.1879 34.1897C25.7057 33.9473 25.2055 33.7425 24.6917 33.5772C24.5215 34.0393 24.3206 34.4894 24.0904 34.9247C23.8744 35.3334 23.6247 35.7235 23.3442 36.091ZM20.6279 32.8872V36.6547C21.4654 36.3997 22.2967 35.6297 22.9867 34.336C23.1654 34.001 23.3317 33.636 23.4804 33.246C22.5424 33.0403 21.5877 32.9206 20.6279 32.8885V32.8872ZM25.0717 32.386C25.7842 32.6172 26.4404 32.8972 27.0279 33.2197C28.0236 31.8831 28.6145 30.2887 28.7304 28.626H25.6179C25.5795 29.896 25.3962 31.1575 25.0717 32.386ZM28.7304 27.376C28.6145 25.7133 28.0236 24.1189 27.0279 22.7822C26.4404 23.1047 25.7842 23.3847 25.0717 23.616C25.3817 24.766 25.5717 26.0385 25.6179 27.376H28.7304ZM24.0904 21.0772C24.3117 21.4947 24.5142 21.9447 24.6929 22.4247C25.2063 22.2594 25.7061 22.0546 26.1879 21.8122C25.374 20.9983 24.4077 20.3526 23.3442 19.9122C23.6167 20.266 23.8667 20.6585 24.0904 21.0772ZM23.4804 22.756C23.3384 22.3828 23.1735 22.0188 22.9867 21.666C22.2967 20.3722 21.4654 19.6035 20.6279 19.3472V23.1135C21.6404 23.076 22.5992 22.951 23.4804 22.7547V22.756Z" fill="white"/>
</g>
<defs>
<clipPath id="clip0_1187_34569">
<rect width="20" height="20" fill="white" transform="translate(10 18)"/>
</clipPath>
</defs>
</svg>
