<svg width="16" height="16" viewBox="0 0 16 16" fill="none" xmlns="http://www.w3.org/2000/svg">
<g id="wrapper">
<path id="Union" fill-rule="evenodd" clip-rule="evenodd" d="M9.03356 0.887832C9.09611 0.618867 9.36486 0.451534 9.63382 0.514084C11.3034 0.902355 12.7922 1.85589 13.8576 3.2164C14.9228 4.57674 15.502 6.26372 15.502 8.00109C15.502 9.73845 14.9228 11.4254 13.8576 12.7858C12.7922 14.1463 11.3034 15.0998 9.63382 15.4881C9.36486 15.5506 9.09611 15.3833 9.03356 15.1143C8.97101 14.8454 9.13834 14.5766 9.40731 14.5141C10.8522 14.1781 12.144 13.3521 13.0702 12.1692C13.9966 10.9862 14.502 9.51664 14.502 8.00109C14.502 6.48553 13.9966 5.01597 13.0702 3.83293C12.144 2.65006 10.8522 1.8241 9.40731 1.48809C9.13834 1.42554 8.97101 1.1568 9.03356 0.887832ZM6.87473 0.888369C6.93698 1.1574 6.76935 1.42596 6.50032 1.48822C5.6956 1.67442 4.93258 2.01494 4.25203 2.49198C4.02591 2.65049 3.71411 2.59567 3.5556 2.36955C3.3971 2.14342 3.45192 1.83162 3.67804 1.67312C4.46318 1.12277 5.34444 0.729259 6.27488 0.513959C6.54391 0.451706 6.81247 0.619335 6.87473 0.888369ZM2.0783 3.98893C2.32086 4.12092 2.41049 4.42455 2.2785 4.6671L2.14898 4.90513C1.83545 5.51608 1.61174 6.18256 1.49533 6.88637C1.45027 7.15881 1.19288 7.34314 0.920438 7.29808C0.647997 7.25302 0.46367 6.99563 0.508733 6.72319C0.642634 5.91364 0.900477 5.14629 1.2623 4.4427L1.26764 4.43231L1.26776 4.43237L1.40013 4.18912C1.53212 3.94657 1.83575 3.85694 2.0783 3.98893ZM1.04405 9.51474C1.30969 9.43932 1.58618 9.59353 1.6616 9.85917C1.85645 10.5455 2.15849 11.195 2.55589 11.7829C2.71053 12.0117 2.65043 12.3225 2.42166 12.4772C2.19288 12.6318 1.88205 12.5717 1.72741 12.343C1.2703 11.6667 0.923332 10.9203 0.699619 10.1323C0.6242 9.86665 0.778407 9.59016 1.04405 9.51474ZM4.0137 13.9756C4.15325 13.7373 4.45954 13.6573 4.69783 13.7968C5.26034 14.1262 5.86784 14.3679 6.50012 14.5139C6.76918 14.5761 6.93692 14.8445 6.87477 15.1136C6.81263 15.3827 6.54414 15.5504 6.27508 15.4883C5.5439 15.3194 4.84193 15.0401 4.19249 14.6597C3.9542 14.5202 3.87415 14.2139 4.0137 13.9756Z" fill="#495057"/>
</g>
</svg>
