<svg width="16" height="16" viewBox="0 0 16 16" fill="none" xmlns="http://www.w3.org/2000/svg">
<path d="M5.50195 5.5011C5.63456 5.5011 5.76174 5.55378 5.85551 5.64755C5.94927 5.74131 6.00195 5.86849 6.00195 6.0011V12.0011C6.00195 12.1337 5.94927 12.2609 5.85551 12.3547C5.76174 12.4484 5.63456 12.5011 5.50195 12.5011C5.36934 12.5011 5.24217 12.4484 5.1484 12.3547C5.05463 12.2609 5.00195 12.1337 5.00195 12.0011V6.0011C5.00195 5.86849 5.05463 5.74131 5.1484 5.64755C5.24217 5.55378 5.36934 5.5011 5.50195 5.5011ZM8.00195 5.5011C8.13456 5.5011 8.26174 5.55378 8.35551 5.64755C8.44928 5.74131 8.50195 5.86849 8.50195 6.0011V12.0011C8.50195 12.1337 8.44928 12.2609 8.35551 12.3547C8.26174 12.4484 8.13456 12.5011 8.00195 12.5011C7.86934 12.5011 7.74217 12.4484 7.6484 12.3547C7.55463 12.2609 7.50195 12.1337 7.50195 12.0011V6.0011C7.50195 5.86849 7.55463 5.74131 7.6484 5.64755C7.74217 5.55378 7.86934 5.5011 8.00195 5.5011ZM11.002 6.0011C11.002 5.86849 10.9493 5.74131 10.8555 5.64755C10.7617 5.55378 10.6346 5.5011 10.502 5.5011C10.3693 5.5011 10.2422 5.55378 10.1484 5.64755C10.0546 5.74131 10.002 5.86849 10.002 6.0011V12.0011C10.002 12.1337 10.0546 12.2609 10.1484 12.3547C10.2422 12.4484 10.3693 12.5011 10.502 12.5011C10.6346 12.5011 10.7617 12.4484 10.8555 12.3547C10.9493 12.2609 11.002 12.1337 11.002 12.0011V6.0011Z" fill="#495057"/>
<path fill-rule="evenodd" clip-rule="evenodd" d="M14.502 3.0011C14.502 3.26632 14.3966 3.52067 14.2091 3.70821C14.0215 3.89574 13.7672 4.0011 13.502 4.0011H13.002V13.0011C13.002 13.5315 12.7912 14.0402 12.4162 14.4153C12.0411 14.7904 11.5324 15.0011 11.002 15.0011H5.00195C4.47152 15.0011 3.96281 14.7904 3.58774 14.4153C3.21267 14.0402 3.00195 13.5315 3.00195 13.0011V4.0011H2.50195C2.23674 4.0011 1.98238 3.89574 1.79485 3.70821C1.60731 3.52067 1.50195 3.26632 1.50195 3.0011V2.0011C1.50195 1.73588 1.60731 1.48153 1.79485 1.29399C1.98238 1.10646 2.23674 1.0011 2.50195 1.0011H6.00195C6.00195 0.735882 6.10731 0.481528 6.29485 0.293992C6.48238 0.106455 6.73674 0.00109863 7.00195 0.00109863H9.00195C9.26717 0.00109863 9.52152 0.106455 9.70906 0.293992C9.8966 0.481528 10.002 0.735882 10.002 1.0011H13.502C13.7672 1.0011 14.0215 1.10646 14.2091 1.29399C14.3966 1.48153 14.502 1.73588 14.502 2.0011V3.0011ZM4.11995 4.0011L4.00195 4.0601V13.0011C4.00195 13.2663 4.10731 13.5207 4.29485 13.7082C4.48238 13.8957 4.73674 14.0011 5.00195 14.0011H11.002C11.2672 14.0011 11.5215 13.8957 11.7091 13.7082C11.8966 13.5207 12.002 13.2663 12.002 13.0011V4.0601L11.884 4.0011H4.11995ZM2.50195 3.0011V2.0011H13.502V3.0011H2.50195Z" fill="#495057"/>
</svg>
