<svg width="16" height="16" viewBox="0 0 16 16" fill="none" xmlns="http://www.w3.org/2000/svg">
<g clip-path="url(#clip0_1124_33341)">
<rect width="16" height="16" fill="white" fill-opacity="0.01"/>
<path fill-rule="evenodd" clip-rule="evenodd" d="M6.00195 3.5011C6.00195 3.10327 6.15999 2.72174 6.44129 2.44044C6.7226 2.15913 7.10413 2.0011 7.50195 2.0011H8.50195C8.89978 2.0011 9.28131 2.15913 9.56261 2.44044C9.84392 2.72174 10.002 3.10327 10.002 3.5011V4.5011C10.002 4.89892 9.84392 5.28045 9.56261 5.56176C9.28131 5.84306 8.89978 6.0011 8.50195 6.0011V7.0011H14.002C14.1346 7.0011 14.2617 7.05378 14.3555 7.14755C14.4493 7.24131 14.502 7.36849 14.502 7.5011V8.5011C14.502 8.63371 14.4493 8.76088 14.3555 8.85465C14.2617 8.94842 14.1346 9.0011 14.002 9.0011C13.8693 9.0011 13.7422 8.94842 13.6484 8.85465C13.5546 8.76088 13.502 8.63371 13.502 8.5011V8.0011H8.50195V8.5011C8.50195 8.63371 8.44928 8.76088 8.35551 8.85465C8.26174 8.94842 8.13456 9.0011 8.00195 9.0011C7.86934 9.0011 7.74217 8.94842 7.6484 8.85465C7.55463 8.76088 7.50195 8.63371 7.50195 8.5011V8.0011H2.50195V8.5011C2.50195 8.63371 2.44927 8.76088 2.35551 8.85465C2.26174 8.94842 2.13456 9.0011 2.00195 9.0011C1.86934 9.0011 1.74217 8.94842 1.6484 8.85465C1.55463 8.76088 1.50195 8.63371 1.50195 8.5011V7.5011C1.50195 7.36849 1.55463 7.24131 1.6484 7.14755C1.74217 7.05378 1.86934 7.0011 2.00195 7.0011H7.50195V6.0011C7.10413 6.0011 6.7226 5.84306 6.44129 5.56176C6.15999 5.28045 6.00195 4.89892 6.00195 4.5011V3.5011ZM8.50195 5.0011C8.63456 5.0011 8.76174 4.94842 8.85551 4.85465C8.94928 4.76088 9.00195 4.63371 9.00195 4.5011V3.5011C9.00195 3.36849 8.94928 3.24131 8.85551 3.14755C8.76174 3.05378 8.63456 3.0011 8.50195 3.0011H7.50195C7.36934 3.0011 7.24217 3.05378 7.1484 3.14755C7.05463 3.24131 7.00195 3.36849 7.00195 3.5011V4.5011C7.00195 4.63371 7.05463 4.76088 7.1484 4.85465C7.24217 4.94842 7.36934 5.0011 7.50195 5.0011H8.50195ZM0.00195312 11.5011C0.00195313 11.1033 0.159988 10.7217 0.441293 10.4404C0.722597 10.1591 1.10413 10.0011 1.50195 10.0011H2.50195C2.89978 10.0011 3.28131 10.1591 3.56261 10.4404C3.84392 10.7217 4.00195 11.1033 4.00195 11.5011V12.5011C4.00195 12.8989 3.84392 13.2805 3.56261 13.5618C3.28131 13.8431 2.89978 14.0011 2.50195 14.0011H1.50195C1.10413 14.0011 0.722597 13.8431 0.441293 13.5618C0.159988 13.2805 0.00195313 12.8989 0.00195312 12.5011V11.5011ZM1.50195 11.0011C1.36934 11.0011 1.24217 11.0538 1.1484 11.1475C1.05463 11.2413 1.00195 11.3685 1.00195 11.5011V12.5011C1.00195 12.6337 1.05463 12.7609 1.1484 12.8547C1.24217 12.9484 1.36934 13.0011 1.50195 13.0011H2.50195C2.63456 13.0011 2.76174 12.9484 2.85551 12.8547C2.94927 12.7609 3.00195 12.6337 3.00195 12.5011V11.5011C3.00195 11.3685 2.94927 11.2413 2.85551 11.1475C2.76174 11.0538 2.63456 11.0011 2.50195 11.0011H1.50195ZM6.00195 11.5011C6.00195 11.1033 6.15999 10.7217 6.44129 10.4404C6.7226 10.1591 7.10413 10.0011 7.50195 10.0011H8.50195C8.89978 10.0011 9.28131 10.1591 9.56261 10.4404C9.84392 10.7217 10.002 11.1033 10.002 11.5011V12.5011C10.002 12.8989 9.84392 13.2805 9.56261 13.5618C9.28131 13.8431 8.89978 14.0011 8.50195 14.0011H7.50195C7.10413 14.0011 6.7226 13.8431 6.44129 13.5618C6.15999 13.2805 6.00195 12.8989 6.00195 12.5011V11.5011ZM7.50195 11.0011C7.36934 11.0011 7.24217 11.0538 7.1484 11.1475C7.05463 11.2413 7.00195 11.3685 7.00195 11.5011V12.5011C7.00195 12.6337 7.05463 12.7609 7.1484 12.8547C7.24217 12.9484 7.36934 13.0011 7.50195 13.0011H8.50195C8.63456 13.0011 8.76174 12.9484 8.85551 12.8547C8.94928 12.7609 9.00195 12.6337 9.00195 12.5011V11.5011C9.00195 11.3685 8.94928 11.2413 8.85551 11.1475C8.76174 11.0538 8.63456 11.0011 8.50195 11.0011H7.50195ZM12.002 11.5011C12.002 11.1033 12.16 10.7217 12.4413 10.4404C12.7226 10.1591 13.1041 10.0011 13.502 10.0011H14.502C14.8998 10.0011 15.2813 10.1591 15.5626 10.4404C15.8439 10.7217 16.002 11.1033 16.002 11.5011V12.5011C16.002 12.8989 15.8439 13.2805 15.5626 13.5618C15.2813 13.8431 14.8998 14.0011 14.502 14.0011H13.502C13.1041 14.0011 12.7226 13.8431 12.4413 13.5618C12.16 13.2805 12.002 12.8989 12.002 12.5011V11.5011ZM13.502 11.0011C13.3693 11.0011 13.2422 11.0538 13.1484 11.1475C13.0546 11.2413 13.002 11.3685 13.002 11.5011V12.5011C13.002 12.6337 13.0546 12.7609 13.1484 12.8547C13.2422 12.9484 13.3693 13.0011 13.502 13.0011H14.502C14.6346 13.0011 14.7617 12.9484 14.8555 12.8547C14.9493 12.7609 15.002 12.6337 15.002 12.5011V11.5011C15.002 11.3685 14.9493 11.2413 14.8555 11.1475C14.7617 11.0538 14.6346 11.0011 14.502 11.0011H13.502Z" fill="#495057"/>
</g>
<defs>
<clipPath id="clip0_1124_33341">
<rect width="16" height="16" fill="white"/>
</clipPath>
</defs>
</svg>
