<svg width="16" height="16" viewBox="0 0 16 16" fill="none" xmlns="http://www.w3.org/2000/svg">
<path d="M13.5022 1.00111C13.1044 1.00111 12.7229 1.15914 12.4416 1.44045C12.1603 1.72175 12.0022 2.10328 12.0022 2.50111C12.0022 2.89893 12.1603 3.28046 12.4416 3.56177C12.7229 3.84307 13.1044 4.00111 13.5022 4.00111C13.9 4.00111 14.2816 3.84307 14.5629 3.56177C14.8442 3.28046 15.0022 2.89893 15.0022 2.50111C15.0022 2.10328 14.8442 1.72175 14.5629 1.44045C14.2816 1.15914 13.9 1.00111 13.5022 1.00111ZM11.0022 2.50111C11.0021 1.91454 11.2083 1.34662 11.5847 0.896719C11.961 0.446814 12.4836 0.143571 13.061 0.0400446C13.6383 -0.0634818 14.2337 0.0393009 14.7429 0.33041C15.2522 0.621519 15.6428 1.08242 15.8466 1.63247C16.0503 2.18251 16.0541 2.78669 15.8574 3.33928C15.6607 3.89187 15.2759 4.3577 14.7704 4.65525C14.2649 4.95281 13.6709 5.06314 13.0923 4.96696C12.5136 4.87078 11.9873 4.57419 11.6052 4.12911L4.88722 7.24911C5.04166 7.73855 5.04166 8.26367 4.88722 8.75311L11.6052 11.8731C12.0091 11.4034 12.5729 11.1004 13.1874 11.0228C13.8019 10.9451 14.4234 11.0984 14.9314 11.4528C15.4394 11.8072 15.7977 12.3377 15.9369 12.9412C16.0761 13.5448 15.9863 14.1786 15.6848 14.7197C15.3834 15.2608 14.8918 15.6707 14.3053 15.8701C13.7188 16.0694 13.0792 16.0439 12.5105 15.7985C11.9418 15.5531 11.4843 15.1054 11.2269 14.542C10.9695 13.9786 10.9304 13.3397 11.1172 12.7491L4.39922 9.62911C4.06665 10.0167 3.62337 10.2931 3.129 10.4212C2.63463 10.5493 2.11288 10.5229 1.63396 10.3456C1.15503 10.1683 0.741894 9.84854 0.450126 9.42939C0.158357 9.01025 0.00195312 8.5118 0.00195312 8.00111C0.00195312 7.49041 0.158357 6.99196 0.450126 6.57282C0.741894 6.15368 1.15503 5.83394 1.63396 5.65663C2.11288 5.47932 2.63463 5.45293 3.129 5.58102C3.62337 5.70911 4.06665 5.98554 4.39922 6.37311L11.1172 3.25311C11.0407 3.00978 11.002 2.75617 11.0022 2.50111ZM2.50222 6.50111C2.10439 6.50111 1.72286 6.65914 1.44156 6.94045C1.16025 7.22175 1.00222 7.60328 1.00222 8.00111C1.00222 8.39893 1.16025 8.78046 1.44156 9.06177C1.72286 9.34307 2.10439 9.50111 2.50222 9.50111C2.90004 9.50111 3.28157 9.34307 3.56288 9.06177C3.84418 8.78046 4.00222 8.39893 4.00222 8.00111C4.00222 7.60328 3.84418 7.22175 3.56288 6.94045C3.28157 6.65914 2.90004 6.50111 2.50222 6.50111ZM13.5022 12.0011C13.1044 12.0011 12.7229 12.1591 12.4416 12.4404C12.1603 12.7218 12.0022 13.1033 12.0022 13.5011C12.0022 13.8989 12.1603 14.2805 12.4416 14.5618C12.7229 14.8431 13.1044 15.0011 13.5022 15.0011C13.9 15.0011 14.2816 14.8431 14.5629 14.5618C14.8442 14.2805 15.0022 13.8989 15.0022 13.5011C15.0022 13.1033 14.8442 12.7218 14.5629 12.4404C14.2816 12.1591 13.9 12.0011 13.5022 12.0011Z" fill="#495057"/>
</svg>
