<svg width="40" height="57" viewBox="0 0 40 57" fill="none" xmlns="http://www.w3.org/2000/svg">
<rect y="8" width="40" height="40.0002" rx="20" fill="#ADB5BD"/>
<g clip-path="url(#clip0_1187_46294)">
<rect width="20" height="20" transform="translate(10 18)" fill="white" fill-opacity="0.01"/>
<path fill-rule="evenodd" clip-rule="evenodd" d="M20.0029 20.501C20.1687 20.501 20.3277 20.5668 20.4449 20.684C20.5621 20.8012 20.6279 20.9602 20.6279 21.126V27.376H26.8779C27.0437 27.376 27.2027 27.4418 27.3199 27.559C27.4371 27.6762 27.5029 27.8352 27.5029 28.001C27.5029 28.1667 27.4371 28.3257 27.3199 28.4429C27.2027 28.5601 27.0437 28.626 26.8779 28.626H20.6279V34.876C20.6279 35.0417 20.5621 35.2007 20.4449 35.3179C20.3277 35.4351 20.1687 35.501 20.0029 35.501C19.8372 35.501 19.6782 35.4351 19.561 35.3179C19.4438 35.2007 19.3779 35.0417 19.3779 34.876V28.626H13.1279C12.9622 28.626 12.8032 28.5601 12.686 28.4429C12.5688 28.3257 12.5029 28.1667 12.5029 28.001C12.5029 27.8352 12.5688 27.6762 12.686 27.559C12.8032 27.4418 12.9622 27.376 13.1279 27.376H19.3779V21.126C19.3779 20.9602 19.4438 20.8012 19.561 20.684C19.6782 20.5668 19.8372 20.501 20.0029 20.501Z" fill="white"/>
</g>
<defs>
<clipPath id="clip0_1187_46294">
<rect width="20" height="20" fill="white" transform="translate(10 18)"/>
</clipPath>
</defs>
</svg>
