<svg width="91" height="40" viewBox="0 0 91 40" fill="none" xmlns="http://www.w3.org/2000/svg">
<rect width="91" height="40" rx="8" fill="#002142" fill-opacity="0.06"/>
<g clip-path="url(#clip0_551_34457)">
<rect width="16" height="16" transform="translate(16 12)" fill="white" fill-opacity="0.01"/>
<path fill-rule="evenodd" clip-rule="evenodd" d="M30.9989 19.9992C30.9989 19.8666 30.9463 19.7394 30.8525 19.6456C30.7587 19.5518 30.6315 19.4992 30.4989 19.4992H18.7059L21.8529 16.3532C21.8994 16.3067 21.9363 16.2515 21.9615 16.1908C21.9866 16.13 21.9996 16.0649 21.9996 15.9992C21.9996 15.9334 21.9866 15.8683 21.9615 15.8076C21.9363 15.7468 21.8994 15.6917 21.8529 15.6452C21.8065 15.5987 21.7513 15.5618 21.6905 15.5366C21.6298 15.5115 21.5647 15.4985 21.4989 15.4985C21.4332 15.4985 21.3681 15.5115 21.3074 15.5366C21.2466 15.5618 21.1914 15.5987 21.1449 15.6452L17.1449 19.6452C17.0984 19.6916 17.0614 19.7468 17.0362 19.8075C17.011 19.8683 16.998 19.9334 16.998 19.9992C16.998 20.0649 17.011 20.1301 17.0362 20.1908C17.0614 20.2515 17.0984 20.3067 17.1449 20.3532L21.1449 24.3532C21.1914 24.3997 21.2466 24.4365 21.3074 24.4617C21.3681 24.4868 21.4332 24.4998 21.4989 24.4998C21.5647 24.4998 21.6298 24.4868 21.6905 24.4617C21.7513 24.4365 21.8065 24.3997 21.8529 24.3532C21.8994 24.3067 21.9363 24.2515 21.9615 24.1908C21.9866 24.13 21.9996 24.0649 21.9996 23.9992C21.9996 23.9334 21.9866 23.8683 21.9615 23.8076C21.9363 23.7468 21.8994 23.6917 21.8529 23.6452L18.7059 20.4992H30.4989C30.6315 20.4992 30.7587 20.4465 30.8525 20.3527C30.9463 20.259 30.9989 20.1318 30.9989 19.9992Z" fill="#495057"/>
</g>
<g clip-path="url(#clip1_551_34457)">
<rect width="35" height="24" transform="translate(40 8)" fill="white" fill-opacity="0.01"/>
<path d="M42.48 26V24.784H45.424C46.128 24.784 46.6773 24.6187 47.072 24.288C47.4773 23.9467 47.68 23.4827 47.68 22.896C47.68 22.2667 47.4507 21.7707 46.992 21.408C46.5333 21.0453 45.8933 20.8693 45.072 20.88H42.48V19.744H44.416C45.376 19.744 46.1973 19.8667 46.88 20.112C47.5733 20.3573 48.1067 20.72 48.48 21.2C48.8533 21.6693 49.04 22.2507 49.04 22.944C49.04 23.5947 48.896 24.1493 48.608 24.608C48.32 25.056 47.9093 25.4027 47.376 25.648C46.8533 25.8827 46.224 26 45.488 26H42.48ZM41.488 26V14.8H42.832V26H41.488ZM42.448 20.912V19.712H45.36C45.9787 19.712 46.464 19.5467 46.816 19.216C47.168 18.8853 47.344 18.4267 47.344 17.84C47.344 17.232 47.136 16.7627 46.72 16.432C46.3147 16.1013 45.7387 15.9413 44.992 15.952H42.448V14.8L45.024 14.784C45.792 14.784 46.448 14.9067 46.992 15.152C47.536 15.3867 47.9573 15.7333 48.256 16.192C48.5547 16.64 48.704 17.1893 48.704 17.84C48.704 18.4587 48.544 18.9973 48.224 19.456C47.904 19.904 47.4507 20.2507 46.864 20.496C46.2773 20.7413 45.5787 20.864 44.768 20.864L42.448 20.912ZM55.9093 26L55.7813 21.776C55.7599 21.1467 55.6799 20.6293 55.5413 20.224C55.4026 19.808 55.1893 19.4987 54.9013 19.296C54.6133 19.0827 54.2293 18.976 53.7493 18.976C53.2906 18.976 52.8906 19.0667 52.5493 19.248C52.2186 19.4293 51.9466 19.712 51.7333 20.096L50.5973 19.632C50.7999 19.2587 51.0506 18.9387 51.3493 18.672C51.6479 18.3947 51.9999 18.1813 52.4053 18.032C52.8106 17.8827 53.2639 17.808 53.7653 17.808C54.5013 17.808 55.1146 17.952 55.6053 18.24C56.0959 18.528 56.4586 18.96 56.6933 19.536C56.9386 20.1013 57.0613 20.8107 57.0613 21.664V26H55.9093ZM53.4773 26.192C52.5279 26.192 51.7866 25.9787 51.2533 25.552C50.7306 25.1147 50.4693 24.512 50.4693 23.744C50.4693 22.9333 50.7359 22.3147 51.2693 21.888C51.8133 21.4507 52.5706 21.232 53.5413 21.232H56.3573V22.304H53.8293C53.0826 22.304 52.5493 22.4267 52.2293 22.672C51.9199 22.9173 51.7653 23.2693 51.7653 23.728C51.7653 24.144 51.9199 24.4747 52.2293 24.72C52.5386 24.9547 52.9706 25.072 53.5253 25.072C53.9946 25.072 54.3999 24.9653 54.7413 24.752C55.0826 24.5387 55.3439 24.2507 55.5253 23.888C55.7066 23.5147 55.7973 23.0933 55.7973 22.624H56.5813C56.5813 23.712 56.3146 24.5813 55.7813 25.232C55.2479 25.872 54.4799 26.192 53.4773 26.192ZM62.6568 26.192C61.8674 26.192 61.1688 26.016 60.5608 25.664C59.9528 25.3013 59.4781 24.8053 59.1368 24.176C58.7954 23.5467 58.6248 22.8213 58.6248 22C58.6248 21.1787 58.7901 20.4533 59.1208 19.824C59.4621 19.1947 59.9368 18.704 60.5448 18.352C61.1528 17.9893 61.8461 17.808 62.6248 17.808C63.3928 17.808 64.0808 17.984 64.6888 18.336C65.2968 18.688 65.7608 19.184 66.0808 19.824L64.9128 20.352C64.6994 19.9253 64.3901 19.5947 63.9848 19.36C63.5794 19.1147 63.1154 18.992 62.5928 18.992C62.0701 18.992 61.6061 19.12 61.2008 19.376C60.8061 19.632 60.4914 19.9893 60.2568 20.448C60.0328 20.896 59.9208 21.4133 59.9208 22C59.9208 22.5867 60.0328 23.1093 60.2568 23.568C60.4914 24.016 60.8114 24.368 61.2168 24.624C61.6328 24.88 62.1021 25.008 62.6248 25.008C63.1474 25.008 63.6114 24.8747 64.0168 24.608C64.4328 24.3413 64.7474 23.968 64.9608 23.488L66.1288 24.016C65.8088 24.6987 65.3448 25.232 64.7368 25.616C64.1288 26 63.4354 26.192 62.6568 26.192ZM68.993 23.424L68.177 22.544L72.433 18H74.049L68.993 23.424ZM67.745 26V14.8H69.025V26H67.745ZM72.785 26L69.745 21.408L70.577 20.512L74.369 26H72.785Z" fill="#495057"/>
</g>
<defs>
<clipPath id="clip0_551_34457">
<rect width="16" height="16" fill="white" transform="translate(16 12)"/>
</clipPath>
<clipPath id="clip1_551_34457">
<rect width="35" height="24" fill="white" transform="translate(40 8)"/>
</clipPath>
</defs>
</svg>
