<svg width="16" height="16" viewBox="0 0 16 16" fill="none" xmlns="http://www.w3.org/2000/svg">
<g id="icon-wrapper" clip-path="url(#clip0_1213_26105)">
<g id="Union">
<path d="M8 14.999C6.14348 14.999 4.36301 14.2615 3.05025 12.9488C1.7375 11.636 1 9.85554 1 7.99902C1 6.14251 1.7375 4.36203 3.05025 3.04928C4.36301 1.73652 6.14348 0.999023 8 0.999023C9.85652 0.999023 11.637 1.73652 12.9497 3.04928C14.2625 4.36203 15 6.14251 15 7.99902C15 9.85554 14.2625 11.636 12.9497 12.9488C11.637 14.2615 9.85652 14.999 8 14.999ZM8 15.999C10.1217 15.999 12.1566 15.1562 13.6569 13.6559C15.1571 12.1556 16 10.1208 16 7.99902C16 5.87729 15.1571 3.84246 13.6569 2.34217C12.1566 0.841878 10.1217 -0.000976562 8 -0.000976562C5.87827 -0.000976562 3.84344 0.841878 2.34315 2.34217C0.842855 3.84246 0 5.87729 0 7.99902C0 10.1208 0.842855 12.1556 2.34315 13.6559C3.84344 15.1562 5.87827 15.999 8 15.999Z" fill="#495057"/>
<path d="M8 3.99902C8.13261 3.99902 8.25979 4.0517 8.35355 4.14547C8.44732 4.23924 8.5 4.36642 8.5 4.49902V7.49902H11.5C11.6326 7.49902 11.7598 7.5517 11.8536 7.64547C11.9473 7.73924 12 7.86642 12 7.99902C12 8.13163 11.9473 8.25881 11.8536 8.35258C11.7598 8.44635 11.6326 8.49902 11.5 8.49902H8.5V11.499C8.5 11.6316 8.44732 11.7588 8.35355 11.8526C8.25979 11.9463 8.13261 11.999 8 11.999C7.86739 11.999 7.74021 11.9463 7.64645 11.8526C7.55268 11.7588 7.5 11.6316 7.5 11.499V8.49902H4.5C4.36739 8.49902 4.24021 8.44635 4.14645 8.35258C4.05268 8.25881 4 8.13163 4 7.99902C4 7.86642 4.05268 7.73924 4.14645 7.64547C4.24021 7.5517 4.36739 7.49902 4.5 7.49902H7.5V4.49902C7.5 4.36642 7.55268 4.23924 7.64645 4.14547C7.74021 4.0517 7.86739 3.99902 8 3.99902Z" fill="#495057"/>
</g>
</g>
<defs>
<clipPath id="clip0_1213_26105">
<rect width="16" height="16" fill="white"/>
</clipPath>
</defs>
</svg>
