<svg width="156" height="40" viewBox="0 0 156 40" fill="none" xmlns="http://www.w3.org/2000/svg">
<rect x="0.5" y="0.5" width="155" height="39" rx="7.5" fill="#407FFF"/>
<g clip-path="url(#clip0_551_34458)">
<rect width="16" height="16" transform="translate(16 12)" fill="white" fill-opacity="0.01"/>
<g clip-path="url(#clip1_551_34458)">
<path d="M16.05 15.554C16.1508 15.1123 16.3987 14.7178 16.7529 14.4353C17.1072 14.1528 17.5469 13.999 18 13.999H30C30.4531 13.999 30.8928 14.1528 31.2471 14.4353C31.6013 14.7178 31.8492 15.1123 31.95 15.554L24 20.413L16.05 15.554ZM16 16.696V23.8L21.803 20.242L16 16.696ZM22.761 20.829L16.191 24.856C16.3533 25.1983 16.6095 25.4875 16.9298 25.6898C17.25 25.8922 17.6212 25.9994 18 25.999H30C30.3788 25.9991 30.7498 25.8916 31.0698 25.6891C31.3899 25.4866 31.6459 25.1973 31.808 24.855L25.238 20.828L24 21.585L22.761 20.828V20.829ZM26.197 20.243L32 23.8V16.696L26.197 20.242V20.243Z" fill="white"/>
</g>
</g>
<g clip-path="url(#clip2_551_34458)">
<rect width="100" height="24" transform="translate(40 8)" fill="white" fill-opacity="0.01"/>
<path d="M41.488 26V14.8H42.848V26H41.488ZM45.4638 26V18H46.6638L46.7438 19.472V26H45.4638ZM51.0798 26V21.904L52.3598 21.424V26H51.0798ZM51.0798 21.904C51.0798 21.1147 50.9891 20.512 50.8078 20.096C50.6264 19.68 50.3758 19.3973 50.0558 19.248C49.7358 19.088 49.3731 19.008 48.9678 19.008C48.2638 19.008 47.7144 19.2587 47.3198 19.76C46.9358 20.2507 46.7438 20.9493 46.7438 21.856H46.1198C46.1198 21.0133 46.2424 20.288 46.4878 19.68C46.7331 19.072 47.0851 18.608 47.5438 18.288C48.0131 17.968 48.5784 17.808 49.2398 17.808C50.2104 17.808 50.9731 18.1067 51.5278 18.704C52.0931 19.3013 52.3704 20.208 52.3598 21.424L51.0798 21.904ZM56.8336 26L60.0976 18H61.4416L58.0976 26H56.8336ZM56.7536 26L53.4096 18H54.7376L58.0016 26H56.7536ZM62.7781 26L62.8101 18H64.0901L64.0581 26H62.7781ZM63.4341 16.144C63.2208 16.144 63.0341 16.064 62.8741 15.904C62.7141 15.744 62.6341 15.5573 62.6341 15.344C62.6341 15.12 62.7141 14.9333 62.8741 14.784C63.0341 14.624 63.2208 14.544 63.4341 14.544C63.6581 14.544 63.8448 14.624 63.9941 14.784C64.1541 14.9333 64.2341 15.12 64.2341 15.344C64.2341 15.5573 64.1541 15.744 63.9941 15.904C63.8448 16.064 63.6581 16.144 63.4341 16.144ZM69.5849 26.192C68.8062 26.192 68.2035 25.9893 67.7769 25.584C67.3502 25.1787 67.1369 24.608 67.1369 23.872V15.504H68.4169V23.744C68.4169 24.1493 68.5235 24.464 68.7369 24.688C68.9609 24.9013 69.2702 25.008 69.6649 25.008C69.7929 25.008 69.9155 24.992 70.0329 24.96C70.1609 24.9173 70.3262 24.8213 70.5289 24.672L71.0249 25.712C70.7475 25.8933 70.4969 26.016 70.2729 26.08C70.0489 26.1547 69.8195 26.192 69.5849 26.192ZM65.7449 19.136V18H70.8169V19.136H65.7449ZM76.1091 26.192C75.3305 26.192 74.6425 26.016 74.0451 25.664C73.4585 25.3013 72.9945 24.8053 72.6531 24.176C72.3118 23.5467 72.1411 22.8213 72.1411 22C72.1411 21.1787 72.3065 20.4533 72.6371 19.824C72.9785 19.1947 73.4478 18.704 74.0451 18.352C74.6425 17.9893 75.3198 17.808 76.0771 17.808C76.8238 17.808 77.4691 17.9947 78.0131 18.368C78.5571 18.7307 78.9785 19.2427 79.2771 19.904C79.5758 20.5653 79.7251 21.344 79.7251 22.24H78.4451C78.4451 21.5573 78.3545 20.976 78.1731 20.496C77.9918 20.0053 77.7251 19.6267 77.3731 19.36C77.0211 19.0933 76.5838 18.96 76.0611 18.96C75.5385 18.96 75.0798 19.088 74.6851 19.344C74.3011 19.5893 74.0025 19.9413 73.7891 20.4C73.5758 20.8587 73.4691 21.3973 73.4691 22.016C73.4691 22.624 73.5865 23.152 73.8211 23.6C74.0558 24.0373 74.3758 24.384 74.7811 24.64C75.1865 24.8853 75.6505 25.008 76.1731 25.008C76.7385 25.008 77.2131 24.8747 77.5971 24.608C77.9811 24.3413 78.2798 23.9947 78.4931 23.568L79.6291 24.128C79.4158 24.544 79.1385 24.9067 78.7971 25.216C78.4665 25.5253 78.0771 25.7653 77.6291 25.936C77.1811 26.1067 76.6745 26.192 76.1091 26.192ZM73.0051 22.24V21.136H78.9411V22.24H73.0051ZM88.3628 26.224C87.7334 26.224 87.1734 26.1013 86.6828 25.856C86.1921 25.6107 85.8028 25.264 85.5148 24.816C85.2374 24.368 85.0988 23.8613 85.0988 23.296C85.0988 22.8267 85.1894 22.4053 85.3708 22.032C85.5521 21.6587 85.7921 21.3227 86.0908 21.024C86.4001 20.7147 86.7361 20.432 87.0988 20.176L88.5548 19.184C88.8214 18.992 89.0828 18.7947 89.3388 18.592C89.6054 18.3893 89.8294 18.1653 90.0108 17.92C90.1921 17.664 90.2828 17.3813 90.2828 17.072C90.2828 16.656 90.1388 16.3253 89.8508 16.08C89.5734 15.8347 89.2161 15.712 88.7788 15.712C88.3948 15.712 88.0641 15.84 87.7868 16.096C87.5201 16.352 87.3868 16.6667 87.3868 17.04C87.3868 17.36 87.4828 17.648 87.6748 17.904C87.8668 18.1493 88.1068 18.4427 88.3948 18.784L90.3628 21.152L94.3628 26H92.7308L89.2748 21.84L87.3548 19.52C87.1094 19.2213 86.8854 18.9387 86.6828 18.672C86.4908 18.4053 86.3414 18.1387 86.2348 17.872C86.1281 17.6053 86.0748 17.328 86.0748 17.04C86.0748 16.56 86.1921 16.1387 86.4268 15.776C86.6721 15.4027 86.9921 15.1093 87.3868 14.896C87.7921 14.6827 88.2454 14.576 88.7468 14.576C89.2801 14.576 89.7601 14.6827 90.1868 14.896C90.6241 15.0987 90.9654 15.3867 91.2108 15.76C91.4561 16.1333 91.5788 16.576 91.5788 17.088C91.5788 17.504 91.4668 17.8987 91.2428 18.272C91.0188 18.6347 90.7148 18.9813 90.3308 19.312C89.9574 19.632 89.5308 19.9573 89.0508 20.288L87.8828 21.104C87.6481 21.264 87.4188 21.4453 87.1948 21.648C86.9708 21.84 86.7894 22.0693 86.6508 22.336C86.5121 22.592 86.4428 22.9067 86.4428 23.28C86.4428 23.8027 86.6241 24.2293 86.9868 24.56C87.3601 24.8907 87.8294 25.056 88.3948 25.056C88.9494 25.056 89.4668 24.9653 89.9468 24.784C90.4268 24.592 90.8481 24.32 91.2108 23.968C91.5841 23.616 91.8668 23.1947 92.0588 22.704C92.2614 22.2133 92.3628 21.6747 92.3628 21.088L93.6588 21.104C93.6588 22.096 93.4294 22.9813 92.9708 23.76C92.5228 24.528 91.8987 25.1307 91.0988 25.568C90.3094 26.0053 89.3974 26.224 88.3628 26.224ZM103.541 26.192C102.922 26.192 102.373 26.128 101.893 26C101.413 25.8613 100.997 25.6747 100.645 25.44C100.293 25.1947 100.005 24.928 99.7808 24.64C99.5568 24.3413 99.3914 24.0267 99.2848 23.696L100.581 23.248C100.741 23.7173 101.061 24.128 101.541 24.48C102.031 24.8213 102.629 24.992 103.333 24.992C104.197 24.992 104.874 24.8213 105.365 24.48C105.855 24.1387 106.101 23.6853 106.101 23.12C106.101 22.5973 105.882 22.176 105.445 21.856C105.007 21.5253 104.431 21.2693 103.717 21.088L102.485 20.768C101.983 20.64 101.519 20.4533 101.093 20.208C100.677 19.952 100.341 19.632 100.085 19.248C99.8394 18.8533 99.7168 18.384 99.7168 17.84C99.7168 16.8267 100.042 16.0373 100.693 15.472C101.354 14.896 102.303 14.608 103.541 14.608C104.277 14.608 104.911 14.7307 105.445 14.976C105.978 15.2107 106.41 15.5147 106.741 15.888C107.082 16.2507 107.322 16.6453 107.461 17.072L106.181 17.52C105.978 16.9867 105.637 16.5707 105.157 16.272C104.677 15.9627 104.095 15.808 103.413 15.808C102.698 15.808 102.127 15.984 101.701 16.336C101.285 16.6773 101.077 17.1467 101.077 17.744C101.077 18.256 101.242 18.6507 101.573 18.928C101.903 19.1947 102.335 19.392 102.869 19.52L104.101 19.824C105.189 20.08 106.021 20.5067 106.597 21.104C107.183 21.6907 107.477 22.3253 107.477 23.008C107.477 23.5947 107.327 24.1333 107.029 24.624C106.73 25.104 106.287 25.488 105.701 25.776C105.125 26.0533 104.405 26.192 103.541 26.192ZM109.417 26V14.592H110.697V26H109.417ZM115.049 26V21.904L116.329 21.424V26H115.049ZM115.049 21.904C115.049 21.1147 114.953 20.512 114.761 20.096C114.58 19.68 114.329 19.3973 114.009 19.248C113.689 19.088 113.326 19.008 112.921 19.008C112.217 19.008 111.668 19.2587 111.273 19.76C110.889 20.2507 110.697 20.9493 110.697 21.856H110.073C110.073 21.0133 110.196 20.288 110.441 19.68C110.686 19.072 111.044 18.608 111.513 18.288C111.982 17.968 112.548 17.808 113.209 17.808C114.169 17.808 114.932 18.1067 115.497 18.704C116.062 19.3013 116.34 20.208 116.329 21.424L115.049 21.904ZM123.347 26L123.219 21.776C123.197 21.1467 123.117 20.6293 122.979 20.224C122.84 19.808 122.627 19.4987 122.339 19.296C122.051 19.0827 121.667 18.976 121.187 18.976C120.728 18.976 120.328 19.0667 119.987 19.248C119.656 19.4293 119.384 19.712 119.171 20.096L118.035 19.632C118.237 19.2587 118.488 18.9387 118.787 18.672C119.085 18.3947 119.437 18.1813 119.843 18.032C120.248 17.8827 120.701 17.808 121.203 17.808C121.939 17.808 122.552 17.952 123.043 18.24C123.533 18.528 123.896 18.96 124.131 19.536C124.376 20.1013 124.499 20.8107 124.499 21.664V26H123.347ZM120.915 26.192C119.965 26.192 119.224 25.9787 118.691 25.552C118.168 25.1147 117.907 24.512 117.907 23.744C117.907 22.9333 118.173 22.3147 118.707 21.888C119.251 21.4507 120.008 21.232 120.979 21.232H123.795V22.304H121.267C120.52 22.304 119.987 22.4267 119.667 22.672C119.357 22.9173 119.203 23.2693 119.203 23.728C119.203 24.144 119.357 24.4747 119.667 24.72C119.976 24.9547 120.408 25.072 120.963 25.072C121.432 25.072 121.837 24.9653 122.179 24.752C122.52 24.5387 122.781 24.2507 122.963 23.888C123.144 23.5147 123.235 23.0933 123.235 22.624H124.019C124.019 23.712 123.752 24.5813 123.219 25.232C122.685 25.872 121.917 26.192 120.915 26.192ZM127.23 21.664C127.23 20.8 127.396 20.1013 127.726 19.568C128.057 19.024 128.478 18.624 128.99 18.368C129.513 18.1013 130.062 17.968 130.638 17.968V19.168C130.169 19.168 129.716 19.248 129.278 19.408C128.852 19.5573 128.5 19.808 128.222 20.16C127.945 20.512 127.806 20.992 127.806 21.6L127.23 21.664ZM126.526 26V18H127.806V26H126.526ZM135.469 26.192C134.69 26.192 134.002 26.016 133.405 25.664C132.818 25.3013 132.354 24.8053 132.013 24.176C131.671 23.5467 131.501 22.8213 131.501 22C131.501 21.1787 131.666 20.4533 131.997 19.824C132.338 19.1947 132.807 18.704 133.405 18.352C134.002 17.9893 134.679 17.808 135.437 17.808C136.183 17.808 136.829 17.9947 137.373 18.368C137.917 18.7307 138.338 19.2427 138.637 19.904C138.935 20.5653 139.085 21.344 139.085 22.24H137.805C137.805 21.5573 137.714 20.976 137.533 20.496C137.351 20.0053 137.085 19.6267 136.733 19.36C136.381 19.0933 135.943 18.96 135.421 18.96C134.898 18.96 134.439 19.088 134.045 19.344C133.661 19.5893 133.362 19.9413 133.149 20.4C132.935 20.8587 132.829 21.3973 132.829 22.016C132.829 22.624 132.946 23.152 133.181 23.6C133.415 24.0373 133.735 24.384 134.141 24.64C134.546 24.8853 135.01 25.008 135.533 25.008C136.098 25.008 136.573 24.8747 136.957 24.608C137.341 24.3413 137.639 23.9947 137.853 23.568L138.989 24.128C138.775 24.544 138.498 24.9067 138.157 25.216C137.826 25.5253 137.437 25.7653 136.989 25.936C136.541 26.1067 136.034 26.192 135.469 26.192ZM132.365 22.24V21.136H138.301V22.24H132.365Z" fill="white"/>
</g>
<rect x="0.5" y="0.5" width="155" height="39" rx="7.5" stroke="#407FFF"/>
<defs>
<clipPath id="clip0_551_34458">
<rect width="16" height="16" fill="white" transform="translate(16 12)"/>
</clipPath>
<clipPath id="clip1_551_34458">
<rect width="16" height="16" fill="white" transform="translate(16 12)"/>
</clipPath>
<clipPath id="clip2_551_34458">
<rect width="100" height="24" fill="white" transform="translate(40 8)"/>
</clipPath>
</defs>
</svg>
