<svg width="20" height="20" viewBox="0 0 20 20" fill="none" xmlns="http://www.w3.org/2000/svg">
<g id="wrapper">
<path id="Union" d="M0.00195312 1.43348C0.00195312 0.642227 0.659453 0.000976562 1.4707 0.000976562H18.5332C19.3445 0.000976562 20.002 0.642227 20.002 1.43348V18.5685C20.002 19.3597 19.3445 20.001 18.5332 20.001H1.4707C0.659453 20.001 0.00195312 19.3597 0.00195312 18.5685V1.43348ZM6.1807 16.7435V7.71223H3.17945V16.7435H6.1807ZM4.6807 6.47848C5.72695 6.47848 6.3782 5.78598 6.3782 4.91848C6.35945 4.03223 5.7282 3.35848 4.7007 3.35848C3.6732 3.35848 3.00195 4.03348 3.00195 4.91848C3.00195 5.78598 3.6532 6.47848 4.6607 6.47848H4.6807ZM10.8157 16.7435V11.6997C10.8157 11.4297 10.8357 11.1597 10.9157 10.9672C11.132 10.4285 11.6257 9.86973 12.4557 9.86973C13.542 9.86973 13.9757 10.6972 13.9757 11.9122V16.7435H16.977V11.5635C16.977 8.78848 15.497 7.49848 13.522 7.49848C11.9295 7.49848 11.2157 8.37348 10.8157 8.98973V9.02098H10.7957C10.8023 9.01054 10.809 9.00012 10.8157 8.98973V7.71223H7.8157C7.8532 8.55973 7.8157 16.7435 7.8157 16.7435H10.8157Z" fill="#0B66C2"/>
</g>
</svg>
