<svg width="46" height="48" viewBox="0 0 46 48" fill="none" xmlns="http://www.w3.org/2000/svg">
<g id="Logo">
<g id="Vector">
<path d="M8.23182 3.95429C8.63836 2.3927 8.84163 1.61191 9.37662 1.04585C9.63414 0.773362 9.94048 0.541442 10.2753 0.365501C10.9707 0 11.7988 0 13.4549 0H29.3083C30.9644 0 31.7924 0 32.2976 0.365501C32.5408 0.541442 32.7264 0.773362 32.842 1.04585C33.0823 1.61191 32.879 2.3927 32.4725 3.95429L28.5808 18.9029C28.1743 20.4644 27.971 21.2452 27.436 21.8113C27.1785 22.0838 26.8722 22.3157 26.5374 22.4916C25.8419 22.8571 25.0139 22.8571 23.3578 22.8571H7.50438C5.84828 22.8571 5.02022 22.8571 4.51505 22.4916C4.27188 22.3157 4.0863 22.0838 3.97064 21.8113C3.73039 21.2452 3.93365 20.4644 4.34019 18.9029L8.23182 3.95429Z" fill="url(#paint0_linear_1_28385)"/>
<path d="M37.7682 44.0457C37.3616 45.6073 37.1584 46.3881 36.6234 46.9542C36.3659 47.2266 36.0595 47.4586 35.7247 47.6345C35.0293 48 34.2012 48 32.5451 48H16.6917C15.0356 48 14.2076 48 13.7024 47.6345C13.4592 47.4586 13.2736 47.2266 13.158 46.9542C12.9177 46.3881 13.121 45.6073 13.5275 44.0457L17.4192 29.0971C17.8257 27.5356 18.029 26.7548 18.564 26.1887C18.8215 25.9162 19.1278 25.6843 19.4626 25.5084C20.1581 25.1429 20.9861 25.1429 22.6422 25.1429H38.4956C40.1517 25.1429 40.9798 25.1429 41.4849 25.5084C41.7281 25.6843 41.9137 25.9162 42.0294 26.1887C42.2696 26.7548 42.0663 27.5356 41.6598 29.0971L37.7682 44.0457Z" fill="url(#paint1_linear_1_28385)"/>
<path d="M32.2189 14.2401C32.6254 12.6785 32.8286 11.8977 33.3636 11.3316C33.6212 11.0591 33.9275 10.8272 34.2623 10.6512C34.9578 10.2857 35.7858 10.2857 37.442 10.2857H42.3633C44.0194 10.2857 44.8474 10.2857 45.3526 10.6512C45.5957 10.8271 45.7813 11.0591 45.897 11.3315C46.1373 11.8976 45.934 12.6784 45.5275 14.2399L44.3137 18.9028C43.9072 20.4644 43.7039 21.2452 43.169 21.8113C42.9114 22.0838 42.6051 22.3157 42.2703 22.4916C41.5748 22.8571 40.7468 22.8571 39.0906 22.8571H34.1693C32.5132 22.8571 31.6852 22.8571 31.18 22.4917C30.9368 22.3157 30.7513 22.0838 30.6356 21.8113C30.3953 21.2453 30.5986 20.4645 31.0051 18.9029L32.2189 14.2401Z" fill="url(#paint2_linear_1_28385)"/>
<path d="M13.7811 33.7599C13.3746 35.3215 13.1714 36.1023 12.6364 36.6684C12.3788 36.9409 12.0725 37.1728 11.7377 37.3488C11.0422 37.7143 10.2142 37.7143 8.55803 37.7143H3.63671C1.98063 37.7143 1.15259 37.7143 0.647425 37.3488C0.404251 37.1729 0.21867 36.9409 0.103013 36.6685C-0.137251 36.1024 0.0659953 35.3216 0.472488 33.7601L1.68629 29.0972C2.0928 27.5356 2.29605 26.7548 2.83104 26.1887C3.08857 25.9162 3.39491 25.6843 3.72969 25.5084C4.42518 25.1429 5.25325 25.1429 6.90938 25.1429H11.8307C13.4868 25.1429 14.3148 25.1429 14.82 25.5084C15.0632 25.6843 15.2487 25.9162 15.3644 26.1887C15.6047 26.7547 15.4014 27.5355 14.9949 29.0971L13.7811 33.7599Z" fill="url(#paint3_linear_1_28385)"/>
</g>
</g>
<defs>
<linearGradient id="paint0_linear_1_28385" x1="27.7268" y1="3.53679" x2="7.24636" y2="41.2923" gradientUnits="userSpaceOnUse">
<stop stop-color="#1462F9"/>
<stop offset="0.471862" stop-color="#05B4FF"/>
<stop offset="1" stop-color="#24F2FF"/>
</linearGradient>
<linearGradient id="paint1_linear_1_28385" x1="27.7268" y1="3.53679" x2="7.24636" y2="41.2923" gradientUnits="userSpaceOnUse">
<stop stop-color="#1462F9"/>
<stop offset="0.471862" stop-color="#05B4FF"/>
<stop offset="1" stop-color="#24F2FF"/>
</linearGradient>
<linearGradient id="paint2_linear_1_28385" x1="27.7268" y1="3.53679" x2="7.24636" y2="41.2923" gradientUnits="userSpaceOnUse">
<stop stop-color="#1462F9"/>
<stop offset="0.471862" stop-color="#05B4FF"/>
<stop offset="1" stop-color="#24F2FF"/>
</linearGradient>
<linearGradient id="paint3_linear_1_28385" x1="27.7268" y1="3.53679" x2="7.24636" y2="41.2923" gradientUnits="userSpaceOnUse">
<stop stop-color="#1462F9"/>
<stop offset="0.471862" stop-color="#05B4FF"/>
<stop offset="1" stop-color="#24F2FF"/>
</linearGradient>
</defs>
</svg>
