<svg width="16" height="16" viewBox="0 0 16 16" fill="none" xmlns="http://www.w3.org/2000/svg">
<g clip-path="url(#clip0_1124_33364)">
<rect width="16" height="16" fill="white" fill-opacity="0.01"/>
<path d="M8.23733 1.56007C8.16499 1.52155 8.08429 1.5014 8.00233 1.5014C7.92037 1.5014 7.83967 1.52155 7.76733 1.56007L0.267328 5.56007C0.187456 5.60275 0.120673 5.66631 0.0741103 5.74398C0.0275475 5.82165 0.00295313 5.91051 0.00295313 6.00107C0.00295313 6.09163 0.0275475 6.18049 0.0741103 6.25816C0.120673 6.33583 0.187456 6.39939 0.267328 6.44207L3.19033 8.00107L0.266328 9.56007C0.186456 9.60275 0.119673 9.66631 0.0731103 9.74398C0.0265475 9.82166 0.00195313 9.91051 0.00195312 10.0011C0.00195312 10.0916 0.0265475 10.1805 0.0731103 10.2582C0.119673 10.3358 0.186456 10.3994 0.266328 10.4421L7.76633 14.4421C7.83867 14.4806 7.91937 14.5007 8.00133 14.5007C8.08329 14.5007 8.16399 14.4806 8.23633 14.4421L15.7363 10.4421C15.8162 10.3994 15.883 10.3358 15.9295 10.2582C15.9761 10.1805 16.0007 10.0916 16.0007 10.0011C16.0007 9.91051 15.9761 9.82166 15.9295 9.74398C15.883 9.66631 15.8162 9.60275 15.7363 9.56007L12.8153 8.00107L15.7373 6.44207C15.8172 6.39939 15.884 6.33583 15.9305 6.25816C15.9771 6.18049 16.0017 6.09163 16.0017 6.00107C16.0017 5.91051 15.9771 5.82165 15.9305 5.74398C15.884 5.66631 15.8172 5.60275 15.7373 5.56007L8.23733 1.56007ZM11.7523 8.56807L14.4403 10.0011L8.00233 13.4341L1.56433 10.0011L4.25233 8.56807L7.76733 10.4421C7.83967 10.4806 7.92037 10.5007 8.00233 10.5007C8.08429 10.5007 8.16499 10.4806 8.23733 10.4421L11.7523 8.56807ZM8.00233 9.43407L1.56433 6.00107L8.00233 2.56807L14.4403 6.00107L8.00233 9.43407Z" fill="#495057"/>
</g>
<defs>
<clipPath id="clip0_1124_33364">
<rect width="16" height="16" fill="white"/>
</clipPath>
</defs>
</svg>
