<svg width="16" height="16" viewBox="0 0 16 16" fill="none" xmlns="http://www.w3.org/2000/svg">
<path d="M14.502 3.0011C14.6346 3.0011 14.7617 3.05378 14.8555 3.14755C14.9493 3.24131 15.002 3.36849 15.002 3.5011V12.5011C15.002 12.6337 14.9493 12.7609 14.8555 12.8547C14.7617 12.9484 14.6346 13.0011 14.502 13.0011H1.50195C1.36934 13.0011 1.24217 12.9484 1.1484 12.8547C1.05463 12.7609 1.00195 12.6337 1.00195 12.5011V3.5011C1.00195 3.36849 1.05463 3.24131 1.1484 3.14755C1.24217 3.05378 1.36934 3.0011 1.50195 3.0011H14.502ZM1.50195 2.0011C1.10413 2.0011 0.722597 2.15913 0.441293 2.44044C0.159988 2.72174 0.00195313 3.10327 0.00195312 3.5011V12.5011C0.00195313 12.8989 0.159988 13.2805 0.441293 13.5618C0.722597 13.8431 1.10413 14.0011 1.50195 14.0011H14.502C14.8998 14.0011 15.2813 13.8431 15.5626 13.5618C15.8439 13.2805 16.002 12.8989 16.002 12.5011V3.5011C16.002 3.10327 15.8439 2.72174 15.5626 2.44044C15.2813 2.15913 14.8998 2.0011 14.502 2.0011H1.50195Z" fill="#495057"/>
<path d="M5.00195 8.0011C5.00195 7.86849 5.05463 7.74131 5.1484 7.64755C5.24217 7.55378 5.36934 7.5011 5.50195 7.5011H12.502C12.6346 7.5011 12.7617 7.55378 12.8555 7.64755C12.9493 7.74131 13.002 7.86849 13.002 8.0011C13.002 8.13371 12.9493 8.26088 12.8555 8.35465C12.7617 8.44842 12.6346 8.5011 12.502 8.5011H5.50195C5.36934 8.5011 5.24217 8.44842 5.1484 8.35465C5.05463 8.26088 5.00195 8.13371 5.00195 8.0011ZM5.00195 5.5011C5.00195 5.36849 5.05463 5.24131 5.1484 5.14755C5.24217 5.05378 5.36934 5.0011 5.50195 5.0011H12.502C12.6346 5.0011 12.7617 5.05378 12.8555 5.14755C12.9493 5.24131 13.002 5.36849 13.002 5.5011C13.002 5.63371 12.9493 5.76088 12.8555 5.85465C12.7617 5.94842 12.6346 6.0011 12.502 6.0011H5.50195C5.36934 6.0011 5.24217 5.94842 5.1484 5.85465C5.05463 5.76088 5.00195 5.63371 5.00195 5.5011ZM5.00195 10.5011C5.00195 10.3685 5.05463 10.2413 5.1484 10.1475C5.24217 10.0538 5.36934 10.0011 5.50195 10.0011H12.502C12.6346 10.0011 12.7617 10.0538 12.8555 10.1475C12.9493 10.2413 13.002 10.3685 13.002 10.5011C13.002 10.6337 12.9493 10.7609 12.8555 10.8547C12.7617 10.9484 12.6346 11.0011 12.502 11.0011H5.50195C5.36934 11.0011 5.24217 10.9484 5.1484 10.8547C5.05463 10.7609 5.00195 10.6337 5.00195 10.5011ZM4.00195 5.5011C4.00195 5.63371 3.94927 5.76088 3.85551 5.85465C3.76174 5.94842 3.63456 6.0011 3.50195 6.0011C3.36934 6.0011 3.24217 5.94842 3.1484 5.85465C3.05463 5.76088 3.00195 5.63371 3.00195 5.5011C3.00195 5.36849 3.05463 5.24131 3.1484 5.14755C3.24217 5.05378 3.36934 5.0011 3.50195 5.0011C3.63456 5.0011 3.76174 5.05378 3.85551 5.14755C3.94927 5.24131 4.00195 5.36849 4.00195 5.5011ZM4.00195 8.0011C4.00195 8.13371 3.94927 8.26088 3.85551 8.35465C3.76174 8.44842 3.63456 8.5011 3.50195 8.5011C3.36934 8.5011 3.24217 8.44842 3.1484 8.35465C3.05463 8.26088 3.00195 8.13371 3.00195 8.0011C3.00195 7.86849 3.05463 7.74131 3.1484 7.64755C3.24217 7.55378 3.36934 7.5011 3.50195 7.5011C3.63456 7.5011 3.76174 7.55378 3.85551 7.64755C3.94927 7.74131 4.00195 7.86849 4.00195 8.0011ZM4.00195 10.5011C4.00195 10.6337 3.94927 10.7609 3.85551 10.8547C3.76174 10.9484 3.63456 11.0011 3.50195 11.0011C3.36934 11.0011 3.24217 10.9484 3.1484 10.8547C3.05463 10.7609 3.00195 10.6337 3.00195 10.5011C3.00195 10.3685 3.05463 10.2413 3.1484 10.1475C3.24217 10.0538 3.36934 10.0011 3.50195 10.0011C3.63456 10.0011 3.76174 10.0538 3.85551 10.1475C3.94927 10.2413 4.00195 10.3685 4.00195 10.5011Z" fill="#495057"/>
</svg>
