<svg width="16" height="16" viewBox="0 0 16 16" fill="none" xmlns="http://www.w3.org/2000/svg">
<path d="M8.00145 4.75509C7.57518 4.75509 7.15309 4.83905 6.75926 5.00217C6.36544 5.1653 6.0076 5.4044 5.70618 5.70582C5.40477 6.00724 5.16567 6.36507 5.00254 6.7589C4.83941 7.15272 4.75545 7.57482 4.75545 8.00109C4.75545 8.42736 4.83941 8.84945 5.00254 9.24328C5.16567 9.6371 5.40477 9.99494 5.70618 10.2964C6.0076 10.5978 6.36544 10.8369 6.75926 11C7.15309 11.1631 7.57518 11.2471 8.00145 11.2471C8.86235 11.2471 9.68798 10.9051 10.2967 10.2964C10.9055 9.68761 11.2475 8.86198 11.2475 8.00109C11.2475 7.14019 10.9055 6.31456 10.2967 5.70582C9.68798 5.09707 8.86235 4.75509 8.00145 4.75509ZM5.75545 8.00109C5.75545 7.40541 5.99208 6.83413 6.41329 6.41292C6.8345 5.99172 7.40578 5.75509 8.00145 5.75509C8.59713 5.75509 9.16841 5.99172 9.58961 6.41292C10.0108 6.83413 10.2475 7.40541 10.2475 8.00109C10.2475 8.59676 10.0108 9.16804 9.58961 9.58925C9.16841 10.0105 8.59713 10.2471 8.00145 10.2471C7.40578 10.2471 6.8345 10.0105 6.41329 9.58925C5.99208 9.16804 5.75545 8.59676 5.75545 8.00109Z" fill="#495057"/>
<path d="M9.79745 1.34409C9.27045 -0.445913 6.73245 -0.445913 6.20545 1.34409L6.11145 1.66309C6.07465 1.78804 6.01035 1.90317 5.92327 2.00005C5.83619 2.09692 5.72853 2.17308 5.60819 2.22294C5.48786 2.2728 5.35788 2.2951 5.22781 2.2882C5.09773 2.28131 4.97085 2.24539 4.85645 2.18309L4.56445 2.02309C2.92445 1.13109 1.13145 2.92509 2.02445 4.56409L2.18345 4.85609C2.24576 4.97048 2.28168 5.09736 2.28857 5.22744C2.29547 5.35752 2.27317 5.48749 2.22331 5.60783C2.17344 5.72817 2.09729 5.83582 2.00041 5.9229C1.90354 6.00998 1.78841 6.07428 1.66345 6.11109L1.34445 6.20509C-0.445547 6.73209 -0.445547 9.27009 1.34445 9.79709L1.66345 9.89109C1.78841 9.92789 1.90354 9.99219 2.00041 10.0793C2.09729 10.1664 2.17344 10.274 2.22331 10.3943C2.27317 10.5147 2.29547 10.6447 2.28857 10.7747C2.28168 10.9048 2.24576 11.0317 2.18345 11.1461L2.02345 11.4381C1.13145 13.0781 2.92445 14.8721 4.56445 13.9781L4.85645 13.8191C4.97085 13.7568 5.09773 13.7209 5.22781 13.714C5.35788 13.7071 5.48786 13.7294 5.60819 13.7792C5.72853 13.8291 5.83619 13.9053 5.92327 14.0021C6.01035 14.099 6.07465 14.2141 6.11145 14.3391L6.20545 14.6581C6.73245 16.4481 9.27045 16.4481 9.79745 14.6581L9.89145 14.3391C9.92826 14.2141 9.99256 14.099 10.0796 14.0021C10.1667 13.9053 10.2744 13.8291 10.3947 13.7792C10.515 13.7294 10.645 13.7071 10.7751 13.714C10.9052 13.7209 11.0321 13.7568 11.1465 13.8191L11.4385 13.9791C13.0785 14.8721 14.8725 13.0771 13.9785 11.4381L13.8195 11.1461C13.7571 11.0317 13.7212 10.9048 13.7143 10.7747C13.7074 10.6447 13.7297 10.5147 13.7796 10.3943C13.8295 10.274 13.9056 10.1664 14.0025 10.0793C14.0994 9.99219 14.2145 9.92789 14.3395 9.89109L14.6585 9.79709C16.4485 9.27009 16.4485 6.73209 14.6585 6.20509L14.3395 6.11109C14.2145 6.07428 14.0994 6.00998 14.0025 5.9229C13.9056 5.83582 13.8295 5.72817 13.7796 5.60783C13.7297 5.48749 13.7074 5.35752 13.7143 5.22744C13.7212 5.09736 13.7571 4.97048 13.8195 4.85609L13.9795 4.56409C14.8725 2.92409 13.0775 1.13109 11.4385 2.02409L11.1465 2.18309C11.0321 2.24539 10.9052 2.28131 10.7751 2.2882C10.645 2.2951 10.515 2.2728 10.3947 2.22294C10.2744 2.17308 10.1667 2.09692 10.0796 2.00005C9.99256 1.90317 9.92826 1.78804 9.89145 1.66309L9.79745 1.34409ZM7.16445 1.62709C7.41045 0.792087 8.59245 0.792087 8.83845 1.62709L8.93245 1.94609C9.01147 2.21417 9.14949 2.46117 9.33638 2.66899C9.52327 2.8768 9.7543 3.04015 10.0125 3.14707C10.2708 3.25398 10.5496 3.30175 10.8287 3.28688C11.1078 3.272 11.3801 3.19485 11.6255 3.06109L11.9165 2.90109C12.6805 2.48609 13.5165 3.32109 13.1005 4.08609L12.9415 4.37809C12.8079 4.62351 12.7309 4.89571 12.7162 5.17474C12.7015 5.45377 12.7494 5.73256 12.8564 5.99067C12.9634 6.24879 13.1268 6.47969 13.3346 6.66646C13.5424 6.85324 13.7894 6.99115 14.0575 7.07009L14.3755 7.16409C15.2105 7.41009 15.2105 8.59209 14.3755 8.83809L14.0565 8.93209C13.7884 9.01111 13.5414 9.14912 13.3336 9.33601C13.1257 9.5229 12.9624 9.75393 12.8555 10.0122C12.7486 10.2704 12.7008 10.5493 12.7157 10.8284C12.7305 11.1075 12.8077 11.3797 12.9415 11.6251L13.1015 11.9161C13.5165 12.6801 12.6815 13.5161 11.9165 13.1001L11.6255 12.9411C11.38 12.8073 11.1077 12.7302 10.8285 12.7154C10.5494 12.7006 10.2705 12.7485 10.0122 12.8555C9.75399 12.9625 9.52298 13.126 9.33613 13.3339C9.14929 13.5418 9.01136 13.7889 8.93245 14.0571L8.83845 14.3751C8.59245 15.2101 7.41045 15.2101 7.16445 14.3751L7.07045 14.0561C6.9914 13.7881 6.85341 13.5413 6.66658 13.3336C6.47976 13.1259 6.24884 12.9626 5.99074 12.8557C5.73264 12.7488 5.45389 12.701 5.17492 12.7157C4.89595 12.7305 4.62381 12.8075 4.37845 12.9411L4.08645 13.1011C3.32245 13.5161 2.48645 12.6811 2.90245 11.9161L3.06145 11.6251C3.1954 11.3796 3.2727 11.1073 3.28768 10.8281C3.30266 10.5489 3.25493 10.2699 3.148 10.0115C3.04107 9.75317 2.87765 9.52203 2.66973 9.33507C2.46182 9.14811 2.21468 9.01007 1.94645 8.93109L1.62745 8.83709C0.792453 8.59109 0.792453 7.40909 1.62745 7.16309L1.94645 7.06909C2.21426 6.99 2.46099 6.85203 2.6686 6.66528C2.8762 6.47852 3.03942 6.24771 3.14631 5.98974C3.2532 5.73177 3.30105 5.45316 3.28637 5.17431C3.27169 4.89545 3.19484 4.62341 3.06145 4.37809L2.90145 4.08609C2.48645 3.32209 3.32145 2.48609 4.08645 2.90209L4.37845 3.06109C4.62381 3.19466 4.89595 3.27166 5.17492 3.28644C5.45389 3.30122 5.73264 3.25341 5.99074 3.1465C6.24884 3.0396 6.47976 2.87631 6.66658 2.66861C6.85341 2.4609 6.9914 2.21403 7.07045 1.94609L7.16445 1.62709Z" fill="#495057"/>
</svg>
