<svg width="16" height="16" viewBox="0 0 16 16" fill="none" xmlns="http://www.w3.org/2000/svg">
<path d="M15.9995 7.99902C15.9995 10.1208 15.1567 12.1556 13.6564 13.6559C12.1561 15.1562 10.1212 15.999 7.99951 15.999C5.87778 15.999 3.84295 15.1562 2.34266 13.6559C0.842367 12.1556 -0.000488281 10.1208 -0.000488281 7.99902C-0.000488281 5.87729 0.842367 3.84246 2.34266 2.34217C3.84295 0.841878 5.87778 -0.000976562 7.99951 -0.000976562C10.1212 -0.000976562 12.1561 0.841878 13.6564 2.34217C15.1567 3.84246 15.9995 5.87729 15.9995 7.99902ZM5.35351 4.64502C5.25962 4.55114 5.13229 4.49839 4.99951 4.49839C4.86674 4.49839 4.7394 4.55114 4.64551 4.64502C4.55162 4.73891 4.49888 4.86625 4.49888 4.99902C4.49888 5.1318 4.55162 5.25914 4.64551 5.35302L7.29251 7.99902L4.64551 10.645C4.59902 10.6915 4.56215 10.7467 4.53699 10.8074C4.51183 10.8682 4.49888 10.9333 4.49888 10.999C4.49888 11.0648 4.51183 11.1299 4.53699 11.1906C4.56215 11.2513 4.59902 11.3065 4.64551 11.353C4.7394 11.4469 4.86674 11.4997 4.99951 11.4997C5.06526 11.4997 5.13036 11.4867 5.1911 11.4615C5.25183 11.4364 5.30702 11.3995 5.35351 11.353L7.99951 8.70602L10.6455 11.353C10.692 11.3995 10.7472 11.4364 10.8079 11.4615C10.8687 11.4867 10.9338 11.4997 10.9995 11.4997C11.0653 11.4997 11.1304 11.4867 11.1911 11.4615C11.2518 11.4364 11.307 11.3995 11.3535 11.353C11.4 11.3065 11.4369 11.2513 11.462 11.1906C11.4872 11.1299 11.5001 11.0648 11.5001 10.999C11.5001 10.9333 11.4872 10.8682 11.462 10.8074C11.4369 10.7467 11.4 10.6915 11.3535 10.645L8.70651 7.99902L11.3535 5.35302C11.4 5.30654 11.4369 5.25135 11.462 5.19061C11.4872 5.12987 11.5001 5.06477 11.5001 4.99902C11.5001 4.93328 11.4872 4.86818 11.462 4.80744C11.4369 4.7467 11.4 4.69151 11.3535 4.64502C11.307 4.59854 11.2518 4.56166 11.1911 4.5365C11.1304 4.51134 11.0653 4.49839 10.9995 4.49839C10.9338 4.49839 10.8687 4.51134 10.8079 4.5365C10.7472 4.56166 10.692 4.59854 10.6455 4.64502L7.99951 7.29202L5.35351 4.64502Z" fill="#6C757D"/>
</svg>
