<svg width="32" height="32" viewBox="0 0 32 32" fill="none" xmlns="http://www.w3.org/2000/svg">
<g clip-path="url(#clip0_1_23601)">
<rect width="16" height="16" transform="translate(8 8)" fill="white" fill-opacity="0.01"/>
<g clip-path="url(#clip1_1_23601)">
<path d="M13.5 13.499C13.6326 13.499 13.7598 13.5517 13.8536 13.6455C13.9473 13.7392 14 13.8664 14 13.999V19.999C14 20.1316 13.9473 20.2588 13.8536 20.3526C13.7598 20.4463 13.6326 20.499 13.5 20.499C13.3674 20.499 13.2402 20.4463 13.1464 20.3526C13.0527 20.2588 13 20.1316 13 19.999V13.999C13 13.8664 13.0527 13.7392 13.1464 13.6455C13.2402 13.5517 13.3674 13.499 13.5 13.499ZM16 13.499C16.1326 13.499 16.2598 13.5517 16.3536 13.6455C16.4473 13.7392 16.5 13.8664 16.5 13.999V19.999C16.5 20.1316 16.4473 20.2588 16.3536 20.3526C16.2598 20.4463 16.1326 20.499 16 20.499C15.8674 20.499 15.7402 20.4463 15.6464 20.3526C15.5527 20.2588 15.5 20.1316 15.5 19.999V13.999C15.5 13.8664 15.5527 13.7392 15.6464 13.6455C15.7402 13.5517 15.8674 13.499 16 13.499ZM19 13.999C19 13.8664 18.9473 13.7392 18.8536 13.6455C18.7598 13.5517 18.6326 13.499 18.5 13.499C18.3674 13.499 18.2402 13.5517 18.1464 13.6455C18.0527 13.7392 18 13.8664 18 13.999V19.999C18 20.1316 18.0527 20.2588 18.1464 20.3526C18.2402 20.4463 18.3674 20.499 18.5 20.499C18.6326 20.499 18.7598 20.4463 18.8536 20.3526C18.9473 20.2588 19 20.1316 19 19.999V13.999Z" fill="#495057"/>
<path fill-rule="evenodd" clip-rule="evenodd" d="M22.5 10.999C22.5 11.2642 22.3946 11.5186 22.2071 11.7061C22.0196 11.8937 21.7652 11.999 21.5 11.999H21V20.999C21 21.5295 20.7893 22.0382 20.4142 22.4132C20.0391 22.7883 19.5304 22.999 19 22.999H13C12.4696 22.999 11.9609 22.7883 11.5858 22.4132C11.2107 22.0382 11 21.5295 11 20.999V11.999H10.5C10.2348 11.999 9.98043 11.8937 9.79289 11.7061C9.60536 11.5186 9.5 11.2642 9.5 10.999V9.99902C9.5 9.73381 9.60536 9.47945 9.79289 9.29192C9.98043 9.10438 10.2348 8.99902 10.5 8.99902H14C14 8.73381 14.1054 8.47945 14.2929 8.29192C14.4804 8.10438 14.7348 7.99902 15 7.99902H17C17.2652 7.99902 17.5196 8.10438 17.7071 8.29192C17.8946 8.47945 18 8.73381 18 8.99902H21.5C21.7652 8.99902 22.0196 9.10438 22.2071 9.29192C22.3946 9.47945 22.5 9.73381 22.5 9.99902V10.999ZM12.118 11.999L12 12.058V20.999C12 21.2642 12.1054 21.5186 12.2929 21.7061C12.4804 21.8937 12.7348 21.999 13 21.999H19C19.2652 21.999 19.5196 21.8937 19.7071 21.7061C19.8946 21.5186 20 21.2642 20 20.999V12.058L19.882 11.999H12.118ZM10.5 10.999V9.99902H21.5V10.999H10.5Z" fill="#495057"/>
</g>
</g>
<defs>
<clipPath id="clip0_1_23601">
<rect width="16" height="16" fill="white" transform="translate(8 8)"/>
</clipPath>
<clipPath id="clip1_1_23601">
<rect width="16" height="16" fill="white" transform="translate(8 8)"/>
</clipPath>
</defs>
</svg>
