<svg width="30" height="32" viewBox="0 0 30 32" fill="none" xmlns="http://www.w3.org/2000/svg">
<path d="M0 8C0 3.58172 3.58172 0 8 0H30V32H8C3.58172 32 0 28.4183 0 24V8Z" fill="#002142" fill-opacity="0.06"/>
<g clip-path="url(#clip0_1304_8531)">
<rect width="14" height="14" transform="translate(8 9)" fill="white" fill-opacity="0.01"/>
<path fill-rule="evenodd" clip-rule="evenodd" d="M17.9365 10.4401C17.9773 10.4807 18.0096 10.529 18.0316 10.5821C18.0537 10.6353 18.065 10.6923 18.065 10.7498C18.065 10.8074 18.0537 10.8643 18.0316 10.9175C18.0096 10.9706 17.9773 11.0189 17.9365 11.0596L12.9954 15.9998L17.9365 20.9401C18.0187 21.0222 18.0648 21.1336 18.0648 21.2498C18.0648 21.366 18.0187 21.4774 17.9365 21.5596C17.8544 21.6417 17.7429 21.6879 17.6268 21.6879C17.5106 21.6879 17.3992 21.6417 17.317 21.5596L12.067 16.3096C12.0263 16.2689 11.9939 16.2206 11.9719 16.1675C11.9498 16.1143 11.9385 16.0574 11.9385 15.9998C11.9385 15.9423 11.9498 15.8853 11.9719 15.8321C11.9939 15.779 12.0263 15.7307 12.067 15.6901L17.317 10.4401C17.3576 10.3993 17.4059 10.367 17.4591 10.3449C17.5122 10.3229 17.5692 10.3115 17.6268 10.3115C17.6843 10.3115 17.7413 10.3229 17.7944 10.3449C17.8476 10.367 17.8959 10.3993 17.9365 10.4401Z" fill="black"/>
</g>
<defs>
<clipPath id="clip0_1304_8531">
<rect width="14" height="14" fill="white" transform="translate(8 9)"/>
</clipPath>
</defs>
</svg>
