<svg width="14" height="15" viewBox="0 0 14 15" fill="none" xmlns="http://www.w3.org/2000/svg">
<path d="M10.6295 0.627556C10.6702 0.586813 10.7185 0.554488 10.7716 0.532432C10.8248 0.510376 10.8817 0.499023 10.9393 0.499023C10.9968 0.499023 11.0538 0.510376 11.107 0.532432C11.1601 0.554488 11.2084 0.586813 11.249 0.627556L13.874 3.25256C13.9148 3.2932 13.9471 3.34147 13.9692 3.39463C13.9912 3.44778 14.0026 3.50476 14.0026 3.56231C14.0026 3.61985 13.9912 3.67683 13.9692 3.72998C13.9471 3.78314 13.9148 3.83142 13.874 3.87206L5.12403 12.6221C5.08205 12.6637 5.03204 12.6965 4.97703 12.7183L0.602033 14.4683C0.522528 14.5001 0.43543 14.5079 0.351538 14.4907C0.267646 14.4735 0.19065 14.4321 0.130094 14.3715C0.0695384 14.3109 0.0280866 14.2339 0.0108776 14.1501C-0.00633146 14.0662 0.00145911 13.9791 0.0332834 13.8996L1.78328 9.52456C1.8051 9.46955 1.83784 9.41954 1.87953 9.37755L10.6295 0.627556ZM9.80791 2.68731L11.8143 4.69368L12.9457 3.56231L10.9393 1.55593L9.80791 2.68731ZM11.1957 5.31231L9.18928 3.30593L3.50178 8.99343V9.24981H3.93928C4.05532 9.24981 4.1666 9.2959 4.24864 9.37795C4.33069 9.45999 4.37678 9.57127 4.37678 9.68731V10.1248H4.81428C4.93032 10.1248 5.0416 10.1709 5.12364 10.2529C5.20569 10.335 5.25178 10.4463 5.25178 10.5623V10.9998H5.50816L11.1957 5.31231ZM2.65478 9.84043L2.56203 9.93318L1.22503 13.2766L4.56841 11.9396L4.66116 11.8468C4.5777 11.8156 4.50575 11.7597 4.45493 11.6865C4.40412 11.6133 4.37685 11.5264 4.37678 11.4373V10.9998H3.93928C3.82325 10.9998 3.71197 10.9537 3.62992 10.8717C3.54788 10.7896 3.50178 10.6783 3.50178 10.5623V10.1248H3.06428C2.97519 10.1247 2.88824 10.0975 2.81506 10.0467C2.74189 9.99584 2.68597 9.92389 2.65478 9.84043Z" fill="#ADB5BD"/>
</svg>
