<svg width="16" height="16" viewBox="0 0 16 16" fill="none" xmlns="http://www.w3.org/2000/svg">
<g id="icon-wrapper" clip-path="url(#clip0_439_24458)">
<g id="Union">
<path d="M5.5 5.49902C5.63261 5.49902 5.75979 5.5517 5.85355 5.64547C5.94732 5.73924 6 5.86642 6 5.99902V11.999C6 12.1316 5.94732 12.2588 5.85355 12.3526C5.75979 12.4463 5.63261 12.499 5.5 12.499C5.36739 12.499 5.24021 12.4463 5.14645 12.3526C5.05268 12.2588 5 12.1316 5 11.999V5.99902C5 5.86642 5.05268 5.73924 5.14645 5.64547C5.24021 5.5517 5.36739 5.49902 5.5 5.49902ZM8 5.49902C8.13261 5.49902 8.25979 5.5517 8.35355 5.64547C8.44732 5.73924 8.5 5.86642 8.5 5.99902V11.999C8.5 12.1316 8.44732 12.2588 8.35355 12.3526C8.25979 12.4463 8.13261 12.499 8 12.499C7.86739 12.499 7.74021 12.4463 7.64645 12.3526C7.55268 12.2588 7.5 12.1316 7.5 11.999V5.99902C7.5 5.86642 7.55268 5.73924 7.64645 5.64547C7.74021 5.5517 7.86739 5.49902 8 5.49902ZM11 5.99902C11 5.86642 10.9473 5.73924 10.8536 5.64547C10.7598 5.5517 10.6326 5.49902 10.5 5.49902C10.3674 5.49902 10.2402 5.5517 10.1464 5.64547C10.0527 5.73924 10 5.86642 10 5.99902V11.999C10 12.1316 10.0527 12.2588 10.1464 12.3526C10.2402 12.4463 10.3674 12.499 10.5 12.499C10.6326 12.499 10.7598 12.4463 10.8536 12.3526C10.9473 12.2588 11 12.1316 11 11.999V5.99902Z" fill="#495057"/>
<path fill-rule="evenodd" clip-rule="evenodd" d="M14.5 2.99902C14.5 3.26424 14.3946 3.51859 14.2071 3.70613C14.0196 3.89367 13.7652 3.99902 13.5 3.99902H13V12.999C13 13.5295 12.7893 14.0382 12.4142 14.4132C12.0391 14.7883 11.5304 14.999 11 14.999H5C4.46957 14.999 3.96086 14.7883 3.58579 14.4132C3.21071 14.0382 3 13.5295 3 12.999V3.99902H2.5C2.23478 3.99902 1.98043 3.89367 1.79289 3.70613C1.60536 3.51859 1.5 3.26424 1.5 2.99902V1.99902C1.5 1.73381 1.60536 1.47945 1.79289 1.29192C1.98043 1.10438 2.23478 0.999023 2.5 0.999023H6C6 0.733807 6.10536 0.479453 6.29289 0.291917C6.48043 0.10438 6.73478 -0.000976562 7 -0.000976562H9C9.26522 -0.000976562 9.51957 0.10438 9.70711 0.291917C9.89464 0.479453 10 0.733807 10 0.999023H13.5C13.7652 0.999023 14.0196 1.10438 14.2071 1.29192C14.3946 1.47945 14.5 1.73381 14.5 1.99902V2.99902ZM4.118 3.99902L4 4.05802V12.999C4 13.2642 4.10536 13.5186 4.29289 13.7061C4.48043 13.8937 4.73478 13.999 5 13.999H11C11.2652 13.999 11.5196 13.8937 11.7071 13.7061C11.8946 13.5186 12 13.2642 12 12.999V4.05802L11.882 3.99902H4.118ZM2.5 2.99902V1.99902H13.5V2.99902H2.5Z" fill="#495057"/>
</g>
</g>
<defs>
<clipPath id="clip0_439_24458">
<rect width="16" height="16" fill="white"/>
</clipPath>
</defs>
</svg>
