<svg width="20" height="21" viewBox="0 0 20 21" fill="none" xmlns="http://www.w3.org/2000/svg">
<rect width="20" height="20" transform="translate(0 0.5)" fill="white" fill-opacity="0.01"/>
<rect y="0.5" width="20" height="20" rx="10" fill="#E9ECEF"/>
<g clip-path="url(#clip0_407_30419)">
<rect width="12" height="12" transform="translate(4 4.5)" fill="white" fill-opacity="0.01"/>
<path d="M7.53767 9.4062L6.50867 10.4352C6.08668 10.8572 5.84961 11.4295 5.84961 12.0263C5.84961 12.6231 6.08668 13.1955 6.50867 13.6174C6.93067 14.0394 7.50301 14.2765 8.0998 14.2765C8.69659 14.2765 9.26893 14.0394 9.69092 13.6174L11.0619 12.2457C11.3164 11.9912 11.5061 11.6794 11.6151 11.3364C11.7241 10.9934 11.7493 10.6292 11.6884 10.2745C11.6276 9.91978 11.4826 9.58482 11.2655 9.29775C11.0484 9.01068 10.7657 8.77987 10.4409 8.6247L10.0014 9.0642C9.95681 9.1089 9.918 9.15904 9.88592 9.21345C10.1368 9.28557 10.3645 9.42193 10.5466 9.60904C10.7286 9.79615 10.8587 10.0275 10.9239 10.2803C10.9891 10.5331 10.9873 10.7985 10.9185 11.0503C10.8497 11.3022 10.7164 11.5317 10.5317 11.7162L9.16142 13.0872C8.87996 13.3687 8.49822 13.5268 8.10017 13.5268C7.70213 13.5268 7.32039 13.3687 7.03892 13.0872C6.75746 12.8057 6.59934 12.424 6.59934 12.0259C6.59934 11.6279 6.75746 11.2462 7.03892 10.9647L7.63367 10.3707C7.54976 10.0562 7.51734 9.73102 7.53767 9.4062Z" fill="#6C757D"/>
<path d="M8.94092 8.0037C8.68645 8.25821 8.49675 8.57004 8.38773 8.91304C8.27872 9.25603 8.25357 9.62017 8.3144 9.9749C8.37524 10.3296 8.52028 10.6646 8.73735 10.9516C8.95442 11.2387 9.23719 11.4695 9.56192 11.6247L10.1432 11.0427C9.88889 10.9745 9.65703 10.8406 9.4709 10.6544C9.28477 10.4681 9.15093 10.2362 9.08283 9.98191C9.01473 9.7276 9.01477 9.45983 9.08293 9.20553C9.1511 8.95123 9.285 8.71935 9.47117 8.5332L10.8414 7.1622C11.1229 6.88074 11.5046 6.72261 11.9027 6.72261C12.3007 6.72261 12.6825 6.88074 12.9639 7.1622C13.2454 7.44366 13.4035 7.8254 13.4035 8.22345C13.4035 8.62149 13.2454 9.00324 12.9639 9.2847L12.3692 9.8787C12.4532 10.1937 12.4854 10.5199 12.4652 10.8439L13.4942 9.81495C13.9162 9.39296 14.1532 8.82061 14.1532 8.22382C14.1532 7.62704 13.9162 7.05469 13.4942 6.6327C13.0722 6.21071 12.4998 5.97363 11.903 5.97363C11.3063 5.97363 10.7339 6.21071 10.3119 6.6327L8.94092 8.0037Z" fill="#6C757D"/>
</g>
<defs>
<clipPath id="clip0_407_30419">
<rect width="12" height="12" fill="white" transform="translate(4 4.5)"/>
</clipPath>
</defs>
</svg>
