<svg width="16" height="14" viewBox="0 0 16 14" fill="none" xmlns="http://www.w3.org/2000/svg">
<path d="M8 5.56337C9.50152 5.56337 10.7188 4.4299 10.7188 3.03169C10.7188 1.63347 9.50152 0.5 8 0.5C6.49848 0.5 5.28125 1.63347 5.28125 3.03169C5.28125 4.4299 6.49848 5.56337 8 5.56337Z" fill="#6C757D"/>
<path d="M13.5 5.56334C14.4492 5.56334 15.2188 4.84678 15.2188 3.96285C15.2188 3.07892 14.4492 2.36236 13.5 2.36236C12.5508 2.36236 11.7812 3.07892 11.7812 3.96285C11.7812 4.84678 12.5508 5.56334 13.5 5.56334Z" fill="#6C757D"/>
<path d="M2.5 5.56334C3.44924 5.56334 4.21875 4.84678 4.21875 3.96285C4.21875 3.07892 3.44924 2.36236 2.5 2.36236C1.55076 2.36236 0.78125 3.07892 0.78125 3.96285C0.78125 4.84678 1.55076 5.56334 2.5 5.56334Z" fill="#6C757D"/>
<path d="M4.19344 7.00061C3.51688 6.48444 2.90416 6.55276 2.12188 6.55276C0.951875 6.55276 0 7.43391 0 8.51671V11.6947C0 12.165 0.412188 12.5473 0.919062 12.5473C3.10738 12.5473 2.84375 12.5842 2.84375 12.4594C2.84375 10.2075 2.55731 8.55608 4.19344 7.00061Z" fill="#6C757D"/>
<path d="M8.74406 6.56438C7.37769 6.45825 6.19003 6.5656 5.16563 7.35298C3.45134 8.63163 3.78125 10.3533 3.78125 12.4594C3.78125 13.0167 4.26813 13.4785 4.87563 13.4785C11.4719 13.4785 11.7345 13.6766 12.1256 12.87C12.2539 12.5972 12.2188 12.6839 12.2188 10.0744C12.2188 8.00173 10.2915 6.56438 8.74406 6.56438Z" fill="#6C757D"/>
<path d="M13.8781 6.55274C13.0916 6.55274 12.4822 6.48511 11.8066 7.00058C13.4305 8.5445 13.1562 10.0833 13.1562 12.4594C13.1562 12.585 12.9374 12.5473 15.0481 12.5473C15.5731 12.5473 16 12.1513 16 11.6644V8.51668C16 7.43388 15.0481 6.55274 13.8781 6.55274Z" fill="#6C757D"/>
</svg>
