<svg width="20" height="20" viewBox="0 0 20 20" fill="none" xmlns="http://www.w3.org/2000/svg">
<g id="Frame 7">
<g id="Vector">
<path d="M5.89814 5.15245L4.40675 3.66105C4.20077 3.45507 3.86703 3.45507 3.66105 3.66105C3.45507 3.86703 3.45507 4.20077 3.66105 4.40675L5.15245 5.89814C5.35843 6.10413 5.69216 6.10413 5.89814 5.89814C6.10413 5.69216 6.10413 5.35843 5.89814 5.15245Z" fill="#6C757D"/>
<path d="M3.67188 9.47266H1.52734C1.23586 9.47266 1 9.70852 1 10C1 10.2915 1.23586 10.5273 1.52734 10.5273H3.67188C3.96336 10.5273 4.19922 10.2915 4.19922 10C4.19922 9.70852 3.96336 9.47266 3.67188 9.47266Z" fill="#6C757D"/>
<path d="M18.4727 9.47266H16.3281C16.0366 9.47266 15.8008 9.70852 15.8008 10C15.8008 10.2915 16.0366 10.5273 16.3281 10.5273H18.4727C18.7641 10.5273 19 10.2915 19 10C19 9.70852 18.7641 9.47266 18.4727 9.47266Z" fill="#6C757D"/>
<path d="M16.339 3.66105C16.133 3.45507 15.7992 3.45507 15.5933 3.66105L14.1019 5.15245C13.8959 5.35843 13.8959 5.69216 14.1019 5.89814C14.3078 6.10413 14.6416 6.10413 14.8476 5.89814L16.339 4.40675C16.5449 4.20077 16.5449 3.86706 16.339 3.66105Z" fill="#6C757D"/>
<path d="M10 1C9.70852 1 9.47266 1.23586 9.47266 1.52734V3.67188C9.47266 3.96336 9.70852 4.19922 10 4.19922C10.2915 4.19922 10.5273 3.96336 10.5273 3.67188V1.52734C10.5273 1.23586 10.2915 1 10 1Z" fill="#6C757D"/>
<path d="M12.9531 6.27692C11.8036 5.36989 10.3164 5.04297 8.86094 5.39102C7.17344 5.78125 5.81293 7.12067 5.40156 8.79766C4.99023 10.4851 5.46484 12.1937 6.6777 13.3855C7.11016 13.818 7.36328 14.4964 7.36328 15.1926V15.3086C7.36328 15.6039 7.59528 15.8359 7.89062 15.8359H12.1094C12.4047 15.8359 12.6367 15.6039 12.6367 15.3086V15.1926C12.6367 14.507 12.9004 13.8074 13.3645 13.3539C14.2504 12.4574 14.7461 11.2656 14.7461 10C14.7461 8.54453 14.0922 7.18395 12.9531 6.27692Z" fill="#6C757D"/>
<path d="M7.89062 16.8906V17.418C7.89062 18.2903 8.60029 19 9.47266 19H10.5273C11.3997 19 12.1094 18.2903 12.1094 17.418V16.8906H7.89062Z" fill="#6C757D"/>
</g>
</g>
</svg>
