<svg width="20" height="20" viewBox="0 0 20 20" fill="none" xmlns="http://www.w3.org/2000/svg">
<g clip-path="url(#clip0_412_17938)">
<rect width="20" height="20" fill="white" fill-opacity="0.01"/>
<path d="M14.6796 12.9306C15.89 11.279 16.4321 9.23123 16.1975 7.19705C15.9629 5.16287 14.9689 3.29229 13.4143 1.95953C11.8597 0.626765 9.85928 -0.0698816 7.81314 0.00895979C5.767 0.0878012 3.82608 0.936316 2.37868 2.38475C0.931288 3.83318 0.084162 5.77471 0.00678473 7.82091C-0.0705925 9.8671 0.627485 11.8671 1.96136 13.4207C3.29523 14.9743 5.16653 15.967 7.20087 16.2001C9.23521 16.4332 11.2826 15.8897 12.9333 14.6781H12.9321C12.9696 14.7281 13.0096 14.7756 13.0546 14.8219L17.8671 19.6344C18.1015 19.8689 18.4194 20.0007 18.751 20.0009C19.0826 20.001 19.4007 19.8694 19.6352 19.635C19.8698 19.4006 20.0016 19.0826 20.0017 18.7511C20.0018 18.4195 19.8702 18.1014 19.6358 17.8669L14.8233 13.0544C14.7787 13.0091 14.7306 12.9673 14.6796 12.9294V12.9306ZM15.0021 8.12561C15.0021 9.02845 14.8243 9.92245 14.4788 10.7566C14.1333 11.5907 13.6269 12.3486 12.9885 12.987C12.3501 13.6254 11.5922 14.1318 10.758 14.4773C9.92393 14.8228 9.02994 15.0006 8.1271 15.0006C7.22426 15.0006 6.33026 14.8228 5.49615 14.4773C4.66204 14.1318 3.90414 13.6254 3.26574 12.987C2.62734 12.3486 2.12093 11.5907 1.77543 10.7566C1.42993 9.92245 1.2521 9.02845 1.2521 8.12561C1.2521 6.30225 1.97643 4.55357 3.26574 3.26426C4.55505 1.97494 6.30373 1.25061 8.1271 1.25061C9.95046 1.25061 11.6991 1.97494 12.9885 3.26426C14.2778 4.55357 15.0021 6.30225 15.0021 8.12561Z" fill="#6C757D"/>
</g>
<defs>
<clipPath id="clip0_412_17938">
<rect width="20" height="20" fill="white"/>
</clipPath>
</defs>
</svg>
