<svg width="20" height="20" viewBox="0 0 20 20" fill="none" xmlns="http://www.w3.org/2000/svg">
<rect x="3" y="3" width="14" height="14" rx="3" fill="#6C757D"/>
<path d="M8.39406 11.9316L6.61188 13.8158C6.49307 13.9414 6.34257 14 6.19208 14C6.04158 14 5.88317 13.9414 5.77228 13.8158L5.17822 13.1877C4.94059 12.9449 4.94059 12.5429 5.17822 12.3001C5.40792 12.0572 5.7802 12.0572 6.01782 12.3001L6.19208 12.4843L7.55446 11.044C7.78416 10.8011 8.15644 10.8011 8.39406 11.044C8.62376 11.2868 8.62376 11.6888 8.39406 11.9316ZM8.39406 7.06978L6.61188 8.95394C6.49307 9.07955 6.34257 9.13817 6.19208 9.13817C6.04158 9.13817 5.88317 9.07955 5.77228 8.95394L5.17822 8.32589C4.94059 8.08304 4.94059 7.68109 5.17822 7.43824C5.40792 7.19539 5.7802 7.19539 6.01782 7.43824L6.19208 7.62247L7.55446 6.18214C7.78416 5.93929 8.15644 5.93929 8.39406 6.18214C8.62376 6.42498 8.62376 6.82694 8.39406 7.06978ZM14.4059 13.3719H10.2475C9.92277 13.3719 9.65347 13.0872 9.65347 12.7439C9.65347 12.4006 9.92277 12.1158 10.2475 12.1158H14.4059C14.7386 12.1158 15 12.4006 15 12.7439C15 13.0872 14.7386 13.3719 14.4059 13.3719ZM14.4059 8.51012H10.2475C9.92277 8.51012 9.65347 8.2254 9.65347 7.88207C9.65347 7.53873 9.92277 7.25401 10.2475 7.25401H14.4059C14.7386 7.25401 15 7.53873 15 7.88207C15 8.2254 14.7386 8.51012 14.4059 8.51012Z" fill="white"/>
</svg>
