<svg width="24" height="25" viewBox="0 0 24 25" fill="none" xmlns="http://www.w3.org/2000/svg">
<g clip-path="url(#clip0_416_30192)">
<rect width="24" height="24" transform="translate(0 0.5)" fill="white" fill-opacity="0.01"/>
<rect y="0.5" width="24" height="24" rx="4" fill="url(#paint0_linear_416_30192)"/>
<path d="M7.82639 7.07095C7.94128 6.64802 7.99872 6.43656 8.14991 6.28325C8.22269 6.20945 8.30927 6.14664 8.40388 6.09899C8.60043 6 8.83444 6 9.30247 6H13.7828C14.2508 6 14.4848 6 14.6276 6.09899C14.6963 6.14664 14.7488 6.20945 14.7814 6.28325C14.8493 6.43656 14.7919 6.64802 14.677 7.07095L13.5772 11.1195C13.4623 11.5425 13.4049 11.7539 13.2537 11.9072C13.1809 11.981 13.0943 12.0438 12.9997 12.0915C12.8032 12.1905 12.5691 12.1905 12.1011 12.1905H7.6208C7.15277 12.1905 6.91876 12.1905 6.77599 12.0915C6.70727 12.0438 6.65482 11.981 6.62214 11.9072C6.55424 11.7539 6.61168 11.5425 6.72658 11.1195L7.82639 7.07095Z" fill="white"/>
<path d="M16.1736 17.929C16.0587 18.352 16.0013 18.5634 15.8501 18.7168C15.7773 18.7905 15.6907 18.8534 15.5961 18.901C15.3996 19 15.1656 19 14.6975 19H10.2172C9.7492 19 9.51518 19 9.37241 18.901C9.30369 18.8534 9.25124 18.7905 9.21856 18.7168C9.15066 18.5634 9.20811 18.352 9.323 17.929L10.4228 13.8805C10.5377 13.4575 10.5951 13.2461 10.7463 13.0928C10.8191 13.019 10.9057 12.9562 11.0003 12.9085C11.1968 12.8095 11.4309 12.8095 11.8989 12.8095H16.3792C16.8472 12.8095 17.0812 12.8095 17.224 12.9085C17.2927 12.9562 17.3452 13.019 17.3779 13.0928C17.4458 13.2461 17.3883 13.4575 17.2734 13.8805L16.1736 17.929Z" fill="white"/>
<path d="M14.6053 9.85669C14.7202 9.43375 14.7777 9.22228 14.9289 9.06897C15.0016 8.99517 15.0882 8.93236 15.1828 8.88471C15.3794 8.78571 15.6134 8.78571 16.0814 8.78571H17.4722C17.9403 8.78571 18.1743 8.78571 18.317 8.8847C18.3858 8.93235 18.4382 8.99516 18.4709 9.06896C18.5388 9.22226 18.4813 9.43372 18.3665 9.85664L18.0234 11.1195C17.9086 11.5424 17.8511 11.7539 17.6999 11.9072C17.6271 11.981 17.5406 12.0438 17.446 12.0915C17.2494 12.1905 17.0154 12.1905 16.5473 12.1905H15.1565C14.6885 12.1905 14.4545 12.1905 14.3117 12.0915C14.243 12.0438 14.1906 11.981 14.1579 11.9072C14.09 11.7539 14.1474 11.5425 14.2623 11.1195L14.6053 9.85669Z" fill="white"/>
<path d="M9.39467 15.1433C9.27978 15.5662 9.22234 15.7777 9.07115 15.931C8.99837 16.0048 8.9118 16.0676 8.81718 16.1153C8.62063 16.2143 8.38661 16.2143 7.91857 16.2143H6.52777C6.05974 16.2143 5.82573 16.2143 5.68297 16.1153C5.61424 16.0676 5.5618 16.0048 5.52911 15.931C5.46121 15.7777 5.51865 15.5663 5.63353 15.1434L5.97656 13.8805C6.09144 13.4576 6.14888 13.2461 6.30008 13.0928C6.37286 13.019 6.45943 12.9562 6.55404 12.9085C6.75059 12.8095 6.98461 12.8095 7.45265 12.8095H8.84346C9.31148 12.8095 9.54549 12.8095 9.68826 12.9085C9.75698 12.9562 9.80943 13.019 9.84211 13.0928C9.91001 13.2461 9.85257 13.4575 9.7377 13.8805L9.39467 15.1433Z" fill="white"/>
</g>
<defs>
<linearGradient id="paint0_linear_416_30192" x1="24" y1="24.5" x2="0" y2="0.5" gradientUnits="userSpaceOnUse">
<stop stop-color="#6BEBFF"/>
<stop offset="0.48" stop-color="#53B7FF"/>
<stop offset="1" stop-color="#6962F8"/>
</linearGradient>
<clipPath id="clip0_416_30192">
<rect width="24" height="24" fill="white" transform="translate(0 0.5)"/>
</clipPath>
</defs>
</svg>
