<svg width="18" height="18" viewBox="0 0 18 18" fill="none" xmlns="http://www.w3.org/2000/svg">
<path d="M9.26675 1.75497C9.18537 1.71163 9.09458 1.68896 9.00238 1.68896C8.91017 1.68896 8.81938 1.71163 8.738 1.75497L0.3005 6.25496C0.210644 6.30297 0.135513 6.37449 0.0831299 6.46187C0.0307468 6.54925 0.00307813 6.64921 0.00307813 6.75109C0.00307813 6.85297 0.0307468 6.95293 0.0831299 7.04031C0.135513 7.12769 0.210644 7.1992 0.3005 7.24721L3.58888 9.00109L0.299375 10.755C0.209519 10.803 0.134388 10.8745 0.0820049 10.9619C0.0296218 11.0492 0.00195313 11.1492 0.00195312 11.2511C0.00195312 11.353 0.0296218 11.4529 0.0820049 11.5403C0.134388 11.6277 0.209519 11.6992 0.299375 11.7472L8.73688 16.2472C8.81826 16.2906 8.90905 16.3132 9.00125 16.3132C9.09345 16.3132 9.18424 16.2906 9.26563 16.2472L17.7031 11.7472C17.793 11.6992 17.8681 11.6277 17.9205 11.5403C17.9729 11.4529 18.0005 11.353 18.0005 11.2511C18.0005 11.1492 17.9729 11.0492 17.9205 10.9619C17.8681 10.8745 17.793 10.803 17.7031 10.755L14.417 9.00109L17.7043 7.24721C17.7941 7.1992 17.8692 7.12769 17.9216 7.04031C17.974 6.95293 18.0017 6.85297 18.0017 6.75109C18.0017 6.64921 17.974 6.54925 17.9216 6.46187C17.8692 6.37449 17.7941 6.30297 17.7043 6.25496L9.26675 1.75497ZM13.2211 9.63897L16.2451 11.2511L9.00238 15.1132L1.75963 11.2511L4.78363 9.63897L8.738 11.7472C8.81938 11.7906 8.91017 11.8132 9.00238 11.8132C9.09458 11.8132 9.18537 11.7906 9.26675 11.7472L13.2211 9.63897ZM9.00238 10.6132L1.75963 6.75109L9.00238 2.88896L16.2451 6.75109L9.00238 10.6132Z" fill="#6C757D"/>
</svg>
