<svg width="24" height="24" viewBox="0 0 24 24" fill="none" xmlns="http://www.w3.org/2000/svg">
<rect width="24" height="24" rx="8" fill="#2A3545"/>
<g clip-path="url(#clip0_740_39190)">
<rect width="12" height="12" transform="translate(6 6)" fill="white" fill-opacity="0.01"/>
<path fill-rule="evenodd" clip-rule="evenodd" d="M8.73615 7.23419C8.77098 7.19927 8.81236 7.17156 8.85792 7.15266C8.90348 7.13375 8.95232 7.12402 9.00165 7.12402C9.05097 7.12402 9.09981 7.13375 9.14537 7.15266C9.19093 7.17156 9.23231 7.19927 9.26715 7.23419L13.7671 11.7342C13.8021 11.769 13.8298 11.8104 13.8487 11.856C13.8676 11.9015 13.8773 11.9504 13.8773 11.9997C13.8773 12.049 13.8676 12.0979 13.8487 12.1434C13.8298 12.189 13.8021 12.2304 13.7671 12.2652L9.26715 16.7652C9.19673 16.8356 9.10123 16.8752 9.00165 16.8752C8.90207 16.8752 8.80656 16.8356 8.73615 16.7652C8.66573 16.6948 8.62617 16.5993 8.62617 16.4997C8.62617 16.4001 8.66573 16.3046 8.73615 16.2342L12.9714 11.9997L8.73615 7.76519C8.70122 7.73036 8.67352 7.68898 8.65461 7.64342C8.63571 7.59786 8.62598 7.54902 8.62598 7.49969C8.62598 7.45037 8.63571 7.40153 8.65461 7.35597C8.67352 7.31041 8.70122 7.26903 8.73615 7.23419Z" fill="white"/>
<path fill-rule="evenodd" clip-rule="evenodd" d="M11.7361 7.23419C11.771 7.19927 11.8124 7.17156 11.8579 7.15266C11.9035 7.13375 11.9523 7.12402 12.0016 7.12402C12.051 7.12402 12.0998 7.13375 12.1454 7.15266C12.1909 7.17156 12.2323 7.19927 12.2671 7.23419L16.7671 11.7342C16.8021 11.769 16.8298 11.8104 16.8487 11.856C16.8676 11.9015 16.8773 11.9504 16.8773 11.9997C16.8773 12.049 16.8676 12.0979 16.8487 12.1434C16.8298 12.189 16.8021 12.2304 16.7671 12.2652L12.2671 16.7652C12.1967 16.8356 12.1012 16.8752 12.0016 16.8752C11.9021 16.8752 11.8066 16.8356 11.7361 16.7652C11.6657 16.6948 11.6262 16.5993 11.6262 16.4997C11.6262 16.4001 11.6657 16.3046 11.7361 16.2342L15.9714 11.9997L11.7361 7.76519C11.7012 7.73036 11.6735 7.68898 11.6546 7.64342C11.6357 7.59786 11.626 7.54902 11.626 7.49969C11.626 7.45037 11.6357 7.40153 11.6546 7.35597C11.6735 7.31041 11.7012 7.26903 11.7361 7.23419Z" fill="white"/>
</g>
<defs>
<clipPath id="clip0_740_39190">
<rect width="12" height="12" fill="white" transform="translate(6 6)"/>
</clipPath>
</defs>
</svg>
