<svg width="48" height="48" viewBox="0 0 48 48" fill="none" xmlns="http://www.w3.org/2000/svg">
<path d="M46 24C46 36.1503 36.1503 46 24 46C11.8497 46 2 36.1503 2 24C2 11.8497 11.8497 2 24 2C36.1503 2 46 11.8497 46 24ZM3.07339 24C3.07339 35.5574 12.4426 44.9266 24 44.9266C35.5574 44.9266 44.9266 35.5574 44.9266 24C44.9266 12.4426 35.5574 3.07339 24 3.07339C12.4426 3.07339 3.07339 12.4426 3.07339 24Z" fill="#E9ECEF"/>
<path d="M24 0C28.2129 5.02381e-08 32.3515 1.10895 36 3.21539C39.6485 5.32183 42.6782 8.35154 44.7846 12L40.212 14.64C38.569 11.7942 36.2058 9.43103 33.36 7.788C30.5142 6.14498 27.286 5.28 24 5.28V0Z" fill="#FF2E4A"/>
<path d="M15.7541 28V20.476L15.9101 19.6H17.3261L17.3141 28H15.7541ZM13.9781 22.252V20.764C14.1781 20.78 14.3941 20.732 14.6261 20.62C14.8581 20.5 15.0861 20.348 15.3101 20.164C15.5421 19.972 15.7421 19.78 15.9101 19.588L16.9541 20.608C16.6661 20.928 16.3621 21.22 16.0421 21.484C15.7221 21.74 15.3901 21.94 15.0461 22.084C14.7101 22.228 14.3541 22.284 13.9781 22.252ZM22.1366 28.144C21.4646 28.144 20.8926 28.048 20.4206 27.856C19.9486 27.656 19.5886 27.384 19.3406 27.04C19.1006 26.688 18.9806 26.28 18.9806 25.816C18.9806 25.32 19.1006 24.884 19.3406 24.508C19.5886 24.132 19.9486 23.836 20.4206 23.62C20.8926 23.404 21.4646 23.3 22.1366 23.308C22.8166 23.3 23.3926 23.404 23.8646 23.62C24.3366 23.836 24.6966 24.132 24.9446 24.508C25.1926 24.884 25.3166 25.32 25.3166 25.816C25.3166 26.28 25.1926 26.688 24.9446 27.04C24.6966 27.384 24.3366 27.656 23.8646 27.856C23.3926 28.048 22.8166 28.144 22.1366 28.144ZM22.1366 26.776C22.5766 26.776 22.9366 26.668 23.2166 26.452C23.4966 26.228 23.6366 25.944 23.6366 25.6C23.6366 25.224 23.4966 24.92 23.2166 24.688C22.9366 24.456 22.5766 24.34 22.1366 24.34C21.8486 24.34 21.5926 24.392 21.3686 24.496C21.1526 24.6 20.9806 24.748 20.8526 24.94C20.7246 25.132 20.6606 25.352 20.6606 25.6C20.6606 25.832 20.7246 26.036 20.8526 26.212C20.9806 26.388 21.1526 26.528 21.3686 26.632C21.5926 26.728 21.8486 26.776 22.1366 26.776ZM22.1366 23.956C21.5366 23.956 21.0206 23.864 20.5886 23.68C20.1566 23.488 19.8246 23.228 19.5926 22.9C19.3686 22.564 19.2566 22.176 19.2566 21.736C19.2566 21.288 19.3686 20.892 19.5926 20.548C19.8246 20.204 20.1566 19.936 20.5886 19.744C21.0206 19.552 21.5366 19.456 22.1366 19.456C22.7446 19.456 23.2646 19.552 23.6966 19.744C24.1286 19.936 24.4606 20.204 24.6926 20.548C24.9246 20.892 25.0406 21.288 25.0406 21.736C25.0406 22.176 24.9246 22.564 24.6926 22.9C24.4606 23.228 24.1286 23.488 23.6966 23.68C23.2646 23.864 22.7446 23.956 22.1366 23.956ZM22.1366 23.032C22.5206 23.032 22.8326 22.928 23.0726 22.72C23.3206 22.512 23.4446 22.248 23.4446 21.928C23.4446 21.584 23.3206 21.308 23.0726 21.1C22.8326 20.884 22.5206 20.776 22.1366 20.776C21.7606 20.776 21.4526 20.884 21.2126 21.1C20.9726 21.308 20.8526 21.584 20.8526 21.928C20.8526 22.248 20.9726 22.512 21.2126 22.72C21.4526 22.928 21.7606 23.032 22.1366 23.032ZM26.9042 28L32.8682 19.6H34.4522L28.4522 28H26.9042ZM33.1322 28.18C32.7562 28.18 32.4202 28.092 32.1242 27.916C31.8282 27.74 31.5962 27.496 31.4282 27.184C31.2682 26.864 31.1882 26.504 31.1882 26.104C31.1882 25.696 31.2682 25.336 31.4282 25.024C31.5962 24.712 31.8282 24.468 32.1242 24.292C32.4202 24.116 32.7562 24.028 33.1322 24.028C33.5162 24.028 33.8522 24.12 34.1402 24.304C34.4362 24.48 34.6682 24.724 34.8362 25.036C35.0042 25.34 35.0882 25.696 35.0882 26.104C35.0882 26.504 35.0042 26.864 34.8362 27.184C34.6682 27.496 34.4362 27.74 34.1402 27.916C33.8522 28.092 33.5162 28.18 33.1322 28.18ZM33.1322 27.052C33.3962 27.052 33.6122 26.964 33.7802 26.788C33.9482 26.604 34.0322 26.376 34.0322 26.104C34.0322 25.84 33.9482 25.62 33.7802 25.444C33.6122 25.26 33.3962 25.168 33.1322 25.168C32.8682 25.168 32.6522 25.26 32.4842 25.444C32.3242 25.62 32.2442 25.84 32.2442 26.104C32.2442 26.376 32.3242 26.604 32.4842 26.788C32.6522 26.964 32.8682 27.052 33.1322 27.052ZM28.2722 23.56C27.8882 23.56 27.5482 23.472 27.2522 23.296C26.9642 23.12 26.7362 22.876 26.5682 22.564C26.4002 22.244 26.3162 21.884 26.3162 21.484C26.3162 21.076 26.3962 20.716 26.5562 20.404C26.7242 20.092 26.9562 19.848 27.2522 19.672C27.5482 19.496 27.8882 19.408 28.2722 19.408C28.6562 19.408 28.9922 19.5 29.2802 19.684C29.5762 19.86 29.8042 20.104 29.9642 20.416C30.1322 20.72 30.2162 21.076 30.2162 21.484C30.2162 21.884 30.1322 22.244 29.9642 22.564C29.8042 22.876 29.5762 23.12 29.2802 23.296C28.9842 23.472 28.6482 23.56 28.2722 23.56ZM28.2602 22.432C28.5322 22.432 28.7482 22.344 28.9082 22.168C29.0762 21.984 29.1602 21.756 29.1602 21.484C29.1602 21.22 29.0762 21 28.9082 20.824C28.7482 20.64 28.5362 20.548 28.2722 20.548C28.0082 20.548 27.7922 20.64 27.6242 20.824C27.4562 21 27.3722 21.22 27.3722 21.484C27.3722 21.756 27.4562 21.984 27.6242 22.168C27.7922 22.344 28.0042 22.432 28.2602 22.432Z" fill="#212529"/>
</svg>
