<svg width="48" height="48" viewBox="0 0 48 48" fill="none" xmlns="http://www.w3.org/2000/svg">
<path d="M46 24C46 36.1503 36.1503 46 24 46C11.8497 46 2 36.1503 2 24C2 11.8497 11.8497 2 24 2C36.1503 2 46 11.8497 46 24ZM3.07339 24C3.07339 35.5574 12.4426 44.9266 24 44.9266C35.5574 44.9266 44.9266 35.5574 44.9266 24C44.9266 12.4426 35.5574 3.07339 24 3.07339C12.4426 3.07339 3.07339 12.4426 3.07339 24Z" fill="#E9ECEF"/>
<path d="M24 0C28.2129 5.02381e-08 32.3515 1.10895 36 3.21539C39.6485 5.32183 42.6782 8.35154 44.7846 12C46.891 15.6485 48 19.7871 48 24C48 28.2129 46.891 32.3515 44.7846 36L40.212 33.36C41.855 30.5142 42.72 27.286 42.72 24C42.72 20.714 41.855 17.4858 40.212 14.64C38.569 11.7942 36.2058 9.43103 33.36 7.78801C30.5142 6.14498 27.286 5.28 24 5.28V0Z" fill="#FFDA6A"/>
<path d="M15.6825 28.144C15.1865 28.144 14.7385 28.072 14.3385 27.928C13.9385 27.776 13.6025 27.564 13.3305 27.292C13.0665 27.012 12.8825 26.684 12.7785 26.308L14.2905 25.864C14.3465 25.96 14.4225 26.08 14.5185 26.224C14.6145 26.36 14.7465 26.476 14.9145 26.572C15.0825 26.668 15.3025 26.716 15.5745 26.716C15.9745 26.716 16.2905 26.608 16.5225 26.392C16.7625 26.168 16.8825 25.88 16.8825 25.528C16.8825 25.288 16.8225 25.076 16.7025 24.892C16.5825 24.708 16.3865 24.568 16.1145 24.472C15.8505 24.368 15.5025 24.316 15.0705 24.316H14.5665V23.2H15.0105C15.4905 23.2 15.9425 23.26 16.3665 23.38C16.7905 23.492 17.1625 23.66 17.4825 23.884C17.8105 24.1 18.0665 24.364 18.2505 24.676C18.4345 24.98 18.5265 25.328 18.5265 25.72C18.5265 26.224 18.3945 26.66 18.1305 27.028C17.8665 27.388 17.5185 27.664 17.0865 27.856C16.6545 28.048 16.1865 28.144 15.6825 28.144ZM14.5665 24.016V22.972H15.0705C15.6305 22.972 16.0465 22.876 16.3185 22.684C16.5905 22.492 16.7265 22.228 16.7265 21.892C16.7265 21.7 16.6785 21.528 16.5825 21.376C16.4865 21.224 16.3505 21.104 16.1745 21.016C15.9985 20.928 15.7945 20.884 15.5625 20.884C15.4105 20.884 15.2545 20.912 15.0945 20.968C14.9345 21.016 14.7865 21.1 14.6505 21.22C14.5225 21.332 14.4185 21.496 14.3385 21.712L12.8505 21.268C12.9625 20.876 13.1545 20.548 13.4265 20.284C13.7065 20.012 14.0385 19.808 14.4225 19.672C14.8065 19.528 15.2025 19.456 15.6105 19.456C16.1305 19.456 16.5985 19.556 17.0145 19.756C17.4305 19.948 17.7585 20.216 17.9985 20.56C18.2385 20.904 18.3585 21.3 18.3585 21.748C18.3585 22.132 18.2665 22.464 18.0825 22.744C17.8985 23.024 17.6465 23.26 17.3265 23.452C17.0145 23.644 16.6585 23.788 16.2585 23.884C15.8585 23.972 15.4425 24.016 15.0105 24.016H14.5665ZM21.1985 27.652L19.5905 26.788C19.5905 26.556 19.6625 26.3 19.8065 26.02C19.9505 25.74 20.1505 25.46 20.4065 25.18C20.6625 24.9 20.9625 24.64 21.3065 24.4L22.5785 23.488C22.7545 23.368 22.9185 23.232 23.0705 23.08C23.2305 22.928 23.3585 22.764 23.4545 22.588C23.5585 22.404 23.6105 22.228 23.6105 22.06C23.6105 21.852 23.5585 21.664 23.4545 21.496C23.3585 21.328 23.2145 21.196 23.0225 21.1C22.8305 21.004 22.5945 20.956 22.3145 20.956C22.0745 20.956 21.8585 21.004 21.6665 21.1C21.4825 21.196 21.3305 21.324 21.2105 21.484C21.0905 21.644 21.0065 21.816 20.9585 22L19.2665 21.712C19.3465 21.312 19.5185 20.94 19.7825 20.596C20.0465 20.252 20.3905 19.976 20.8145 19.768C21.2465 19.552 21.7345 19.444 22.2785 19.444C22.9025 19.444 23.4385 19.556 23.8865 19.78C24.3345 20.004 24.6785 20.312 24.9185 20.704C25.1665 21.088 25.2905 21.536 25.2905 22.048C25.2905 22.568 25.1465 23.032 24.8585 23.44C24.5785 23.84 24.1905 24.216 23.6945 24.568L22.5545 25.396C22.3225 25.548 22.1025 25.732 21.8945 25.948C21.6865 26.156 21.5185 26.4 21.3905 26.68C21.2625 26.952 21.1985 27.276 21.1985 27.652ZM19.5905 28V26.788L20.8145 26.56H25.3985V28H19.5905ZM27.0077 28L32.9717 19.6H34.5557L28.5557 28H27.0077ZM33.2357 28.18C32.8597 28.18 32.5237 28.092 32.2277 27.916C31.9317 27.74 31.6997 27.496 31.5317 27.184C31.3717 26.864 31.2917 26.504 31.2917 26.104C31.2917 25.696 31.3717 25.336 31.5317 25.024C31.6997 24.712 31.9317 24.468 32.2277 24.292C32.5237 24.116 32.8597 24.028 33.2357 24.028C33.6197 24.028 33.9557 24.12 34.2437 24.304C34.5397 24.48 34.7717 24.724 34.9397 25.036C35.1077 25.34 35.1917 25.696 35.1917 26.104C35.1917 26.504 35.1077 26.864 34.9397 27.184C34.7717 27.496 34.5397 27.74 34.2437 27.916C33.9557 28.092 33.6197 28.18 33.2357 28.18ZM33.2357 27.052C33.4997 27.052 33.7157 26.964 33.8837 26.788C34.0517 26.604 34.1357 26.376 34.1357 26.104C34.1357 25.84 34.0517 25.62 33.8837 25.444C33.7157 25.26 33.4997 25.168 33.2357 25.168C32.9717 25.168 32.7557 25.26 32.5877 25.444C32.4277 25.62 32.3477 25.84 32.3477 26.104C32.3477 26.376 32.4277 26.604 32.5877 26.788C32.7557 26.964 32.9717 27.052 33.2357 27.052ZM28.3757 23.56C27.9917 23.56 27.6517 23.472 27.3557 23.296C27.0677 23.12 26.8397 22.876 26.6717 22.564C26.5037 22.244 26.4197 21.884 26.4197 21.484C26.4197 21.076 26.4997 20.716 26.6597 20.404C26.8277 20.092 27.0597 19.848 27.3557 19.672C27.6517 19.496 27.9917 19.408 28.3757 19.408C28.7597 19.408 29.0957 19.5 29.3837 19.684C29.6797 19.86 29.9077 20.104 30.0677 20.416C30.2357 20.72 30.3197 21.076 30.3197 21.484C30.3197 21.884 30.2357 22.244 30.0677 22.564C29.9077 22.876 29.6797 23.12 29.3837 23.296C29.0877 23.472 28.7517 23.56 28.3757 23.56ZM28.3637 22.432C28.6357 22.432 28.8517 22.344 29.0117 22.168C29.1797 21.984 29.2637 21.756 29.2637 21.484C29.2637 21.22 29.1797 21 29.0117 20.824C28.8517 20.64 28.6397 20.548 28.3757 20.548C28.1117 20.548 27.8957 20.64 27.7277 20.824C27.5597 21 27.4757 21.22 27.4757 21.484C27.4757 21.756 27.5597 21.984 27.7277 22.168C27.8957 22.344 28.1077 22.432 28.3637 22.432Z" fill="#212529"/>
</svg>
