<svg width="48" height="48" viewBox="0 0 48 48" fill="none" xmlns="http://www.w3.org/2000/svg">
<path d="M46 24C46 36.1503 36.1503 46 24 46C11.8497 46 2 36.1503 2 24C2 11.8497 11.8497 2 24 2C36.1503 2 46 11.8497 46 24ZM3.07339 24C3.07339 35.5574 12.4426 44.9266 24 44.9266C35.5574 44.9266 44.9266 35.5574 44.9266 24C44.9266 12.4426 35.5574 3.07339 24 3.07339C12.4426 3.07339 3.07339 12.4426 3.07339 24Z" fill="#E9ECEF"/>
<path d="M24 0C28.2129 5.02381e-08 32.3515 1.10895 36 3.21539C39.6485 5.32183 42.6782 8.35154 44.7846 12C46.891 15.6485 48 19.7871 48 24C48 28.2129 46.891 32.3515 44.7846 36C42.6782 39.6485 39.6485 42.6782 36 44.7846C32.3515 46.8911 28.2129 48 24 48C19.7871 48 15.6485 46.891 12 44.7846C8.35154 42.6782 5.32183 39.6485 3.21539 36L7.788 33.36C9.43103 36.2058 11.7942 38.569 14.64 40.212C17.4858 41.855 20.714 42.72 24 42.72C27.286 42.72 30.5142 41.855 33.36 40.212C36.2058 38.569 38.569 36.2058 40.212 33.36C41.855 30.5142 42.72 27.286 42.72 24C42.72 20.714 41.855 17.4858 40.212 14.64C38.569 11.7942 36.2058 9.43103 33.36 7.78801C30.5142 6.14498 27.286 5.28 24 5.28V0Z" fill="#12B76A"/>
<path d="M16.0528 28.144C15.4848 28.144 15.0008 28.044 14.6008 27.844C14.2088 27.636 13.8848 27.352 13.6288 26.992C13.3808 26.632 13.1968 26.216 13.0768 25.744C12.9648 25.264 12.9088 24.748 12.9088 24.196C12.9088 23.556 12.9768 22.952 13.1128 22.384C13.2488 21.808 13.4528 21.3 13.7248 20.86C14.0048 20.42 14.3608 20.076 14.7928 19.828C15.2248 19.58 15.7448 19.456 16.3528 19.456C16.7928 19.456 17.2208 19.52 17.6368 19.648C18.0608 19.776 18.4408 19.96 18.7768 20.2L17.9608 21.4C17.7128 21.224 17.4448 21.096 17.1568 21.016C16.8768 20.936 16.6168 20.896 16.3768 20.896C15.7608 20.896 15.2768 21.168 14.9248 21.712C14.5728 22.256 14.4048 23.116 14.4208 24.292L14.0968 24.064C14.2808 23.624 14.5648 23.272 14.9488 23.008C15.3328 22.744 15.7888 22.612 16.3168 22.612C16.8528 22.612 17.3248 22.736 17.7328 22.984C18.1488 23.232 18.4728 23.572 18.7048 24.004C18.9448 24.428 19.0648 24.904 19.0648 25.432C19.0648 25.952 18.9408 26.42 18.6928 26.836C18.4448 27.244 18.0928 27.564 17.6368 27.796C17.1888 28.028 16.6608 28.144 16.0528 28.144ZM16.0528 26.752C16.3168 26.752 16.5528 26.692 16.7608 26.572C16.9688 26.452 17.1328 26.288 17.2528 26.08C17.3728 25.872 17.4328 25.632 17.4328 25.36C17.4328 25.088 17.3728 24.848 17.2528 24.64C17.1328 24.424 16.9688 24.256 16.7608 24.136C16.5528 24.008 16.3168 23.944 16.0528 23.944C15.7888 23.944 15.5488 24.008 15.3328 24.136C15.1248 24.256 14.9608 24.424 14.8408 24.64C14.7208 24.848 14.6608 25.088 14.6608 25.36C14.6608 25.632 14.7208 25.872 14.8408 26.08C14.9608 26.288 15.1248 26.452 15.3328 26.572C15.5488 26.692 15.7888 26.752 16.0528 26.752ZM23.0858 28.144C22.4138 28.144 21.8418 28.048 21.3698 27.856C20.8978 27.656 20.5378 27.384 20.2898 27.04C20.0498 26.688 19.9298 26.28 19.9298 25.816C19.9298 25.32 20.0498 24.884 20.2898 24.508C20.5378 24.132 20.8978 23.836 21.3698 23.62C21.8418 23.404 22.4138 23.3 23.0858 23.308C23.7658 23.3 24.3418 23.404 24.8138 23.62C25.2858 23.836 25.6458 24.132 25.8938 24.508C26.1418 24.884 26.2658 25.32 26.2658 25.816C26.2658 26.28 26.1418 26.688 25.8938 27.04C25.6458 27.384 25.2858 27.656 24.8138 27.856C24.3418 28.048 23.7658 28.144 23.0858 28.144ZM23.0858 26.776C23.5258 26.776 23.8858 26.668 24.1658 26.452C24.4458 26.228 24.5858 25.944 24.5858 25.6C24.5858 25.224 24.4458 24.92 24.1658 24.688C23.8858 24.456 23.5258 24.34 23.0858 24.34C22.7978 24.34 22.5418 24.392 22.3178 24.496C22.1018 24.6 21.9298 24.748 21.8018 24.94C21.6738 25.132 21.6098 25.352 21.6098 25.6C21.6098 25.832 21.6738 26.036 21.8018 26.212C21.9298 26.388 22.1018 26.528 22.3178 26.632C22.5418 26.728 22.7978 26.776 23.0858 26.776ZM23.0858 23.956C22.4858 23.956 21.9698 23.864 21.5378 23.68C21.1058 23.488 20.7738 23.228 20.5418 22.9C20.3178 22.564 20.2058 22.176 20.2058 21.736C20.2058 21.288 20.3178 20.892 20.5418 20.548C20.7738 20.204 21.1058 19.936 21.5378 19.744C21.9698 19.552 22.4858 19.456 23.0858 19.456C23.6938 19.456 24.2138 19.552 24.6458 19.744C25.0778 19.936 25.4098 20.204 25.6418 20.548C25.8738 20.892 25.9898 21.288 25.9898 21.736C25.9898 22.176 25.8738 22.564 25.6418 22.9C25.4098 23.228 25.0778 23.488 24.6458 23.68C24.2138 23.864 23.6938 23.956 23.0858 23.956ZM23.0858 23.032C23.4698 23.032 23.7818 22.928 24.0218 22.72C24.2698 22.512 24.3938 22.248 24.3938 21.928C24.3938 21.584 24.2698 21.308 24.0218 21.1C23.7818 20.884 23.4698 20.776 23.0858 20.776C22.7098 20.776 22.4018 20.884 22.1618 21.1C21.9218 21.308 21.8018 21.584 21.8018 21.928C21.8018 22.248 21.9218 22.512 22.1618 22.72C22.4018 22.928 22.7098 23.032 23.0858 23.032ZM27.8534 28L33.8174 19.6H35.4014L29.4014 28H27.8534ZM34.0814 28.18C33.7054 28.18 33.3694 28.092 33.0734 27.916C32.7774 27.74 32.5454 27.496 32.3774 27.184C32.2174 26.864 32.1374 26.504 32.1374 26.104C32.1374 25.696 32.2174 25.336 32.3774 25.024C32.5454 24.712 32.7774 24.468 33.0734 24.292C33.3694 24.116 33.7054 24.028 34.0814 24.028C34.4654 24.028 34.8014 24.12 35.0894 24.304C35.3854 24.48 35.6174 24.724 35.7854 25.036C35.9534 25.34 36.0374 25.696 36.0374 26.104C36.0374 26.504 35.9534 26.864 35.7854 27.184C35.6174 27.496 35.3854 27.74 35.0894 27.916C34.8014 28.092 34.4654 28.18 34.0814 28.18ZM34.0814 27.052C34.3454 27.052 34.5614 26.964 34.7294 26.788C34.8974 26.604 34.9814 26.376 34.9814 26.104C34.9814 25.84 34.8974 25.62 34.7294 25.444C34.5614 25.26 34.3454 25.168 34.0814 25.168C33.8174 25.168 33.6014 25.26 33.4334 25.444C33.2734 25.62 33.1934 25.84 33.1934 26.104C33.1934 26.376 33.2734 26.604 33.4334 26.788C33.6014 26.964 33.8174 27.052 34.0814 27.052ZM29.2214 23.56C28.8374 23.56 28.4974 23.472 28.2014 23.296C27.9134 23.12 27.6854 22.876 27.5174 22.564C27.3494 22.244 27.2654 21.884 27.2654 21.484C27.2654 21.076 27.3454 20.716 27.5054 20.404C27.6734 20.092 27.9054 19.848 28.2014 19.672C28.4974 19.496 28.8374 19.408 29.2214 19.408C29.6054 19.408 29.9414 19.5 30.2294 19.684C30.5254 19.86 30.7534 20.104 30.9134 20.416C31.0814 20.72 31.1654 21.076 31.1654 21.484C31.1654 21.884 31.0814 22.244 30.9134 22.564C30.7534 22.876 30.5254 23.12 30.2294 23.296C29.9334 23.472 29.5974 23.56 29.2214 23.56ZM29.2094 22.432C29.4814 22.432 29.6974 22.344 29.8574 22.168C30.0254 21.984 30.1094 21.756 30.1094 21.484C30.1094 21.22 30.0254 21 29.8574 20.824C29.6974 20.64 29.4854 20.548 29.2214 20.548C28.9574 20.548 28.7414 20.64 28.5734 20.824C28.4054 21 28.3214 21.22 28.3214 21.484C28.3214 21.756 28.4054 21.984 28.5734 22.168C28.7414 22.344 28.9534 22.432 29.2094 22.432Z" fill="#212529"/>
</svg>
