<svg width="24" height="24" viewBox="0 0 24 24" fill="none" xmlns="http://www.w3.org/2000/svg">
<rect x="0.5" y="0.5" width="23" height="23" rx="7.5" fill="white"/>
<g clip-path="url(#clip0_1_23848)">
<rect width="14" height="14" transform="translate(5 5)" fill="white" fill-opacity="0.01"/>
<path fill-rule="evenodd" clip-rule="evenodd" d="M8.1903 6.44006C8.23094 6.39931 8.27922 6.36699 8.33237 6.34493C8.38552 6.32288 8.4425 6.31152 8.50005 6.31152C8.5576 6.31152 8.61458 6.32288 8.66773 6.34493C8.72088 6.36699 8.76916 6.39931 8.8098 6.44006L14.0598 11.6901C14.1005 11.7307 14.1329 11.779 14.1549 11.8321C14.177 11.8853 14.1883 11.9423 14.1883 11.9998C14.1883 12.0574 14.177 12.1143 14.1549 12.1675C14.1329 12.2206 14.1005 12.2689 14.0598 12.3096L8.8098 17.5596C8.72765 17.6417 8.61623 17.6879 8.50005 17.6879C8.38387 17.6879 8.27245 17.6417 8.1903 17.5596C8.10815 17.4774 8.062 17.366 8.062 17.2498C8.062 17.1336 8.10815 17.0222 8.1903 16.9401L13.1314 11.9998L8.1903 7.05956C8.14956 7.01892 8.11723 6.97064 8.09518 6.91748C8.07312 6.86433 8.06177 6.80735 8.06177 6.74981C8.06177 6.69226 8.07312 6.63528 8.09518 6.58213C8.11723 6.52897 8.14956 6.4807 8.1903 6.44006Z" fill="#212529"/>
<path fill-rule="evenodd" clip-rule="evenodd" d="M11.6903 6.44006C11.7309 6.39931 11.7792 6.36699 11.8324 6.34493C11.8855 6.32288 11.9425 6.31152 12 6.31152C12.0576 6.31152 12.1146 6.32288 12.1677 6.34493C12.2209 6.36699 12.2692 6.39931 12.3098 6.44006L17.5598 11.6901C17.6005 11.7307 17.6329 11.779 17.6549 11.8321C17.677 11.8853 17.6883 11.9423 17.6883 11.9998C17.6883 12.0574 17.677 12.1143 17.6549 12.1675C17.6329 12.2206 17.6005 12.2689 17.5598 12.3096L12.3098 17.5596C12.2276 17.6417 12.1162 17.6879 12 17.6879C11.8839 17.6879 11.7725 17.6417 11.6903 17.5596C11.6081 17.4774 11.562 17.366 11.562 17.2498C11.562 17.1336 11.6081 17.0222 11.6903 16.9401L16.6314 11.9998L11.6903 7.05956C11.6496 7.01892 11.6172 6.97064 11.5952 6.91748C11.5731 6.86433 11.5618 6.80735 11.5618 6.74981C11.5618 6.69226 11.5731 6.63528 11.5952 6.58213C11.6172 6.52897 11.6496 6.4807 11.6903 6.44006Z" fill="#212529"/>
</g>
<rect x="0.5" y="0.5" width="23" height="23" rx="7.5" stroke="#CED4DA"/>
<defs>
<clipPath id="clip0_1_23848">
<rect width="14" height="14" fill="white" transform="translate(5 5)"/>
</clipPath>
</defs>
</svg>
