<svg width="198" height="100" viewBox="0 0 198 100" fill="none" xmlns="http://www.w3.org/2000/svg">
<g clip-path="url(#clip0_266_181314)">
<circle cx="99" cy="99" r="83" stroke="#C8D2D1" stroke-width="12" stroke-dasharray="1 3"/>
<path opacity="0.2" d="M196 99C196 121.747 188.006 143.77 173.415 161.221C158.824 178.671 138.564 190.439 116.177 194.467C93.7895 198.495 70.6986 194.527 50.94 183.257C31.1814 171.987 16.0121 154.131 8.08338 132.811C0.154635 111.49 -0.0291669 88.0619 7.5641 66.6198C15.1574 45.1778 30.0447 27.0863 49.624 15.5074C69.2033 3.92858 92.2291 -0.401075 114.677 3.27521C137.125 6.9515 157.567 18.3999 172.43 35.6194L99 99H196Z" fill="url(#paint0_radial_266_181314)"/>
<path d="M84.0541 66L79.7661 54.8H81.9581L86.3741 66H84.0541ZM75.2061 66L79.6221 54.8H81.8141L77.5261 66H75.2061ZM77.2861 63.536V61.6H84.3101V63.536H77.2861ZM87.428 66L87.412 54.704H89.524L89.54 66H87.428ZM92.74 66V61.904L94.852 61.424V66H92.74ZM92.74 61.904C92.74 61.36 92.676 60.9387 92.548 60.64C92.42 60.3413 92.244 60.128 92.02 60C91.796 59.8613 91.5347 59.792 91.236 59.792C90.692 59.7813 90.2707 59.9467 89.972 60.288C89.684 60.6293 89.54 61.136 89.54 61.808H88.836C88.836 60.9547 88.9587 60.2347 89.204 59.648C89.46 59.0507 89.812 58.5973 90.26 58.288C90.7187 57.968 91.2467 57.808 91.844 57.808C92.8253 57.808 93.572 58.1067 94.084 58.704C94.596 59.2907 94.852 60.1973 94.852 61.424L92.74 61.904ZM100.281 66.192C99.4917 66.192 98.793 66.016 98.185 65.664C97.577 65.3013 97.097 64.8053 96.745 64.176C96.4037 63.5467 96.233 62.8213 96.233 62C96.233 61.1787 96.409 60.4533 96.761 59.824C97.1237 59.1947 97.6143 58.704 98.233 58.352C98.8623 57.9893 99.5823 57.808 100.393 57.808C101.086 57.808 101.726 57.9947 102.313 58.368C102.91 58.7307 103.39 59.2693 103.753 59.984C104.116 60.688 104.297 61.5467 104.297 62.56H102.153C102.164 61.856 102.089 61.296 101.929 60.88C101.78 60.4533 101.566 60.1493 101.289 59.968C101.012 59.776 100.686 59.68 100.313 59.68C99.9183 59.68 99.5823 59.7653 99.305 59.936C99.0383 60.1067 98.8357 60.368 98.697 60.72C98.5583 61.0613 98.489 61.5093 98.489 62.064C98.489 62.544 98.5797 62.944 98.761 63.264C98.9423 63.584 99.1877 63.8293 99.497 64C99.8063 64.16 100.142 64.24 100.505 64.24C100.921 64.24 101.257 64.1493 101.513 63.968C101.78 63.7867 101.982 63.552 102.121 63.264L104.105 64.032C103.87 64.48 103.577 64.8693 103.225 65.2C102.873 65.52 102.452 65.7653 101.961 65.936C101.47 66.1067 100.91 66.192 100.281 66.192ZM97.609 62.56L97.625 60.912H103.257V62.56H97.609ZM110.542 66L110.494 61.952C110.494 61.472 110.441 61.0667 110.334 60.736C110.238 60.3947 110.078 60.1387 109.854 59.968C109.641 59.7867 109.353 59.696 108.99 59.696C108.67 59.696 108.382 59.7653 108.126 59.904C107.87 60.0427 107.651 60.2667 107.47 60.576L105.582 59.936C105.731 59.5947 105.945 59.264 106.222 58.944C106.51 58.6133 106.883 58.3413 107.342 58.128C107.811 57.9147 108.377 57.808 109.038 57.808C109.838 57.808 110.505 57.952 111.038 58.24C111.571 58.528 111.971 58.9547 112.238 59.52C112.505 60.0747 112.638 60.7573 112.638 61.568V66H110.542ZM108.382 66.192C107.422 66.192 106.675 65.9787 106.142 65.552C105.619 65.1253 105.358 64.5227 105.358 63.744C105.358 62.8907 105.641 62.2507 106.206 61.824C106.782 61.3867 107.587 61.168 108.622 61.168H110.926L110.958 62.736H109.358C108.665 62.736 108.185 62.8213 107.918 62.992C107.651 63.152 107.518 63.3813 107.518 63.68C107.518 63.9147 107.625 64.1013 107.838 64.24C108.051 64.368 108.35 64.432 108.734 64.432C109.075 64.432 109.374 64.352 109.63 64.192C109.897 64.0213 110.105 63.808 110.254 63.552C110.403 63.2853 110.478 63.0133 110.478 62.736H111.07C111.07 63.824 110.857 64.672 110.43 65.28C110.014 65.888 109.331 66.192 108.382 66.192ZM120.014 66L119.902 64.512V54.8H122.014V66H120.014ZM117.502 66.192C116.766 66.192 116.126 66.0213 115.582 65.68C115.049 65.3387 114.633 64.8533 114.334 64.224C114.036 63.5947 113.886 62.8533 113.886 62C113.886 61.136 114.036 60.3947 114.334 59.776C114.633 59.1467 115.049 58.6613 115.582 58.32C116.126 57.9787 116.766 57.808 117.502 57.808C118.174 57.808 118.74 57.9787 119.198 58.32C119.668 58.6613 120.025 59.1467 120.27 59.776C120.516 60.3947 120.638 61.136 120.638 62C120.638 62.8533 120.516 63.5947 120.27 64.224C120.025 64.8533 119.668 65.3387 119.198 65.68C118.74 66.0213 118.174 66.192 117.502 66.192ZM118.046 64.256C118.409 64.256 118.729 64.16 119.006 63.968C119.294 63.776 119.518 63.5093 119.678 63.168C119.838 62.8267 119.918 62.4373 119.918 62C119.918 61.5627 119.838 61.1733 119.678 60.832C119.518 60.4907 119.294 60.2293 119.006 60.048C118.729 59.856 118.404 59.76 118.03 59.76C117.646 59.76 117.31 59.856 117.022 60.048C116.734 60.2293 116.505 60.4907 116.334 60.832C116.164 61.1733 116.078 61.5627 116.078 62C116.078 62.4373 116.164 62.8267 116.334 63.168C116.505 63.5093 116.734 63.776 117.022 63.968C117.321 64.16 117.662 64.256 118.046 64.256Z" fill="#039855"/>
</g>
<g clip-path="url(#clip1_266_181314)">
<circle cx="99" cy="99" r="16" fill="#89A7A7" fill-opacity="0.12"/>
<line x1="101.293" y1="97.2929" x2="120.293" y2="78.2929" stroke="#C8D2D1" stroke-width="2"/>
<line x1="113.293" y1="85.2929" x2="120.293" y2="78.2929" stroke="#5B6362" stroke-width="2"/>
<circle cx="99" cy="99" r="4" fill="#C8D2D1"/>
</g>
<path d="M33.2 93.12C32.6667 93.12 32.1933 92.9667 31.78 92.66C31.3667 92.3467 31.0433 91.92 30.81 91.38C30.5767 90.8333 30.46 90.2067 30.46 89.5C30.46 88.7933 30.5767 88.17 30.81 87.63C31.0433 87.0833 31.3633 86.6567 31.77 86.35C32.1833 86.0367 32.66 85.88 33.2 85.88C33.74 85.88 34.2133 86.0367 34.62 86.35C35.0333 86.6567 35.3567 87.0833 35.59 87.63C35.83 88.17 35.95 88.7933 35.95 89.5C35.95 90.2067 35.8333 90.8333 35.6 91.38C35.3667 91.92 35.0433 92.3467 34.63 92.66C34.2167 92.9667 33.74 93.12 33.2 93.12ZM33.2 92.36C33.5733 92.36 33.9033 92.2367 34.19 91.99C34.4833 91.7433 34.71 91.4067 34.87 90.98C35.0367 90.5533 35.12 90.06 35.12 89.5C35.12 88.94 35.0367 88.4467 34.87 88.02C34.71 87.5867 34.4833 87.25 34.19 87.01C33.9033 86.7633 33.5733 86.64 33.2 86.64C32.8267 86.64 32.4967 86.7633 32.21 87.01C31.9233 87.25 31.6967 87.5867 31.53 88.02C31.37 88.4467 31.29 88.94 31.29 89.5C31.29 90.06 31.37 90.5533 31.53 90.98C31.6967 91.4067 31.9233 91.7433 32.21 91.99C32.5033 92.2367 32.8333 92.36 33.2 92.36Z" fill="#6C757D"/>
<path d="M158.505 93.12C158.225 93.12 157.939 93.08 157.645 93C157.359 92.9133 157.085 92.7833 156.825 92.61C156.572 92.4367 156.362 92.2133 156.195 91.94L156.875 91.55C157.109 91.8433 157.362 92.0567 157.635 92.19C157.909 92.3233 158.192 92.39 158.485 92.39C158.945 92.39 159.319 92.25 159.605 91.97C159.899 91.6833 160.045 91.31 160.045 90.85C160.045 90.3967 159.905 90.0267 159.625 89.74C159.345 89.4533 158.979 89.31 158.525 89.31C158.279 89.31 158.035 89.3667 157.795 89.48C157.555 89.5867 157.369 89.72 157.235 89.88L156.475 89.7L156.815 86H160.545V86.76H156.865L156.815 86.03H157.655L157.265 89.74L156.615 89.7C156.709 89.5533 156.825 89.4167 156.965 89.29C157.105 89.1633 157.265 89.05 157.445 88.95C157.632 88.8433 157.829 88.76 158.035 88.7C158.242 88.64 158.452 88.6133 158.665 88.62C159.092 88.62 159.472 88.7133 159.805 88.9C160.139 89.0867 160.402 89.3467 160.595 89.68C160.789 90.0133 160.885 90.3967 160.885 90.83C160.885 91.2833 160.782 91.6833 160.575 92.03C160.375 92.37 160.095 92.6367 159.735 92.83C159.382 93.0233 158.972 93.12 158.505 93.12ZM164.917 93.12C164.417 93.12 163.977 93.04 163.597 92.88C163.217 92.7133 162.924 92.4867 162.717 92.2C162.511 91.9067 162.407 91.5667 162.407 91.18C162.407 90.7733 162.511 90.4167 162.717 90.11C162.924 89.8033 163.217 89.5667 163.597 89.4C163.977 89.2267 164.417 89.14 164.917 89.14C165.431 89.14 165.874 89.2267 166.247 89.4C166.627 89.5667 166.921 89.8033 167.127 90.11C167.341 90.4167 167.447 90.7733 167.447 91.18C167.447 91.5667 167.341 91.9067 167.127 92.2C166.921 92.4867 166.627 92.7133 166.247 92.88C165.874 93.04 165.431 93.12 164.917 93.12ZM164.917 92.38C165.411 92.38 165.814 92.2633 166.127 92.03C166.441 91.79 166.597 91.48 166.597 91.1C166.597 90.7133 166.441 90.4 166.127 90.16C165.814 89.9133 165.411 89.79 164.917 89.79C164.597 89.79 164.311 89.8467 164.057 89.96C163.811 90.0667 163.614 90.22 163.467 90.42C163.327 90.6133 163.257 90.84 163.257 91.1C163.257 91.3533 163.327 91.5767 163.467 91.77C163.614 91.9633 163.811 92.1133 164.057 92.22C164.311 92.3267 164.597 92.38 164.917 92.38ZM164.917 89.63C164.471 89.63 164.077 89.5533 163.737 89.4C163.397 89.24 163.134 89.0233 162.947 88.75C162.761 88.47 162.667 88.1467 162.667 87.78C162.667 87.4067 162.761 87.0767 162.947 86.79C163.134 86.5033 163.397 86.28 163.737 86.12C164.077 85.96 164.471 85.88 164.917 85.88C165.377 85.88 165.774 85.96 166.107 86.12C166.447 86.28 166.711 86.5033 166.897 86.79C167.091 87.0767 167.187 87.4067 167.187 87.78C167.187 88.1467 167.091 88.47 166.897 88.75C166.711 89.0233 166.447 89.24 166.107 89.4C165.774 89.5533 165.377 89.63 164.917 89.63ZM164.917 89C165.337 89 165.681 88.8967 165.947 88.69C166.221 88.4767 166.357 88.2 166.357 87.86C166.357 87.4867 166.221 87.1867 165.947 86.96C165.681 86.7267 165.337 86.61 164.917 86.61C164.504 86.61 164.164 86.7267 163.897 86.96C163.631 87.1867 163.497 87.4867 163.497 87.86C163.497 88.2 163.631 88.4767 163.897 88.69C164.164 88.8967 164.504 89 164.917 89Z" fill="#6C757D"/>
<path d="M167.127 40.1895C155.116 26.2757 139.133 16.3731 121.326 11.8132C103.52 7.25344 84.7443 8.2551 67.5241 14.6835C50.3039 21.1119 35.4648 32.6589 25.0023 47.7717C14.5398 62.8845 8.95546 80.8384 9.00027 99.2194L23.4002 99.1843C23.3626 83.7443 28.0534 68.663 36.8419 55.9682C45.6305 43.2735 58.0953 33.574 72.5603 28.1742C87.0252 22.7743 102.797 21.9329 117.754 25.7631C132.712 29.5934 146.138 37.9116 156.227 49.5992L167.127 40.1895Z" fill="url(#paint1_angular_266_181314)"/>
<defs>
<radialGradient id="paint0_radial_266_181314" cx="0" cy="0" r="1" gradientUnits="userSpaceOnUse" gradientTransform="translate(99 99) rotate(90) scale(97)">
<stop offset="0.785075" stop-color="#C8D2D1" stop-opacity="0"/>
<stop offset="1" stop-color="#C8D2D1"/>
</radialGradient>
<radialGradient id="paint1_angular_266_181314" cx="0" cy="0" r="1" gradientUnits="userSpaceOnUse" gradientTransform="translate(105 102.5) rotate(-90) scale(93.5)">
<stop offset="0.148082" stop-color="#12B76A"/>
<stop offset="0.757489" stop-color="#32D583"/>
</radialGradient>
<clipPath id="clip0_266_181314">
<rect width="198" height="99" fill="white"/>
</clipPath>
<clipPath id="clip1_266_181314">
<rect width="46" height="23" fill="white" transform="translate(76 77)"/>
</clipPath>
</defs>
</svg>
