<svg width="17" height="16" viewBox="0 0 17 16" fill="none" xmlns="http://www.w3.org/2000/svg">
<g clip-path="url(#clip0_1_80496)">
<path d="M14.4997 0.999176C14.7649 0.999176 15.0192 1.10453 15.2068 1.29207C15.3943 1.47961 15.4997 1.73396 15.4997 1.99918V13.9992C15.4997 14.2644 15.3943 14.5187 15.2068 14.7063C15.0192 14.8938 14.7649 14.9992 14.4997 14.9992H2.49966C2.23445 14.9992 1.98009 14.8938 1.79256 14.7063C1.60502 14.5187 1.49966 14.2644 1.49966 13.9992V1.99918C1.49966 1.73396 1.60502 1.47961 1.79256 1.29207C1.98009 1.10453 2.23445 0.999176 2.49966 0.999176H14.4997ZM2.49966 -0.000823975C1.96923 -0.000823975 1.46052 0.20989 1.08545 0.584962C0.710378 0.960035 0.499664 1.46874 0.499664 1.99918V13.9992C0.499664 14.5296 0.710378 15.0383 1.08545 15.4134C1.46052 15.7885 1.96923 15.9992 2.49966 15.9992H14.4997C15.0301 15.9992 15.5388 15.7885 15.9139 15.4134C16.2889 15.0383 16.4997 14.5296 16.4997 13.9992V1.99918C16.4997 1.46874 16.2889 0.960035 15.9139 0.584962C15.5388 0.20989 15.0301 -0.000823975 14.4997 -0.000823975H2.49966Z" fill="white"/>
<path d="M8.49966 3.99918C8.63227 3.99918 8.75945 4.05185 8.85322 4.14562C8.94699 4.23939 8.99966 4.36657 8.99966 4.49918V7.49918H11.9997C12.1323 7.49918 12.2594 7.55185 12.3532 7.64562C12.447 7.73939 12.4997 7.86657 12.4997 7.99918C12.4997 8.13178 12.447 8.25896 12.3532 8.35273C12.2594 8.4465 12.1323 8.49918 11.9997 8.49918H8.99966V11.4992C8.99966 11.6318 8.94699 11.759 8.85322 11.8527C8.75945 11.9465 8.63227 11.9992 8.49966 11.9992C8.36706 11.9992 8.23988 11.9465 8.14611 11.8527C8.05234 11.759 7.99966 11.6318 7.99966 11.4992V8.49918H4.99966C4.86706 8.49918 4.73988 8.4465 4.64611 8.35273C4.55234 8.25896 4.49966 8.13178 4.49966 7.99918C4.49966 7.86657 4.55234 7.73939 4.64611 7.64562C4.73988 7.55185 4.86706 7.49918 4.99966 7.49918H7.99966V4.49918C7.99966 4.36657 8.05234 4.23939 8.14611 4.14562C8.23988 4.05185 8.36706 3.99918 8.49966 3.99918Z" fill="white"/>
</g>
<defs>
<clipPath id="clip0_1_80496">
<rect width="16" height="16" fill="white" transform="translate(0.5)"/>
</clipPath>
</defs>
</svg>
