<svg width="16" height="16" viewBox="0 0 16 16" fill="none" xmlns="http://www.w3.org/2000/svg">
<g clip-path="url(#clip0_12_10795)">
<path d="M13.9996 0.999176C14.2649 0.999176 14.5192 1.10453 14.7068 1.29207C14.8943 1.47961 14.9996 1.73396 14.9996 1.99918V13.9992C14.9996 14.2644 14.8943 14.5187 14.7068 14.7063C14.5192 14.8938 14.2649 14.9992 13.9996 14.9992H1.99965C1.73443 14.9992 1.48008 14.8938 1.29254 14.7063C1.10501 14.5187 0.999649 14.2644 0.999649 13.9992V1.99918C0.999649 1.73396 1.10501 1.47961 1.29254 1.29207C1.48008 1.10453 1.73443 0.999176 1.99965 0.999176H13.9996ZM1.99965 -0.000823975C1.46922 -0.000823975 0.960508 0.20989 0.585436 0.584962C0.210363 0.960035 -0.000350952 1.46874 -0.000350952 1.99918V13.9992C-0.000350952 14.5296 0.210363 15.0383 0.585436 15.4134C0.960508 15.7885 1.46922 15.9992 1.99965 15.9992H13.9996C14.5301 15.9992 15.0388 15.7885 15.4139 15.4134C15.7889 15.0383 15.9996 14.5296 15.9996 13.9992V1.99918C15.9996 1.46874 15.7889 0.960035 15.4139 0.584962C15.0388 0.20989 14.5301 -0.000823975 13.9996 -0.000823975H1.99965Z" fill="black"/>
<path d="M7.99965 3.99918C8.13226 3.99918 8.25943 4.05185 8.3532 4.14562C8.44697 4.23939 8.49965 4.36657 8.49965 4.49918V7.49918H11.4996C11.6323 7.49918 11.7594 7.55185 11.8532 7.64562C11.947 7.73939 11.9996 7.86657 11.9996 7.99918C11.9996 8.13178 11.947 8.25896 11.8532 8.35273C11.7594 8.4465 11.6323 8.49918 11.4996 8.49918H8.49965V11.4992C8.49965 11.6318 8.44697 11.759 8.3532 11.8527C8.25943 11.9465 8.13226 11.9992 7.99965 11.9992C7.86704 11.9992 7.73986 11.9465 7.6461 11.8527C7.55233 11.759 7.49965 11.6318 7.49965 11.4992V8.49918H4.49965C4.36704 8.49918 4.23986 8.4465 4.1461 8.35273C4.05233 8.25896 3.99965 8.13178 3.99965 7.99918C3.99965 7.86657 4.05233 7.73939 4.1461 7.64562C4.23986 7.55185 4.36704 7.49918 4.49965 7.49918H7.49965V4.49918C7.49965 4.36657 7.55233 4.23939 7.6461 4.14562C7.73986 4.05185 7.86704 3.99918 7.99965 3.99918Z" fill="black"/>
</g>
<defs>
<clipPath id="clip0_12_10795">
<rect width="16" height="16" fill="white"/>
</clipPath>
</defs>
</svg>
