<svg width="17" height="16" viewBox="0 0 17 16" fill="none" xmlns="http://www.w3.org/2000/svg">
<g clip-path="url(#clip0_8_25878)">
<path d="M8.49966 14.9992C6.64315 14.9992 4.86267 14.2617 3.54992 12.9489C2.23716 11.6362 1.49966 9.85569 1.49966 7.99918C1.49966 6.14266 2.23716 4.36218 3.54992 3.04943C4.86267 1.73667 6.64315 0.999176 8.49966 0.999176C10.3562 0.999176 12.1367 1.73667 13.4494 3.04943C14.7622 4.36218 15.4997 6.14266 15.4997 7.99918C15.4997 9.85569 14.7622 11.6362 13.4494 12.9489C12.1367 14.2617 10.3562 14.9992 8.49966 14.9992ZM8.49966 15.9992C10.6214 15.9992 12.6562 15.1563 14.1565 13.656C15.6568 12.1557 16.4997 10.1209 16.4997 7.99918C16.4997 5.87744 15.6568 3.84261 14.1565 2.34232C12.6562 0.842031 10.6214 -0.000823975 8.49966 -0.000823975C6.37793 -0.000823975 4.3431 0.842031 2.84281 2.34232C1.34252 3.84261 0.499664 5.87744 0.499664 7.99918C0.499664 10.1209 1.34252 12.1557 2.84281 13.656C4.3431 15.1563 6.37793 15.9992 8.49966 15.9992Z" fill="white"/>
<path d="M8.49966 3.99918C8.63227 3.99918 8.75945 4.05185 8.85322 4.14562C8.94699 4.23939 8.99966 4.36657 8.99966 4.49918V7.49918H11.9997C12.1323 7.49918 12.2594 7.55185 12.3532 7.64562C12.447 7.73939 12.4997 7.86657 12.4997 7.99918C12.4997 8.13178 12.447 8.25896 12.3532 8.35273C12.2594 8.4465 12.1323 8.49918 11.9997 8.49918H8.99966V11.4992C8.99966 11.6318 8.94699 11.759 8.85322 11.8527C8.75945 11.9465 8.63227 11.9992 8.49966 11.9992C8.36706 11.9992 8.23988 11.9465 8.14611 11.8527C8.05234 11.759 7.99966 11.6318 7.99966 11.4992V8.49918H4.99966C4.86706 8.49918 4.73988 8.4465 4.64611 8.35273C4.55234 8.25896 4.49966 8.13178 4.49966 7.99918C4.49966 7.86657 4.55234 7.73939 4.64611 7.64562C4.73988 7.55185 4.86706 7.49918 4.99966 7.49918H7.99966V4.49918C7.99966 4.36657 8.05234 4.23939 8.14611 4.14562C8.23988 4.05185 8.36706 3.99918 8.49966 3.99918Z" fill="white"/>
</g>
<defs>
<clipPath id="clip0_8_25878">
<rect width="16" height="16" fill="white" transform="translate(0.5)"/>
</clipPath>
</defs>
</svg>
