<svg width="17" height="16" viewBox="0 0 17 16" fill="none" xmlns="http://www.w3.org/2000/svg">
<g clip-path="url(#clip0_8_25767)">
<path d="M8.49966 14.9992C6.64315 14.9992 4.86267 14.2617 3.54992 12.949C2.23716 11.6362 1.49966 9.85572 1.49966 7.99921C1.49966 6.14269 2.23716 4.36221 3.54992 3.04946C4.86267 1.7367 6.64315 0.999207 8.49966 0.999207C10.3562 0.999207 12.1367 1.7367 13.4494 3.04946C14.7622 4.36221 15.4997 6.14269 15.4997 7.99921C15.4997 9.85572 14.7622 11.6362 13.4494 12.949C12.1367 14.2617 10.3562 14.9992 8.49966 14.9992ZM8.49966 15.9992C10.6214 15.9992 12.6562 15.1564 14.1565 13.6561C15.6568 12.1558 16.4997 10.1209 16.4997 7.99921C16.4997 5.87747 15.6568 3.84264 14.1565 2.34235C12.6562 0.842061 10.6214 -0.000793457 8.49966 -0.000793457C6.37793 -0.000793457 4.3431 0.842061 2.84281 2.34235C1.34252 3.84264 0.499664 5.87747 0.499664 7.99921C0.499664 10.1209 1.34252 12.1558 2.84281 13.6561C4.3431 15.1564 6.37793 15.9992 8.49966 15.9992Z" fill="#407FFF"/>
<path d="M8.49966 3.99921C8.63227 3.99921 8.75945 4.05189 8.85322 4.14565C8.94699 4.23942 8.99966 4.3666 8.99966 4.49921V7.49921H11.9997C12.1323 7.49921 12.2594 7.55189 12.3532 7.64565C12.447 7.73942 12.4997 7.8666 12.4997 7.99921C12.4997 8.13181 12.447 8.25899 12.3532 8.35276C12.2594 8.44653 12.1323 8.49921 11.9997 8.49921H8.99966V11.4992C8.99966 11.6318 8.94699 11.759 8.85322 11.8528C8.75945 11.9465 8.63227 11.9992 8.49966 11.9992C8.36706 11.9992 8.23988 11.9465 8.14611 11.8528C8.05234 11.759 7.99966 11.6318 7.99966 11.4992V8.49921H4.99966C4.86706 8.49921 4.73988 8.44653 4.64611 8.35276C4.55234 8.25899 4.49966 8.13181 4.49966 7.99921C4.49966 7.8666 4.55234 7.73942 4.64611 7.64565C4.73988 7.55189 4.86706 7.49921 4.99966 7.49921H7.99966V4.49921C7.99966 4.3666 8.05234 4.23942 8.14611 4.14565C8.23988 4.05189 8.36706 3.99921 8.49966 3.99921Z" fill="#407FFF"/>
</g>
<defs>
<clipPath id="clip0_8_25767">
<rect width="16" height="16" fill="white" transform="translate(0.5)"/>
</clipPath>
</defs>
</svg>
