<svg width="16" height="16" viewBox="0 0 16 16" fill="none" xmlns="http://www.w3.org/2000/svg">
<path fill-rule="evenodd" clip-rule="evenodd" d="M7.99963 1.99921C8.13224 1.99921 8.25942 2.05189 8.35319 2.14565C8.44696 2.23942 8.49963 2.3666 8.49963 2.49921V7.49921H13.4996C13.6322 7.49921 13.7594 7.55189 13.8532 7.64565C13.947 7.73942 13.9996 7.8666 13.9996 7.99921C13.9996 8.13181 13.947 8.25899 13.8532 8.35276C13.7594 8.44653 13.6322 8.49921 13.4996 8.49921H8.49963V13.4992C8.49963 13.6318 8.44696 13.759 8.35319 13.8528C8.25942 13.9465 8.13224 13.9992 7.99963 13.9992C7.86703 13.9992 7.73985 13.9465 7.64608 13.8528C7.55231 13.759 7.49963 13.6318 7.49963 13.4992V8.49921H2.49963C2.36703 8.49921 2.23985 8.44653 2.14608 8.35276C2.05231 8.25899 1.99963 8.13181 1.99963 7.99921C1.99963 7.8666 2.05231 7.73942 2.14608 7.64565C2.23985 7.55189 2.36703 7.49921 2.49963 7.49921H7.49963V2.49921C7.49963 2.3666 7.55231 2.23942 7.64608 2.14565C7.73985 2.05189 7.86703 1.99921 7.99963 1.99921V1.99921Z" fill="#495057"/>
</svg>
