<svg width="17" height="16" viewBox="0 0 17 16" fill="none" xmlns="http://www.w3.org/2000/svg">
<g clip-path="url(#clip0_8_25734)">
<path d="M14.4996 0.999207C14.7649 0.999207 15.0192 1.10456 15.2067 1.2921C15.3943 1.47964 15.4996 1.73399 15.4996 1.99921V13.9992C15.4996 14.2644 15.3943 14.5188 15.2067 14.7063C15.0192 14.8938 14.7649 14.9992 14.4996 14.9992H2.49963C2.23442 14.9992 1.98006 14.8938 1.79253 14.7063C1.60499 14.5188 1.49963 14.2644 1.49963 13.9992V1.99921C1.49963 1.73399 1.60499 1.47964 1.79253 1.2921C1.98006 1.10456 2.23442 0.999207 2.49963 0.999207H14.4996ZM2.49963 -0.000793457C1.9692 -0.000793457 1.46049 0.20992 1.08542 0.584993C0.710348 0.960066 0.499634 1.46877 0.499634 1.99921V13.9992C0.499634 14.5296 0.710348 15.0383 1.08542 15.4134C1.46049 15.7885 1.9692 15.9992 2.49963 15.9992H14.4996C15.0301 15.9992 15.5388 15.7885 15.9138 15.4134C16.2889 15.0383 16.4996 14.5296 16.4996 13.9992V1.99921C16.4996 1.46877 16.2889 0.960066 15.9138 0.584993C15.5388 0.20992 15.0301 -0.000793457 14.4996 -0.000793457H2.49963Z" fill="#407FFF"/>
<path d="M8.49963 3.99921C8.63224 3.99921 8.75942 4.05189 8.85319 4.14565C8.94696 4.23942 8.99963 4.3666 8.99963 4.49921V7.49921H11.9996C12.1322 7.49921 12.2594 7.55189 12.3532 7.64565C12.447 7.73942 12.4996 7.8666 12.4996 7.99921C12.4996 8.13181 12.447 8.25899 12.3532 8.35276C12.2594 8.44653 12.1322 8.49921 11.9996 8.49921H8.99963V11.4992C8.99963 11.6318 8.94696 11.759 8.85319 11.8528C8.75942 11.9465 8.63224 11.9992 8.49963 11.9992C8.36703 11.9992 8.23985 11.9465 8.14608 11.8528C8.05231 11.759 7.99963 11.6318 7.99963 11.4992V8.49921H4.99963C4.86703 8.49921 4.73985 8.44653 4.64608 8.35276C4.55231 8.25899 4.49963 8.13181 4.49963 7.99921C4.49963 7.8666 4.55231 7.73942 4.64608 7.64565C4.73985 7.55189 4.86703 7.49921 4.99963 7.49921H7.99963V4.49921C7.99963 4.3666 8.05231 4.23942 8.14608 4.14565C8.23985 4.05189 8.36703 3.99921 8.49963 3.99921Z" fill="#407FFF"/>
</g>
<defs>
<clipPath id="clip0_8_25734">
<rect width="16" height="16" fill="white" transform="translate(0.5)"/>
</clipPath>
</defs>
</svg>
