<svg width="14" height="14" viewBox="0 0 14 14" fill="none" xmlns="http://www.w3.org/2000/svg">
<path fill-rule="evenodd" clip-rule="evenodd" d="M4.0649 1.43945C4.10554 1.3987 4.15382 1.36638 4.20697 1.34432C4.26013 1.32227 4.31711 1.31091 4.37465 1.31091C4.4322 1.31091 4.48918 1.32227 4.54233 1.34432C4.59548 1.36638 4.64376 1.3987 4.6844 1.43945L9.9344 6.68944C9.97515 6.73008 10.0075 6.77836 10.0295 6.83152C10.0516 6.88467 10.0629 6.94165 10.0629 6.99919C10.0629 7.05674 10.0516 7.11372 10.0295 7.16687C10.0075 7.22003 9.97515 7.26831 9.9344 7.30895L4.6844 12.5589C4.60225 12.6411 4.49083 12.6872 4.37465 12.6872C4.25847 12.6872 4.14705 12.6411 4.0649 12.5589C3.98275 12.4768 3.9366 12.3654 3.9366 12.2492C3.9366 12.133 3.98275 12.0216 4.0649 11.9394L9.00603 6.99919L4.0649 2.05895C4.02416 2.01831 3.99183 1.97003 3.96978 1.91687C3.94772 1.86372 3.93637 1.80674 3.93637 1.7492C3.93637 1.69165 3.94772 1.63467 3.96978 1.58152C3.99183 1.52836 4.02416 1.48009 4.0649 1.43945V1.43945Z" fill="white" fill-opacity="0.7"/>
</svg>
