<svg width="17" height="16" viewBox="0 0 17 16" fill="none" xmlns="http://www.w3.org/2000/svg">
<g clip-path="url(#clip0_8_25745)">
<path d="M8.49963 14.9992C6.64312 14.9992 4.86264 14.2617 3.54989 12.949C2.23713 11.6362 1.49963 9.85572 1.49963 7.99921C1.49963 6.14269 2.23713 4.36221 3.54989 3.04946C4.86264 1.7367 6.64312 0.999207 8.49963 0.999207C10.3561 0.999207 12.1366 1.7367 13.4494 3.04946C14.7621 4.36221 15.4996 6.14269 15.4996 7.99921C15.4996 9.85572 14.7621 11.6362 13.4494 12.949C12.1366 14.2617 10.3561 14.9992 8.49963 14.9992ZM8.49963 15.9992C10.6214 15.9992 12.6562 15.1564 14.1565 13.6561C15.6568 12.1558 16.4996 10.1209 16.4996 7.99921C16.4996 5.87747 15.6568 3.84264 14.1565 2.34235C12.6562 0.842061 10.6214 -0.000793457 8.49963 -0.000793457C6.3779 -0.000793457 4.34307 0.842061 2.84278 2.34235C1.34249 3.84264 0.499634 5.87747 0.499634 7.99921C0.499634 10.1209 1.34249 12.1558 2.84278 13.6561C4.34307 15.1564 6.3779 15.9992 8.49963 15.9992Z" fill="#407FFF"/>
<path d="M8.49963 3.99921C8.63224 3.99921 8.75942 4.05189 8.85319 4.14565C8.94696 4.23942 8.99963 4.3666 8.99963 4.49921V7.49921H11.9996C12.1322 7.49921 12.2594 7.55189 12.3532 7.64565C12.447 7.73942 12.4996 7.8666 12.4996 7.99921C12.4996 8.13181 12.447 8.25899 12.3532 8.35276C12.2594 8.44653 12.1322 8.49921 11.9996 8.49921H8.99963V11.4992C8.99963 11.6318 8.94696 11.759 8.85319 11.8528C8.75942 11.9465 8.63224 11.9992 8.49963 11.9992C8.36703 11.9992 8.23985 11.9465 8.14608 11.8528C8.05231 11.759 7.99963 11.6318 7.99963 11.4992V8.49921H4.99963C4.86703 8.49921 4.73985 8.44653 4.64608 8.35276C4.55231 8.25899 4.49963 8.13181 4.49963 7.99921C4.49963 7.8666 4.55231 7.73942 4.64608 7.64565C4.73985 7.55189 4.86703 7.49921 4.99963 7.49921H7.99963V4.49921C7.99963 4.3666 8.05231 4.23942 8.14608 4.14565C8.23985 4.05189 8.36703 3.99921 8.49963 3.99921Z" fill="#407FFF"/>
</g>
<defs>
<clipPath id="clip0_8_25745">
<rect width="16" height="16" fill="white" transform="translate(0.5)"/>
</clipPath>
</defs>
</svg>
