<svg width="17" height="16" viewBox="0 0 17 16" fill="none" xmlns="http://www.w3.org/2000/svg">
<g clip-path="url(#clip0_8_25756)">
<path d="M14.4997 0.999207C14.7649 0.999207 15.0192 1.10456 15.2068 1.2921C15.3943 1.47964 15.4997 1.73399 15.4997 1.99921V13.9992C15.4997 14.2644 15.3943 14.5188 15.2068 14.7063C15.0192 14.8938 14.7649 14.9992 14.4997 14.9992H2.49966C2.23445 14.9992 1.98009 14.8938 1.79256 14.7063C1.60502 14.5188 1.49966 14.2644 1.49966 13.9992V1.99921C1.49966 1.73399 1.60502 1.47964 1.79256 1.2921C1.98009 1.10456 2.23445 0.999207 2.49966 0.999207H14.4997ZM2.49966 -0.000793457C1.96923 -0.000793457 1.46052 0.20992 1.08545 0.584993C0.710378 0.960066 0.499664 1.46877 0.499664 1.99921V13.9992C0.499664 14.5296 0.710378 15.0383 1.08545 15.4134C1.46052 15.7885 1.96923 15.9992 2.49966 15.9992H14.4997C15.0301 15.9992 15.5388 15.7885 15.9139 15.4134C16.2889 15.0383 16.4997 14.5296 16.4997 13.9992V1.99921C16.4997 1.46877 16.2889 0.960066 15.9139 0.584993C15.5388 0.20992 15.0301 -0.000793457 14.4997 -0.000793457H2.49966Z" fill="#407FFF"/>
<path d="M8.49966 3.99921C8.63227 3.99921 8.75945 4.05189 8.85322 4.14565C8.94699 4.23942 8.99966 4.3666 8.99966 4.49921V7.49921H11.9997C12.1323 7.49921 12.2594 7.55189 12.3532 7.64565C12.447 7.73942 12.4997 7.8666 12.4997 7.99921C12.4997 8.13181 12.447 8.25899 12.3532 8.35276C12.2594 8.44653 12.1323 8.49921 11.9997 8.49921H8.99966V11.4992C8.99966 11.6318 8.94699 11.759 8.85322 11.8528C8.75945 11.9465 8.63227 11.9992 8.49966 11.9992C8.36706 11.9992 8.23988 11.9465 8.14611 11.8528C8.05234 11.759 7.99966 11.6318 7.99966 11.4992V8.49921H4.99966C4.86706 8.49921 4.73988 8.44653 4.64611 8.35276C4.55234 8.25899 4.49966 8.13181 4.49966 7.99921C4.49966 7.8666 4.55234 7.73942 4.64611 7.64565C4.73988 7.55189 4.86706 7.49921 4.99966 7.49921H7.99966V4.49921C7.99966 4.3666 8.05234 4.23942 8.14611 4.14565C8.23988 4.05189 8.36706 3.99921 8.49966 3.99921Z" fill="#407FFF"/>
</g>
<defs>
<clipPath id="clip0_8_25756">
<rect width="16" height="16" fill="white" transform="translate(0.5)"/>
</clipPath>
</defs>
</svg>
