<svg width="32" height="32" viewBox="0 0 32 32" fill="none" xmlns="http://www.w3.org/2000/svg">
<rect width="32" height="32" rx="6" fill="url(#paint0_linear_8_1118)"/>
<path d="M11.1201 9.3181C11.2544 8.79757 11.3216 8.5373 11.4984 8.34862C11.5835 8.25779 11.6847 8.18048 11.7953 8.12183C12.0251 8 12.2988 8 12.846 8H18.0845C18.6317 8 18.9054 8 19.0723 8.12183C19.1526 8.18048 19.214 8.25779 19.2522 8.34862C19.3316 8.5373 19.2644 8.79757 19.1301 9.3181L17.8441 14.301C17.7098 14.8215 17.6426 15.0817 17.4658 15.2704C17.3808 15.3613 17.2795 15.4386 17.1689 15.4972C16.9391 15.619 16.6655 15.619 16.1182 15.619H10.8797C10.3325 15.619 10.0589 15.619 9.89196 15.4972C9.8116 15.4386 9.75028 15.3613 9.71206 15.2704C9.63267 15.0817 9.69984 14.8215 9.83417 14.301L11.1201 9.3181Z" fill="white"/>
<path d="M20.8799 22.6819C20.7456 23.2024 20.6784 23.4627 20.5017 23.6514C20.4166 23.7422 20.3153 23.8195 20.2047 23.8782C19.9749 24 19.7013 24 19.1541 24H13.9155C13.3683 24 13.0947 24 12.9278 23.8782C12.8474 23.8195 12.7861 23.7422 12.7479 23.6514C12.6685 23.4627 12.7357 23.2024 12.87 22.6819L14.1559 17.699C14.2903 17.1785 14.3574 16.9183 14.5342 16.7296C14.6193 16.6387 14.7205 16.5614 14.8311 16.5028C15.061 16.381 15.3346 16.381 15.8818 16.381H21.1203C21.6676 16.381 21.9412 16.381 22.1081 16.5028C22.1884 16.5614 22.2498 16.6387 22.288 16.7296C22.3674 16.9183 22.3002 17.1785 22.1659 17.699L20.8799 22.6819Z" fill="white"/>
<path d="M19.0463 12.7467C19.1806 12.2262 19.2477 11.9659 19.4245 11.7772C19.5096 11.6864 19.6108 11.6091 19.7215 11.5504C19.9513 11.4286 20.2249 11.4286 20.7722 11.4286H22.3983C22.9456 11.4286 23.2192 11.4286 23.3861 11.5504C23.4664 11.609 23.5278 11.6864 23.566 11.7772C23.6454 11.9659 23.5782 12.2261 23.4439 12.7466L23.0428 14.3009C22.9085 14.8215 22.8413 15.0817 22.6645 15.2704C22.5795 15.3613 22.4782 15.4386 22.3676 15.4972C22.1378 15.619 21.8642 15.619 21.3169 15.619H19.6907C19.1435 15.619 18.8699 15.619 18.703 15.4972C18.6226 15.4386 18.5613 15.3613 18.5231 15.2704C18.4437 15.0818 18.5109 14.8215 18.6452 14.301L19.0463 12.7467Z" fill="white"/>
<path d="M12.9538 19.2533C12.8195 19.7738 12.7523 20.0341 12.5755 20.2228C12.4904 20.3136 12.3892 20.3909 12.2786 20.4496C12.0488 20.5714 11.7751 20.5714 11.2279 20.5714H9.60172C9.05449 20.5714 8.78088 20.5714 8.61396 20.4496C8.5336 20.391 8.47228 20.3136 8.43406 20.2228C8.35467 20.0341 8.42183 19.7739 8.55615 19.2534L8.95723 17.6991C9.09156 17.1785 9.15872 16.9183 9.3355 16.7296C9.4206 16.6387 9.52182 16.5614 9.63244 16.5028C9.86226 16.381 10.1359 16.381 10.6831 16.381H12.3093C12.8565 16.381 13.1301 16.381 13.2971 16.5028C13.3774 16.5614 13.4387 16.6387 13.477 16.7296C13.5563 16.9182 13.4892 17.1785 13.3549 17.699L12.9538 19.2533Z" fill="white"/>
<defs>
<linearGradient id="paint0_linear_8_1118" x1="32" y1="32" x2="0" y2="0" gradientUnits="userSpaceOnUse">
<stop stop-color="#6BEBFF"/>
<stop offset="0.48" stop-color="#53B7FF"/>
<stop offset="1" stop-color="#6962F8"/>
</linearGradient>
</defs>
</svg>
