<svg width="14" height="14" viewBox="0 0 14 14" fill="none" xmlns="http://www.w3.org/2000/svg">
<path fill-rule="evenodd" clip-rule="evenodd" d="M4.0649 1.43941C4.10554 1.39867 4.15382 1.36635 4.20697 1.34429C4.26013 1.32224 4.31711 1.31088 4.37465 1.31088C4.4322 1.31088 4.48918 1.32224 4.54233 1.34429C4.59548 1.36635 4.64376 1.39867 4.6844 1.43941L9.9344 6.68941C9.97515 6.73005 10.0075 6.77833 10.0295 6.83149C10.0516 6.88464 10.0629 6.94162 10.0629 6.99916C10.0629 7.05671 10.0516 7.11369 10.0295 7.16684C10.0075 7.22 9.97515 7.26827 9.9344 7.30891L4.6844 12.5589C4.60225 12.6411 4.49083 12.6872 4.37465 12.6872C4.25847 12.6872 4.14705 12.6411 4.0649 12.5589C3.98275 12.4768 3.9366 12.3653 3.9366 12.2492C3.9366 12.133 3.98275 12.0216 4.0649 11.9394L9.00603 6.99916L4.0649 2.05891C4.02416 2.01827 3.99183 1.97 3.96978 1.91684C3.94772 1.86369 3.93637 1.80671 3.93637 1.74916C3.93637 1.69162 3.94772 1.63464 3.96978 1.58149C3.99183 1.52833 4.02416 1.48005 4.0649 1.43941V1.43941Z" fill="white" fill-opacity="0.7"/>
</svg>
