<svg width="32" height="32" viewBox="0 0 32 32" fill="none" xmlns="http://www.w3.org/2000/svg">
<rect width="32" height="32" rx="6" fill="url(#paint0_linear_8_1007)"/>
<path d="M11.1777 19.6944C10.8588 19.6944 10.5944 19.43 10.5944 19.1111V12.8889C10.5944 12.57 10.8588 12.3055 11.1777 12.3055C11.4966 12.3055 11.761 12.57 11.761 12.8889C11.761 14.5922 12.5855 15.4167 14.2888 15.4167H19.7332C20.0521 15.4167 20.3166 15.6811 20.3166 16C20.3166 16.3189 20.0521 16.5833 19.7332 16.5833H14.2888C13.231 16.5833 12.3832 16.3111 11.761 15.7978V19.1111C11.761 19.43 11.4966 19.6944 11.1777 19.6944Z" fill="white"/>
<path d="M11.1778 13.4722C9.56778 13.4722 8.26111 12.1656 8.26111 10.5556C8.26111 8.94555 9.56778 7.63889 11.1778 7.63889C12.7878 7.63889 14.0944 8.94555 14.0944 10.5556C14.0944 12.1656 12.7878 13.4722 11.1778 13.4722ZM11.1778 8.80555C10.2133 8.80555 9.42778 9.59111 9.42778 10.5556C9.42778 11.52 10.2133 12.3056 11.1778 12.3056C12.1422 12.3056 12.9278 11.52 12.9278 10.5556C12.9278 9.59111 12.1422 8.80555 11.1778 8.80555Z" fill="white"/>
<path d="M22.0667 18.9167C20.4567 18.9167 19.15 17.61 19.15 16C19.15 14.39 20.4567 13.0833 22.0667 13.0833C23.6767 13.0833 24.9834 14.39 24.9834 16C24.9834 17.61 23.6767 18.9167 22.0667 18.9167ZM22.0667 14.25C21.1022 14.25 20.3167 15.0356 20.3167 16C20.3167 16.9645 21.1022 17.75 22.0667 17.75C23.0311 17.75 23.8167 16.9645 23.8167 16C23.8167 15.0356 23.0311 14.25 22.0667 14.25Z" fill="white"/>
<path d="M11.1778 24.3611C9.56778 24.3611 8.26111 23.0544 8.26111 21.4444C8.26111 19.8344 9.56778 18.5278 11.1778 18.5278C12.7878 18.5278 14.0944 19.8344 14.0944 21.4444C14.0944 23.0544 12.7878 24.3611 11.1778 24.3611ZM11.1778 19.6944C10.2133 19.6944 9.42778 20.48 9.42778 21.4444C9.42778 22.4089 10.2133 23.1944 11.1778 23.1944C12.1422 23.1944 12.9278 22.4089 12.9278 21.4444C12.9278 20.48 12.1422 19.6944 11.1778 19.6944Z" fill="white"/>
<defs>
<linearGradient id="paint0_linear_8_1007" x1="6.75229" y1="3.63649" x2="24.0652" y2="32.0002" gradientUnits="userSpaceOnUse">
<stop stop-color="#55A8FB"/>
<stop offset="1" stop-color="#BBFFAE"/>
</linearGradient>
</defs>
</svg>
