<svg width="576" height="233" viewBox="0 0 576 233" fill="none" xmlns="http://www.w3.org/2000/svg">
<line x1="83" y1="27.5" x2="511" y2="27.5" stroke="#E9ECEF"/>
<line x1="83" y1="73.5" x2="511" y2="73.5" stroke="#E9ECEF"/>
<line x1="83" y1="50.5" x2="511" y2="50.5" stroke="#6EA8FE"/>
<line x1="83" y1="7.5" x2="511" y2="7.5" stroke="#A370F7"/>
<line x1="83" y1="94.5" x2="511" y2="94.5" stroke="#E9ECEF"/>
<line x1="83" y1="162.5" x2="511" y2="162.5" stroke="#E9ECEF"/>
<line x1="83" y1="117.5" x2="511" y2="117.5" stroke="#CED4DA"/>
<line x1="83" y1="141.5" x2="511" y2="141.5" stroke="#FEB272"/>
<path d="M69.7938 167.12C69.2604 167.12 68.7871 166.967 68.3738 166.66C67.9604 166.347 67.6371 165.92 67.4038 165.38C67.1704 164.833 67.0538 164.207 67.0538 163.5C67.0538 162.793 67.1704 162.17 67.4038 161.63C67.6371 161.083 67.9571 160.657 68.3638 160.35C68.7771 160.037 69.2538 159.88 69.7938 159.88C70.3338 159.88 70.8071 160.037 71.2138 160.35C71.6271 160.657 71.9504 161.083 72.1838 161.63C72.4238 162.17 72.5438 162.793 72.5438 163.5C72.5438 164.207 72.4271 164.833 72.1938 165.38C71.9604 165.92 71.6371 166.347 71.2238 166.66C70.8104 166.967 70.3338 167.12 69.7938 167.12ZM69.7938 166.36C70.1671 166.36 70.4971 166.237 70.7838 165.99C71.0771 165.743 71.3038 165.407 71.4638 164.98C71.6304 164.553 71.7138 164.06 71.7138 163.5C71.7138 162.94 71.6304 162.447 71.4638 162.02C71.3038 161.587 71.0771 161.25 70.7838 161.01C70.4971 160.763 70.1671 160.64 69.7938 160.64C69.4204 160.64 69.0904 160.763 68.8038 161.01C68.5171 161.25 68.2904 161.587 68.1238 162.02C67.9638 162.447 67.8838 162.94 67.8838 163.5C67.8838 164.06 67.9638 164.553 68.1238 164.98C68.2904 165.407 68.5171 165.743 68.8038 165.99C69.0971 166.237 69.4271 166.36 69.7938 166.36Z" fill="#4F4F4F"/>
<path d="M64.6229 143L64.6329 136.45L64.7029 136H65.4629L65.4429 143H64.6229ZM63.0629 137.8V137.03C63.2029 137.037 63.3696 136.99 63.5629 136.89C63.7562 136.79 63.9562 136.66 64.1629 136.5C64.3696 136.34 64.5496 136.173 64.7029 136L65.2229 136.57C65.0029 136.803 64.7729 137.013 64.5329 137.2C64.2929 137.387 64.0496 137.537 63.8029 137.65C63.5562 137.757 63.3096 137.807 63.0629 137.8ZM69.7938 143.12C69.2604 143.12 68.7871 142.967 68.3738 142.66C67.9604 142.347 67.6371 141.92 67.4038 141.38C67.1704 140.833 67.0538 140.207 67.0538 139.5C67.0538 138.793 67.1704 138.17 67.4038 137.63C67.6371 137.083 67.9571 136.657 68.3638 136.35C68.7771 136.037 69.2538 135.88 69.7938 135.88C70.3338 135.88 70.8071 136.037 71.2138 136.35C71.6271 136.657 71.9504 137.083 72.1838 137.63C72.4238 138.17 72.5438 138.793 72.5438 139.5C72.5438 140.207 72.4271 140.833 72.1938 141.38C71.9604 141.92 71.6371 142.347 71.2238 142.66C70.8104 142.967 70.3338 143.12 69.7938 143.12ZM69.7938 142.36C70.1671 142.36 70.4971 142.237 70.7838 141.99C71.0771 141.743 71.3038 141.407 71.4638 140.98C71.6304 140.553 71.7138 140.06 71.7138 139.5C71.7138 138.94 71.6304 138.447 71.4638 138.02C71.3038 137.587 71.0771 137.25 70.7838 137.01C70.4971 136.763 70.1671 136.64 69.7938 136.64C69.4204 136.64 69.0904 136.763 68.8038 137.01C68.5171 137.25 68.2904 137.587 68.1238 138.02C67.9638 138.447 67.8838 138.94 67.8838 139.5C67.8838 140.06 67.9638 140.553 68.1238 140.98C68.2904 141.407 68.5171 141.743 68.8038 141.99C69.0971 142.237 69.4271 142.36 69.7938 142.36Z" fill="#4F4F4F"/>
<path d="M63.0721 119.51L62.2321 119.3C62.2321 119.08 62.2754 118.863 62.3621 118.65C62.4554 118.43 62.5854 118.213 62.7521 118C62.9254 117.787 63.1354 117.587 63.3821 117.4L64.8321 116.31C65.0054 116.19 65.1554 116.053 65.2821 115.9C65.4154 115.74 65.5188 115.577 65.5921 115.41C65.6654 115.237 65.7021 115.07 65.7021 114.91C65.7021 114.677 65.6454 114.467 65.5321 114.28C65.4188 114.087 65.2588 113.933 65.0521 113.82C64.8454 113.707 64.6021 113.65 64.3221 113.65C64.0488 113.65 63.8088 113.703 63.6021 113.81C63.3954 113.91 63.2254 114.047 63.0921 114.22C62.9588 114.387 62.8621 114.567 62.8021 114.76L61.9421 114.59C62.0221 114.29 62.1654 114.01 62.3721 113.75C62.5854 113.49 62.8554 113.28 63.1821 113.12C63.5088 112.96 63.8721 112.88 64.2721 112.88C64.7388 112.88 65.1421 112.97 65.4821 113.15C65.8221 113.323 66.0854 113.563 66.2721 113.87C66.4654 114.17 66.5621 114.513 66.5621 114.9C66.5621 115.267 66.4621 115.613 66.2621 115.94C66.0621 116.267 65.7721 116.583 65.3921 116.89L64.0221 117.93C63.8288 118.07 63.6588 118.223 63.5121 118.39C63.3721 118.557 63.2621 118.733 63.1821 118.92C63.1088 119.1 63.0721 119.297 63.0721 119.51ZM62.2321 120V119.3L62.8721 119.25H66.6621V120H62.2321ZM70.148 120.12C69.868 120.12 69.5814 120.08 69.288 120C69.0014 119.913 68.728 119.783 68.468 119.61C68.2147 119.437 68.0047 119.213 67.838 118.94L68.518 118.55C68.7514 118.843 69.0047 119.057 69.278 119.19C69.5514 119.323 69.8347 119.39 70.128 119.39C70.588 119.39 70.9614 119.25 71.248 118.97C71.5414 118.683 71.688 118.31 71.688 117.85C71.688 117.397 71.548 117.027 71.268 116.74C70.988 116.453 70.6214 116.31 70.168 116.31C69.9214 116.31 69.678 116.367 69.438 116.48C69.198 116.587 69.0114 116.72 68.878 116.88L68.118 116.7L68.458 113H72.188V113.76H68.508L68.458 113.03H69.298L68.908 116.74L68.258 116.7C68.3514 116.553 68.468 116.417 68.608 116.29C68.748 116.163 68.908 116.05 69.088 115.95C69.2747 115.843 69.4714 115.76 69.678 115.7C69.8847 115.64 70.0947 115.613 70.308 115.62C70.7347 115.62 71.1147 115.713 71.448 115.9C71.7814 116.087 72.0447 116.347 72.238 116.68C72.4314 117.013 72.528 117.397 72.528 117.83C72.528 118.283 72.4247 118.683 72.218 119.03C72.018 119.37 71.738 119.637 71.378 119.83C71.0247 120.023 70.6147 120.12 70.148 120.12Z" fill="#4F4F4F"/>
<path d="M63.7418 99.12C63.4618 99.12 63.1751 99.08 62.8818 99C62.5951 98.9133 62.3218 98.7833 62.0618 98.61C61.8085 98.4367 61.5985 98.2133 61.4318 97.94L62.1118 97.55C62.3451 97.8433 62.5985 98.0567 62.8718 98.19C63.1451 98.3233 63.4285 98.39 63.7218 98.39C64.1818 98.39 64.5551 98.25 64.8418 97.97C65.1351 97.6833 65.2818 97.31 65.2818 96.85C65.2818 96.3967 65.1418 96.0267 64.8618 95.74C64.5818 95.4533 64.2151 95.31 63.7618 95.31C63.5151 95.31 63.2718 95.3667 63.0318 95.48C62.7918 95.5867 62.6051 95.72 62.4718 95.88L61.7118 95.7L62.0518 92H65.7818V92.76H62.1018L62.0518 92.03H62.8918L62.5018 95.74L61.8518 95.7C61.9451 95.5533 62.0618 95.4167 62.2018 95.29C62.3418 95.1633 62.5018 95.05 62.6818 94.95C62.8685 94.8433 63.0651 94.76 63.2718 94.7C63.4785 94.64 63.6885 94.6133 63.9018 94.62C64.3285 94.62 64.7085 94.7133 65.0418 94.9C65.3751 95.0867 65.6385 95.3467 65.8318 95.68C66.0251 96.0133 66.1218 96.3967 66.1218 96.83C66.1218 97.2833 66.0185 97.6833 65.8118 98.03C65.6118 98.37 65.3318 98.6367 64.9718 98.83C64.6185 99.0233 64.2085 99.12 63.7418 99.12ZM69.7938 99.12C69.2604 99.12 68.7871 98.9667 68.3738 98.66C67.9604 98.3467 67.6371 97.92 67.4038 97.38C67.1704 96.8333 67.0538 96.2067 67.0538 95.5C67.0538 94.7933 67.1704 94.17 67.4038 93.63C67.6371 93.0833 67.9571 92.6567 68.3638 92.35C68.7771 92.0367 69.2538 91.88 69.7938 91.88C70.3338 91.88 70.8071 92.0367 71.2138 92.35C71.6271 92.6567 71.9504 93.0833 72.1838 93.63C72.4238 94.17 72.5438 94.7933 72.5438 95.5C72.5438 96.2067 72.4271 96.8333 72.1938 97.38C71.9604 97.92 71.6371 98.3467 71.2238 98.66C70.8104 98.9667 70.3338 99.12 69.7938 99.12ZM69.7938 98.36C70.1671 98.36 70.4971 98.2367 70.7838 97.99C71.0771 97.7433 71.3038 97.4067 71.4638 96.98C71.6304 96.5533 71.7138 96.06 71.7138 95.5C71.7138 94.94 71.6304 94.4467 71.4638 94.02C71.3038 93.5867 71.0771 93.25 70.7838 93.01C70.4971 92.7633 70.1671 92.64 69.7938 92.64C69.4204 92.64 69.0904 92.7633 68.8038 93.01C68.5171 93.25 68.2904 93.5867 68.1238 94.02C67.9638 94.4467 67.8838 94.94 67.8838 95.5C67.8838 96.06 67.9638 96.5533 68.1238 96.98C68.2904 97.4067 68.5171 97.7433 68.8038 97.99C69.0971 98.2367 69.4271 98.36 69.7938 98.36Z" fill="#4F4F4F"/>
<path d="M58.2166 55L58.2266 48.45L58.2966 48H59.0566L59.0366 55H58.2166ZM56.6566 49.8V49.03C56.7966 49.0367 56.9633 48.99 57.1566 48.89C57.35 48.79 57.55 48.66 57.7566 48.5C57.9633 48.34 58.1433 48.1733 58.2966 48L58.8166 48.57C58.5966 48.8033 58.3666 49.0133 58.1266 49.2C57.8866 49.3867 57.6433 49.5367 57.3966 49.65C57.15 49.7567 56.9033 49.8067 56.6566 49.8ZM63.3875 55.12C62.8542 55.12 62.3808 54.9667 61.9675 54.66C61.5542 54.3467 61.2308 53.92 60.9975 53.38C60.7642 52.8333 60.6475 52.2067 60.6475 51.5C60.6475 50.7933 60.7642 50.17 60.9975 49.63C61.2308 49.0833 61.5508 48.6567 61.9575 48.35C62.3708 48.0367 62.8475 47.88 63.3875 47.88C63.9275 47.88 64.4008 48.0367 64.8075 48.35C65.2208 48.6567 65.5442 49.0833 65.7775 49.63C66.0175 50.17 66.1375 50.7933 66.1375 51.5C66.1375 52.2067 66.0208 52.8333 65.7875 53.38C65.5542 53.92 65.2308 54.3467 64.8175 54.66C64.4042 54.9667 63.9275 55.12 63.3875 55.12ZM63.3875 54.36C63.7608 54.36 64.0908 54.2367 64.3775 53.99C64.6708 53.7433 64.8975 53.4067 65.0575 52.98C65.2242 52.5533 65.3075 52.06 65.3075 51.5C65.3075 50.94 65.2242 50.4467 65.0575 50.02C64.8975 49.5867 64.6708 49.25 64.3775 49.01C64.0908 48.7633 63.7608 48.64 63.3875 48.64C63.0142 48.64 62.6842 48.7633 62.3975 49.01C62.1108 49.25 61.8842 49.5867 61.7175 50.02C61.5575 50.4467 61.4775 50.94 61.4775 51.5C61.4775 52.06 61.5575 52.5533 61.7175 52.98C61.8842 53.4067 62.1108 53.7433 62.3975 53.99C62.6908 54.2367 63.0208 54.36 63.3875 54.36ZM69.7938 55.12C69.2604 55.12 68.7871 54.9667 68.3738 54.66C67.9604 54.3467 67.6371 53.92 67.4038 53.38C67.1704 52.8333 67.0538 52.2067 67.0538 51.5C67.0538 50.7933 67.1704 50.17 67.4038 49.63C67.6371 49.0833 67.9571 48.6567 68.3638 48.35C68.7771 48.0367 69.2538 47.88 69.7938 47.88C70.3338 47.88 70.8071 48.0367 71.2138 48.35C71.6271 48.6567 71.9504 49.0833 72.1838 49.63C72.4238 50.17 72.5438 50.7933 72.5438 51.5C72.5438 52.2067 72.4271 52.8333 72.1938 53.38C71.9604 53.92 71.6371 54.3467 71.2238 54.66C70.8104 54.9667 70.3338 55.12 69.7938 55.12ZM69.7938 54.36C70.1671 54.36 70.4971 54.2367 70.7838 53.99C71.0771 53.7433 71.3038 53.4067 71.4638 52.98C71.6304 52.5533 71.7138 52.06 71.7138 51.5C71.7138 50.94 71.6304 50.4467 71.4638 50.02C71.3038 49.5867 71.0771 49.25 70.7838 49.01C70.4971 48.7633 70.1671 48.64 69.7938 48.64C69.4204 48.64 69.0904 48.7633 68.8038 49.01C68.5171 49.25 68.2904 49.5867 68.1238 50.02C67.9638 50.4467 67.8838 50.94 67.8838 51.5C67.8838 52.06 67.9638 52.5533 68.1238 52.98C68.2904 53.4067 68.5171 53.7433 68.8038 53.99C69.0971 54.2367 69.4271 54.36 69.7938 54.36Z" fill="#4F4F4F"/>
<path d="M59.6913 11L59.7013 4.45L59.7713 4H60.5313L60.5113 11H59.6913ZM58.1313 5.8V5.03C58.2713 5.03667 58.4379 4.99 58.6313 4.89C58.8246 4.79 59.0246 4.66 59.2313 4.5C59.4379 4.34 59.6179 4.17333 59.7713 4L60.2913 4.57C60.0713 4.80333 59.8413 5.01333 59.6013 5.2C59.3613 5.38667 59.1179 5.53667 58.8713 5.65C58.6246 5.75667 58.3779 5.80667 58.1313 5.8ZM63.0721 10.51L62.2321 10.3C62.2321 10.08 62.2754 9.86333 62.3621 9.65C62.4554 9.43 62.5854 9.21333 62.7521 9C62.9254 8.78667 63.1354 8.58667 63.3821 8.4L64.8321 7.31C65.0054 7.19 65.1554 7.05333 65.2821 6.9C65.4154 6.74 65.5188 6.57667 65.5921 6.41C65.6654 6.23667 65.7021 6.07 65.7021 5.91C65.7021 5.67667 65.6454 5.46667 65.5321 5.28C65.4188 5.08667 65.2588 4.93333 65.0521 4.82C64.8454 4.70667 64.6021 4.65 64.3221 4.65C64.0488 4.65 63.8088 4.70333 63.6021 4.81C63.3954 4.91 63.2254 5.04667 63.0921 5.22C62.9588 5.38667 62.8621 5.56667 62.8021 5.76L61.9421 5.59C62.0221 5.29 62.1654 5.01 62.3721 4.75C62.5854 4.49 62.8554 4.28 63.1821 4.12C63.5088 3.96 63.8721 3.88 64.2721 3.88C64.7388 3.88 65.1421 3.97 65.4821 4.15C65.8221 4.32333 66.0854 4.56333 66.2721 4.87C66.4654 5.17 66.5621 5.51333 66.5621 5.9C66.5621 6.26667 66.4621 6.61333 66.2621 6.94C66.0621 7.26667 65.7721 7.58333 65.3921 7.89L64.0221 8.93C63.8288 9.07 63.6588 9.22333 63.5121 9.39C63.3721 9.55667 63.2621 9.73333 63.1821 9.92C63.1088 10.1 63.0721 10.2967 63.0721 10.51ZM62.2321 11V10.3L62.8721 10.25H66.6621V11H62.2321ZM70.148 11.12C69.868 11.12 69.5814 11.08 69.288 11C69.0014 10.9133 68.728 10.7833 68.468 10.61C68.2147 10.4367 68.0047 10.2133 67.838 9.94L68.518 9.55C68.7514 9.84333 69.0047 10.0567 69.278 10.19C69.5514 10.3233 69.8347 10.39 70.128 10.39C70.588 10.39 70.9614 10.25 71.248 9.97C71.5414 9.68333 71.688 9.31 71.688 8.85C71.688 8.39667 71.548 8.02667 71.268 7.74C70.988 7.45333 70.6214 7.31 70.168 7.31C69.9214 7.31 69.678 7.36667 69.438 7.48C69.198 7.58667 69.0114 7.72 68.878 7.88L68.118 7.7L68.458 4H72.188V4.76H68.508L68.458 4.03H69.298L68.908 7.74L68.258 7.7C68.3514 7.55333 68.468 7.41667 68.608 7.29C68.748 7.16333 68.908 7.05 69.088 6.95C69.2747 6.84333 69.4714 6.76 69.678 6.7C69.8847 6.64 70.0947 6.61333 70.308 6.62C70.7347 6.62 71.1147 6.71333 71.448 6.9C71.7814 7.08667 72.0447 7.34667 72.238 7.68C72.4314 8.01333 72.528 8.39667 72.528 8.83C72.528 9.28333 72.4247 9.68333 72.218 10.03C72.018 10.37 71.738 10.6367 71.378 10.83C71.0247 11.0233 70.6147 11.12 70.148 11.12Z" fill="#4F4F4F"/>
<path d="M532.076 142.612L528.284 137.008L528.692 136.792L529.172 136.6L532.568 141.628L532.076 142.612ZM528.116 145V136.6H529.136V145H528.116ZM532.076 142.612L531.584 141.628L534.98 136.6L535.46 136.792L535.856 136.996L532.076 142.612ZM535.016 145V136.6H536.024V145H535.016ZM538.048 145L538.072 139H539.032L539.008 145H538.048ZM538.54 137.608C538.38 137.608 538.24 137.548 538.12 137.428C538 137.308 537.94 137.168 537.94 137.008C537.94 136.84 538 136.7 538.12 136.588C538.24 136.468 538.38 136.408 538.54 136.408C538.708 136.408 538.848 136.468 538.96 136.588C539.08 136.7 539.14 136.84 539.14 137.008C539.14 137.168 539.08 137.308 538.96 137.428C538.848 137.548 538.708 137.608 538.54 137.608ZM540.778 145V139H541.678L541.738 140.104V145H540.778ZM544.99 145V141.928L545.95 141.568V145H544.99ZM544.99 141.928C544.99 141.336 544.922 140.884 544.786 140.572C544.65 140.26 544.462 140.048 544.222 139.936C543.982 139.816 543.71 139.756 543.406 139.756C542.878 139.756 542.466 139.944 542.17 140.32C541.882 140.688 541.738 141.212 541.738 141.892H541.27C541.27 141.26 541.362 140.716 541.546 140.26C541.73 139.804 541.994 139.456 542.338 139.216C542.69 138.976 543.114 138.856 543.61 138.856C544.338 138.856 544.91 139.08 545.326 139.528C545.75 139.976 545.958 140.656 545.95 141.568L544.99 141.928Z" fill="#6C757D"/>
<path d="M528.86 122V121.088H531.068C531.596 121.088 532.008 120.964 532.304 120.716C532.608 120.46 532.76 120.112 532.76 119.672C532.76 119.2 532.588 118.828 532.244 118.556C531.9 118.284 531.42 118.152 530.804 118.16H528.86V117.308H530.312C531.032 117.308 531.648 117.4 532.16 117.584C532.68 117.768 533.08 118.04 533.36 118.4C533.64 118.752 533.78 119.188 533.78 119.708C533.78 120.196 533.672 120.612 533.456 120.956C533.24 121.292 532.932 121.552 532.532 121.736C532.14 121.912 531.668 122 531.116 122H528.86ZM528.116 122V113.6H529.124V122H528.116ZM528.836 118.184V117.284H531.02C531.484 117.284 531.848 117.16 532.112 116.912C532.376 116.664 532.508 116.32 532.508 115.88C532.508 115.424 532.352 115.072 532.04 114.824C531.736 114.576 531.304 114.456 530.744 114.464H528.836V113.6L530.768 113.588C531.344 113.588 531.836 113.68 532.244 113.864C532.652 114.04 532.968 114.3 533.192 114.644C533.416 114.98 533.528 115.392 533.528 115.88C533.528 116.344 533.408 116.748 533.168 117.092C532.928 117.428 532.588 117.688 532.148 117.872C531.708 118.056 531.184 118.148 530.576 118.148L528.836 118.184ZM538.932 122L538.836 118.832C538.82 118.36 538.76 117.972 538.656 117.668C538.552 117.356 538.392 117.124 538.176 116.972C537.96 116.812 537.672 116.732 537.312 116.732C536.968 116.732 536.668 116.8 536.412 116.936C536.164 117.072 535.96 117.284 535.8 117.572L534.948 117.224C535.1 116.944 535.288 116.704 535.512 116.504C535.736 116.296 536 116.136 536.304 116.024C536.608 115.912 536.948 115.856 537.324 115.856C537.876 115.856 538.336 115.964 538.704 116.18C539.072 116.396 539.344 116.72 539.52 117.152C539.704 117.576 539.796 118.108 539.796 118.748V122H538.932ZM537.108 122.144C536.396 122.144 535.84 121.984 535.44 121.664C535.048 121.336 534.852 120.884 534.852 120.308C534.852 119.7 535.052 119.236 535.452 118.916C535.86 118.588 536.428 118.424 537.156 118.424H539.268V119.228H537.372C536.812 119.228 536.412 119.32 536.172 119.504C535.94 119.688 535.824 119.952 535.824 120.296C535.824 120.608 535.94 120.856 536.172 121.04C536.404 121.216 536.728 121.304 537.144 121.304C537.496 121.304 537.8 121.224 538.056 121.064C538.312 120.904 538.508 120.688 538.644 120.416C538.78 120.136 538.848 119.82 538.848 119.468H539.436C539.436 120.284 539.236 120.936 538.836 121.424C538.436 121.904 537.86 122.144 537.108 122.144ZM543.417 122.144C542.977 122.144 542.593 122.08 542.265 121.952C541.937 121.816 541.661 121.64 541.437 121.424C541.221 121.208 541.065 120.972 540.969 120.716L541.809 120.368C541.945 120.632 542.149 120.848 542.421 121.016C542.693 121.184 542.993 121.268 543.321 121.268C543.697 121.268 544.009 121.196 544.257 121.052C544.513 120.9 544.641 120.692 544.641 120.428C544.641 120.18 544.545 119.98 544.353 119.828C544.169 119.676 543.897 119.552 543.537 119.456L542.961 119.3C542.417 119.156 541.993 118.94 541.689 118.652C541.385 118.356 541.233 118.024 541.233 117.656C541.233 117.088 541.417 116.648 541.785 116.336C542.161 116.016 542.717 115.856 543.453 115.856C543.805 115.856 544.125 115.908 544.413 116.012C544.701 116.116 544.949 116.264 545.157 116.456C545.365 116.64 545.517 116.86 545.613 117.116L544.773 117.488C544.669 117.216 544.497 117.024 544.257 116.912C544.017 116.792 543.725 116.732 543.381 116.732C543.013 116.732 542.725 116.808 542.517 116.96C542.309 117.112 542.205 117.328 542.205 117.608C542.205 117.768 542.289 117.92 542.457 118.064C542.633 118.2 542.889 118.312 543.225 118.4L543.825 118.556C544.217 118.652 544.545 118.796 544.809 118.988C545.073 119.172 545.273 119.384 545.409 119.624C545.545 119.864 545.613 120.12 545.613 120.392C545.613 120.752 545.517 121.064 545.325 121.328C545.133 121.592 544.873 121.796 544.545 121.94C544.217 122.076 543.841 122.144 543.417 122.144ZM549.558 122.144C548.974 122.144 548.458 122.012 548.01 121.748C547.57 121.476 547.222 121.104 546.966 120.632C546.71 120.16 546.582 119.616 546.582 119C546.582 118.384 546.706 117.84 546.954 117.368C547.21 116.896 547.562 116.528 548.01 116.264C548.458 115.992 548.966 115.856 549.534 115.856C550.094 115.856 550.578 115.996 550.986 116.276C551.394 116.548 551.71 116.932 551.934 117.428C552.158 117.924 552.27 118.508 552.27 119.18H551.31C551.31 118.668 551.242 118.232 551.106 117.872C550.97 117.504 550.77 117.22 550.506 117.02C550.242 116.82 549.914 116.72 549.522 116.72C549.13 116.72 548.786 116.816 548.49 117.008C548.202 117.192 547.978 117.456 547.818 117.8C547.658 118.144 547.578 118.548 547.578 119.012C547.578 119.468 547.666 119.864 547.842 120.2C548.018 120.528 548.258 120.788 548.562 120.98C548.866 121.164 549.214 121.256 549.606 121.256C550.03 121.256 550.386 121.156 550.674 120.956C550.962 120.756 551.186 120.496 551.346 120.176L552.198 120.596C552.038 120.908 551.83 121.18 551.574 121.412C551.326 121.644 551.034 121.824 550.698 121.952C550.362 122.08 549.982 122.144 549.558 122.144ZM547.23 119.18V118.352H551.682V119.18H547.23ZM553.516 122L553.54 113.6H554.5L554.476 122H553.516ZM556.236 122L556.26 116H557.22L557.196 122H556.236ZM556.728 114.608C556.568 114.608 556.428 114.548 556.308 114.428C556.188 114.308 556.128 114.168 556.128 114.008C556.128 113.84 556.188 113.7 556.308 113.588C556.428 113.468 556.568 113.408 556.728 113.408C556.896 113.408 557.036 113.468 557.148 113.588C557.268 113.7 557.328 113.84 557.328 114.008C557.328 114.168 557.268 114.308 557.148 114.428C557.036 114.548 556.896 114.608 556.728 114.608ZM558.965 122V116H559.865L559.925 117.104V122H558.965ZM563.177 122V118.928L564.137 118.568V122H563.177ZM563.177 118.928C563.177 118.336 563.109 117.884 562.973 117.572C562.837 117.26 562.649 117.048 562.409 116.936C562.169 116.816 561.897 116.756 561.593 116.756C561.065 116.756 560.653 116.944 560.357 117.32C560.069 117.688 559.925 118.212 559.925 118.892H559.457C559.457 118.26 559.549 117.716 559.733 117.26C559.917 116.804 560.181 116.456 560.525 116.216C560.877 115.976 561.301 115.856 561.797 115.856C562.525 115.856 563.097 116.08 563.513 116.528C563.937 116.976 564.145 117.656 564.137 118.568L563.177 118.928ZM568.308 122.144C567.724 122.144 567.208 122.012 566.76 121.748C566.32 121.476 565.972 121.104 565.716 120.632C565.46 120.16 565.332 119.616 565.332 119C565.332 118.384 565.456 117.84 565.704 117.368C565.96 116.896 566.312 116.528 566.76 116.264C567.208 115.992 567.716 115.856 568.284 115.856C568.844 115.856 569.328 115.996 569.736 116.276C570.144 116.548 570.46 116.932 570.684 117.428C570.908 117.924 571.02 118.508 571.02 119.18H570.06C570.06 118.668 569.992 118.232 569.856 117.872C569.72 117.504 569.52 117.22 569.256 117.02C568.992 116.82 568.664 116.72 568.272 116.72C567.88 116.72 567.536 116.816 567.24 117.008C566.952 117.192 566.728 117.456 566.568 117.8C566.408 118.144 566.328 118.548 566.328 119.012C566.328 119.468 566.416 119.864 566.592 120.2C566.768 120.528 567.008 120.788 567.312 120.98C567.616 121.164 567.964 121.256 568.356 121.256C568.78 121.256 569.136 121.156 569.424 120.956C569.712 120.756 569.936 120.496 570.096 120.176L570.948 120.596C570.788 120.908 570.58 121.18 570.324 121.412C570.076 121.644 569.784 121.824 569.448 121.952C569.112 122.08 568.732 122.144 568.308 122.144ZM565.98 119.18V118.352H570.432V119.18H565.98Z" fill="#6C757D"/>
<path d="M529.808 57V49.296H530.816V57H529.808ZM527.132 49.524V48.6H533.492V49.524H527.132ZM537.479 57L537.383 53.832C537.367 53.36 537.307 52.972 537.203 52.668C537.099 52.356 536.939 52.124 536.723 51.972C536.507 51.812 536.219 51.732 535.859 51.732C535.515 51.732 535.215 51.8 534.959 51.936C534.711 52.072 534.507 52.284 534.347 52.572L533.495 52.224C533.647 51.944 533.835 51.704 534.059 51.504C534.283 51.296 534.547 51.136 534.851 51.024C535.155 50.912 535.495 50.856 535.871 50.856C536.423 50.856 536.883 50.964 537.251 51.18C537.619 51.396 537.891 51.72 538.067 52.152C538.251 52.576 538.343 53.108 538.343 53.748V57H537.479ZM535.655 57.144C534.943 57.144 534.387 56.984 533.987 56.664C533.595 56.336 533.399 55.884 533.399 55.308C533.399 54.7 533.599 54.236 533.999 53.916C534.407 53.588 534.975 53.424 535.703 53.424H537.815V54.228H535.919C535.359 54.228 534.959 54.32 534.719 54.504C534.487 54.688 534.371 54.952 534.371 55.296C534.371 55.608 534.487 55.856 534.719 56.04C534.951 56.216 535.275 56.304 535.691 56.304C536.043 56.304 536.347 56.224 536.603 56.064C536.859 55.904 537.055 55.688 537.191 55.416C537.327 55.136 537.395 54.82 537.395 54.468H537.983C537.983 55.284 537.783 55.936 537.383 56.424C536.983 56.904 536.407 57.144 535.655 57.144ZM540.391 53.748C540.391 53.1 540.515 52.576 540.763 52.176C541.011 51.768 541.327 51.468 541.711 51.276C542.103 51.076 542.515 50.976 542.947 50.976V51.876C542.595 51.876 542.255 51.936 541.927 52.056C541.607 52.168 541.343 52.356 541.135 52.62C540.927 52.884 540.823 53.244 540.823 53.7L540.391 53.748ZM539.863 57V51H540.823V57H539.863ZM546.318 59.544C545.934 59.544 545.582 59.504 545.262 59.424C544.95 59.352 544.682 59.268 544.458 59.172C544.242 59.084 544.086 59.008 543.99 58.944L544.35 58.164C544.454 58.22 544.602 58.288 544.794 58.368C544.986 58.456 545.21 58.528 545.466 58.584C545.73 58.648 546.01 58.68 546.306 58.68C546.69 58.68 547.034 58.6 547.338 58.44C547.65 58.288 547.89 58.044 548.058 57.708C548.234 57.38 548.322 56.956 548.322 56.436V51H549.282V56.424C549.282 57.112 549.154 57.688 548.898 58.152C548.642 58.616 548.29 58.964 547.842 59.196C547.394 59.428 546.886 59.544 546.318 59.544ZM546.282 56.952C545.746 56.952 545.274 56.824 544.866 56.568C544.458 56.312 544.138 55.956 543.906 55.5C543.682 55.036 543.57 54.508 543.57 53.916C543.57 53.308 543.682 52.776 543.906 52.32C544.138 51.856 544.458 51.496 544.866 51.24C545.274 50.984 545.746 50.856 546.282 50.856C546.786 50.856 547.226 50.984 547.602 51.24C547.978 51.496 548.27 51.856 548.478 52.32C548.694 52.776 548.802 53.308 548.802 53.916C548.802 54.516 548.694 55.044 548.478 55.5C548.27 55.956 547.978 56.312 547.602 56.568C547.226 56.824 546.786 56.952 546.282 56.952ZM546.51 56.124C546.862 56.124 547.174 56.028 547.446 55.836C547.718 55.644 547.93 55.384 548.082 55.056C548.234 54.72 548.31 54.332 548.31 53.892C548.31 53.468 548.23 53.092 548.07 52.764C547.918 52.428 547.706 52.168 547.434 51.984C547.17 51.792 546.858 51.696 546.498 51.696C546.122 51.696 545.786 51.792 545.49 51.984C545.202 52.168 544.974 52.428 544.806 52.764C544.646 53.092 544.566 53.468 544.566 53.892C544.566 54.332 544.65 54.72 544.818 55.056C544.986 55.384 545.214 55.644 545.502 55.836C545.798 56.028 546.134 56.124 546.51 56.124ZM553.461 57.144C552.877 57.144 552.361 57.012 551.913 56.748C551.473 56.476 551.125 56.104 550.869 55.632C550.613 55.16 550.485 54.616 550.485 54C550.485 53.384 550.609 52.84 550.857 52.368C551.113 51.896 551.465 51.528 551.913 51.264C552.361 50.992 552.869 50.856 553.437 50.856C553.997 50.856 554.481 50.996 554.889 51.276C555.297 51.548 555.613 51.932 555.837 52.428C556.061 52.924 556.173 53.508 556.173 54.18H555.213C555.213 53.668 555.145 53.232 555.009 52.872C554.873 52.504 554.673 52.22 554.409 52.02C554.145 51.82 553.817 51.72 553.425 51.72C553.033 51.72 552.689 51.816 552.393 52.008C552.105 52.192 551.881 52.456 551.721 52.8C551.561 53.144 551.481 53.548 551.481 54.012C551.481 54.468 551.569 54.864 551.745 55.2C551.921 55.528 552.161 55.788 552.465 55.98C552.769 56.164 553.117 56.256 553.509 56.256C553.933 56.256 554.289 56.156 554.577 55.956C554.865 55.756 555.089 55.496 555.249 55.176L556.101 55.596C555.941 55.908 555.733 56.18 555.477 56.412C555.229 56.644 554.937 56.824 554.601 56.952C554.265 57.08 553.885 57.144 553.461 57.144ZM551.133 54.18V53.352H555.585V54.18H551.133ZM559.794 57.144C559.21 57.144 558.758 56.992 558.438 56.688C558.118 56.384 557.958 55.956 557.958 55.404V49.128H558.918V55.308C558.918 55.612 558.998 55.848 559.158 56.016C559.326 56.176 559.558 56.256 559.854 56.256C559.95 56.256 560.042 56.244 560.13 56.22C560.226 56.188 560.35 56.116 560.502 56.004L560.874 56.784C560.666 56.92 560.478 57.012 560.31 57.06C560.142 57.116 559.97 57.144 559.794 57.144ZM556.914 51.852V51H560.718V51.852H556.914Z" fill="#6C757D"/>
<path d="M532.076 10.612L528.284 5.008L528.692 4.792L529.172 4.6L532.568 9.628L532.076 10.612ZM528.116 13V4.6H529.136V13H528.116ZM532.076 10.612L531.584 9.628L534.98 4.6L535.46 4.792L535.856 4.996L532.076 10.612ZM535.016 13V4.6H536.024V13H535.016ZM541.744 13L541.648 9.832C541.632 9.36 541.572 8.972 541.468 8.668C541.364 8.356 541.204 8.124 540.988 7.972C540.772 7.812 540.484 7.732 540.124 7.732C539.78 7.732 539.48 7.8 539.224 7.936C538.976 8.072 538.772 8.284 538.612 8.572L537.76 8.224C537.912 7.944 538.1 7.704 538.324 7.504C538.548 7.296 538.812 7.136 539.116 7.024C539.42 6.912 539.76 6.856 540.136 6.856C540.688 6.856 541.148 6.964 541.516 7.18C541.884 7.396 542.156 7.72 542.332 8.152C542.516 8.576 542.608 9.108 542.608 9.748V13H541.744ZM539.92 13.144C539.208 13.144 538.652 12.984 538.252 12.664C537.86 12.336 537.664 11.884 537.664 11.308C537.664 10.7 537.864 10.236 538.264 9.916C538.672 9.588 539.24 9.424 539.968 9.424H542.08V10.228H540.184C539.624 10.228 539.224 10.32 538.984 10.504C538.752 10.688 538.636 10.952 538.636 11.296C538.636 11.608 538.752 11.856 538.984 12.04C539.216 12.216 539.54 12.304 539.956 12.304C540.308 12.304 540.612 12.224 540.868 12.064C541.124 11.904 541.32 11.688 541.456 11.416C541.592 11.136 541.66 10.82 541.66 10.468H542.248C542.248 11.284 542.048 11.936 541.648 12.424C541.248 12.904 540.672 13.144 539.92 13.144ZM543.361 13L545.809 9.556L547.537 7H548.677L546.397 10.24L544.525 13H543.361ZM547.669 13L545.821 10.24L543.517 7H544.657L546.397 9.556L548.821 13H547.669Z" fill="#6C757D"/>
<path d="M125.722 189.099C125.234 189.099 124.803 189.013 124.429 188.84C124.058 188.665 123.768 188.425 123.559 188.119C123.351 187.812 123.248 187.461 123.25 187.068C123.248 186.76 123.308 186.476 123.432 186.216C123.555 185.953 123.723 185.734 123.936 185.559C124.151 185.381 124.392 185.269 124.657 185.222V185.179C124.309 185.089 124.032 184.894 123.826 184.593C123.62 184.29 123.518 183.946 123.52 183.56C123.518 183.19 123.611 182.86 123.801 182.569C123.99 182.278 124.251 182.048 124.582 181.88C124.916 181.712 125.296 181.628 125.722 181.628C126.143 181.628 126.52 181.712 126.851 181.88C127.183 182.048 127.443 182.278 127.633 182.569C127.824 182.86 127.921 183.19 127.924 183.56C127.921 183.946 127.816 184.29 127.608 184.593C127.402 184.894 127.128 185.089 126.787 185.179V185.222C127.05 185.269 127.287 185.381 127.498 185.559C127.708 185.734 127.876 185.953 128.002 186.216C128.127 186.476 128.191 186.76 128.194 187.068C128.191 187.461 128.085 187.812 127.874 188.119C127.666 188.425 127.376 188.665 127.004 188.84C126.635 189.013 126.207 189.099 125.722 189.099ZM125.722 188.318C126.051 188.318 126.335 188.265 126.574 188.158C126.813 188.052 126.998 187.902 127.128 187.707C127.258 187.513 127.325 187.286 127.327 187.026C127.325 186.751 127.254 186.508 127.114 186.298C126.974 186.087 126.784 185.921 126.542 185.8C126.303 185.68 126.03 185.619 125.722 185.619C125.412 185.619 125.135 185.68 124.891 185.8C124.65 185.921 124.459 186.087 124.319 186.298C124.182 186.508 124.115 186.751 124.117 187.026C124.115 187.286 124.177 187.513 124.305 187.707C124.435 187.902 124.621 188.052 124.863 188.158C125.104 188.265 125.391 188.318 125.722 188.318ZM125.722 184.866C125.982 184.866 126.213 184.814 126.415 184.71C126.618 184.606 126.778 184.46 126.894 184.273C127.01 184.086 127.069 183.867 127.071 183.616C127.069 183.37 127.011 183.156 126.897 182.974C126.784 182.789 126.626 182.647 126.425 182.548C126.224 182.446 125.99 182.395 125.722 182.395C125.45 182.395 125.212 182.446 125.008 182.548C124.805 182.647 124.647 182.789 124.536 182.974C124.425 183.156 124.37 183.37 124.373 183.616C124.37 183.867 124.426 184.086 124.54 184.273C124.656 184.46 124.815 184.606 125.019 184.71C125.223 184.814 125.457 184.866 125.722 184.866ZM132.495 181.727H133.546L136.018 187.764H136.103L138.574 181.727H139.626V189H138.802V183.474H138.731L136.458 189H135.663L133.39 183.474H133.319V189H132.495V181.727ZM142.883 189.128C142.537 189.128 142.224 189.063 141.942 188.933C141.66 188.8 141.436 188.609 141.271 188.361C141.105 188.11 141.022 187.807 141.022 187.452C141.022 187.139 141.084 186.886 141.207 186.692C141.33 186.495 141.494 186.341 141.7 186.23C141.906 186.119 142.134 186.036 142.382 185.982C142.633 185.925 142.885 185.88 143.139 185.847C143.47 185.804 143.739 185.772 143.945 185.751C144.153 185.727 144.305 185.688 144.399 185.634C144.496 185.579 144.545 185.484 144.545 185.349V185.321C144.545 184.971 144.449 184.698 144.257 184.504C144.068 184.31 143.78 184.213 143.394 184.213C142.994 184.213 142.68 184.301 142.453 184.476C142.226 184.651 142.066 184.838 141.974 185.037L141.178 184.753C141.32 184.421 141.51 184.163 141.747 183.979C141.986 183.792 142.246 183.661 142.528 183.588C142.812 183.512 143.091 183.474 143.366 183.474C143.541 183.474 143.742 183.496 143.97 183.538C144.199 183.579 144.421 183.663 144.634 183.79C144.849 183.918 145.028 184.111 145.17 184.369C145.312 184.627 145.383 184.973 145.383 185.406V189H144.545V188.261H144.502C144.445 188.38 144.351 188.506 144.218 188.641C144.086 188.776 143.909 188.891 143.689 188.986C143.469 189.08 143.2 189.128 142.883 189.128ZM143.011 188.375C143.342 188.375 143.622 188.31 143.849 188.18C144.078 188.049 144.251 187.881 144.367 187.675C144.486 187.469 144.545 187.253 144.545 187.026V186.259C144.509 186.301 144.431 186.34 144.31 186.376C144.192 186.409 144.055 186.438 143.899 186.464C143.745 186.488 143.594 186.509 143.448 186.528C143.303 186.545 143.186 186.559 143.096 186.571C142.878 186.599 142.675 186.646 142.485 186.71C142.298 186.771 142.147 186.865 142.031 186.99C141.917 187.113 141.86 187.281 141.86 187.494C141.86 187.786 141.968 188.006 142.183 188.155C142.401 188.302 142.677 188.375 143.011 188.375ZM147.257 191.045C147.115 191.045 146.988 191.034 146.877 191.01C146.766 190.989 146.689 190.967 146.646 190.946L146.859 190.207C147.063 190.259 147.243 190.278 147.399 190.264C147.555 190.25 147.694 190.18 147.815 190.055C147.938 189.932 148.05 189.732 148.152 189.455L148.308 189.028L146.291 183.545H147.2L148.706 187.892H148.763L150.268 183.545H151.177L148.862 189.795C148.758 190.077 148.629 190.31 148.475 190.495C148.321 190.682 148.142 190.821 147.939 190.911C147.738 191 147.51 191.045 147.257 191.045Z" fill="#6C757D"/>
<path d="M210.913 189V188.361L213.314 185.733C213.596 185.425 213.828 185.158 214.01 184.93C214.192 184.701 214.327 184.485 214.415 184.284C214.505 184.08 214.55 183.867 214.55 183.645C214.55 183.389 214.488 183.168 214.365 182.981C214.244 182.794 214.079 182.649 213.868 182.548C213.657 182.446 213.421 182.395 213.158 182.395C212.878 182.395 212.635 182.453 212.426 182.569C212.22 182.683 212.061 182.842 211.947 183.048C211.836 183.254 211.78 183.496 211.78 183.773H210.942C210.942 183.347 211.04 182.973 211.237 182.651C211.433 182.329 211.701 182.078 212.039 181.898C212.38 181.718 212.762 181.628 213.186 181.628C213.612 181.628 213.99 181.718 214.319 181.898C214.648 182.078 214.906 182.32 215.093 182.626C215.28 182.931 215.374 183.271 215.374 183.645C215.374 183.912 215.325 184.174 215.228 184.43C215.133 184.683 214.968 184.966 214.731 185.278C214.497 185.589 214.171 185.967 213.754 186.415L212.121 188.162V188.219H215.502V189H210.913ZM216.641 187.509V186.784L219.837 181.727H220.363V182.849H220.008L217.593 186.67V186.727H221.897V187.509H216.641ZM220.065 189V187.288V186.951V181.727H220.903V189H220.065ZM226.168 181.727H227.219L229.691 187.764H229.776L232.248 181.727H233.299V189H232.475V183.474H232.404L230.131 189H229.336L227.063 183.474H226.992V189H226.168V181.727ZM236.556 189.128C236.211 189.128 235.897 189.063 235.615 188.933C235.333 188.8 235.11 188.609 234.944 188.361C234.778 188.11 234.695 187.807 234.695 187.452C234.695 187.139 234.757 186.886 234.88 186.692C235.003 186.495 235.168 186.341 235.374 186.23C235.58 186.119 235.807 186.036 236.056 185.982C236.306 185.925 236.559 185.88 236.812 185.847C237.143 185.804 237.412 185.772 237.618 185.751C237.826 185.727 237.978 185.688 238.073 185.634C238.17 185.579 238.218 185.484 238.218 185.349V185.321C238.218 184.971 238.122 184.698 237.931 184.504C237.741 184.31 237.453 184.213 237.068 184.213C236.668 184.213 236.354 184.301 236.127 184.476C235.899 184.651 235.739 184.838 235.647 185.037L234.852 184.753C234.994 184.421 235.183 184.163 235.42 183.979C235.659 183.792 235.919 183.661 236.201 183.588C236.485 183.512 236.765 183.474 237.039 183.474C237.214 183.474 237.416 183.496 237.643 183.538C237.873 183.579 238.094 183.663 238.307 183.79C238.522 183.918 238.701 184.111 238.843 184.369C238.985 184.627 239.056 184.973 239.056 185.406V189H238.218V188.261H238.176C238.119 188.38 238.024 188.506 237.891 188.641C237.759 188.776 237.583 188.891 237.362 188.986C237.142 189.08 236.873 189.128 236.556 189.128ZM236.684 188.375C237.016 188.375 237.295 188.31 237.522 188.18C237.752 188.049 237.925 187.881 238.041 187.675C238.159 187.469 238.218 187.253 238.218 187.026V186.259C238.183 186.301 238.105 186.34 237.984 186.376C237.865 186.409 237.728 186.438 237.572 186.464C237.418 186.488 237.268 186.509 237.121 186.528C236.976 186.545 236.859 186.559 236.769 186.571C236.552 186.599 236.348 186.646 236.159 186.71C235.971 186.771 235.82 186.865 235.704 186.99C235.59 187.113 235.534 187.281 235.534 187.494C235.534 187.786 235.641 188.006 235.857 188.155C236.074 188.302 236.35 188.375 236.684 188.375ZM240.93 191.045C240.788 191.045 240.662 191.034 240.55 191.01C240.439 190.989 240.362 190.967 240.32 190.946L240.533 190.207C240.736 190.259 240.916 190.278 241.072 190.264C241.229 190.25 241.367 190.18 241.488 190.055C241.611 189.932 241.723 189.732 241.825 189.455L241.981 189.028L239.964 183.545H240.874L242.379 187.892H242.436L243.942 183.545H244.851L242.535 189.795C242.431 190.077 242.302 190.31 242.148 190.495C241.995 190.682 241.816 190.821 241.612 190.911C241.411 191 241.184 191.045 240.93 191.045Z" fill="#6C757D"/>
<path d="M309.323 189.099C308.835 189.099 308.404 189.013 308.03 188.84C307.658 188.665 307.368 188.425 307.16 188.119C306.952 187.812 306.849 187.461 306.851 187.068C306.849 186.76 306.909 186.476 307.032 186.216C307.155 185.953 307.323 185.734 307.536 185.559C307.752 185.381 307.992 185.269 308.257 185.222V185.179C307.909 185.089 307.632 184.894 307.426 184.593C307.22 184.29 307.119 183.946 307.121 183.56C307.119 183.19 307.212 182.86 307.401 182.569C307.591 182.278 307.851 182.048 308.183 181.88C308.517 181.712 308.896 181.628 309.323 181.628C309.744 181.628 310.12 181.712 310.452 181.88C310.783 182.048 311.044 182.278 311.233 182.569C311.425 182.86 311.522 183.19 311.524 183.56C311.522 183.946 311.417 184.29 311.208 184.593C311.002 184.894 310.729 185.089 310.388 185.179V185.222C310.651 185.269 310.887 185.381 311.098 185.559C311.309 185.734 311.477 185.953 311.602 186.216C311.728 186.476 311.792 186.76 311.794 187.068C311.792 187.461 311.685 187.812 311.475 188.119C311.266 188.425 310.976 188.665 310.605 188.84C310.235 189.013 309.808 189.099 309.323 189.099ZM309.323 188.318C309.652 188.318 309.936 188.265 310.175 188.158C310.414 188.052 310.599 187.902 310.729 187.707C310.859 187.513 310.925 187.286 310.928 187.026C310.925 186.751 310.854 186.508 310.715 186.298C310.575 186.087 310.384 185.921 310.143 185.8C309.904 185.68 309.63 185.619 309.323 185.619C309.012 185.619 308.735 185.68 308.492 185.8C308.25 185.921 308.06 186.087 307.92 186.298C307.783 186.508 307.715 186.751 307.718 187.026C307.715 187.286 307.778 187.513 307.906 187.707C308.036 187.902 308.222 188.052 308.463 188.158C308.705 188.265 308.991 188.318 309.323 188.318ZM309.323 184.866C309.583 184.866 309.814 184.814 310.015 184.71C310.219 184.606 310.378 184.46 310.494 184.273C310.61 184.086 310.67 183.867 310.672 183.616C310.67 183.37 310.612 183.156 310.498 182.974C310.384 182.789 310.227 182.647 310.026 182.548C309.825 182.446 309.59 182.395 309.323 182.395C309.05 182.395 308.812 182.446 308.609 182.548C308.405 182.647 308.248 182.789 308.137 182.974C308.025 183.156 307.971 183.37 307.973 183.616C307.971 183.867 308.026 184.086 308.14 184.273C308.256 184.46 308.416 184.606 308.619 184.71C308.823 184.814 309.057 184.866 309.323 184.866ZM318.88 181.727H319.76V186.926C319.76 187.39 319.675 187.784 319.505 188.109C319.334 188.433 319.094 188.679 318.784 188.847C318.474 189.015 318.108 189.099 317.686 189.099C317.289 189.099 316.935 189.027 316.625 188.883C316.315 188.736 316.071 188.528 315.893 188.258C315.716 187.988 315.627 187.667 315.627 187.295H316.493C316.493 187.501 316.544 187.681 316.646 187.835C316.75 187.987 316.892 188.105 317.072 188.19C317.252 188.276 317.457 188.318 317.686 188.318C317.94 188.318 318.155 188.265 318.333 188.158C318.51 188.052 318.645 187.896 318.738 187.69C318.832 187.481 318.88 187.227 318.88 186.926V181.727ZM324.849 186.77V183.545H325.687V189H324.849V188.077H324.792C324.664 188.354 324.466 188.589 324.196 188.783C323.926 188.975 323.585 189.071 323.173 189.071C322.832 189.071 322.529 188.996 322.264 188.847C321.999 188.696 321.79 188.469 321.639 188.165C321.487 187.86 321.412 187.475 321.412 187.011V183.545H322.25V186.955C322.25 187.352 322.361 187.67 322.583 187.906C322.808 188.143 323.095 188.261 323.443 188.261C323.651 188.261 323.863 188.208 324.078 188.102C324.296 187.995 324.479 187.832 324.625 187.612C324.775 187.391 324.849 187.111 324.849 186.77ZM328.06 185.719V189H327.222V183.545H328.032V184.398H328.103C328.231 184.121 328.425 183.898 328.685 183.73C328.946 183.56 329.282 183.474 329.694 183.474C330.063 183.474 330.386 183.55 330.663 183.702C330.94 183.851 331.156 184.078 331.309 184.384C331.463 184.687 331.54 185.07 331.54 185.534V189H330.702V185.591C330.702 185.162 330.591 184.829 330.368 184.589C330.146 184.348 329.84 184.227 329.452 184.227C329.185 184.227 328.946 184.285 328.735 184.401C328.527 184.517 328.362 184.687 328.241 184.909C328.121 185.132 328.06 185.402 328.06 185.719Z" fill="#6C757D"/>
<rect width="87" height="20" transform="translate(233.5 211.75)" fill="white" fill-opacity="0.01"/>
<rect x="233.5" y="211.75" width="87" height="20" rx="10" fill="#E9ECEF"/>
<path d="M246.643 225.75V218.046H247.831V225.75H246.643ZM244.015 218.43V217.35H250.459V218.43H244.015ZM253.4 225.894C252.808 225.894 252.28 225.762 251.816 225.498C251.36 225.226 251 224.854 250.736 224.382C250.48 223.91 250.352 223.366 250.352 222.75C250.352 222.134 250.48 221.59 250.736 221.118C250.992 220.646 251.348 220.278 251.804 220.014C252.268 219.742 252.792 219.606 253.376 219.606C253.976 219.606 254.504 219.742 254.96 220.014C255.416 220.278 255.772 220.646 256.028 221.118C256.292 221.59 256.424 222.134 256.424 222.75C256.424 223.366 256.292 223.91 256.028 224.382C255.772 224.854 255.416 225.226 254.96 225.498C254.512 225.762 253.992 225.894 253.4 225.894ZM253.4 224.814C253.76 224.814 254.076 224.726 254.348 224.55C254.62 224.374 254.832 224.134 254.984 223.83C255.144 223.518 255.224 223.158 255.224 222.75C255.224 222.35 255.144 221.994 254.984 221.682C254.832 221.37 254.616 221.126 254.336 220.95C254.056 220.774 253.736 220.686 253.376 220.686C253.024 220.686 252.708 220.774 252.428 220.95C252.156 221.126 251.94 221.37 251.78 221.682C251.628 221.986 251.552 222.342 251.552 222.75C251.552 223.15 251.628 223.506 251.78 223.818C251.94 224.13 252.16 224.374 252.44 224.55C252.72 224.726 253.04 224.814 253.4 224.814ZM262.11 225.75L262.062 224.634V217.35H263.19V225.75H262.11ZM260.094 225.894C259.55 225.894 259.074 225.762 258.666 225.498C258.266 225.234 257.95 224.866 257.718 224.394C257.494 223.922 257.382 223.374 257.382 222.75C257.382 222.118 257.494 221.57 257.718 221.106C257.95 220.634 258.266 220.266 258.666 220.002C259.074 219.738 259.55 219.606 260.094 219.606C260.598 219.606 261.034 219.738 261.402 220.002C261.778 220.266 262.066 220.634 262.266 221.106C262.466 221.57 262.566 222.118 262.566 222.75C262.566 223.374 262.466 223.922 262.266 224.394C262.066 224.866 261.778 225.234 261.402 225.498C261.034 225.762 260.598 225.894 260.094 225.894ZM260.358 224.862C260.694 224.862 260.99 224.774 261.246 224.598C261.502 224.414 261.702 224.166 261.846 223.854C261.99 223.534 262.062 223.166 262.062 222.75C262.062 222.334 261.99 221.97 261.846 221.658C261.702 221.338 261.502 221.09 261.246 220.914C260.99 220.73 260.69 220.638 260.346 220.638C259.994 220.638 259.682 220.73 259.41 220.914C259.138 221.09 258.926 221.338 258.774 221.658C258.622 221.97 258.546 222.334 258.546 222.75C258.546 223.166 258.622 223.534 258.774 223.854C258.934 224.166 259.15 224.414 259.422 224.598C259.694 224.774 260.006 224.862 260.358 224.862ZM268.504 225.75L268.42 222.618C268.412 222.178 268.36 221.814 268.264 221.526C268.168 221.23 268.02 221.006 267.82 220.854C267.62 220.702 267.352 220.626 267.016 220.626C266.704 220.626 266.428 220.69 266.188 220.818C265.956 220.946 265.764 221.146 265.612 221.418L264.592 221.034C264.736 220.762 264.916 220.518 265.132 220.302C265.356 220.086 265.624 219.918 265.936 219.798C266.256 219.67 266.62 219.606 267.028 219.606C267.596 219.606 268.068 219.714 268.444 219.93C268.82 220.146 269.1 220.47 269.284 220.902C269.476 221.326 269.572 221.854 269.572 222.486V225.75H268.504ZM266.74 225.894C266.028 225.894 265.472 225.734 265.072 225.414C264.68 225.086 264.484 224.634 264.484 224.058C264.484 223.442 264.688 222.974 265.096 222.654C265.504 222.326 266.08 222.162 266.824 222.162H268.828L268.84 223.062H267.136C266.584 223.062 266.192 223.15 265.96 223.326C265.736 223.494 265.624 223.73 265.624 224.034C265.624 224.314 265.732 224.534 265.948 224.694C266.164 224.846 266.46 224.922 266.836 224.922C267.164 224.922 267.444 224.846 267.676 224.694C267.916 224.542 268.1 224.342 268.228 224.094C268.364 223.838 268.432 223.554 268.432 223.242H268.984C268.984 224.058 268.796 224.706 268.42 225.186C268.044 225.658 267.484 225.894 266.74 225.894ZM271.739 228.294C271.563 228.294 271.367 228.262 271.151 228.198C270.943 228.134 270.727 228.05 270.503 227.946L270.923 227.01C271.099 227.09 271.251 227.15 271.379 227.19C271.515 227.23 271.623 227.25 271.703 227.25C271.903 227.25 272.071 227.194 272.207 227.082C272.351 226.97 272.467 226.814 272.555 226.614L273.251 224.97L275.387 219.75H276.611L273.767 226.494C273.615 226.862 273.455 227.182 273.287 227.454C273.119 227.726 272.911 227.934 272.663 228.078C272.423 228.222 272.115 228.294 271.739 228.294ZM272.939 225.75L270.311 219.75H271.523L273.695 224.958L274.043 225.75H272.939ZM277.139 227.13L277.835 224.514H279.071L278.063 227.13H277.139ZM284.969 225.75L284.981 217.986L285.089 217.35H286.133L286.121 225.75H284.969ZM283.121 219.642V218.574C283.297 218.582 283.501 218.526 283.733 218.406C283.973 218.286 284.213 218.13 284.453 217.938C284.693 217.746 284.905 217.546 285.089 217.338L285.821 218.13C285.549 218.418 285.265 218.678 284.969 218.91C284.673 219.142 284.369 219.326 284.057 219.462C283.753 219.598 283.441 219.658 283.121 219.642ZM292.855 225.894C292.527 225.894 292.231 225.846 291.967 225.75C291.711 225.654 291.483 225.53 291.283 225.378C291.083 225.218 290.915 225.042 290.779 224.85C290.643 224.65 290.535 224.45 290.455 224.25L291.427 223.77C291.563 224.082 291.747 224.334 291.979 224.526C292.219 224.718 292.511 224.814 292.855 224.814C293.135 224.814 293.403 224.75 293.659 224.622C293.915 224.494 294.127 224.282 294.295 223.986C294.463 223.682 294.547 223.286 294.547 222.798V217.35H295.723V223.218C295.723 223.658 295.643 224.046 295.483 224.382C295.331 224.71 295.119 224.99 294.847 225.222C294.583 225.446 294.279 225.614 293.935 225.726C293.591 225.838 293.231 225.894 292.855 225.894ZM301.548 225.75L301.476 224.646V219.75H302.604V225.75H301.548ZM297.324 223.182V219.75H298.464V222.822L297.324 223.182ZM298.464 222.822C298.464 223.358 298.524 223.77 298.644 224.058C298.772 224.346 298.948 224.546 299.172 224.658C299.396 224.77 299.648 224.83 299.928 224.838C300.416 224.838 300.796 224.666 301.068 224.322C301.34 223.978 301.476 223.494 301.476 222.87H301.968C301.968 223.502 301.876 224.046 301.692 224.502C301.508 224.95 301.24 225.294 300.888 225.534C300.544 225.774 300.128 225.894 299.64 225.894C298.92 225.894 298.352 225.67 297.936 225.222C297.528 224.774 297.324 224.094 297.324 223.182L298.464 222.822ZM304.194 225.75V219.75H305.262L305.334 220.854V225.75H304.194ZM308.346 225.75V222.678L309.486 222.318V225.75H308.346ZM308.346 222.678C308.346 222.134 308.282 221.722 308.154 221.442C308.034 221.154 307.862 220.954 307.638 220.842C307.422 220.73 307.17 220.67 306.882 220.662C306.394 220.662 306.014 220.834 305.742 221.178C305.47 221.522 305.334 222.006 305.334 222.63H304.842C304.842 221.998 304.934 221.458 305.118 221.01C305.302 220.554 305.566 220.206 305.91 219.966C306.262 219.726 306.682 219.606 307.17 219.606C307.89 219.606 308.454 219.83 308.862 220.278C309.278 220.718 309.486 221.398 309.486 222.318L308.346 222.678Z" fill="#212529"/>
<path d="M395.014 189V188.361L397.415 185.733C397.696 185.425 397.928 185.158 398.111 184.93C398.293 184.701 398.428 184.485 398.515 184.284C398.605 184.08 398.65 183.867 398.65 183.645C398.65 183.389 398.589 183.168 398.466 182.981C398.345 182.794 398.179 182.649 397.969 182.548C397.758 182.446 397.521 182.395 397.258 182.395C396.979 182.395 396.735 182.453 396.527 182.569C396.321 182.683 396.161 182.842 396.047 183.048C395.936 183.254 395.881 183.496 395.881 183.773H395.042C395.042 183.347 395.141 182.973 395.337 182.651C395.534 182.329 395.801 182.078 396.14 181.898C396.481 181.718 396.863 181.628 397.287 181.628C397.713 181.628 398.091 181.718 398.42 181.898C398.749 182.078 399.007 182.32 399.194 182.626C399.381 182.931 399.474 183.271 399.474 183.645C399.474 183.912 399.426 184.174 399.329 184.43C399.234 184.683 399.068 184.966 398.832 185.278C398.597 185.589 398.272 185.967 397.855 186.415L396.221 188.162V188.219H399.602V189H395.014ZM400.742 187.509V186.784L403.938 181.727H404.464V182.849H404.109L401.694 186.67V186.727H405.998V187.509H400.742ZM404.165 189V187.288V186.951V181.727H405.003V189H404.165ZM413.053 181.727H413.934V186.926C413.934 187.39 413.848 187.784 413.678 188.109C413.508 188.433 413.267 188.679 412.957 188.847C412.647 189.015 412.281 189.099 411.86 189.099C411.462 189.099 411.108 189.027 410.798 188.883C410.488 188.736 410.244 188.528 410.066 188.258C409.889 187.988 409.8 187.667 409.8 187.295H410.667C410.667 187.501 410.717 187.681 410.819 187.835C410.923 187.987 411.066 188.105 411.245 188.19C411.425 188.276 411.63 188.318 411.86 188.318C412.113 188.318 412.329 188.265 412.506 188.158C412.684 188.052 412.819 187.896 412.911 187.69C413.006 187.481 413.053 187.227 413.053 186.926V181.727ZM419.022 186.77V183.545H419.86V189H419.022V188.077H418.966C418.838 188.354 418.639 188.589 418.369 188.783C418.099 188.975 417.758 189.071 417.346 189.071C417.005 189.071 416.702 188.996 416.437 188.847C416.172 188.696 415.964 188.469 415.812 188.165C415.661 187.86 415.585 187.475 415.585 187.011V183.545H416.423V186.955C416.423 187.352 416.534 187.67 416.757 187.906C416.982 188.143 417.268 188.261 417.616 188.261C417.825 188.261 418.036 188.208 418.252 188.102C418.47 187.995 418.652 187.832 418.799 187.612C418.948 187.391 419.022 187.111 419.022 186.77ZM422.234 185.719V189H421.395V183.545H422.205V184.398H422.276C422.404 184.121 422.598 183.898 422.859 183.73C423.119 183.56 423.455 183.474 423.867 183.474C424.236 183.474 424.56 183.55 424.837 183.702C425.114 183.851 425.329 184.078 425.483 184.384C425.637 184.687 425.714 185.07 425.714 185.534V189H424.876V185.591C424.876 185.162 424.764 184.829 424.542 184.589C424.319 184.348 424.014 184.227 423.626 184.227C423.358 184.227 423.119 184.285 422.908 184.401C422.7 184.517 422.535 184.687 422.415 184.909C422.294 185.132 422.234 185.402 422.234 185.719Z" fill="#6C757D"/>
<path d="M493.255 189.099C492.768 189.099 492.337 189.013 491.963 188.84C491.591 188.665 491.301 188.425 491.093 188.119C490.884 187.812 490.781 187.461 490.784 187.068C490.781 186.76 490.842 186.476 490.965 186.216C491.088 185.953 491.256 185.734 491.469 185.559C491.684 185.381 491.925 185.269 492.19 185.222V185.179C491.842 185.089 491.565 184.894 491.359 184.593C491.153 184.29 491.051 183.946 491.054 183.56C491.051 183.19 491.145 182.86 491.334 182.569C491.523 182.278 491.784 182.048 492.115 181.88C492.449 181.712 492.829 181.628 493.255 181.628C493.677 181.628 494.053 181.712 494.384 181.88C494.716 182.048 494.976 182.278 495.166 182.569C495.358 182.86 495.455 183.19 495.457 183.56C495.455 183.946 495.349 184.29 495.141 184.593C494.935 184.894 494.661 185.089 494.321 185.179V185.222C494.583 185.269 494.82 185.381 495.031 185.559C495.242 185.734 495.41 185.953 495.535 186.216C495.661 186.476 495.724 186.76 495.727 187.068C495.724 187.461 495.618 187.812 495.407 188.119C495.199 188.425 494.909 188.665 494.537 188.84C494.168 189.013 493.741 189.099 493.255 189.099ZM493.255 188.318C493.584 188.318 493.868 188.265 494.108 188.158C494.347 188.052 494.531 187.902 494.661 187.707C494.792 187.513 494.858 187.286 494.86 187.026C494.858 186.751 494.787 186.508 494.647 186.298C494.508 186.087 494.317 185.921 494.076 185.8C493.836 185.68 493.563 185.619 493.255 185.619C492.945 185.619 492.668 185.68 492.424 185.8C492.183 185.921 491.992 186.087 491.853 186.298C491.715 186.508 491.648 186.751 491.65 187.026C491.648 187.286 491.71 187.513 491.838 187.707C491.969 187.902 492.154 188.052 492.396 188.158C492.637 188.265 492.924 188.318 493.255 188.318ZM493.255 184.866C493.516 184.866 493.746 184.814 493.948 184.71C494.151 184.606 494.311 184.46 494.427 184.273C494.543 184.086 494.602 183.867 494.605 183.616C494.602 183.37 494.544 183.156 494.431 182.974C494.317 182.789 494.16 182.647 493.958 182.548C493.757 182.446 493.523 182.395 493.255 182.395C492.983 182.395 492.745 182.446 492.541 182.548C492.338 182.647 492.18 182.789 492.069 182.974C491.958 183.156 491.903 183.37 491.906 183.616C491.903 183.867 491.959 184.086 492.073 184.273C492.189 184.46 492.349 184.606 492.552 184.71C492.756 184.814 492.99 184.866 493.255 184.866ZM502.812 181.727H503.693V186.926C503.693 187.39 503.608 187.784 503.437 188.109C503.267 188.433 503.026 188.679 502.716 188.847C502.406 189.015 502.04 189.099 501.619 189.099C501.221 189.099 500.867 189.027 500.557 188.883C500.247 188.736 500.003 188.528 499.826 188.258C499.648 187.988 499.559 187.667 499.559 187.295H500.426C500.426 187.501 500.477 187.681 500.579 187.835C500.683 187.987 500.825 188.105 501.005 188.19C501.185 188.276 501.389 188.318 501.619 188.318C501.872 188.318 502.088 188.265 502.265 188.158C502.443 188.052 502.578 187.896 502.67 187.69C502.765 187.481 502.812 187.227 502.812 186.926V181.727ZM508.782 186.77V183.545H509.62V189H508.782V188.077H508.725C508.597 188.354 508.398 188.589 508.128 188.783C507.858 188.975 507.517 189.071 507.106 189.071C506.765 189.071 506.462 188.996 506.196 188.847C505.931 188.696 505.723 188.469 505.571 188.165C505.42 187.86 505.344 187.475 505.344 187.011V183.545H506.182V186.955C506.182 187.352 506.294 187.67 506.516 187.906C506.741 188.143 507.027 188.261 507.375 188.261C507.584 188.261 507.796 188.208 508.011 188.102C508.229 187.995 508.411 187.832 508.558 187.612C508.707 187.391 508.782 187.111 508.782 186.77ZM511.993 181.727V189H511.155V181.727H511.993Z" fill="#6C757D"/>
<path d="M83.4678 118L228.654 95" stroke="#407FFF" stroke-width="3"/>
<path opacity="0.2" d="M228 95L83 118.17V163H228V95Z" fill="url(#paint0_linear_496_40451)"/>
<line x1="276" y1="207" x2="276" y2="7" stroke="#6C757D" stroke-width="2" stroke-dasharray="4 2"/>
<path d="M228.654 95L501.945 50" stroke="#ADB5BD" stroke-width="3"/>
<path opacity="0.2" d="M504 50L229 95V163H504V50Z" fill="url(#paint1_linear_496_40451)"/>
<line opacity="0.4" x1="135.5" y1="175" x2="135.5" y2="109" stroke="#343A40" stroke-dasharray="4 2"/>
<line opacity="0.4" x1="227.5" y1="175" x2="227.5" y2="97" stroke="#343A40" stroke-dasharray="4 2"/>
<line opacity="0.4" x1="319.5" y1="175" x2="319.5" y2="80" stroke="#343A40" stroke-dasharray="4 2"/>
<line opacity="0.4" x1="411.5" y1="175" x2="411.5" y2="66" stroke="#343A40" stroke-dasharray="4 2"/>
<line opacity="0.4" x1="503.5" y1="175" x2="503.5" y2="49" stroke="#343A40" stroke-dasharray="4 2"/>
<rect width="20" height="20" transform="translate(126 100)" fill="white" fill-opacity="0.01"/>
<rect x="125" y="99" width="22" height="22" rx="11" fill="#407FFF"/>
<path d="M132.331 113.167L131.314 112.699C131.314 112.513 131.362 112.321 131.458 112.123C131.554 111.919 131.689 111.715 131.863 111.511C132.043 111.307 132.253 111.115 132.493 110.935L133.591 110.143C133.729 110.047 133.855 109.936 133.969 109.81C134.089 109.684 134.185 109.552 134.257 109.414C134.329 109.27 134.365 109.129 134.365 108.991C134.365 108.817 134.32 108.658 134.23 108.514C134.146 108.37 134.023 108.256 133.861 108.172C133.705 108.088 133.513 108.046 133.285 108.046C133.081 108.046 132.898 108.088 132.736 108.172C132.58 108.25 132.451 108.355 132.349 108.487C132.247 108.619 132.175 108.763 132.133 108.919L131.062 108.721C131.122 108.433 131.248 108.166 131.44 107.92C131.638 107.668 131.89 107.467 132.196 107.317C132.508 107.167 132.862 107.092 133.258 107.092C133.702 107.092 134.086 107.173 134.41 107.335C134.74 107.497 134.992 107.722 135.166 108.01C135.346 108.292 135.436 108.616 135.436 108.982C135.436 109.354 135.334 109.69 135.13 109.99C134.932 110.284 134.653 110.566 134.293 110.836L133.285 111.583C133.117 111.703 132.958 111.841 132.808 111.997C132.664 112.147 132.547 112.318 132.457 112.51C132.373 112.702 132.331 112.921 132.331 113.167ZM131.314 113.5V112.699L132.088 112.573H135.517V113.5H131.314ZM138.597 113.608C138.321 113.608 138.039 113.566 137.751 113.482C137.469 113.392 137.208 113.26 136.968 113.086C136.728 112.906 136.545 112.681 136.419 112.411L137.346 112.069C137.502 112.291 137.685 112.453 137.895 112.555C138.105 112.651 138.321 112.699 138.543 112.699C138.897 112.699 139.185 112.594 139.407 112.384C139.629 112.168 139.74 111.883 139.74 111.529C139.74 111.187 139.632 110.905 139.416 110.683C139.2 110.461 138.918 110.35 138.57 110.35C138.366 110.35 138.174 110.395 137.994 110.485C137.82 110.575 137.685 110.683 137.589 110.809L136.644 110.602L136.995 107.2H140.478V108.145H137.121L136.995 107.236H138.03L137.598 110.683L136.959 110.602C137.031 110.482 137.124 110.362 137.238 110.242C137.358 110.116 137.502 109.999 137.67 109.891C137.838 109.783 138.024 109.696 138.228 109.63C138.432 109.564 138.654 109.534 138.894 109.54C139.254 109.54 139.578 109.624 139.866 109.792C140.154 109.96 140.382 110.191 140.55 110.485C140.718 110.773 140.802 111.106 140.802 111.484C140.802 111.904 140.706 112.273 140.514 112.591C140.328 112.909 140.07 113.158 139.74 113.338C139.41 113.518 139.029 113.608 138.597 113.608Z" fill="white"/>
<rect x="125" y="99" width="22" height="22" rx="11" stroke="white" stroke-width="2"/>
<line x1="228.357" y1="94.5431" x2="277.357" y2="106.543" stroke="#FFC107" stroke-width="3"/>
<rect width="24" height="24" transform="translate(265 95)" fill="white" fill-opacity="0.01"/>
<rect x="265" y="95" width="24" height="24" rx="12" fill="#FFCD39"/>
<path d="M273.558 111.144C273.062 111.144 272.614 111.072 272.214 110.928C271.814 110.776 271.478 110.564 271.206 110.292C270.942 110.012 270.758 109.684 270.654 109.308L272.166 108.864C272.222 108.96 272.298 109.08 272.394 109.224C272.49 109.36 272.622 109.476 272.79 109.572C272.958 109.668 273.178 109.716 273.45 109.716C273.85 109.716 274.166 109.608 274.398 109.392C274.638 109.168 274.758 108.88 274.758 108.528C274.758 108.288 274.698 108.076 274.578 107.892C274.458 107.708 274.262 107.568 273.99 107.472C273.726 107.368 273.378 107.316 272.946 107.316H272.442V106.2H272.886C273.366 106.2 273.818 106.26 274.242 106.38C274.666 106.492 275.038 106.66 275.358 106.884C275.686 107.1 275.942 107.364 276.126 107.676C276.31 107.98 276.402 108.328 276.402 108.72C276.402 109.224 276.27 109.66 276.006 110.028C275.742 110.388 275.394 110.664 274.962 110.856C274.53 111.048 274.062 111.144 273.558 111.144ZM272.442 107.016V105.972H272.946C273.506 105.972 273.922 105.876 274.194 105.684C274.466 105.492 274.602 105.228 274.602 104.892C274.602 104.7 274.554 104.528 274.458 104.376C274.362 104.224 274.226 104.104 274.05 104.016C273.874 103.928 273.67 103.884 273.438 103.884C273.286 103.884 273.13 103.912 272.97 103.968C272.81 104.016 272.662 104.1 272.526 104.22C272.398 104.332 272.294 104.496 272.214 104.712L270.726 104.268C270.838 103.876 271.03 103.548 271.302 103.284C271.582 103.012 271.914 102.808 272.298 102.672C272.682 102.528 273.078 102.456 273.486 102.456C274.006 102.456 274.474 102.556 274.89 102.756C275.306 102.948 275.634 103.216 275.874 103.56C276.114 103.904 276.234 104.3 276.234 104.748C276.234 105.132 276.142 105.464 275.958 105.744C275.774 106.024 275.522 106.26 275.202 106.452C274.89 106.644 274.534 106.788 274.134 106.884C273.734 106.972 273.318 107.016 272.886 107.016H272.442ZM280.442 111.144C279.874 111.144 279.39 111.044 278.99 110.844C278.598 110.636 278.274 110.352 278.018 109.992C277.77 109.632 277.586 109.216 277.466 108.744C277.354 108.264 277.298 107.748 277.298 107.196C277.298 106.556 277.366 105.952 277.502 105.384C277.638 104.808 277.842 104.3 278.114 103.86C278.394 103.42 278.75 103.076 279.182 102.828C279.614 102.58 280.134 102.456 280.742 102.456C281.182 102.456 281.61 102.52 282.026 102.648C282.45 102.776 282.83 102.96 283.166 103.2L282.35 104.4C282.102 104.224 281.834 104.096 281.546 104.016C281.266 103.936 281.006 103.896 280.766 103.896C280.15 103.896 279.666 104.168 279.314 104.712C278.962 105.256 278.794 106.116 278.81 107.292L278.486 107.064C278.67 106.624 278.954 106.272 279.338 106.008C279.722 105.744 280.178 105.612 280.706 105.612C281.242 105.612 281.714 105.736 282.122 105.984C282.538 106.232 282.862 106.572 283.094 107.004C283.334 107.428 283.454 107.904 283.454 108.432C283.454 108.952 283.33 109.42 283.082 109.836C282.834 110.244 282.482 110.564 282.026 110.796C281.578 111.028 281.05 111.144 280.442 111.144ZM280.442 109.752C280.706 109.752 280.942 109.692 281.15 109.572C281.358 109.452 281.522 109.288 281.642 109.08C281.762 108.872 281.822 108.632 281.822 108.36C281.822 108.088 281.762 107.848 281.642 107.64C281.522 107.424 281.358 107.256 281.15 107.136C280.942 107.008 280.706 106.944 280.442 106.944C280.178 106.944 279.938 107.008 279.722 107.136C279.514 107.256 279.35 107.424 279.23 107.64C279.11 107.848 279.05 108.088 279.05 108.36C279.05 108.632 279.11 108.872 279.23 109.08C279.35 109.288 279.514 109.452 279.722 109.572C279.938 109.692 280.178 109.752 280.442 109.752Z" fill="#212529"/>
<rect x="263" y="93" width="28" height="28" rx="14" stroke="#FFC107" stroke-opacity="0.32" stroke-width="4"/>
<rect width="20" height="20" transform="translate(218 85)" fill="white" fill-opacity="0.01"/>
<rect x="217" y="84" width="22" height="22" rx="11" fill="#407FFF"/>
<path d="M225.126 98.608C224.85 98.608 224.568 98.566 224.28 98.482C223.998 98.392 223.737 98.26 223.497 98.086C223.257 97.906 223.074 97.681 222.948 97.411L223.875 97.069C224.031 97.291 224.214 97.453 224.424 97.555C224.634 97.651 224.85 97.699 225.072 97.699C225.426 97.699 225.714 97.594 225.936 97.384C226.158 97.168 226.269 96.883 226.269 96.529C226.269 96.187 226.161 95.905 225.945 95.683C225.729 95.461 225.447 95.35 225.099 95.35C224.895 95.35 224.703 95.395 224.523 95.485C224.349 95.575 224.214 95.683 224.118 95.809L223.173 95.602L223.524 92.2H227.007V93.145H223.65L223.524 92.236H224.559L224.127 95.683L223.488 95.602C223.56 95.482 223.653 95.362 223.767 95.242C223.887 95.116 224.031 94.999 224.199 94.891C224.367 94.783 224.553 94.696 224.757 94.63C224.961 94.564 225.183 94.534 225.423 94.54C225.783 94.54 226.107 94.624 226.395 94.792C226.683 94.96 226.911 95.191 227.079 95.485C227.247 95.773 227.331 96.106 227.331 96.484C227.331 96.904 227.235 97.273 227.043 97.591C226.857 97.909 226.599 98.158 226.269 98.338C225.939 98.518 225.558 98.608 225.126 98.608ZM230.599 98.608C230.107 98.608 229.669 98.47 229.285 98.194C228.901 97.912 228.598 97.528 228.376 97.042C228.16 96.55 228.052 95.986 228.052 95.35C228.052 94.714 228.16 94.153 228.376 93.667C228.598 93.175 228.898 92.791 229.276 92.515C229.66 92.233 230.101 92.092 230.599 92.092C231.097 92.092 231.538 92.233 231.922 92.515C232.306 92.791 232.606 93.175 232.822 93.667C233.044 94.153 233.155 94.714 233.155 95.35C233.155 95.986 233.044 96.55 232.822 97.042C232.606 97.528 232.306 97.912 231.922 98.194C231.544 98.47 231.103 98.608 230.599 98.608ZM230.608 97.663C230.902 97.663 231.163 97.564 231.391 97.366C231.625 97.168 231.805 96.895 231.931 96.547C232.063 96.199 232.129 95.8 232.129 95.35C232.129 94.9 232.063 94.501 231.931 94.153C231.805 93.799 231.625 93.523 231.391 93.325C231.163 93.127 230.899 93.028 230.599 93.028C230.299 93.028 230.035 93.127 229.807 93.325C229.579 93.523 229.399 93.796 229.267 94.144C229.141 94.492 229.078 94.894 229.078 95.35C229.078 95.8 229.141 96.199 229.267 96.547C229.399 96.895 229.579 97.168 229.807 97.366C230.041 97.564 230.308 97.663 230.608 97.663Z" fill="white"/>
<rect x="217" y="84" width="22" height="22" rx="11" stroke="white" stroke-width="2"/>
<rect width="20" height="20" transform="translate(310 70)" fill="white" fill-opacity="0.01"/>
<rect x="309" y="69" width="22" height="22" rx="11" fill="#ADB5BD"/>
<path d="M317.496 83.608C317.07 83.608 316.707 83.53 316.407 83.374C316.113 83.212 315.876 82.996 315.696 82.726C315.516 82.45 315.384 82.132 315.3 81.772C315.216 81.406 315.174 81.016 315.174 80.602C315.174 80.098 315.225 79.633 315.327 79.207C315.435 78.781 315.594 78.409 315.804 78.091C316.014 77.773 316.275 77.527 316.587 77.353C316.905 77.179 317.274 77.092 317.694 77.092C318.018 77.092 318.336 77.143 318.648 77.245C318.966 77.341 319.248 77.476 319.494 77.65L318.954 78.406C318.768 78.274 318.564 78.175 318.342 78.109C318.126 78.043 317.925 78.01 317.739 78.01C317.217 78.01 316.812 78.235 316.524 78.685C316.242 79.135 316.113 79.834 316.137 80.782L315.921 80.62C316.059 80.278 316.278 80.005 316.578 79.801C316.878 79.591 317.235 79.486 317.649 79.486C318.051 79.486 318.408 79.579 318.72 79.765C319.032 79.945 319.275 80.194 319.449 80.512C319.623 80.824 319.71 81.181 319.71 81.583C319.71 81.973 319.617 82.321 319.431 82.627C319.251 82.933 318.993 83.173 318.657 83.347C318.327 83.521 317.94 83.608 317.496 83.608ZM317.505 82.717C317.727 82.717 317.925 82.666 318.099 82.564C318.279 82.462 318.42 82.324 318.522 82.15C318.624 81.97 318.675 81.766 318.675 81.538C318.675 81.31 318.624 81.106 318.522 80.926C318.42 80.746 318.279 80.608 318.099 80.512C317.925 80.41 317.727 80.359 317.505 80.359C317.277 80.359 317.073 80.41 316.893 80.512C316.719 80.608 316.581 80.746 316.479 80.926C316.377 81.106 316.326 81.31 316.326 81.538C316.326 81.766 316.377 81.97 316.479 82.15C316.581 82.324 316.719 82.462 316.893 82.564C317.073 82.666 317.277 82.717 317.505 82.717ZM322.61 83.608C322.334 83.608 322.052 83.566 321.764 83.482C321.482 83.392 321.221 83.26 320.981 83.086C320.741 82.906 320.558 82.681 320.432 82.411L321.359 82.069C321.515 82.291 321.698 82.453 321.908 82.555C322.118 82.651 322.334 82.699 322.556 82.699C322.91 82.699 323.198 82.594 323.42 82.384C323.642 82.168 323.753 81.883 323.753 81.529C323.753 81.187 323.645 80.905 323.429 80.683C323.213 80.461 322.931 80.35 322.583 80.35C322.379 80.35 322.187 80.395 322.007 80.485C321.833 80.575 321.698 80.683 321.602 80.809L320.657 80.602L321.008 77.2H324.491V78.145H321.134L321.008 77.236H322.043L321.611 80.683L320.972 80.602C321.044 80.482 321.137 80.362 321.251 80.242C321.371 80.116 321.515 79.999 321.683 79.891C321.851 79.783 322.037 79.696 322.241 79.63C322.445 79.564 322.667 79.534 322.907 79.54C323.267 79.54 323.591 79.624 323.879 79.792C324.167 79.96 324.395 80.191 324.563 80.485C324.731 80.773 324.815 81.106 324.815 81.484C324.815 81.904 324.719 82.273 324.527 82.591C324.341 82.909 324.083 83.158 323.753 83.338C323.423 83.518 323.042 83.608 322.61 83.608Z" fill="white"/>
<rect x="309" y="69" width="22" height="22" rx="11" stroke="white" stroke-width="2"/>
<rect width="20" height="20" transform="translate(402 55)" fill="white" fill-opacity="0.01"/>
<rect x="401" y="54" width="22" height="22" rx="11" fill="#ADB5BD"/>
<path d="M409 62.092C409.432 62.092 409.795 62.173 410.089 62.335C410.383 62.491 410.62 62.707 410.8 62.983C410.986 63.259 411.118 63.577 411.196 63.937C411.28 64.297 411.322 64.684 411.322 65.098C411.322 65.602 411.268 66.07 411.16 66.502C411.058 66.928 410.902 67.3 410.692 67.618C410.488 67.93 410.227 68.173 409.909 68.347C409.597 68.521 409.228 68.608 408.802 68.608C408.478 68.608 408.16 68.56 407.848 68.464C407.536 68.368 407.254 68.23 407.002 68.05L407.542 67.294C407.728 67.426 407.929 67.525 408.145 67.591C408.367 67.657 408.571 67.69 408.757 67.69C409.279 67.69 409.684 67.465 409.972 67.015C410.26 66.565 410.392 65.866 410.368 64.918L410.584 65.08C410.44 65.422 410.218 65.698 409.918 65.908C409.618 66.112 409.261 66.214 408.847 66.214C408.445 66.214 408.088 66.124 407.776 65.944C407.47 65.758 407.227 65.509 407.047 65.197C406.873 64.879 406.786 64.522 406.786 64.126C406.786 63.73 406.876 63.379 407.056 63.073C407.242 62.767 407.5 62.527 407.83 62.353C408.166 62.179 408.556 62.092 409 62.092ZM408.991 62.992C408.769 62.992 408.568 63.043 408.388 63.145C408.214 63.241 408.076 63.379 407.974 63.559C407.878 63.733 407.83 63.934 407.83 64.162C407.83 64.39 407.878 64.594 407.974 64.774C408.076 64.954 408.214 65.095 408.388 65.197C408.568 65.299 408.769 65.35 408.991 65.35C409.225 65.35 409.429 65.299 409.603 65.197C409.783 65.095 409.921 64.954 410.017 64.774C410.119 64.594 410.17 64.39 410.17 64.162C410.17 63.934 410.119 63.733 410.017 63.559C409.921 63.379 409.783 63.241 409.603 63.145C409.429 63.043 409.225 62.992 408.991 62.992ZM414.582 68.608C414.09 68.608 413.652 68.47 413.268 68.194C412.884 67.912 412.581 67.528 412.359 67.042C412.143 66.55 412.035 65.986 412.035 65.35C412.035 64.714 412.143 64.153 412.359 63.667C412.581 63.175 412.881 62.791 413.259 62.515C413.643 62.233 414.084 62.092 414.582 62.092C415.08 62.092 415.521 62.233 415.905 62.515C416.289 62.791 416.589 63.175 416.805 63.667C417.027 64.153 417.138 64.714 417.138 65.35C417.138 65.986 417.027 66.55 416.805 67.042C416.589 67.528 416.289 67.912 415.905 68.194C415.527 68.47 415.086 68.608 414.582 68.608ZM414.591 67.663C414.885 67.663 415.146 67.564 415.374 67.366C415.608 67.168 415.788 66.895 415.914 66.547C416.046 66.199 416.112 65.8 416.112 65.35C416.112 64.9 416.046 64.501 415.914 64.153C415.788 63.799 415.608 63.523 415.374 63.325C415.146 63.127 414.882 63.028 414.582 63.028C414.282 63.028 414.018 63.127 413.79 63.325C413.562 63.523 413.382 63.796 413.25 64.144C413.124 64.492 413.061 64.894 413.061 65.35C413.061 65.8 413.124 66.199 413.25 66.547C413.382 66.895 413.562 67.168 413.79 67.366C414.024 67.564 414.291 67.663 414.591 67.663Z" fill="white"/>
<rect x="401" y="54" width="22" height="22" rx="11" stroke="white" stroke-width="2"/>
<rect width="20" height="20" transform="translate(494 39)" fill="white" fill-opacity="0.01"/>
<rect x="493" y="38" width="22" height="22" rx="11" fill="#ADB5BD"/>
<path d="M498.141 52.5L498.15 46.758L498.249 46.2H499.158L499.149 52.5H498.141ZM496.782 48.045V47.1C496.92 47.106 497.076 47.067 497.25 46.983C497.43 46.893 497.607 46.776 497.781 46.632C497.955 46.488 498.111 46.341 498.249 46.191L498.897 46.866C498.687 47.088 498.468 47.292 498.24 47.478C498.012 47.664 497.775 47.808 497.529 47.91C497.289 48.012 497.04 48.057 496.782 48.045ZM502.982 52.608C502.49 52.608 502.052 52.47 501.668 52.194C501.284 51.912 500.981 51.528 500.759 51.042C500.543 50.55 500.435 49.986 500.435 49.35C500.435 48.714 500.543 48.153 500.759 47.667C500.981 47.175 501.281 46.791 501.659 46.515C502.043 46.233 502.484 46.092 502.982 46.092C503.48 46.092 503.921 46.233 504.305 46.515C504.689 46.791 504.989 47.175 505.205 47.667C505.427 48.153 505.538 48.714 505.538 49.35C505.538 49.986 505.427 50.55 505.205 51.042C504.989 51.528 504.689 51.912 504.305 52.194C503.927 52.47 503.486 52.608 502.982 52.608ZM502.991 51.663C503.285 51.663 503.546 51.564 503.774 51.366C504.008 51.168 504.188 50.895 504.314 50.547C504.446 50.199 504.512 49.8 504.512 49.35C504.512 48.9 504.446 48.501 504.314 48.153C504.188 47.799 504.008 47.523 503.774 47.325C503.546 47.127 503.282 47.028 502.982 47.028C502.682 47.028 502.418 47.127 502.19 47.325C501.962 47.523 501.782 47.796 501.65 48.144C501.524 48.492 501.461 48.894 501.461 49.35C501.461 49.8 501.524 50.199 501.65 50.547C501.782 50.895 501.962 51.168 502.19 51.366C502.424 51.564 502.691 51.663 502.991 51.663ZM508.783 52.608C508.291 52.608 507.853 52.47 507.469 52.194C507.085 51.912 506.782 51.528 506.56 51.042C506.344 50.55 506.236 49.986 506.236 49.35C506.236 48.714 506.344 48.153 506.56 47.667C506.782 47.175 507.082 46.791 507.46 46.515C507.844 46.233 508.285 46.092 508.783 46.092C509.281 46.092 509.722 46.233 510.106 46.515C510.49 46.791 510.79 47.175 511.006 47.667C511.228 48.153 511.339 48.714 511.339 49.35C511.339 49.986 511.228 50.55 511.006 51.042C510.79 51.528 510.49 51.912 510.106 52.194C509.728 52.47 509.287 52.608 508.783 52.608ZM508.792 51.663C509.086 51.663 509.347 51.564 509.575 51.366C509.809 51.168 509.989 50.895 510.115 50.547C510.247 50.199 510.313 49.8 510.313 49.35C510.313 48.9 510.247 48.501 510.115 48.153C509.989 47.799 509.809 47.523 509.575 47.325C509.347 47.127 509.083 47.028 508.783 47.028C508.483 47.028 508.219 47.127 507.991 47.325C507.763 47.523 507.583 47.796 507.451 48.144C507.325 48.492 507.262 48.894 507.262 49.35C507.262 49.8 507.325 50.199 507.451 50.547C507.583 50.895 507.763 51.168 507.991 51.366C508.225 51.564 508.492 51.663 508.792 51.663Z" fill="white"/>
<rect x="493" y="38" width="22" height="22" rx="11" stroke="white" stroke-width="2"/>
<path d="M13 128.199L4.6 124.767L4.6 123.699L13 127.179L13 128.199ZM13 128.307L4.6 131.787L4.6 130.719L13 127.299L13 128.307ZM13 117.154L4.6 120.526L4.6 119.506L13 116.086L13 117.154ZM13 123.982L4.6 120.562L4.6 119.53L13 122.902L13 123.982ZM10.612 122.362L9.7 122.362L9.7 117.694L10.612 117.694L10.612 122.362ZM13 114.853L4.6 114.853L4.6 113.833L13 113.833L13 114.853ZM13 114.001L12.076 114.001L12.076 109.873L13 109.873L13 114.001ZM13.18 105.522C13.18 106.154 13.048 106.714 12.784 107.202C12.512 107.682 12.14 108.058 11.668 108.33C11.188 108.602 10.636 108.738 10.012 108.738L10.012 107.718C10.452 107.718 10.844 107.626 11.188 107.442C11.524 107.25 11.788 106.986 11.98 106.65C12.164 106.314 12.256 105.93 12.256 105.498C12.256 105.058 12.164 104.67 11.98 104.334C11.788 103.99 11.524 103.726 11.188 103.542C10.844 103.35 10.452 103.254 10.012 103.254L10.012 102.246C10.636 102.246 11.188 102.382 11.668 102.654C12.14 102.926 12.512 103.31 12.784 103.806C13.048 104.302 13.18 104.874 13.18 105.522ZM10.012 108.738L4.6 108.738L4.6 107.718L10.012 107.718L10.012 108.738ZM10.012 103.254L4.6 103.254L4.6 102.246L10.012 102.246L10.012 103.254ZM13 100.134L4.6 100.134L4.6 99.114L13 99.114L13 100.134ZM13 99.234L12.076 99.234L12.076 95.142L13 95.142L13 99.234ZM9.148 99.234L8.236 99.234L8.236 95.514L9.148 95.514L9.148 99.234ZM5.524 99.234L4.6 99.234L4.6 95.166L5.524 95.166L5.524 99.234ZM13 90.3436L4.6 90.3436L4.6 89.3836L11.884 89.3836L13 89.4316L13 90.3436ZM13.144 87.3556C13.144 87.8596 13.012 88.3036 12.748 88.6876C12.484 89.0636 12.116 89.3556 11.644 89.5636C11.164 89.7716 10.616 89.8756 10 89.8756C9.376 89.8756 8.828 89.7716 8.356 89.5636C7.884 89.3556 7.516 89.0636 7.252 88.6876C6.988 88.3036 6.856 87.8596 6.856 87.3556C6.856 86.8196 6.988 86.3476 7.252 85.9396C7.516 85.5316 7.884 85.2156 8.356 84.9916C8.828 84.7596 9.376 84.6436 10 84.6436C10.616 84.6436 11.164 84.7596 11.644 84.9916C12.116 85.2156 12.484 85.5316 12.748 85.9396C13.012 86.3476 13.144 86.8196 13.144 87.3556ZM12.268 87.5716C12.268 87.1956 12.172 86.8636 11.98 86.5756C11.788 86.2796 11.52 86.0476 11.176 85.8796C10.832 85.7036 10.44 85.6156 10 85.6156C9.56 85.6156 9.168 85.6996 8.824 85.8676C8.48 86.0276 8.212 86.2556 8.02 86.5516C7.828 86.8476 7.732 87.1836 7.732 87.5596C7.732 87.9116 7.828 88.2276 8.02 88.5076C8.212 88.7796 8.48 88.9956 8.824 89.1556C9.168 89.3076 9.56 89.3836 10 89.3836C10.44 89.3836 10.832 89.3076 11.176 89.1556C11.52 88.9956 11.788 88.7796 11.98 88.5076C12.172 88.2356 12.268 87.9236 12.268 87.5716ZM13 79.5563L9.832 79.6523C9.36 79.6683 8.972 79.7283 8.668 79.8323C8.356 79.9363 8.124 80.0963 7.972 80.3123C7.812 80.5283 7.732 80.8163 7.732 81.1763C7.732 81.5203 7.8 81.8203 7.936 82.0763C8.072 82.3243 8.284 82.5283 8.572 82.6883L8.224 83.5403C7.944 83.3883 7.704 83.2003 7.504 82.9763C7.296 82.7523 7.136 82.4883 7.024 82.1843C6.912 81.8803 6.856 81.5403 6.856 81.1643C6.856 80.6123 6.964 80.1523 7.18 79.7843C7.396 79.4163 7.72 79.1443 8.152 78.9683C8.576 78.7843 9.108 78.6923 9.748 78.6923L13 78.6923L13 79.5563ZM13.144 81.3803C13.144 82.0923 12.984 82.6483 12.664 83.0483C12.336 83.4403 11.884 83.6363 11.308 83.6363C10.7 83.6363 10.236 83.4363 9.916 83.0363C9.588 82.6283 9.424 82.0603 9.424 81.3323L9.424 79.2203L10.228 79.2203L10.228 81.1163C10.228 81.6763 10.32 82.0763 10.504 82.3163C10.688 82.5483 10.952 82.6643 11.296 82.6643C11.608 82.6643 11.856 82.5483 12.04 82.3163C12.216 82.0843 12.304 81.7603 12.304 81.3443C12.304 80.9923 12.224 80.6883 12.064 80.4323C11.904 80.1763 11.688 79.9803 11.416 79.8443C11.136 79.7083 10.82 79.6403 10.468 79.6403L10.468 79.0523C11.284 79.0523 11.936 79.2523 12.424 79.6523C12.904 80.0523 13.144 80.6283 13.144 81.3803ZM13.144 75.0717C13.144 75.5117 13.08 75.8957 12.952 76.2237C12.816 76.5517 12.64 76.8277 12.424 77.0517C12.208 77.2677 11.972 77.4237 11.716 77.5197L11.368 76.6797C11.632 76.5437 11.848 76.3397 12.016 76.0677C12.184 75.7957 12.268 75.4957 12.268 75.1677C12.268 74.7917 12.196 74.4797 12.052 74.2317C11.9 73.9757 11.692 73.8477 11.428 73.8477C11.18 73.8477 10.98 73.9437 10.828 74.1357C10.676 74.3197 10.552 74.5917 10.456 74.9517L10.3 75.5277C10.156 76.0717 9.94 76.4957 9.652 76.7997C9.356 77.1037 9.024 77.2557 8.656 77.2557C8.088 77.2557 7.648 77.0717 7.336 76.7037C7.016 76.3277 6.856 75.7717 6.856 75.0357C6.856 74.6837 6.908 74.3637 7.012 74.0757C7.116 73.7877 7.264 73.5397 7.456 73.3317C7.64 73.1237 7.86 72.9717 8.116 72.8757L8.488 73.7157C8.216 73.8197 8.024 73.9917 7.912 74.2317C7.792 74.4717 7.732 74.7637 7.732 75.1077C7.732 75.4757 7.808 75.7637 7.96 75.9717C8.112 76.1797 8.328 76.2837 8.608 76.2837C8.768 76.2837 8.92 76.1997 9.064 76.0317C9.2 75.8557 9.312 75.5997 9.4 75.2637L9.556 74.6637C9.652 74.2717 9.796 73.9437 9.988 73.6797C10.172 73.4157 10.384 73.2157 10.624 73.0797C10.864 72.9437 11.12 72.8757 11.392 72.8757C11.752 72.8757 12.064 72.9717 12.328 73.1637C12.592 73.3557 12.796 73.6157 12.94 73.9437C13.076 74.2717 13.144 74.6477 13.144 75.0717ZM13.144 68.9299C13.144 69.5139 13.012 70.0299 12.748 70.4779C12.476 70.9179 12.104 71.2659 11.632 71.5219C11.16 71.7779 10.616 71.9059 10 71.9059C9.384 71.9059 8.84 71.7819 8.368 71.5339C7.896 71.2779 7.528 70.9259 7.264 70.4779C6.992 70.0299 6.856 69.5219 6.856 68.9539C6.856 68.3939 6.996 67.9099 7.276 67.5019C7.548 67.0939 7.932 66.7779 8.428 66.5539C8.924 66.3299 9.508 66.2179 10.18 66.2179L10.18 67.1779C9.668 67.1779 9.232 67.2459 8.872 67.3819C8.504 67.5179 8.22 67.7179 8.02 67.9819C7.82 68.2459 7.72 68.5739 7.72 68.9659C7.72 69.3579 7.816 69.7019 8.008 69.9979C8.192 70.2859 8.456 70.5099 8.8 70.6699C9.144 70.8299 9.548 70.9099 10.012 70.9099C10.468 70.9099 10.864 70.8219 11.2 70.6459C11.528 70.4699 11.788 70.2299 11.98 69.9259C12.164 69.6219 12.256 69.2739 12.256 68.8819C12.256 68.4579 12.156 68.1019 11.956 67.8139C11.756 67.5259 11.496 67.3019 11.176 67.1419L11.596 66.2899C11.908 66.4499 12.18 66.6579 12.412 66.9139C12.644 67.1619 12.824 67.4539 12.952 67.7899C13.08 68.1259 13.144 68.5059 13.144 68.9299ZM10.18 71.2579L9.352 71.2579L9.352 66.8059L10.18 66.8059L10.18 71.2579ZM13 60.5325L11.884 60.5805L4.6 60.5805L4.6 59.6205L13 59.6205L13 60.5325ZM13.144 62.6085C13.144 63.1445 13.012 63.6165 12.748 64.0245C12.484 64.4325 12.116 64.7525 11.644 64.9845C11.164 65.2085 10.616 65.3205 10 65.3205C9.376 65.3205 8.828 65.2085 8.356 64.9845C7.884 64.7525 7.516 64.4325 7.252 64.0245C6.988 63.6165 6.856 63.1445 6.856 62.6085C6.856 62.1045 6.988 61.6645 7.252 61.2885C7.516 60.9045 7.884 60.6085 8.356 60.4005C8.828 60.1925 9.376 60.0885 10 60.0885C10.616 60.0885 11.164 60.1925 11.644 60.4005C12.116 60.6085 12.484 60.9045 12.748 61.2885C13.012 61.6645 13.144 62.1045 13.144 62.6085ZM12.268 62.3925C12.268 62.0405 12.172 61.7285 11.98 61.4565C11.788 61.1845 11.52 60.9725 11.176 60.8205C10.832 60.6605 10.44 60.5805 10 60.5805C9.56 60.5805 9.168 60.6605 8.824 60.8205C8.48 60.9725 8.212 61.1845 8.02 61.4565C7.828 61.7285 7.732 62.0445 7.732 62.4045C7.732 62.7805 7.828 63.1165 8.02 63.4125C8.212 63.7005 8.48 63.9285 8.824 64.0965C9.168 64.2645 9.56 64.3485 10 64.3485C10.44 64.3485 10.832 64.2645 11.176 64.0965C11.52 63.9285 11.788 63.6965 11.98 63.4005C12.172 63.1045 12.268 62.7685 12.268 62.3925ZM13.144 52.2884C13.144 52.8724 13.012 53.3924 12.748 53.8484C12.476 54.3044 12.104 54.6604 11.632 54.9164C11.16 55.1724 10.616 55.3004 10 55.3004C9.384 55.3004 8.84 55.1764 8.368 54.9284C7.896 54.6724 7.528 54.3164 7.264 53.8604C6.992 53.4044 6.856 52.8884 6.856 52.3124C6.856 51.7204 6.992 51.2004 7.264 50.7524C7.528 50.2964 7.896 49.9444 8.368 49.6964C8.84 49.4404 9.384 49.3124 10 49.3124C10.616 49.3124 11.16 49.4404 11.632 49.6964C12.104 49.9444 12.476 50.2924 12.748 50.7404C13.012 51.1884 13.144 51.7044 13.144 52.2884ZM12.232 52.2884C12.232 51.8964 12.14 51.5524 11.956 51.2564C11.764 50.9604 11.5 50.7284 11.164 50.5604C10.828 50.3924 10.44 50.3084 10 50.3084C9.56 50.3084 9.172 50.3964 8.836 50.5724C8.5 50.7404 8.24 50.9764 8.056 51.2804C7.864 51.5764 7.768 51.9204 7.768 52.3124C7.768 52.7044 7.864 53.0484 8.056 53.3444C8.24 53.6404 8.5 53.8764 8.836 54.0524C9.172 54.2204 9.56 54.3044 10 54.3044C10.44 54.3044 10.828 54.2204 11.164 54.0524C11.5 53.8764 11.764 53.6364 11.956 53.3324C12.14 53.0284 12.232 52.6804 12.232 52.2884ZM13 47.9569L7 47.9569L7 47.0569L8.10399 46.9969L13 46.9969L13 47.9569ZM13 43.7449L9.92799 43.7449L9.56799 42.7849L13 42.7849L13 43.7449ZM9.92799 43.7449C9.33599 43.7449 8.88399 43.8129 8.57199 43.9489C8.25999 44.0849 8.04799 44.2729 7.93599 44.5129C7.816 44.7529 7.756 45.0249 7.756 45.3289C7.756 45.8569 7.944 46.2689 8.32 46.5649C8.688 46.8529 9.212 46.9969 9.892 46.9969L9.892 47.4649C9.26 47.4649 8.71599 47.3729 8.26 47.1889C7.804 47.0049 7.45599 46.7409 7.21599 46.3969C6.97599 46.0449 6.85599 45.6209 6.85599 45.1249C6.85599 44.3969 7.07999 43.8249 7.52799 43.4089C7.97599 42.9849 8.65599 42.7769 9.56799 42.7849L9.92799 43.7449ZM28.612 115.264L23.008 119.056L22.792 118.648L22.6 118.168L27.628 114.772L28.612 115.264ZM31 119.224L22.6 119.224L22.6 118.204L31 118.204L31 119.224ZM28.612 115.264L27.628 115.756L22.6 112.36L22.792 111.88L22.996 111.484L28.612 115.264ZM31 112.324L22.6 112.324L22.6 111.316L31 111.316L31 112.324ZM31.144 106.699C31.144 107.283 31.012 107.799 30.748 108.247C30.476 108.687 30.104 109.035 29.632 109.291C29.16 109.547 28.616 109.675 28 109.675C27.384 109.675 26.84 109.551 26.368 109.303C25.896 109.047 25.528 108.695 25.264 108.247C24.992 107.799 24.856 107.291 24.856 106.723C24.856 106.163 24.996 105.679 25.276 105.271C25.548 104.863 25.932 104.547 26.428 104.323C26.924 104.099 27.508 103.987 28.18 103.987L28.18 104.947C27.668 104.947 27.232 105.015 26.872 105.151C26.504 105.287 26.22 105.487 26.02 105.751C25.82 106.015 25.72 106.343 25.72 106.735C25.72 107.127 25.816 107.471 26.008 107.767C26.192 108.055 26.456 108.279 26.8 108.439C27.144 108.599 27.548 108.679 28.012 108.679C28.468 108.679 28.864 108.591 29.2 108.415C29.528 108.239 29.788 107.999 29.98 107.695C30.164 107.391 30.256 107.043 30.256 106.651C30.256 106.227 30.156 105.871 29.956 105.583C29.756 105.295 29.496 105.071 29.176 104.911L29.596 104.059C29.908 104.219 30.18 104.427 30.412 104.683C30.644 104.931 30.824 105.223 30.952 105.559C31.08 105.895 31.144 106.275 31.144 106.699ZM28.18 109.027L27.352 109.027L27.352 104.575L28.18 104.575L28.18 109.027ZM31 98.986L27.832 99.082C27.36 99.098 26.972 99.158 26.668 99.262C26.356 99.366 26.124 99.526 25.972 99.742C25.812 99.958 25.732 100.246 25.732 100.606C25.732 100.95 25.8 101.25 25.936 101.506C26.072 101.754 26.284 101.958 26.572 102.118L26.224 102.97C25.944 102.818 25.704 102.63 25.504 102.406C25.296 102.182 25.136 101.918 25.024 101.614C24.912 101.31 24.856 100.97 24.856 100.594C24.856 100.042 24.964 99.582 25.18 99.214C25.396 98.846 25.72 98.574 26.152 98.398C26.576 98.214 27.108 98.122 27.748 98.122L31 98.122L31 98.986ZM31.144 100.81C31.144 101.522 30.984 102.078 30.664 102.478C30.336 102.87 29.884 103.066 29.308 103.066C28.7 103.066 28.236 102.866 27.916 102.466C27.588 102.058 27.424 101.49 27.424 100.762L27.424 98.65L28.228 98.65L28.228 100.546C28.228 101.106 28.32 101.506 28.504 101.746C28.688 101.978 28.952 102.094 29.296 102.094C29.608 102.094 29.856 101.978 30.04 101.746C30.216 101.514 30.304 101.19 30.304 100.774C30.304 100.422 30.224 100.118 30.064 99.862C29.904 99.606 29.688 99.41 29.416 99.274C29.136 99.138 28.82 99.07 28.468 99.07L28.468 98.482C29.284 98.482 29.936 98.682 30.424 99.082C30.904 99.482 31.144 100.058 31.144 100.81ZM31.144 94.5014C31.144 94.9414 31.08 95.3254 30.952 95.6534C30.816 95.9814 30.64 96.2574 30.424 96.4814C30.208 96.6974 29.972 96.8534 29.716 96.9494L29.368 96.1094C29.632 95.9734 29.848 95.7694 30.016 95.4974C30.184 95.2254 30.268 94.9254 30.268 94.5974C30.268 94.2214 30.196 93.9094 30.052 93.6614C29.9 93.4054 29.692 93.2774 29.428 93.2774C29.18 93.2774 28.98 93.3734 28.828 93.5654C28.676 93.7494 28.552 94.0214 28.456 94.3814L28.3 94.9574C28.156 95.5014 27.94 95.9254 27.652 96.2294C27.356 96.5334 27.024 96.6854 26.656 96.6854C26.088 96.6854 25.648 96.5014 25.336 96.1334C25.016 95.7574 24.856 95.2014 24.856 94.4654C24.856 94.1134 24.908 93.7934 25.012 93.5054C25.116 93.2174 25.264 92.9694 25.456 92.7614C25.64 92.5534 25.86 92.4014 26.116 92.3054L26.488 93.1454C26.216 93.2494 26.024 93.4214 25.912 93.6614C25.792 93.9014 25.732 94.1934 25.732 94.5374C25.732 94.9054 25.808 95.1934 25.96 95.4014C26.112 95.6094 26.328 95.7134 26.608 95.7134C26.768 95.7134 26.92 95.6294 27.064 95.4614C27.2 95.2854 27.312 95.0294 27.4 94.6934L27.556 94.0934C27.652 93.7014 27.796 93.3734 27.988 93.1094C28.172 92.8454 28.384 92.6454 28.624 92.5094C28.864 92.3734 29.12 92.3054 29.392 92.3054C29.752 92.3054 30.064 92.4014 30.328 92.5934C30.592 92.7854 30.796 93.0454 30.94 93.3734C31.076 93.7014 31.144 94.0774 31.144 94.5014ZM31 86.8956L29.896 86.9556L25 86.9556L25 85.9956L31 85.9956L31 86.8956ZM28.432 91.1676L25 91.1676L25 90.2076L28.072 90.2076L28.432 91.1676ZM28.072 90.2076C28.664 90.2076 29.116 90.1396 29.428 90.0036C29.74 89.8676 29.956 89.6796 30.076 89.4396C30.188 89.1916 30.244 88.9156 30.244 88.6116C30.244 88.0916 30.056 87.6876 29.68 87.3996C29.304 87.1036 28.78 86.9556 28.108 86.9556L28.108 86.4876C28.74 86.4876 29.284 86.5796 29.74 86.7636C30.196 86.9476 30.544 87.2156 30.784 87.5676C31.024 87.9116 31.144 88.3316 31.144 88.8276C31.144 89.5556 30.92 90.1316 30.472 90.5556C30.024 90.9716 29.344 91.1756 28.432 91.1676L28.072 90.2076ZM27.748 83.7922C27.1 83.7922 26.576 83.6682 26.176 83.4202C25.768 83.1722 25.468 82.8562 25.276 82.4722C25.076 82.0802 24.976 81.6682 24.976 81.2362L25.876 81.2362C25.876 81.5882 25.936 81.9282 26.056 82.2562C26.168 82.5762 26.356 82.8402 26.62 83.0482C26.884 83.2562 27.244 83.3602 27.7 83.3602L27.748 83.7922ZM31 84.3202L25 84.3202L25 83.3602L31 83.3602L31 84.3202ZM31.144 77.6135C31.144 78.1975 31.012 78.7135 30.748 79.1615C30.476 79.6015 30.104 79.9495 29.632 80.2055C29.16 80.4615 28.616 80.5895 28 80.5895C27.384 80.5895 26.84 80.4655 26.368 80.2175C25.896 79.9615 25.528 79.6095 25.264 79.1615C24.992 78.7135 24.856 78.2055 24.856 77.6375C24.856 77.0775 24.996 76.5935 25.276 76.1855C25.548 75.7775 25.932 75.4615 26.428 75.2375C26.924 75.0135 27.508 74.9015 28.18 74.9015L28.18 75.8615C27.668 75.8615 27.232 75.9295 26.872 76.0655C26.504 76.2015 26.22 76.4015 26.02 76.6655C25.82 76.9295 25.72 77.2575 25.72 77.6495C25.72 78.0415 25.816 78.3855 26.008 78.6815C26.192 78.9695 26.456 79.1935 26.8 79.3535C27.144 79.5135 27.548 79.5935 28.012 79.5935C28.468 79.5935 28.864 79.5055 29.2 79.3295C29.528 79.1535 29.788 78.9135 29.98 78.6095C30.164 78.3055 30.256 77.9575 30.256 77.5655C30.256 77.1415 30.156 76.7855 29.956 76.4975C29.756 76.2095 29.496 75.9855 29.176 75.8255L29.596 74.9735C29.908 75.1335 30.18 75.3415 30.412 75.5975C30.644 75.8455 30.824 76.1375 30.952 76.4735C31.08 76.8095 31.144 77.1895 31.144 77.6135ZM28.18 79.9415L27.352 79.9415L27.352 75.4895L28.18 75.4895L28.18 79.9415ZM32.2 68.8552C31.712 69.2232 31.184 69.5592 30.616 69.8632C30.04 70.1672 29.432 70.4072 28.792 70.5832C28.152 70.7592 27.488 70.8472 26.8 70.8472C26.104 70.8472 25.44 70.7592 24.808 70.5832C24.168 70.4072 23.564 70.1672 22.996 69.8632C22.42 69.5592 21.888 69.2232 21.4 68.8552L21.4 67.8712C21.912 68.2392 22.46 68.5752 23.044 68.8792C23.628 69.1832 24.236 69.4232 24.868 69.5992C25.492 69.7752 26.136 69.8632 26.8 69.8632C27.456 69.8632 28.1 69.7752 28.732 69.5992C29.364 69.4232 29.972 69.1832 30.556 68.8792C31.132 68.5752 31.68 68.2392 32.2 67.8712L32.2 68.8552ZM31 66.1485L22.6 60.1845L22.6 59.0685L31 65.0685L31 66.1485ZM31.192 60.3285C31.192 60.6885 31.108 61.0125 30.94 61.3005C30.764 61.5805 30.528 61.8005 30.232 61.9605C29.928 62.1125 29.584 62.1885 29.2 62.1885C28.808 62.1885 28.464 62.1125 28.168 61.9605C27.872 61.8005 27.64 61.5805 27.472 61.3005C27.296 61.0125 27.208 60.6885 27.208 60.3285C27.208 59.9605 27.296 59.6365 27.472 59.3565C27.64 59.0765 27.872 58.8565 28.168 58.6965C28.464 58.5365 28.808 58.4565 29.2 58.4565C29.584 58.4565 29.928 58.5365 30.232 58.6965C30.528 58.8565 30.764 59.0765 30.94 59.3565C31.108 59.6365 31.192 59.9605 31.192 60.3285ZM30.352 60.3285C30.352 60.0005 30.244 59.7325 30.028 59.5245C29.812 59.3165 29.536 59.2125 29.2 59.2125C28.864 59.2125 28.588 59.3165 28.372 59.5245C28.156 59.7325 28.048 60.0005 28.048 60.3285C28.048 60.6485 28.156 60.9125 28.372 61.1205C28.588 61.3285 28.864 61.4325 29.2 61.4325C29.536 61.4325 29.812 61.3285 30.028 61.1205C30.244 60.9125 30.352 60.6485 30.352 60.3285ZM26.392 64.8765C26.392 65.2445 26.308 65.5685 26.14 65.8485C25.964 66.1285 25.728 66.3485 25.432 66.5085C25.128 66.6685 24.784 66.7485 24.4 66.7485C24.008 66.7485 23.664 66.6685 23.368 66.5085C23.072 66.3485 22.84 66.1285 22.672 65.8485C22.496 65.5685 22.408 65.2445 22.408 64.8765C22.408 64.5085 22.496 64.1845 22.672 63.9045C22.84 63.6245 23.072 63.4045 23.368 63.2445C23.664 63.0845 24.008 63.0045 24.4 63.0045C24.784 63.0045 25.128 63.0845 25.432 63.2445C25.728 63.4045 25.964 63.6245 26.14 63.9045C26.308 64.1845 26.392 64.5085 26.392 64.8765ZM25.552 64.8765C25.552 64.5485 25.444 64.2845 25.228 64.0845C25.012 63.8765 24.736 63.7725 24.4 63.7725C24.064 63.7725 23.788 63.8765 23.572 64.0845C23.356 64.2845 23.248 64.5485 23.248 64.8765C23.248 65.1965 23.356 65.4605 23.572 65.6685C23.788 65.8765 24.064 65.9805 24.4 65.9805C24.736 65.9805 25.012 65.8765 25.228 65.6685C25.444 65.4605 25.552 65.1965 25.552 64.8765ZM32.2 56.3309L32.2 57.3149C31.68 56.9389 31.132 56.6029 30.556 56.3069C29.972 56.0029 29.364 55.7629 28.732 55.5869C28.1 55.4109 27.456 55.3229 26.8 55.3229C26.136 55.3229 25.492 55.4109 24.868 55.5869C24.236 55.7629 23.628 56.0029 23.044 56.3069C22.46 56.6029 21.912 56.9389 21.4 57.3149L21.4 56.3309C21.888 55.9549 22.42 55.6189 22.996 55.3229C23.564 55.0189 24.168 54.7789 24.808 54.6029C25.44 54.4269 26.104 54.3389 26.8 54.3389C27.488 54.3389 28.152 54.4269 28.792 54.6029C29.432 54.7789 30.04 55.0189 30.616 55.3229C31.184 55.6189 31.712 55.9549 32.2 56.3309Z" fill="#6C757D"/>
<defs>
<linearGradient id="paint0_linear_496_40451" x1="155.5" y1="95" x2="155.5" y2="163" gradientUnits="userSpaceOnUse">
<stop stop-color="#0D6EFD"/>
<stop offset="1" stop-color="#0D6EFD" stop-opacity="0"/>
</linearGradient>
<linearGradient id="paint1_linear_496_40451" x1="366.5" y1="50" x2="366.5" y2="163" gradientUnits="userSpaceOnUse">
<stop stop-color="#ADB5BD"/>
<stop offset="1" stop-color="#ADB5BD" stop-opacity="0"/>
</linearGradient>
</defs>
</svg>
