<svg width="16" height="16" viewBox="0 0 16 16" fill="none" xmlns="http://www.w3.org/2000/svg">
<g clip-path="url(#clip0_1240_12664)">
<rect width="16" height="16" fill="white" fill-opacity="0.01"/>
<g clip-path="url(#clip1_1240_12664)">
<path d="M7 13.9993C7 13.9993 6 13.9993 6 12.9993C6 11.9993 7 8.99927 11 8.99927C15 8.99927 16 11.9993 16 12.9993C16 13.9993 15 13.9993 15 13.9993H7ZM11 7.99927C11.7956 7.99927 12.5587 7.6832 13.1213 7.12059C13.6839 6.55798 14 5.79492 14 4.99927C14 4.20362 13.6839 3.44056 13.1213 2.87795C12.5587 2.31534 11.7956 1.99927 11 1.99927C10.2044 1.99927 9.44129 2.31534 8.87868 2.87795C8.31607 3.44056 8 4.20362 8 4.99927C8 5.79492 8.31607 6.55798 8.87868 7.12059C9.44129 7.6832 10.2044 7.99927 11 7.99927Z" fill="#CED4DA"/>
<path fill-rule="evenodd" clip-rule="evenodd" d="M5.216 13.9993C5.06776 13.6871 4.99382 13.3448 5 12.9993C5 11.6443 5.68 10.2493 6.936 9.27927C6.30909 9.0861 5.65595 8.99164 5 8.99927C1 8.99927 0 11.9993 0 12.9993C0 13.9993 1 13.9993 1 13.9993H5.216Z" fill="#CED4DA"/>
<path d="M4.5 7.99927C5.16304 7.99927 5.79893 7.73588 6.26777 7.26703C6.73661 6.79819 7 6.16231 7 5.49927C7 4.83623 6.73661 4.20034 6.26777 3.7315C5.79893 3.26266 5.16304 2.99927 4.5 2.99927C3.83696 2.99927 3.20107 3.26266 2.73223 3.7315C2.26339 4.20034 2 4.83623 2 5.49927C2 6.16231 2.26339 6.79819 2.73223 7.26703C3.20107 7.73588 3.83696 7.99927 4.5 7.99927Z" fill="#CED4DA"/>
</g>
</g>
<defs>
<clipPath id="clip0_1240_12664">
<rect width="16" height="16" fill="white"/>
</clipPath>
<clipPath id="clip1_1240_12664">
<rect width="16" height="16" fill="white"/>
</clipPath>
</defs>
</svg>
