<svg width="48" height="48" viewBox="0 0 48 48" fill="none" xmlns="http://www.w3.org/2000/svg">
<path d="M25.789 13.1054L21.789 5.1054C21.6229 4.7732 21.3675 4.49383 21.0515 4.29859C20.7355 4.10335 20.3714 3.99996 20 4H4C3.46957 4 2.96086 4.21071 2.58579 4.58579C2.21071 4.96086 2 5.46957 2 6V14C2 14.5304 2.21071 15.0391 2.58579 15.4142C2.96086 15.7893 3.46957 16 4 16H24C24.341 16 24.6762 15.9129 24.9741 15.7469C25.2719 15.5809 25.5223 15.3415 25.7015 15.0515C25.8808 14.7615 25.9829 14.4304 25.9982 14.0898C26.0135 13.7492 25.9415 13.4103 25.789 13.1054Z" fill="#AEB8C2"/>
<path d="M44 12H2V42C2 42.5304 2.21071 43.0391 2.58579 43.4142C2.96086 43.7893 3.46957 44 4 44H44C44.5304 44 45.0391 43.7893 45.4142 43.4142C45.7893 43.0391 46 42.5304 46 42V14C46 13.4696 45.7893 12.9609 45.4142 12.5858C45.0391 12.2107 44.5304 12 44 12Z" fill="url(#paint0_linear_1240_24955)"/>
<rect x="15" y="20" width="18" height="18" rx="9" fill="#002142" fill-opacity="0.16"/>
<path d="M23.9353 32.5L23.9453 26.12L24.0553 25.5H25.0653L25.0553 32.5H23.9353ZM22.4253 27.55V26.5C22.5786 26.5067 22.7519 26.4633 22.9453 26.37C23.1453 26.27 23.3419 26.14 23.5353 25.98C23.7286 25.82 23.9019 25.6567 24.0553 25.49L24.7753 26.24C24.5419 26.4867 24.2986 26.7133 24.0453 26.92C23.7919 27.1267 23.5286 27.2867 23.2553 27.4C22.9886 27.5133 22.7119 27.5633 22.4253 27.55Z" fill="white"/>
<defs>
<linearGradient id="paint0_linear_1240_24955" x1="2" y1="12" x2="32.4432" y2="53.8595" gradientUnits="userSpaceOnUse">
<stop stop-color="#C7CED5"/>
<stop offset="1" stop-color="#E0E4E9"/>
</linearGradient>
</defs>
</svg>
