<svg width="32" height="32" viewBox="0 0 32 32" fill="none" xmlns="http://www.w3.org/2000/svg">
<g clip-path="url(#clip0_1238_24941)">
<rect width="16" height="16" transform="translate(8 8)" fill="white" fill-opacity="0.01"/>
<path fill-rule="evenodd" clip-rule="evenodd" d="M9.64494 12.6452C9.69139 12.5986 9.74656 12.5617 9.80731 12.5365C9.86805 12.5113 9.93317 12.4983 9.99894 12.4983C10.0647 12.4983 10.1298 12.5113 10.1906 12.5365C10.2513 12.5617 10.3065 12.5986 10.3529 12.6452L15.9989 18.2922L21.6449 12.6452C21.6914 12.5987 21.7466 12.5618 21.8074 12.5367C21.8681 12.5115 21.9332 12.4986 21.9989 12.4986C22.0647 12.4986 22.1298 12.5115 22.1905 12.5367C22.2513 12.5618 22.3065 12.5987 22.3529 12.6452C22.3994 12.6917 22.4363 12.7469 22.4615 12.8076C22.4866 12.8683 22.4996 12.9334 22.4996 12.9992C22.4996 13.0649 22.4866 13.13 22.4615 13.1908C22.4363 13.2515 22.3994 13.3067 22.3529 13.3532L16.3529 19.3532C16.3065 19.3997 16.2513 19.4367 16.1906 19.4619C16.1298 19.4871 16.0647 19.5001 15.9989 19.5001C15.9332 19.5001 15.8681 19.4871 15.8073 19.4619C15.7466 19.4367 15.6914 19.3997 15.6449 19.3532L9.64494 13.3532C9.59838 13.3067 9.56143 13.2516 9.53623 13.1908C9.51102 13.1301 9.49805 13.065 9.49805 12.9992C9.49805 12.9334 9.51102 12.8683 9.53623 12.8076C9.56143 12.7468 9.59838 12.6916 9.64494 12.6452Z" fill="#495057"/>
</g>
<defs>
<clipPath id="clip0_1238_24941">
<rect width="16" height="16" fill="white" transform="translate(8 8)"/>
</clipPath>
</defs>
</svg>
