<svg width="32" height="32" viewBox="0 0 32 32" fill="none" xmlns="http://www.w3.org/2000/svg">
<g clip-path="url(#clip0_1240_12547)">
<rect width="16" height="16" transform="translate(8 8)" fill="white" fill-opacity="0.01"/>
<path fill-rule="evenodd" clip-rule="evenodd" d="M15.6447 12.6452C15.6911 12.5986 15.7463 12.5617 15.807 12.5365C15.8678 12.5113 15.9329 12.4983 15.9987 12.4983C16.0644 12.4983 16.1296 12.5113 16.1903 12.5365C16.2511 12.5617 16.3062 12.5986 16.3527 12.6452L22.3527 18.6452C22.4466 18.7391 22.4993 18.8664 22.4993 18.9992C22.4993 19.132 22.4466 19.2593 22.3527 19.3532C22.2588 19.4471 22.1315 19.4998 21.9987 19.4998C21.8659 19.4998 21.7386 19.4471 21.6447 19.3532L15.9987 13.7062L10.3527 19.3532C10.2588 19.4471 10.1315 19.4998 9.99868 19.4998C9.8659 19.4998 9.73857 19.4471 9.64468 19.3532C9.55079 19.2593 9.49805 19.132 9.49805 18.9992C9.49805 18.8664 9.55079 18.7391 9.64468 18.6452L15.6447 12.6452Z" fill="#495057"/>
</g>
<defs>
<clipPath id="clip0_1240_12547">
<rect width="16" height="16" fill="white" transform="translate(8 8)"/>
</clipPath>
</defs>
</svg>
