<svg width="18" height="18" viewBox="0 0 18 18" fill="none" xmlns="http://www.w3.org/2000/svg">
<path fill-rule="evenodd" clip-rule="evenodd" d="M6.75195 3.9386C6.75195 3.49105 6.92974 3.06182 7.24621 2.74536C7.56268 2.42889 7.9919 2.2511 8.43945 2.2511H9.56445C10.012 2.2511 10.4412 2.42889 10.7577 2.74536C11.0742 3.06182 11.252 3.49105 11.252 3.9386V5.0636C11.252 5.51115 11.0742 5.94037 10.7577 6.25684C10.4412 6.57331 10.012 6.7511 9.56445 6.7511V7.8761H15.752C15.9011 7.8761 16.0442 7.93536 16.1497 8.04085C16.2552 8.14634 16.3145 8.28941 16.3145 8.4386V9.5636C16.3145 9.71278 16.2552 9.85586 16.1497 9.96135C16.0442 10.0668 15.9011 10.1261 15.752 10.1261C15.6028 10.1261 15.4597 10.0668 15.3542 9.96135C15.2487 9.85586 15.1895 9.71278 15.1895 9.5636V9.0011H9.56445V9.5636C9.56445 9.71278 9.50519 9.85586 9.3997 9.96135C9.29421 10.0668 9.15114 10.1261 9.00195 10.1261C8.85277 10.1261 8.70969 10.0668 8.60421 9.96135C8.49872 9.85586 8.43945 9.71278 8.43945 9.5636V9.0011H2.81445V9.5636C2.81445 9.71278 2.75519 9.85586 2.6497 9.96135C2.54421 10.0668 2.40114 10.1261 2.25195 10.1261C2.10277 10.1261 1.95969 10.0668 1.85421 9.96135C1.74872 9.85586 1.68945 9.71278 1.68945 9.5636V8.4386C1.68945 8.28941 1.74872 8.14634 1.85421 8.04085C1.95969 7.93536 2.10277 7.8761 2.25195 7.8761H8.43945V6.7511C7.9919 6.7511 7.56268 6.57331 7.24621 6.25684C6.92974 5.94037 6.75195 5.51115 6.75195 5.0636V3.9386ZM9.56445 5.6261C9.71364 5.6261 9.85671 5.56684 9.9622 5.46135C10.0677 5.35586 10.127 5.21278 10.127 5.0636V3.9386C10.127 3.78941 10.0677 3.64634 9.9622 3.54085C9.85671 3.43536 9.71364 3.3761 9.56445 3.3761H8.43945C8.29027 3.3761 8.14719 3.43536 8.04171 3.54085C7.93622 3.64634 7.87695 3.78941 7.87695 3.9386V5.0636C7.87695 5.21278 7.93622 5.35586 8.04171 5.46135C8.14719 5.56684 8.29027 5.6261 8.43945 5.6261H9.56445ZM0.00195312 12.9386C0.00195313 12.491 0.179743 12.0618 0.49621 11.7454C0.812678 11.4289 1.2419 11.2511 1.68945 11.2511H2.81445C3.26201 11.2511 3.69123 11.4289 4.0077 11.7454C4.32416 12.0618 4.50195 12.491 4.50195 12.9386V14.0636C4.50195 14.5112 4.32416 14.9404 4.0077 15.2568C3.69123 15.5733 3.26201 15.7511 2.81445 15.7511H1.68945C1.2419 15.7511 0.812678 15.5733 0.49621 15.2568C0.179743 14.9404 0.00195313 14.5112 0.00195312 14.0636V12.9386ZM1.68945 12.3761C1.54027 12.3761 1.39719 12.4354 1.29171 12.5409C1.18622 12.6463 1.12695 12.7894 1.12695 12.9386V14.0636C1.12695 14.2128 1.18622 14.3559 1.29171 14.4613C1.39719 14.5668 1.54027 14.6261 1.68945 14.6261H2.81445C2.96364 14.6261 3.10671 14.5668 3.2122 14.4613C3.31769 14.3559 3.37695 14.2128 3.37695 14.0636V12.9386C3.37695 12.7894 3.31769 12.6463 3.2122 12.5409C3.10671 12.4354 2.96364 12.3761 2.81445 12.3761H1.68945ZM6.75195 12.9386C6.75195 12.491 6.92974 12.0618 7.24621 11.7454C7.56268 11.4289 7.9919 11.2511 8.43945 11.2511H9.56445C10.012 11.2511 10.4412 11.4289 10.7577 11.7454C11.0742 12.0618 11.252 12.491 11.252 12.9386V14.0636C11.252 14.5112 11.0742 14.9404 10.7577 15.2568C10.4412 15.5733 10.012 15.7511 9.56445 15.7511H8.43945C7.9919 15.7511 7.56268 15.5733 7.24621 15.2568C6.92974 14.9404 6.75195 14.5112 6.75195 14.0636V12.9386ZM8.43945 12.3761C8.29027 12.3761 8.14719 12.4354 8.04171 12.5409C7.93622 12.6463 7.87695 12.7894 7.87695 12.9386V14.0636C7.87695 14.2128 7.93622 14.3559 8.04171 14.4613C8.14719 14.5668 8.29027 14.6261 8.43945 14.6261H9.56445C9.71364 14.6261 9.85671 14.5668 9.9622 14.4613C10.0677 14.3559 10.127 14.2128 10.127 14.0636V12.9386C10.127 12.7894 10.0677 12.6463 9.9622 12.5409C9.85671 12.4354 9.71364 12.3761 9.56445 12.3761H8.43945ZM13.502 12.9386C13.502 12.491 13.6797 12.0618 13.9962 11.7454C14.3127 11.4289 14.7419 11.2511 15.1895 11.2511H16.3145C16.762 11.2511 17.1912 11.4289 17.5077 11.7454C17.8242 12.0618 18.002 12.491 18.002 12.9386V14.0636C18.002 14.5112 17.8242 14.9404 17.5077 15.2568C17.1912 15.5733 16.762 15.7511 16.3145 15.7511H15.1895C14.7419 15.7511 14.3127 15.5733 13.9962 15.2568C13.6797 14.9404 13.502 14.5112 13.502 14.0636V12.9386ZM15.1895 12.3761C15.0403 12.3761 14.8972 12.4354 14.7917 12.5409C14.6862 12.6463 14.627 12.7894 14.627 12.9386V14.0636C14.627 14.2128 14.6862 14.3559 14.7917 14.4613C14.8972 14.5668 15.0403 14.6261 15.1895 14.6261H16.3145C16.4636 14.6261 16.6067 14.5668 16.7122 14.4613C16.8177 14.3559 16.877 14.2128 16.877 14.0636V12.9386C16.877 12.7894 16.8177 12.6463 16.7122 12.5409C16.6067 12.4354 16.4636 12.3761 16.3145 12.3761H15.1895Z" fill="#6C757D"/>
</svg>
