<svg width="18" height="18" viewBox="0 0 18 18" fill="none" xmlns="http://www.w3.org/2000/svg">
<path d="M10.6899 3.00709C10.6899 3.15627 10.7492 3.29935 10.8546 3.40484C10.9601 3.51032 11.1032 3.56959 11.2524 3.56959C11.4016 3.56959 11.5447 3.51032 11.6501 3.40484C11.7556 3.29935 11.8149 3.15627 11.8149 3.00709V0.949463C11.8149 0.800279 11.7556 0.657205 11.6501 0.551715C11.5447 0.446226 11.4016 0.386963 11.2524 0.386963C11.1032 0.386963 10.9601 0.446226 10.8546 0.551715C10.7492 0.657205 10.6899 0.800279 10.6899 0.949463V3.00709ZM15.7524 3.04646C15.8549 2.94037 15.9116 2.79829 15.9103 2.6508C15.909 2.50331 15.8498 2.36223 15.7455 2.25794C15.6413 2.15365 15.5002 2.09449 15.3527 2.09321C15.2052 2.09193 15.0631 2.14862 14.957 2.25109L13.5024 3.70571C13.4487 3.7576 13.4058 3.81967 13.3763 3.8883C13.3469 3.95693 13.3313 4.03074 13.3307 4.10542C13.33 4.18011 13.3443 4.25418 13.3726 4.32331C13.4008 4.39244 13.4426 4.45525 13.4954 4.50806C13.5482 4.56087 13.611 4.60264 13.6802 4.63093C13.7493 4.65921 13.8234 4.67344 13.8981 4.67279C13.9727 4.67214 14.0466 4.65662 14.1152 4.62714C14.1838 4.59766 14.2459 4.55481 14.2978 4.50109L15.7524 3.04646ZM8.20702 4.50109C8.25891 4.55481 8.32098 4.59766 8.38961 4.62714C8.45823 4.65662 8.53204 4.67214 8.60673 4.67279C8.68142 4.67344 8.75549 4.65921 8.82462 4.63093C8.89375 4.60264 8.95655 4.56087 9.00937 4.50806C9.06218 4.45525 9.10395 4.39244 9.13223 4.32331C9.16052 4.25418 9.17475 4.18011 9.1741 4.10542C9.17345 4.03074 9.15793 3.95693 9.12845 3.8883C9.09897 3.81967 9.05612 3.7576 9.0024 3.70571L7.54777 2.25109C7.44168 2.14862 7.29959 2.09193 7.15211 2.09321C7.00462 2.09449 6.86354 2.15365 6.75925 2.25794C6.65496 2.36223 6.5958 2.50331 6.59452 2.6508C6.59324 2.79829 6.64993 2.94037 6.7524 3.04646L8.20702 4.50109ZM7.5084 7.31359C7.65758 7.31359 7.80065 7.25432 7.90614 7.14884C8.01163 7.04335 8.0709 6.90027 8.0709 6.75109C8.0709 6.6019 8.01163 6.45883 7.90614 6.35334C7.80065 6.24785 7.65758 6.18859 7.5084 6.18859H5.45077C5.30159 6.18859 5.15851 6.24785 5.05302 6.35334C4.94753 6.45883 4.88827 6.6019 4.88827 6.75109C4.88827 6.90027 4.94753 7.04335 5.05302 7.14884C5.15851 7.25432 5.30159 7.31359 5.45077 7.31359H7.5084ZM17.054 7.31359C17.2032 7.31359 17.3463 7.25432 17.4518 7.14884C17.5573 7.04335 17.6165 6.90027 17.6165 6.75109C17.6165 6.6019 17.5573 6.45883 17.4518 6.35334C17.3463 6.24785 17.2032 6.18859 17.054 6.18859H14.9964C14.8472 6.18859 14.7041 6.24785 14.5986 6.35334C14.4932 6.45883 14.4339 6.6019 14.4339 6.75109C14.4339 6.90027 14.4932 7.04335 14.5986 7.14884C14.7041 7.25432 14.8472 7.31359 14.9964 7.31359H17.054ZM14.957 11.2511C15.0089 11.3048 15.071 11.3477 15.1396 11.3771C15.2082 11.4066 15.282 11.4221 15.3567 11.4228C15.4314 11.4234 15.5055 11.4092 15.5746 11.3809C15.6437 11.3526 15.7066 11.3109 15.7594 11.2581C15.8122 11.2052 15.8539 11.1424 15.8822 11.0733C15.9105 11.0042 15.9247 10.9301 15.9241 10.8554C15.9234 10.7807 15.9079 10.7069 15.8785 10.6383C15.849 10.5697 15.8061 10.5076 15.7524 10.4557L14.2978 9.00109C14.2459 8.94736 14.1838 8.90451 14.1152 8.87503C14.0466 8.84555 13.9727 8.83003 13.8981 8.82938C13.8234 8.82874 13.7493 8.84297 13.6802 8.87125C13.611 8.89953 13.5482 8.9413 13.4954 8.99412C13.4426 9.04693 13.4008 9.10973 13.3726 9.17886C13.3443 9.24799 13.33 9.32206 13.3307 9.39675C13.3313 9.47144 13.3469 9.54525 13.3763 9.61388C13.4058 9.6825 13.4487 9.74457 13.5024 9.79646L14.957 11.2511ZM10.6899 12.5527C10.6899 12.7019 10.7492 12.845 10.8546 12.9505C10.9601 13.0559 11.1032 13.1152 11.2524 13.1152C11.4016 13.1152 11.5447 13.0559 11.6501 12.9505C11.7556 12.845 11.8149 12.7019 11.8149 12.5527V10.4951C11.8149 10.3459 11.7556 10.2028 11.6501 10.0973C11.5447 9.99185 11.4016 9.93259 11.2524 9.93259C11.1032 9.93259 10.9601 9.99185 10.8546 10.0973C10.7492 10.2028 10.6899 10.3459 10.6899 10.4951V12.5527ZM12.7756 6.81859C12.8808 6.71315 12.9398 6.57034 12.9398 6.42146C12.9398 6.27258 12.8808 6.12978 12.7756 6.02434L11.9791 5.22784C11.8737 5.12239 11.7306 5.06315 11.5815 5.06315C11.4323 5.06315 11.2893 5.12239 11.1838 5.22784L9.72915 6.68359C9.62369 6.78907 9.56445 6.93212 9.56445 7.08128C9.56445 7.23043 9.62369 7.37348 9.72915 7.47896L10.5256 8.27546C10.6311 8.38092 10.7742 8.44016 10.9233 8.44016C11.0725 8.44016 11.2155 8.38092 11.321 8.27546L12.7756 6.82084V6.81859ZM9.40065 10.1936C9.50575 10.0882 9.56478 9.94534 9.56478 9.79646C9.56478 9.64758 9.50575 9.50478 9.40065 9.39934L8.60415 8.60284C8.49866 8.49739 8.35561 8.43815 8.20646 8.43815C8.0573 8.43815 7.91426 8.49739 7.80877 8.60284L0.729146 15.6836C0.623693 15.7891 0.564453 15.9321 0.564453 16.0813C0.564453 16.2304 0.623693 16.3735 0.729146 16.479L1.52565 17.2755C1.63113 17.3809 1.77418 17.4402 1.92333 17.4402C2.07249 17.4402 2.21554 17.3809 2.32102 17.2755L9.40065 10.1936Z" fill="#6C757D"/>
</svg>
