<svg width="25" height="24" viewBox="0 0 25 24" fill="none" xmlns="http://www.w3.org/2000/svg">
<path d="M12.6697 22.5011C9.8849 22.5011 7.21419 21.3949 5.24506 19.4257C3.27592 17.4566 2.16968 14.7859 2.16968 12.0011C2.16968 9.21633 3.27592 6.54561 5.24506 4.57648C7.21419 2.60735 9.8849 1.5011 12.6697 1.5011C15.4545 1.5011 18.1252 2.60735 20.0943 4.57648C22.0634 6.54561 23.1697 9.21633 23.1697 12.0011C23.1697 14.7859 22.0634 17.4566 20.0943 19.4257C18.1252 21.3949 15.4545 22.5011 12.6697 22.5011ZM12.6697 24.0011C15.8523 24.0011 18.9045 22.7368 21.155 20.4864C23.4054 18.2359 24.6697 15.1837 24.6697 12.0011C24.6697 8.8185 23.4054 5.76625 21.155 3.51582C18.9045 1.26538 15.8523 0.00109863 12.6697 0.00109863C9.48708 0.00109863 6.43483 1.26538 4.1844 3.51582C1.93396 5.76625 0.669678 8.8185 0.669678 12.0011C0.669678 15.1837 1.93396 18.2359 4.1844 20.4864C6.43483 22.7368 9.48708 24.0011 12.6697 24.0011Z" fill="#ADB5BD"/>
<path d="M12.6697 6.0011C12.8686 6.0011 13.0594 6.08012 13.2 6.22077C13.3407 6.36142 13.4197 6.55219 13.4197 6.7511V11.2511H17.9197C18.1186 11.2511 18.3094 11.3301 18.45 11.4708C18.5907 11.6114 18.6697 11.8022 18.6697 12.0011C18.6697 12.2 18.5907 12.3908 18.45 12.5314C18.3094 12.6721 18.1186 12.7511 17.9197 12.7511H13.4197V17.2511C13.4197 17.45 13.3407 17.6408 13.2 17.7814C13.0594 17.9221 12.8686 18.0011 12.6697 18.0011C12.4708 18.0011 12.28 17.9221 12.1393 17.7814C11.9987 17.6408 11.9197 17.45 11.9197 17.2511V12.7511H7.41968C7.22077 12.7511 7.03 12.6721 6.88935 12.5314C6.7487 12.3908 6.66968 12.2 6.66968 12.0011C6.66968 11.8022 6.7487 11.6114 6.88935 11.4708C7.03 11.3301 7.22077 11.2511 7.41968 11.2511H11.9197V6.7511C11.9197 6.55219 11.9987 6.36142 12.1393 6.22077C12.28 6.08012 12.4708 6.0011 12.6697 6.0011Z" fill="#ADB5BD"/>
</svg>
