<svg width="21" height="20" viewBox="0 0 21 20" fill="none" xmlns="http://www.w3.org/2000/svg">
<path d="M3.89244 4.55735C3.86716 4.29706 3.89661 4.03436 3.9789 3.78613C4.06118 3.53789 4.19449 3.30962 4.37024 3.11597C4.546 2.92232 4.76032 2.76758 4.99944 2.66169C5.23855 2.5558 5.49718 2.50109 5.75869 2.5011H8.75244C8.9182 2.5011 9.07717 2.56695 9.19438 2.68416C9.31159 2.80137 9.37744 2.96034 9.37744 3.1261V3.6036C9.37744 4.4736 8.75619 5.0811 8.28744 5.43985C8.23102 5.47994 8.18232 5.52991 8.14369 5.58735C8.13743 5.59711 8.13239 5.60761 8.12869 5.6186L8.12744 5.6261V5.62985L8.13119 5.64235C8.13619 5.65485 8.14869 5.67735 8.17619 5.7086C8.27185 5.81062 8.38649 5.89299 8.51369 5.9511C8.86494 6.1261 9.38994 6.2511 10.0024 6.2511C10.6174 6.2511 11.1424 6.1261 11.4899 5.9511C11.6176 5.89313 11.7327 5.81075 11.8287 5.7086C11.8494 5.6854 11.8659 5.65874 11.8774 5.62985V5.6186C11.8738 5.6076 11.8687 5.5971 11.8624 5.58735C11.8238 5.52991 11.7751 5.47994 11.7187 5.43985C11.2499 5.0811 10.6287 4.4736 10.6287 3.6036V3.1261C10.6287 2.96055 10.6944 2.80177 10.8113 2.6846C10.9282 2.56742 11.0869 2.50143 11.2524 2.5011H14.2462C14.5077 2.50109 14.7663 2.5558 15.0054 2.66169C15.2446 2.76758 15.4589 2.92232 15.6346 3.11597C15.8104 3.30962 15.9437 3.53789 16.026 3.78613C16.1083 4.03436 16.1377 4.29706 16.1124 4.55735L15.8087 8.1261H16.1049C16.3487 8.1261 16.6299 7.94235 16.9487 7.5261C17.2112 7.1836 17.6087 6.8761 18.1274 6.8761C18.8374 6.8761 19.3112 7.43485 19.5699 7.9536C19.8487 8.50985 20.0024 9.23485 20.0024 10.0011C20.0024 10.7673 19.8487 11.4923 19.5699 12.0486C19.3112 12.5673 18.8374 13.1261 18.1274 13.1261C17.6087 13.1261 17.2112 12.8186 16.9487 12.4761C16.6299 12.0598 16.3487 11.8761 16.1049 11.8761H15.8087L16.1124 15.4448C16.1377 15.7051 16.1083 15.9678 16.026 16.2161C15.9437 16.4643 15.8104 16.6926 15.6346 16.8862C15.4589 17.0799 15.2446 17.2346 15.0054 17.3405C14.7663 17.4464 14.5077 17.5011 14.2462 17.5011H11.2524C11.0867 17.5011 10.9277 17.4353 10.8105 17.318C10.6933 17.2008 10.6274 17.0419 10.6274 16.8761V16.3986C10.6274 15.5286 11.2487 14.9211 11.7174 14.5623C11.7739 14.5223 11.8226 14.4723 11.8612 14.4148C11.8675 14.4051 11.8725 14.3946 11.8762 14.3836L11.8774 14.3761V14.3723C11.866 14.343 11.8495 14.3159 11.8287 14.2923C11.7329 14.1908 11.6183 14.1088 11.4912 14.0511C11.1399 13.8761 10.6149 13.7511 10.0024 13.7511C9.38869 13.7511 8.86244 13.8761 8.51494 14.0511C8.38728 14.109 8.27219 14.1914 8.17619 14.2936C8.15549 14.3168 8.13899 14.3435 8.12744 14.3723V14.3761L8.12869 14.3836C8.13239 14.3946 8.13743 14.4051 8.14369 14.4148C8.16369 14.4486 8.20619 14.4998 8.28744 14.5623C8.75619 14.9211 9.37744 15.5286 9.37744 16.3986V16.8761C9.37744 17.0419 9.31159 17.2008 9.19438 17.318C9.07717 17.4353 8.9182 17.5011 8.75244 17.5011H5.75869C5.49718 17.5011 5.23855 17.4464 4.99944 17.3405C4.76032 17.2346 4.546 17.0799 4.37024 16.8862C4.19449 16.6926 4.06118 16.4643 3.9789 16.2161C3.89661 15.9678 3.86716 15.7051 3.89244 15.4448L4.19744 11.8761H3.89994C3.65619 11.8761 3.37494 12.0598 3.05619 12.4761C2.79369 12.8186 2.39619 13.1261 1.87744 13.1261C1.16744 13.1261 0.693691 12.5673 0.434941 12.0486C0.156191 11.4923 0.00244141 10.7673 0.00244141 10.0011C0.00244141 9.23485 0.156191 8.50985 0.434941 7.9536C0.693691 7.43485 1.16744 6.8761 1.87744 6.8761C2.39619 6.8761 2.79369 7.1836 3.05619 7.5261C3.37494 7.94235 3.65619 8.1261 3.89994 8.1261H4.19744L3.89244 4.55735ZM5.75869 3.7511C5.67129 3.75101 5.58484 3.76925 5.50493 3.80465C5.42502 3.84005 5.35342 3.89181 5.29476 3.9566C5.2361 4.02139 5.19167 4.09776 5.16436 4.18078C5.13705 4.26381 5.12745 4.35164 5.13619 4.4386L5.13744 4.44735L5.49994 8.69735C5.50739 8.78362 5.49683 8.8705 5.46893 8.95247C5.44103 9.03444 5.3964 9.10973 5.33787 9.17354C5.27934 9.23736 5.20819 9.28832 5.12893 9.32319C5.04967 9.35805 4.96403 9.37607 4.87744 9.3761H3.89994C3.02994 9.3761 2.42244 8.75485 2.06369 8.2861C2.0236 8.22968 1.97363 8.18098 1.91619 8.14235C1.90644 8.13607 1.89594 8.13103 1.88494 8.12735L1.87744 8.1261H1.87369C1.84435 8.13749 1.81727 8.154 1.79369 8.17485C1.69212 8.27062 1.61018 8.38525 1.55244 8.51235C1.37744 8.8636 1.25244 9.3886 1.25244 10.0011C1.25244 10.6148 1.37744 11.1411 1.55244 11.4886C1.63994 11.6636 1.72744 11.7698 1.79494 11.8273C1.81814 11.8481 1.84479 11.8646 1.87369 11.8761H1.87744L1.88494 11.8748C1.89594 11.8712 1.90644 11.8661 1.91619 11.8598C1.97363 11.8212 2.0236 11.7725 2.06369 11.7161C2.42244 11.2473 3.02994 10.6261 3.89994 10.6261H4.87744C4.96392 10.6261 5.04945 10.6441 5.12861 10.6789C5.20778 10.7137 5.27887 10.7646 5.33738 10.8282C5.39589 10.8919 5.44054 10.967 5.46853 11.0489C5.49651 11.1307 5.50721 11.2174 5.49994 11.3036L5.13744 15.5636C5.12871 15.6505 5.13827 15.7382 5.16551 15.8211C5.19275 15.9041 5.23706 15.9804 5.29559 16.0451C5.35412 16.1099 5.42556 16.1617 5.50533 16.1972C5.58509 16.2326 5.6714 16.251 5.75869 16.2511H8.10619C8.04619 16.0436 7.86244 15.8111 7.52744 15.5548C7.18494 15.2923 6.87744 14.8948 6.87744 14.3761C6.87744 13.6661 7.43619 13.1923 7.95494 12.9336C8.51119 12.6548 9.23619 12.5011 10.0024 12.5011C10.7687 12.5011 11.4937 12.6548 12.0499 12.9336C12.5687 13.1923 13.1274 13.6661 13.1274 14.3761C13.1274 14.8948 12.8199 15.2923 12.4774 15.5548C12.1424 15.8111 11.9587 16.0423 11.8987 16.2511H14.2462C14.3336 16.2512 14.42 16.2329 14.5 16.1975C14.5799 16.1621 14.6515 16.1104 14.7101 16.0456C14.7688 15.9808 14.8132 15.9044 14.8405 15.8214C14.8678 15.7384 14.8774 15.6506 14.8687 15.5636L14.8674 15.5548L14.5049 11.3048C14.4975 11.2186 14.5081 11.1317 14.536 11.0497C14.5639 10.9678 14.6085 10.8925 14.667 10.8287C14.7255 10.7648 14.7967 10.7139 14.8759 10.679C14.9552 10.6441 15.0409 10.6261 15.1274 10.6261H16.1049C16.9749 10.6261 17.5824 11.2473 17.9412 11.7161C18.0037 11.7973 18.0549 11.8398 18.0887 11.8598C18.1049 11.8698 18.1149 11.8723 18.1199 11.8748C18.1224 11.8756 18.1249 11.8761 18.1274 11.8761H18.1312C18.1605 11.8647 18.1876 11.8482 18.2112 11.8273C18.3128 11.7316 18.3947 11.6169 18.4524 11.4898C18.6274 11.1398 18.7524 10.6148 18.7524 10.0011C18.7524 9.3861 18.6274 8.8611 18.4524 8.5136C18.3945 8.38595 18.3121 8.27087 18.2099 8.17485C18.1867 8.15416 18.1601 8.13767 18.1312 8.1261H18.1274L18.1199 8.12735C18.1089 8.13105 18.0985 8.13608 18.0887 8.14235C18.0313 8.18098 17.9813 8.22968 17.9412 8.2861C17.5824 8.75485 16.9749 9.3761 16.1049 9.3761H15.1274C15.0409 9.37607 14.9552 9.35805 14.8759 9.32319C14.7967 9.28832 14.7255 9.23736 14.667 9.17354C14.6085 9.10973 14.5639 9.03444 14.536 8.95247C14.5081 8.8705 14.4975 8.78362 14.5049 8.69735L14.8674 4.4386C14.8762 4.35174 14.8666 4.26402 14.8394 4.18108C14.8121 4.09814 14.7678 4.02183 14.7093 3.95706C14.6508 3.8923 14.5793 3.84051 14.4996 3.80503C14.4198 3.76956 14.3335 3.75118 14.2462 3.7511H11.8987C11.9587 3.9586 12.1424 4.1911 12.4774 4.44735C12.8199 4.70985 13.1274 5.10735 13.1274 5.6261C13.1274 6.3361 12.5687 6.80985 12.0499 7.0686C11.4937 7.34735 10.7687 7.5011 10.0024 7.5011C9.23619 7.5011 8.51119 7.34735 7.95494 7.0686C7.43619 6.80985 6.87744 6.3361 6.87744 5.6261C6.87744 5.10735 7.18494 4.70985 7.52744 4.44735C7.86244 4.1911 8.04619 3.95985 8.10619 3.7511H5.75869Z" fill="white" fill-opacity="0.7"/>
</svg>
