<svg width="15" height="14" viewBox="0 0 15 14" fill="none" xmlns="http://www.w3.org/2000/svg">
<path d="M7.00195 13.1251C5.3775 13.1251 3.81958 12.4798 2.67092 11.3312C1.52226 10.1825 0.876953 8.62457 0.876953 7.00012C0.876953 5.37567 1.52226 3.81775 2.67092 2.66909C3.81958 1.52043 5.3775 0.875122 7.00195 0.875122C8.6264 0.875122 10.1843 1.52043 11.333 2.66909C12.4816 3.81775 13.127 5.37567 13.127 7.00012C13.127 8.62457 12.4816 10.1825 11.333 11.3312C10.1843 12.4798 8.6264 13.1251 7.00195 13.1251ZM7.00195 14.0001C8.85847 14.0001 10.6389 13.2626 11.9517 11.9499C13.2645 10.6371 14.002 8.85664 14.002 7.00012C14.002 5.14361 13.2645 3.36313 11.9517 2.05037C10.6389 0.73762 8.85847 0.00012207 7.00195 0.00012207C5.14544 0.00012207 3.36496 0.73762 2.05221 2.05037C0.739451 3.36313 0.00195313 5.14361 0.00195312 7.00012C0.00195313 8.85664 0.739451 10.6371 2.05221 11.9499C3.36496 13.2626 5.14544 14.0001 7.00195 14.0001Z" fill="#6C757D"/>
<path d="M9.6007 4.34887C9.59447 4.35491 9.58862 4.36134 9.5832 4.36812L6.54433 8.24L4.71295 6.40775C4.58855 6.29183 4.42401 6.22872 4.254 6.23172C4.08398 6.23472 3.92177 6.30359 3.80153 6.42383C3.6813 6.54406 3.61242 6.70628 3.60943 6.87629C3.60643 7.0463 3.66953 7.21084 3.78545 7.33525L6.1007 9.65137C6.16307 9.71363 6.23735 9.76269 6.31909 9.79562C6.40083 9.82855 6.48837 9.84468 6.57648 9.84305C6.66459 9.84141 6.75147 9.82205 6.83194 9.78611C6.9124 9.75018 6.98481 9.6984 7.04483 9.63387L10.5378 5.26762C10.6568 5.14279 10.7218 4.97616 10.7189 4.80376C10.7159 4.63136 10.6452 4.46704 10.5221 4.34633C10.399 4.22562 10.2333 4.15822 10.0609 4.15869C9.88847 4.15917 9.72316 4.22748 9.6007 4.34887Z" fill="#6C757D"/>
</svg>
