<svg width="21" height="20" viewBox="0 0 21 20" fill="none" xmlns="http://www.w3.org/2000/svg">
<path d="M10.2962 1.94986C10.2058 1.90171 10.1049 1.87653 10.0024 1.87653C9.89999 1.87653 9.79911 1.90171 9.70869 1.94986L0.333687 6.94986C0.233847 7.0032 0.150368 7.08266 0.0921648 7.17975C0.0339614 7.27684 0.00321838 7.38791 0.00321838 7.50111C0.00321838 7.61431 0.0339614 7.72538 0.0921648 7.82247C0.150368 7.91956 0.233847 7.99901 0.333687 8.05236L3.98744 10.0011L0.332438 11.9499C0.232597 12.0032 0.149118 12.0827 0.0909148 12.1798C0.0327114 12.2768 0.00196838 12.3879 0.00196838 12.5011C0.00196838 12.6143 0.0327114 12.7254 0.0909148 12.8225C0.149118 12.9196 0.232597 12.999 0.332438 13.0524L9.70744 18.0524C9.79786 18.1005 9.89874 18.1257 10.0012 18.1257C10.1036 18.1257 10.2045 18.1005 10.2949 18.0524L19.6699 13.0524C19.7698 12.999 19.8533 12.9196 19.9115 12.8225C19.9697 12.7254 20.0004 12.6143 20.0004 12.5011C20.0004 12.3879 19.9697 12.2768 19.9115 12.1798C19.8533 12.0827 19.7698 12.0032 19.6699 11.9499L16.0187 10.0011L19.6712 8.05236C19.771 7.99901 19.8545 7.91956 19.9127 7.82247C19.9709 7.72538 20.0017 7.61431 20.0017 7.50111C20.0017 7.38791 19.9709 7.27684 19.9127 7.17975C19.8545 7.08266 19.771 7.0032 19.6712 6.94986L10.2962 1.94986V1.94986ZM14.6899 10.7099L18.0499 12.5011L10.0024 16.7924L1.95494 12.5011L5.31494 10.7099L9.70869 13.0524C9.79911 13.1005 9.89999 13.1257 10.0024 13.1257C10.1049 13.1257 10.2058 13.1005 10.2962 13.0524L14.6899 10.7099V10.7099ZM10.0024 11.7924L1.95494 7.50111L10.0024 3.20986L18.0499 7.50111L10.0024 11.7924Z" fill="white" fill-opacity="0.7"/>
</svg>
