<svg width="20" height="21" viewBox="0 0 20 21" fill="none" xmlns="http://www.w3.org/2000/svg">
<rect y="0.74707" width="20" height="20" rx="4" fill="url(#paint0_linear_1493_23705)"/>
<g clip-path="url(#clip0_1493_23705)">
<rect width="16" height="16" transform="translate(2 2.74707)" fill="white" fill-opacity="0.01"/>
<path d="M6.35586 6.43911L5.03017 5.11342C4.84708 4.93033 4.55042 4.93033 4.36733 5.11342C4.18423 5.29652 4.18423 5.59317 4.36733 5.77627L5.69302 7.10195C5.87611 7.28505 6.17277 7.28505 6.35586 7.10195C6.53895 6.91886 6.53895 6.6222 6.35586 6.43911Z" fill="white"/>
<path d="M4.37695 10.2793H2.4707C2.21161 10.2793 2.00195 10.489 2.00195 10.748C2.00195 11.0071 2.21161 11.2168 2.4707 11.2168H4.37695C4.63605 11.2168 4.8457 11.0071 4.8457 10.748C4.8457 10.489 4.63605 10.2793 4.37695 10.2793Z" fill="white"/>
<path d="M17.5332 10.2793H15.627C15.3679 10.2793 15.1582 10.489 15.1582 10.748C15.1582 11.0071 15.3679 11.2168 15.627 11.2168H17.5332C17.7923 11.2168 18.002 11.0071 18.002 10.748C18.002 10.489 17.7923 10.2793 17.5332 10.2793Z" fill="white"/>
<path d="M15.6366 5.11342C15.4535 4.93033 15.1568 4.93033 14.9737 5.11342L13.648 6.43911C13.465 6.6222 13.465 6.91886 13.648 7.10195C13.8311 7.28505 14.1278 7.28505 14.3109 7.10195L15.6366 5.77627C15.8197 5.59317 15.8197 5.29655 15.6366 5.11342Z" fill="white"/>
<path d="M10.002 2.74805C9.74286 2.74805 9.5332 2.9577 9.5332 3.2168V5.12305C9.5332 5.38214 9.74286 5.5918 10.002 5.5918C10.261 5.5918 10.4707 5.38214 10.4707 5.12305V3.2168C10.4707 2.9577 10.261 2.74805 10.002 2.74805Z" fill="white"/>
<path d="M12.627 7.43864C11.6051 6.63239 10.2832 6.3418 8.98945 6.65117C7.48945 6.99805 6.28011 8.18864 5.91445 9.6793C5.54883 11.1793 5.9707 12.698 7.0488 13.7574C7.4332 14.1418 7.6582 14.7449 7.6582 15.3637V15.4668C7.6582 15.7293 7.86442 15.9355 8.12695 15.9355H11.877C12.1395 15.9355 12.3457 15.7293 12.3457 15.4668V15.3637C12.3457 14.7543 12.5801 14.1324 12.9926 13.7293C13.7801 12.9324 14.2207 11.873 14.2207 10.748C14.2207 9.4543 13.6395 8.24489 12.627 7.43864ZM10.002 9.3418C9.29477 9.3418 8.77995 9.81089 8.64514 10.3539C8.5838 10.6009 8.3353 10.7585 8.07705 10.6963C7.8262 10.6341 7.67283 10.3795 7.73511 10.1287C7.96736 9.1912 8.84792 8.4043 10.002 8.4043C10.261 8.4043 10.4707 8.61395 10.4707 8.87305C10.4707 9.13214 10.261 9.3418 10.002 9.3418Z" fill="white"/>
<path d="M8.12695 16.873V17.3418C8.12695 18.1172 8.75777 18.748 9.5332 18.748H10.4707C11.2461 18.748 11.877 18.1172 11.877 17.3418V16.873H8.12695Z" fill="white"/>
</g>
<defs>
<linearGradient id="paint0_linear_1493_23705" x1="1.49012e-07" y1="4.74707" x2="20" y2="19.7471" gradientUnits="userSpaceOnUse">
<stop stop-color="#6995FF"/>
<stop offset="1" stop-color="#FF64CA"/>
</linearGradient>
<clipPath id="clip0_1493_23705">
<rect width="16" height="16" fill="white" transform="translate(2 2.74707)"/>
</clipPath>
</defs>
</svg>
